<svg xmlns="http://www.w3.org/2000/svg" width="20" height="21" viewBox="0 0 20 21" fill="none">
  <path d="M6.63281 8.55566L10.0003 10.4998L13.3678 8.55566" stroke="black" stroke-width="1.25" stroke-linecap="round" stroke-linejoin="round"/>
  <path d="M9.99967 10.5V14.3917" stroke="black" stroke-width="1.25" stroke-linecap="round" stroke-linejoin="round"/>
  <path fill-rule="evenodd" clip-rule="evenodd" d="M13.4707 12.0595V8.94195C13.4707 8.66612 13.324 8.41195 13.0848 8.27362L10.3848 6.71445C10.1465 6.57695 9.85234 6.57695 9.61318 6.71445L6.91318 8.27362C6.67484 8.41112 6.52734 8.66612 6.52734 8.94195V12.0595C6.52734 12.3353 6.67401 12.5895 6.91318 12.7278L9.61318 14.287C9.85151 14.4245 10.1457 14.4245 10.3848 14.287L13.0848 12.7278C13.324 12.5895 13.4707 12.3345 13.4707 12.0595Z" stroke="black" stroke-width="1.25" stroke-linecap="round" stroke-linejoin="round"/>
  <path d="M17.2803 4.28125V6.78125H14.7803H17.2803" stroke="black" stroke-width="1.25" stroke-linecap="round" stroke-linejoin="round"/>
  <path d="M16.8318 6.78099C15.5127 4.36349 12.9485 2.72266 10.0002 2.72266C5.70432 2.72266 2.22266 6.20516 2.22266 10.5002C2.22266 14.7952 5.70432 18.2777 10.0002 18.2777C14.296 18.2777 17.7777 14.7952 17.7777 10.5002" stroke="black" stroke-width="1.25" stroke-linecap="round" stroke-linejoin="round"/>
</svg>