<svg width="40" height="39" viewBox="0 0 40 39" fill="none" xmlns="http://www.w3.org/2000/svg">
<path d="M24.1707 0.000249502L23.9554 0.0442028L20.9781 2.51428V0.804435H19.0688V2.51428L16.0457 0.0458306L15.8757 0.00187734C15.712 -0.000218145 15.5539 0.0596256 15.4339 0.169009C15.3707 0.220478 15.3204 0.285597 15.287 0.359293C15.2536 0.432989 15.2379 0.513273 15.2412 0.593892L15.2633 0.69428L15.2749 0.806063C15.3887 0.90645 15.5819 1.11862 15.8547 1.40839C16.1274 1.69815 16.4113 2.0004 16.7293 2.30211C17.0363 2.61521 17.3317 2.91691 17.6045 3.20668C17.8656 3.49699 18.0594 3.69831 18.1726 3.80955C18.3479 3.98886 18.5111 4.17918 18.6613 4.37931C18.8435 4.61373 18.9451 4.74776 18.9451 4.77001V11.8042C18.775 11.6365 18.5476 11.4357 18.2748 11.2122C18.0136 10.9892 17.7519 10.7547 17.5134 10.5067C17.2884 10.2702 17.0832 10.0161 16.8999 9.74706C16.7293 9.50125 16.6387 9.25597 16.6387 9.03241V8.95427C16.7293 8.84249 16.9225 8.6191 17.2185 8.28411C17.5134 7.94877 17.7066 7.72629 17.7861 7.61396C17.904 7.49385 18.0147 7.36701 18.1174 7.23412C18.2654 7.04365 18.3559 6.92156 18.3902 6.86512V6.77613C18.3902 6.6421 18.335 6.55257 18.2201 6.53086C18.0943 6.49708 17.964 6.4819 17.8336 6.48582H17.5835L15.4466 8.19458H15.2766L15.0717 8.0383L14.9016 7.82613V7.06644C14.9013 6.65485 14.9357 6.24394 15.0043 5.83792C15.0755 5.42844 15.1124 5.01393 15.1148 4.59854C14.7172 4.59854 14.4218 4.69893 14.2622 4.8997C14.087 5.10197 13.9488 5.33257 13.8537 5.58125C13.751 5.84931 13.6488 6.11737 13.5351 6.3952C13.4194 6.68032 13.2067 6.91718 12.9332 7.06536C12.7074 7.23512 12.4481 7.35689 12.1718 7.42295C11.898 7.49343 11.6285 7.57913 11.3645 7.67962C11.1122 7.76969 10.886 7.91867 10.7052 8.11373C10.5236 8.30311 10.4214 8.59396 10.4214 8.95101H13.3197C13.3749 8.95101 13.4787 9.02915 13.6146 9.18543C13.7292 9.29384 13.8321 9.41368 13.9216 9.54303V9.69931L13.7852 9.88923L13.5323 10.2078L13.2938 10.5089L13.1458 10.6647C13.0906 10.7189 13.021 10.8551 12.9304 11.0445C12.9641 11.0988 13.021 11.2008 13.1005 11.3348C13.1617 11.4424 13.2343 11.5433 13.317 11.636H13.5323L14.9756 10.5865L18.9434 14.4734V18.4488H14.8983L11.0233 14.6302V14.462C11.0459 14.4077 11.1481 14.2835 11.2961 14.0936C11.4551 13.8928 11.5578 13.768 11.6141 13.7137C11.6693 13.6247 11.8074 13.4343 12.0006 13.1217C11.978 13.1 11.8869 13.0105 11.7505 12.8542C11.647 12.7397 11.533 12.6349 11.4098 12.5411H11.2392L11.0233 12.7533C10.9681 12.8075 10.8074 12.9323 10.5578 13.1217C10.2961 13.323 10.1255 13.4473 10.046 13.5016C9.95541 13.4793 9.80743 13.4012 9.60424 13.278C9.38835 13.1445 9.27295 13.0436 9.27295 12.9524V10.408C8.8522 10.408 8.56784 10.4975 8.43201 10.6647C8.27732 10.8477 8.16435 11.0613 8.10071 11.2909C8.02703 11.553 7.9361 11.8102 7.8285 12.0609C7.71476 12.3295 7.48727 12.5525 7.14658 12.7533C7.09137 12.776 6.97652 12.8314 6.78271 12.9215C6.60105 12.9996 6.4078 13.1 6.1919 13.2118C5.97601 13.3236 5.77337 13.4212 5.58122 13.5243C5.37747 13.6247 5.26317 13.6806 5.24053 13.7137C5.03623 13.7919 4.93409 13.9481 4.93409 14.1717V14.7187C5.35843 14.7197 5.77899 14.6401 6.17258 14.4843C6.56849 14.3376 6.98796 14.2619 7.41107 14.2607C7.69543 14.2607 7.90028 14.2949 8.04771 14.3839C8.18354 14.462 8.34256 14.6964 8.51373 15.054C8.45851 15.1083 8.35471 15.2217 8.19568 15.3888C8.03666 15.556 7.88868 15.7242 7.72911 15.8919C7.56954 16.0595 7.42211 16.2267 7.27524 16.3943C7.18209 16.5115 7.08295 16.624 6.97818 16.7313C6.89113 16.8232 6.81482 16.9244 6.75069 17.033C6.67598 17.1228 6.6112 17.2201 6.55743 17.3233V17.5355L6.76173 17.7249L6.97818 17.9039H7.14824C7.20346 17.8817 7.34094 17.7922 7.53475 17.6359C7.72856 17.4796 7.86605 17.3792 7.92126 17.3233C8.0582 17.2115 8.31955 16.9882 8.70533 16.6532C9.09184 16.3184 9.35356 16.0839 9.48994 15.983C9.58599 16.0345 9.67709 16.0945 9.76216 16.1621C9.85049 16.2341 9.94573 16.2975 10.0465 16.3515L12.1718 18.4509H5.02298L0.637189 14.5608L0 15.429C0.398106 15.8197 0.864128 16.3113 1.40966 16.8805C1.90327 17.3997 2.34465 17.9645 2.72766 18.567H0.977319L0.853084 18.6566L0.761425 18.8237V19.9855L0.853084 20.164L0.977319 20.2422H2.72766C2.69398 20.2964 2.63711 20.4093 2.53496 20.577C2.46424 20.6852 2.39955 20.7972 2.34115 20.9123C2.2506 21.0237 2.10335 21.2024 1.89942 21.4484C1.68353 21.7056 1.445 21.9732 1.19542 22.2624C0.934252 22.5641 0.695718 22.8322 0.468229 23.0763C0.24074 23.333 0.0817194 23.5001 0.00165641 23.5783C0.101039 23.727 0.215356 23.8655 0.34289 23.9918C0.395727 24.0488 0.460901 24.0935 0.533618 24.1225C0.606335 24.1515 0.684744 24.1641 0.763082 24.1594H0.978976L5.02464 20.361H12.3866C11.989 20.7848 11.5456 21.2656 11.0686 21.8012C10.5805 22.3487 10.0576 22.684 9.48939 22.8289C9.40933 22.7746 9.2735 22.6612 9.09129 22.5158C8.89858 22.3595 8.70478 22.2032 8.51207 22.0578L7.93231 21.589C7.75065 21.4441 7.61426 21.3318 7.53475 21.2764L7.36414 21.1983L7.14824 21.1201H6.97818L6.75069 21.3215L6.55743 21.4886C6.55743 21.6004 6.62535 21.7236 6.76173 21.8684C6.81695 21.9466 6.93235 22.092 7.10241 22.2814C7.27358 22.4827 7.45524 22.684 7.6369 22.907C7.81856 23.1301 8.00022 23.3412 8.17084 23.5327C8.2923 23.668 8.40621 23.8096 8.51207 23.957C8.39833 24.236 8.27354 24.4259 8.12556 24.5371H7.44365C7.02394 24.5357 6.60533 24.4949 6.19356 24.415C5.77905 24.3287 5.35613 24.2874 4.93243 24.2918C4.93243 24.6494 5.03458 24.917 5.23888 25.0852C5.44097 25.2578 5.66798 25.4001 5.91251 25.5073C6.17368 25.6191 6.4354 25.7418 6.70762 25.8644C6.97606 25.9865 7.20442 26.1799 7.3669 26.4228C7.38953 26.477 7.44641 26.6018 7.53751 26.7804C7.61702 26.9589 7.71917 27.1602 7.83292 27.361C7.94306 27.5601 8.04168 27.7652 8.12832 27.9753C8.21943 28.1646 8.2763 28.2878 8.29894 28.3437C8.41213 28.5114 8.56011 28.6004 8.73073 28.6004H9.27626V26.0543L10.0493 25.2946C10.5611 25.6636 10.8775 25.9089 11.0266 26.0543L11.2425 26.2551H11.4131C11.8107 26.0652 12.0039 25.9425 12.0039 25.8866L11.931 25.6973L11.7831 25.4623C11.6488 25.3174 11.5238 25.1644 11.4087 25.0043C11.2038 24.7585 11.0774 24.6022 11.0222 24.5463V24.3347L15.0673 20.3702H18.9434V24.5485L15.0684 28.347H14.8983C14.7957 28.2918 14.7003 28.2244 14.6145 28.1462C14.4892 28.0344 14.3528 27.9226 14.2164 27.8108C14.0807 27.7028 13.9363 27.6057 13.7846 27.5205C13.6482 27.4315 13.5345 27.3865 13.4434 27.3865H13.3192C13.2639 27.4408 13.137 27.6209 12.9327 27.9335L13.9188 29.1034L13.953 29.1815L13.9188 29.2705C13.7932 29.4458 13.6484 29.607 13.487 29.7513C13.2938 29.9293 13.18 30.0188 13.1458 30.0188H10.8074L10.6611 30.1887L10.6384 30.4345C10.6341 30.5065 10.6473 30.5785 10.6769 30.6445C10.7064 30.7106 10.7516 30.7688 10.8085 30.8143C10.8637 30.8366 11.0128 30.9147 11.2629 31.0265C11.502 31.1377 11.7516 31.2495 12.0017 31.3721C12.2629 31.5067 12.502 31.618 12.7289 31.7297C12.9558 31.8415 13.0928 31.9083 13.1491 31.9419C13.3718 32.0683 13.5442 32.2651 13.6383 32.5003C13.7405 32.7456 13.831 32.98 13.9221 33.2372C13.9976 33.4738 14.1171 33.6945 14.2744 33.8883C14.4334 34.0663 14.7161 34.1559 15.1153 34.1559C15.1139 33.7228 15.041 33.2929 14.8994 32.8828C14.7521 32.474 14.6789 32.043 14.683 31.6093C14.683 31.555 14.7178 31.4752 14.7747 31.3526L14.979 31.0515L15.2407 30.817H15.4444L17.5802 32.522H17.8303C17.9606 32.5255 18.0908 32.5105 18.2168 32.4775C18.3272 32.4547 18.3869 32.3766 18.3869 32.2317V32.109C18.2814 31.9956 18.1828 31.8762 18.0915 31.7514C17.9817 31.623 17.8792 31.4888 17.7845 31.3494C17.6862 31.2595 17.595 31.1625 17.5117 31.059C17.3869 30.925 17.2505 30.7687 17.1025 30.6011C16.9662 30.4334 16.8298 30.2755 16.705 30.1436C16.5802 30.0118 16.4891 29.9092 16.4322 29.8533C16.4854 29.752 16.5463 29.6548 16.6144 29.5625C16.6862 29.4707 16.7507 29.3737 16.8071 29.2721L18.9434 27.1819V34.196C18.9434 34.2177 18.8192 34.3854 18.5801 34.6757C18.33 34.966 18.1483 35.2004 18.0009 35.3567C17.8866 35.469 17.705 35.6584 17.4432 35.9259C17.1937 36.1945 16.9214 36.474 16.6371 36.7866C16.3527 37.0883 16.0915 37.3786 15.8298 37.6352C15.5802 37.9033 15.3881 38.0927 15.2733 38.205L15.2396 38.3721C15.2375 38.4539 15.2537 38.5352 15.287 38.6102C15.3203 38.6851 15.3699 38.7521 15.4323 38.8062C15.489 38.8656 15.5574 38.913 15.6333 38.9456C15.7093 38.9781 15.7911 38.9952 15.874 38.9956H16.0441L19.0671 36.5283V38.0357C19.0671 38.1138 19.1466 38.1811 19.2946 38.2365C19.4684 38.2958 19.6471 38.3407 19.8286 38.3705C20.0329 38.3928 20.2151 38.4155 20.4078 38.4248C20.59 38.4362 20.7148 38.447 20.7716 38.447V36.3204L23.9537 39H24.1691C24.2508 39.0008 24.3317 38.9844 24.4063 38.9517C24.4809 38.919 24.5475 38.8709 24.6014 38.8106C24.7256 38.6741 24.8396 38.529 24.9426 38.3765C24.8284 38.268 24.6356 38.0639 24.3629 37.7845C24.0901 37.505 23.8058 37.2044 23.4872 36.8918C23.1813 36.5662 22.8853 36.2662 22.6236 35.9753C22.3514 35.685 22.1581 35.4734 22.0444 35.3611C21.8969 35.2048 21.7031 34.9704 21.4536 34.68C21.1924 34.3897 21.067 34.2221 21.067 34.2004V27.1819L23.0233 29.1034C23.0576 29.1256 23.1144 29.2119 23.194 29.3487C23.2546 29.4529 23.3268 29.5503 23.4093 29.639V29.8517C23.3242 29.9775 23.2293 30.0967 23.1255 30.2082C22.9781 30.3873 22.8643 30.5218 22.8074 30.5994C22.7279 30.7112 22.5347 30.9348 22.2393 31.2696C21.9439 31.6044 21.7506 31.828 21.6601 31.9397V32.1074C21.6601 32.3869 21.7843 32.5204 22.0466 32.5204C22.3149 32.5247 22.5748 32.4282 22.7732 32.2507C22.9816 32.0607 23.1791 31.8595 23.3646 31.6478C23.5689 31.4242 23.7621 31.2235 23.9554 31.0449C24.0447 30.9564 24.1509 30.8862 24.2679 30.8382C24.385 30.7903 24.5105 30.7655 24.6373 30.7655C24.8642 30.7655 25.0349 30.9109 25.148 31.1784C25.2623 31.4687 25.3187 31.6809 25.3187 31.8486C25.3149 32.2497 25.2379 32.6469 25.0912 33.0212C24.9331 33.405 24.8517 33.8151 24.8515 34.2291C25.2839 34.2291 25.5793 34.1287 25.772 33.9166C25.9622 33.7054 26.1195 33.4677 26.2386 33.2111C26.3634 32.9398 26.4881 32.6745 26.6251 32.3972C26.7499 32.1177 26.9658 31.8947 27.2844 31.727C27.4297 31.6754 27.5705 31.6118 27.7051 31.5371C27.9088 31.4476 28.1137 31.3472 28.3412 31.2468C28.5687 31.1464 28.7829 31.0569 28.9773 30.9787C29.1169 30.9129 29.2612 30.857 29.4091 30.8116V30.231C29.4091 30.0861 29.3295 30.0188 29.1932 30.0188H26.6825C26.6599 30.0188 26.5688 29.9515 26.4097 29.8066C26.2878 29.7106 26.1805 29.5978 26.0911 29.4718V29.3937C26.0911 29.2819 26.137 29.1479 26.2397 28.9911C26.3378 28.8333 26.444 28.6804 26.5577 28.5331C26.6558 28.3969 26.7619 28.2667 26.8758 28.1429L27.0685 27.9302C27.0132 27.8759 26.9094 27.7853 26.7731 27.6627C26.6256 27.5287 26.5235 27.4391 26.4661 27.3832L26.3865 27.3501L26.296 27.3832C26.2408 27.4163 26.0801 27.5287 25.8073 27.7408C25.5456 27.953 25.3755 28.0865 25.3187 28.1429C25.2618 28.1994 25.137 28.2656 24.9443 28.3437L21.0687 24.5453V20.367H24.9443L28.9778 24.3315C28.8072 24.5545 28.6145 24.8003 28.387 25.0684C28.1696 25.3173 27.9826 25.5905 27.8299 25.8823C27.9334 25.9294 28.0325 25.9855 28.1258 26.05C28.2365 26.1034 28.3396 26.1709 28.4323 26.2508H28.5118C28.6353 26.2436 28.7539 26.2009 28.853 26.1281C29.0081 26.0431 29.1558 25.9458 29.2948 25.8373C29.4455 25.7346 29.5897 25.6229 29.7265 25.503C29.8073 25.4374 29.8833 25.3663 29.954 25.2903L30.7271 26.05V28.596H31.2842C31.3725 28.6001 31.46 28.5777 31.5351 28.5319C31.6102 28.486 31.6694 28.4189 31.7049 28.3394C31.7386 28.2851 31.7955 28.1603 31.8976 27.9709C32.0003 27.7696 32.0909 27.5683 32.193 27.3566L32.4884 26.776C32.5911 26.5975 32.6596 26.4743 32.6823 26.4184C32.8475 26.1782 33.0749 25.9854 33.341 25.8601C33.6137 25.7374 33.8749 25.6148 34.1366 25.503C34.3759 25.3984 34.598 25.2592 34.7954 25.0901C34.9776 24.9218 35.0681 24.656 35.0681 24.2967C34.6264 24.2963 34.188 24.372 33.7728 24.5203C33.3594 24.6762 32.9202 24.7555 32.4774 24.7542C32.2389 24.7542 32.0909 24.6874 32.0003 24.5648C31.9208 24.4416 31.7618 24.2392 31.5343 23.9619L31.4885 23.9169V23.8718L31.5343 23.7937C31.7955 23.4812 32.1135 23.1246 32.4884 22.7084C32.8407 22.3265 33.1636 21.9195 33.4547 21.4908C33.2847 21.2119 33.0798 21.0773 32.8523 21.0773L32.6823 21.1223L30.557 22.9987C30.2958 22.7752 30.0799 22.5853 29.8751 22.429C29.667 22.2744 29.4696 22.1063 29.2843 21.926C29.08 21.7476 28.9208 21.6029 28.8066 21.4918L27.6593 20.3643H34.807L39.0685 24.1627H39.2386C39.5461 24.1627 39.8073 23.9728 40 23.5815L37.1139 20.2427H39.0685L39.1701 20.1646L39.2386 19.986C39.2728 19.8851 39.307 19.6729 39.3639 19.3604C39.4092 19.1544 39.4395 18.9455 39.4545 18.7353H37.1139C37.4546 18.1769 37.9206 17.5849 38.534 16.937C39.148 16.301 39.6367 15.7985 40 15.4295C39.8683 15.3057 39.7432 15.1753 39.6251 15.0388C39.4208 14.8261 39.2938 14.6921 39.2386 14.6362H39.0685C38.9772 14.7263 38.83 14.8827 38.6268 15.1056C38.4103 15.3291 38.1713 15.5636 37.9217 15.811C37.6605 16.0677 37.4247 16.2918 37.1945 16.5034C36.9642 16.715 36.8196 16.861 36.729 16.9375C36.6147 17.0493 36.4557 17.1947 36.263 17.3624C36.058 17.5295 35.8647 17.6968 35.6832 17.8643C35.5016 18.032 35.2625 18.2219 34.9787 18.445H27.8299L29.9551 16.3515C30.0236 16.3292 30.1142 16.2625 30.2621 16.1621C30.3559 16.0952 30.4547 16.0353 30.5575 15.983C30.6128 16.0373 30.7166 16.1284 30.853 16.2511C31.0009 16.3743 31.1484 16.5077 31.319 16.6532C31.489 16.7872 31.6503 16.9212 31.796 17.0439C31.9324 17.1779 32.0346 17.268 32.0914 17.3233C32.2383 17.4269 32.3787 17.5389 32.5122 17.6587C32.5674 17.7129 32.7165 17.7368 32.944 17.7368C32.9992 17.7368 33.0914 17.7368 33.2394 17.7249C33.3758 17.7032 33.4553 17.6467 33.4553 17.5355L33.3874 17.3461L33.2394 17.1557C33.1842 17.0667 33.0804 16.9326 32.9213 16.7313C32.7623 16.5419 32.59 16.3292 32.4095 16.1062C32.2289 15.8832 32.0462 15.6721 31.8755 15.4811C31.7543 15.3456 31.6405 15.2038 31.5349 15.0562L31.489 14.933C31.489 14.6205 31.626 14.4311 31.8982 14.3638C32.5386 14.1951 33.2177 14.2382 33.8307 14.4864C34.1931 14.6408 34.5838 14.7206 34.9787 14.7209V13.8814C34.8992 13.8478 34.7628 13.781 34.5579 13.6698C34.3652 13.5574 34.1488 13.4462 33.9218 13.3122C33.6944 13.189 33.4801 13.0778 33.2858 12.9768C33.1364 12.9126 32.9919 12.8379 32.8534 12.7533L32.7507 12.642L32.6834 12.5411C32.6085 12.4355 32.5436 12.3235 32.4895 12.2063C32.399 12.0169 32.2968 11.8156 32.1941 11.6034C32.0914 11.3912 32.0014 11.2013 31.8987 11.0114C31.7966 10.8329 31.7397 10.7211 31.706 10.6647C31.6705 10.5851 31.6112 10.5181 31.5361 10.4723C31.461 10.4264 31.3736 10.404 31.2853 10.408H30.7276V12.9546L29.9546 13.7143L29.7729 13.5249C29.6533 13.4102 29.524 13.3056 29.3864 13.2123C29.2274 13.1005 29.08 13.0002 28.921 12.8992C28.7619 12.7983 28.6255 12.7538 28.5112 12.7538H28.4317C28.3765 12.8081 28.2727 12.9101 28.1253 13.0441L27.8293 13.335L28.0452 13.5021L28.2158 13.7143C28.3985 13.8932 28.5693 14.0835 28.7271 14.284C28.9209 14.5184 29.0115 14.6308 28.9773 14.6308L25.1475 18.4493H21.0687V14.4734L24.9443 10.6647C25.0037 10.7364 25.0722 10.8004 25.148 10.8551C25.2758 10.97 25.4128 11.0745 25.5578 11.1677C25.7168 11.2795 25.8648 11.3912 25.9995 11.4933C26.1469 11.5828 26.2722 11.6381 26.386 11.6381C26.4573 11.6358 26.5271 11.6176 26.5902 11.5848C26.6532 11.5519 26.7078 11.5054 26.7499 11.4488C26.8418 11.3338 26.8937 11.1928 26.8978 11.0467V10.879C26.8642 10.8567 26.8183 10.7895 26.7499 10.6663C26.6819 10.5664 26.5908 10.4324 26.4887 10.2984C26.3981 10.1535 26.3065 10.0303 26.2391 9.91853L26.0906 9.70636V9.55008L26.1933 9.37101L26.2954 9.17078C26.3297 9.11652 26.386 9.01396 26.4655 8.86907H29.1932C29.2484 8.86907 29.2953 8.81481 29.3411 8.69001C29.3767 8.60055 29.3996 8.50669 29.4091 8.41109C29.3538 8.24342 29.2048 8.09799 28.9546 7.97698C28.6923 7.83688 28.4229 7.7101 28.1474 7.59714C27.852 7.47396 27.5682 7.33993 27.2844 7.20644C27 7.06102 26.7957 6.8928 26.6819 6.70342C26.5438 6.50004 26.4298 6.28173 26.3424 6.0528C26.2665 5.82033 26.1674 5.59585 26.0464 5.38265C25.9435 5.18213 25.7918 5.0097 25.6047 4.88071C25.4114 4.74614 25.1845 4.69024 24.9001 4.69024C24.9037 5.09116 24.9457 5.49086 25.0255 5.88404C25.111 6.27304 25.1527 6.67011 25.1497 7.06807C25.1479 7.29986 25.1294 7.53123 25.0945 7.76047C25.0492 7.99489 24.8676 8.14032 24.5611 8.19458C24.4232 8.10177 24.2938 7.99718 24.1746 7.88202C24.0045 7.7366 23.8113 7.58032 23.607 7.42404C23.3905 7.2674 23.1973 7.1227 23.0272 6.98993C22.906 6.88374 22.7768 6.7867 22.6407 6.69962C22.5049 6.59109 22.4022 6.52109 22.3458 6.5097C22.2481 6.49334 22.149 6.48589 22.0499 6.48745C21.7882 6.48745 21.6634 6.58838 21.6634 6.77776V6.86675C21.6971 6.92102 21.7539 7.01218 21.8334 7.1576C21.8973 7.25998 21.9695 7.35707 22.0493 7.44791C22.1046 7.50218 22.1973 7.60419 22.3221 7.73822C22.4585 7.88365 22.5838 8.03993 22.7313 8.19621C22.8676 8.36334 23.004 8.52179 23.1288 8.66504C23.2657 8.79908 23.3563 8.89946 23.4126 8.95535V9.16807C23.122 9.67813 22.763 10.1475 22.3453 10.5637C21.9245 10.9978 21.4922 11.4124 21.072 11.8031V4.76838C21.072 4.74613 21.1742 4.6121 21.3674 4.37769C21.5607 4.14327 21.7197 3.95335 21.8334 3.80792C21.9472 3.69668 22.1515 3.49536 22.4585 3.1828C22.7539 2.87025 23.0609 2.55769 23.39 2.22234C23.7191 1.88699 24.0272 1.56358 24.322 1.26242C24.6285 0.949318 24.8333 0.726295 24.9476 0.592264C24.8477 0.440446 24.7334 0.298194 24.6064 0.167381C24.5496 0.112256 24.4819 0.0690254 24.4076 0.0402996C24.3333 0.0115738 24.2539 -0.00205074 24.174 0.000249502" fill="white"/>
</svg>
