<svg width="40" height="40" viewBox="0 0 40 40" fill="none" xmlns="http://www.w3.org/2000/svg">
<path d="M18.7656 37.9529C18.7045 38.0064 18.5297 38.1093 18.2399 38.261C17.9501 38.4127 17.7753 38.4962 17.7142 38.525H17.5308C17.205 38.5211 16.8844 38.4512 16.5931 38.3204C16.2724 38.1846 16.0346 38.0064 15.8847 37.7913L15.9505 37.689L16.0648 37.5867C16.1561 37.5314 16.3158 37.4368 16.5445 37.301C16.7732 37.1652 17.0242 37.0199 17.3015 36.8694C17.5788 36.7189 17.8272 36.5696 18.0533 36.4197C18.2793 36.2698 18.4429 36.1669 18.5356 36.1128V35.9482C18.5401 35.8519 18.5324 35.7555 18.5126 35.6607C18.4713 35.5601 18.4172 35.4641 18.3516 35.3744L14.6447 31.1557L14.4614 31.1169C14.3721 31.1158 14.2838 31.1339 14.2038 31.1694C14.1238 31.205 14.0544 31.2571 14.0014 31.3214C13.9699 31.3749 13.9094 31.4784 13.8181 31.6266C13.7234 31.7839 13.6162 31.935 13.4974 32.0787C13.3758 32.2286 13.2681 32.3726 13.1774 32.5078C13.0867 32.643 13.0249 32.743 12.9954 32.7941L12.7654 32.8359H12.5827C12.378 32.8432 12.1742 32.8079 11.9873 32.733C11.8349 32.6666 11.6811 32.5078 11.5273 32.2627C11.7402 31.9623 11.94 31.6542 12.1187 31.3408C12.3005 31.031 12.3946 30.686 12.3928 30.3361L12.3704 30.195L12.3468 30.051C10.2249 29.5574 8.04091 29.3094 5.84843 29.3132C5.81755 29.3132 5.69467 29.3067 5.48241 29.2926C5.27016 29.2785 5.16305 29.342 5.16305 29.4772V32.2603L5.08222 32.3614L4.94488 32.4238C4.73132 32.342 4.59529 32.2874 4.53418 32.2603C4.25087 32.1294 3.97538 31.9854 3.70883 31.8288C3.55572 31.7336 3.45583 31.6395 3.41049 31.5425C3.35974 31.4244 3.32896 31.3001 3.31915 31.1739C3.27534 30.9166 3.20562 30.6633 3.11084 30.4173L2.8815 30.2121C2.64853 30.3805 2.39502 30.5249 2.12581 30.6424C1.87419 30.7427 1.6008 30.7917 1.32542 30.7859C1.07966 30.7859 0.82798 30.6683 0.567757 30.4331C0.307535 30.198 0.179397 29.9758 0.179397 29.7582C0.179397 29.6489 0.248394 29.5331 0.386391 29.4108C0.541489 29.2754 0.709962 29.1528 0.889751 29.0445C1.08689 28.9216 1.27811 28.8058 1.46145 28.6959C1.61847 28.6081 1.75778 28.4972 1.87347 28.3678C1.6278 28.1284 1.33227 27.9341 1.00343 27.7958C0.638727 27.6306 0.440275 27.3996 0.412018 27.0998C0.36801 26.8419 0.344513 26.5816 0.341705 26.3208C0.326591 25.9381 0.320021 25.68 0.320021 25.543C0.674374 25.5406 1.02265 25.6254 1.32674 25.7882C1.6323 25.9516 1.9359 26.1291 2.2408 26.3208C2.54571 26.5124 2.85982 26.6894 3.17984 26.854C3.47856 27.012 3.81854 27.0967 4.16553 27.0998H4.35018L6.82164 21.57V21.3654C6.82164 21.2284 6.79798 21.142 6.75198 21.0985C6.70599 21.055 6.59296 21.0232 6.40896 20.9968C6.24806 20.9913 6.08767 20.9774 5.9286 20.955C5.69992 20.9284 5.44802 20.9088 5.17291 20.8963C4.9002 20.8827 4.6472 20.871 4.41852 20.8551C4.18984 20.8392 4.02885 20.8345 3.93751 20.8345C3.78702 20.8069 3.71014 20.7122 3.71014 20.5488V19.7293L3.89282 19.607L4.12282 19.5241C4.2605 19.5201 4.39761 19.5063 4.53287 19.4829C4.7162 19.4565 4.92057 19.4353 5.15122 19.4242C5.38187 19.413 5.58493 19.3959 5.77024 19.3836C5.95555 19.3712 6.08894 19.3618 6.18094 19.3618V18.6229C5.87078 17.9421 5.60792 17.3606 5.39764 16.8833C5.18736 16.4059 4.95474 15.9215 4.7116 15.4311C4.46847 14.9408 4.26936 14.5299 4.12019 14.203C4.05842 14.0925 3.98022 13.9502 3.89019 13.7727C3.84066 13.6653 3.77947 13.5625 3.70751 13.4658C3.55309 13.33 3.41706 13.2612 3.29418 13.2612L0.641357 14.5711H0.412676L0.298336 14.4693L0.228023 14.3671C0.197795 14.3118 0.182024 14.203 0.182024 14.0378V13.7115C0.182024 13.3841 0.251022 13.1395 0.389018 12.9737C0.509562 12.824 0.656481 12.6928 0.824038 12.5851C0.975616 12.4907 1.12062 12.409 1.25906 12.34C1.3964 12.2718 1.46605 12.1554 1.46605 11.9919V11.7868C1.15596 11.6639 0.856575 11.5204 0.570386 11.3576C0.301889 11.1952 0.101267 10.9576 0 10.6821C0.108854 10.4584 0.230362 10.2398 0.364049 10.0272C0.550016 9.72677 0.776067 9.57627 1.05272 9.57627C1.35111 9.57432 1.63846 9.67711 1.8531 9.86258C2.08301 10.0542 2.38798 10.1573 2.70211 10.1495H2.88413C2.93284 9.64617 3.08009 9.15445 3.31915 8.69678C3.54717 8.27408 4.05908 8.06067 4.85289 8.06067V10.6821L5.17554 11.0495C5.4489 11.0778 5.61647 11.0907 5.67889 11.0907C5.74132 11.0907 5.86092 11.0854 6.04426 11.0713C6.2276 11.0572 6.34916 11.0495 6.41028 11.0495C6.62384 11.0237 6.99052 10.9749 7.50834 10.9067C8.02616 10.8385 8.58471 10.7638 9.17941 10.6821C9.77411 10.6004 10.3327 10.5257 10.8498 10.4564C11.367 10.387 11.7343 10.3388 11.9492 10.3147C12.0997 10.2559 12.1766 10.1383 12.1766 9.94547C12.1799 9.76408 12.1432 9.58389 12.0685 9.41522C11.9939 9.24654 11.8828 9.0927 11.7416 8.96251C11.6006 8.83221 11.4897 8.67833 11.4153 8.50966C11.3409 8.34099 11.3044 8.16085 11.3078 7.97954C11.3027 7.88105 11.3277 7.78316 11.3801 7.69644C11.4326 7.60972 11.5105 7.53747 11.6055 7.48747C11.805 7.37905 12.0345 7.32284 12.2679 7.32521C12.3796 7.32154 12.4908 7.33986 12.5936 7.37887C12.6965 7.41788 12.7886 7.47663 12.8633 7.55096C13.0218 7.70917 13.1533 7.88747 13.2536 8.08007C13.3581 8.28407 13.4659 8.49572 13.5736 8.715C13.662 8.91294 13.8129 9.08354 14.008 9.2059C14.9348 8.4813 15.7571 7.6562 16.4558 6.74966C17.2045 5.79452 17.8988 4.89308 18.5389 4.04533L18.4732 3.94303L18.3562 3.84544C18.2964 3.81722 18.1499 3.74315 17.9225 3.62028C17.6951 3.49741 17.4566 3.36043 17.2115 3.20875C16.9664 3.05707 16.7311 2.92244 16.5031 2.79722C16.2751 2.672 16.1292 2.60027 16.0694 2.57323L15.9551 2.47152L15.8893 2.36864L15.842 2.28634C15.842 2.09527 16.0392 1.91184 16.4334 1.7343C16.8277 1.55675 17.1169 1.4721 17.3048 1.4721H17.5315C17.5972 1.49914 17.7595 1.56146 18.0355 1.65728C18.3115 1.75311 18.4771 1.81425 18.5382 1.84071C18.5993 1.86716 18.7058 1.85599 18.8602 1.80073V0.159907L18.9739 0.0587898L19.1802 0H19.7716C20.2316 0 20.5195 0.096415 20.6423 0.286306C20.7659 0.486865 20.8286 0.712847 20.8244 0.941812V1.55558C20.8244 1.74723 20.9164 1.84247 21.0997 1.84247H21.2364C21.2968 1.81484 21.4992 1.72489 21.8541 1.57674C22.2089 1.42859 22.4113 1.32336 22.4711 1.26868H22.6538C22.7156 1.32336 22.8845 1.41977 23.1585 1.55558C23.4325 1.69138 23.6185 1.78721 23.7092 1.84247L23.8905 2.00591L23.9142 2.06764L23.9365 2.12643L23.8905 2.20873L23.7098 2.41273L23.4798 2.57499C23.3865 2.63084 23.2367 2.71903 23.0198 2.84308C22.803 2.96712 22.5848 3.09352 22.3555 3.23168C22.1261 3.36983 21.906 3.49682 21.6911 3.61969C21.5484 3.70905 21.3952 3.78435 21.2344 3.84427V4.25579C21.7829 4.91111 22.2554 5.46373 22.6518 5.91367C23.0483 6.36361 23.4605 6.82785 23.8886 7.3064C24.3157 7.78377 24.6662 8.17237 24.94 8.4722C25 8.52746 25.1371 8.65053 25.3513 8.8414C25.5655 9.03247 25.7022 9.15534 25.7633 9.20884C25.9405 9.07102 26.0876 8.90497 26.197 8.71912C26.3346 8.49924 26.4722 8.2876 26.6097 8.08419C26.742 7.8856 26.8871 7.69402 27.0441 7.5104C27.1084 7.42944 27.1898 7.36061 27.2839 7.30785C27.3779 7.25509 27.4827 7.21944 27.5921 7.20293L27.7998 7.28523L28.1428 7.48923L28.4622 7.75614L28.6468 7.93956V8.10418L27.5954 9.94724V10.1512L27.7111 10.2541L27.8254 10.3158L34.193 11.0507L34.329 10.9919L34.4223 10.8885C34.4519 10.8344 34.488 10.6639 34.5347 10.377C34.5722 10.1806 34.5957 9.98228 34.605 9.78321C34.6103 9.64534 34.6253 9.5079 34.6497 9.37168C34.6806 9.1812 34.7036 8.97603 34.7187 8.75733C34.7338 8.53863 34.7574 8.33346 34.7844 8.14357C34.8093 8.00739 34.8247 7.86994 34.8304 7.73204H35.0131C35.5644 7.73204 35.9449 7.85491 36.1591 8.10065C36.3659 8.336 36.514 8.60822 36.5935 8.89901C36.6667 9.1745 36.7046 9.45655 36.7065 9.73971C36.7065 9.98486 36.7722 10.1207 36.8905 10.1477C36.9836 10.1347 37.0755 10.1151 37.1652 10.0889C37.283 10.0631 37.3928 10.0139 37.4865 9.94488C37.6081 9.8908 37.8302 9.80144 38.1482 9.6768C38.4663 9.55217 38.6614 9.4681 38.7212 9.41107C38.9039 9.54923 39.0945 9.70502 39.2936 9.88139C39.3853 9.95751 39.4588 10.0495 39.5096 10.1517C39.5605 10.254 39.5876 10.3644 39.5893 10.4763C39.5893 10.6933 39.5354 10.8514 39.429 10.9467C39.3077 11.0531 39.1698 11.1432 39.0196 11.2142L38.5142 11.4599C38.3547 11.5356 38.2208 11.6483 38.1265 11.7862L39.3632 12.8914C39.3922 13.1378 39.4073 13.2877 39.4073 13.3423C39.4073 13.4241 39.3994 13.5463 39.3849 13.7115C39.3705 13.8767 39.3632 13.9702 39.3632 13.9979C39.3632 14.1337 39.2851 14.2024 39.1333 14.2024L36.6605 13.0966L36.5691 13.056H36.0658C35.9751 13.056 35.9002 13.1231 35.8378 13.26C35.7766 13.4241 35.6472 13.7304 35.4501 14.1813C35.2529 14.6322 35.044 15.1043 34.8304 15.5922C34.6168 16.0802 34.4098 16.5482 34.2127 16.9832C34.0155 17.4182 33.8697 17.721 33.779 17.8833C33.7148 18.024 33.6611 18.1684 33.618 18.3154C33.5971 18.4438 33.589 18.5737 33.5937 18.7034V19.0303C33.5937 19.1667 33.6554 19.2354 33.779 19.2354H36.0658C36.2182 19.2354 36.2971 19.3583 36.2971 19.6058V20.3818C36.2971 20.6011 36.2182 20.7099 36.0658 20.7099H33.779L33.3656 21.2008C33.6108 21.7734 33.8217 22.2514 34.0083 22.6347C34.1949 23.018 34.3737 23.4183 34.557 23.8416C34.7404 24.2649 34.8921 24.6135 35.0131 24.8863C35.0864 25.0592 35.1481 25.2359 35.1977 25.4154C35.2549 25.6252 35.3311 25.8305 35.4257 26.0292C35.5093 26.209 35.6252 26.3755 35.7688 26.5218C35.8346 26.588 35.9157 26.6405 36.0065 26.6758C36.0972 26.7112 36.1955 26.7284 36.2945 26.7264H36.4758L38.9506 25.6288H39.6353C39.6353 26.1752 39.5663 26.5777 39.4283 26.8364C39.3209 27.0589 39.166 27.2606 38.9723 27.4301C38.8288 27.5503 38.675 27.6602 38.5123 27.7588C38.445 27.7985 38.3906 27.8534 38.3545 27.9179C38.3184 27.9824 38.3019 28.0542 38.3066 28.1262V28.2079C38.3979 28.2356 38.5379 28.2838 38.7193 28.3508C38.9006 28.4178 39.0925 28.5019 39.2916 28.5977C39.481 28.6861 39.6514 28.8037 39.795 28.9452C39.9247 29.0663 39.998 29.2271 40 29.3949C39.9874 29.4946 39.9563 29.5918 39.908 29.6824C39.8405 29.8325 39.7567 29.9762 39.6576 30.1116C39.563 30.2482 39.4473 30.3723 39.314 30.4802L38.9493 30.5825C38.6237 30.5338 38.3253 30.3904 38.1003 30.1745C37.9867 30.0658 37.8484 29.9802 37.6947 29.9235C37.5409 29.8668 37.3754 29.8403 37.2092 29.8458H36.8872C36.9476 30.3644 36.9323 30.7667 36.8412 31.0528C36.7485 31.3397 36.4903 31.6189 36.0625 31.8929C35.9416 31.9481 35.7812 32.0234 35.5835 32.1192C35.3857 32.2151 35.2693 32.2615 35.2391 32.2615L34.9191 32.0569V29.1915C34.7969 29.1915 34.5366 29.1768 34.1424 29.1492C33.7481 29.1215 33.4852 29.1086 33.3624 29.1086C33.1797 29.1356 32.8367 29.1844 32.3326 29.252C31.8286 29.3197 31.2911 29.3973 30.7102 29.4778C30.1293 29.5583 29.5931 29.6348 29.0838 29.7018C28.5745 29.7688 28.223 29.8194 28.0094 29.8458L27.8951 29.9487L27.8293 30.0504V30.2144L28.8354 32.0569C28.8985 32.167 28.7765 32.3103 28.4694 32.4867C28.1645 32.663 27.9529 32.7659 27.8293 32.7941L27.6927 32.8341C27.5087 32.8341 27.3345 32.7465 27.167 32.5684C26.9852 32.3731 26.8169 32.1682 26.6629 31.9546C26.4973 31.723 26.3442 31.4972 26.2069 31.2785C26.0973 31.0923 25.9502 30.9257 25.7732 30.7871C25.5596 30.9517 25.2238 31.2509 24.7652 31.6895C24.3065 32.128 23.8419 32.596 23.3694 33.1004C22.9264 33.5701 22.5139 34.0622 22.134 34.5743C21.7838 35.0523 21.6083 35.412 21.6083 35.659C21.6083 35.9317 21.7601 36.144 22.0683 36.2939C22.3878 36.4512 22.7223 36.5828 23.0678 36.6872C23.4153 36.7881 23.7519 36.9172 24.0732 37.0729C24.3794 37.2234 24.5332 37.4338 24.5332 37.7066C24.5332 37.9245 24.3275 38.1156 23.9162 38.2798C23.5041 38.4438 23.1933 38.525 22.9765 38.525C22.6413 38.525 22.385 38.4856 22.1997 38.4033C21.9275 38.2715 21.6671 38.1209 21.421 37.9529L21.1464 38.1569V40H19.2689V38.1569L19.154 38.0546L18.9509 37.9529H18.7656V37.9529ZM6.39648 14.9379C6.55025 15.2934 6.67948 15.5873 6.78418 15.8197C6.88889 16.0522 6.99644 16.291 7.10683 16.5364C7.21329 16.7821 7.31186 16.9861 7.40385 17.1513C7.49585 17.3165 7.61019 17.5188 7.74753 17.7657C7.88487 18.0126 8.01038 18.2566 8.13589 18.5023C8.28599 18.7966 8.45426 19.0831 8.63991 19.3607H9.73732C9.73732 19.0879 9.64597 18.6746 9.46263 18.1126C9.27366 17.5381 9.03642 16.9772 8.75294 16.4347C8.48314 15.9007 8.12906 15.4042 7.70153 14.9602C7.28798 14.5358 6.85296 14.3239 6.39648 14.3247V14.9379ZM6.8085 25.8293C7.04635 25.8307 7.28215 25.7899 7.50222 25.7091C7.7223 25.6284 7.92227 25.5094 8.09055 25.359C8.43765 25.0703 8.70434 24.7129 8.86925 24.3155C8.93126 24.1269 9.00744 23.9422 9.09727 23.7628C9.22016 23.5036 9.34106 23.2337 9.46329 22.9439C9.58552 22.6541 9.70643 22.3854 9.82997 22.1244C9.95351 21.8633 10.0416 21.6799 10.102 21.5723V21.3677C10.1067 21.3067 10.0895 21.2458 10.0528 21.1941C10.0162 21.1424 9.96206 21.1025 9.89831 21.0803C9.76134 21.026 9.61308 20.9984 9.46329 20.9991C9.29866 21.0007 9.13562 21.0282 8.98162 21.0803C8.90445 21.1026 8.83378 21.14 8.7747 21.1897C8.71561 21.2394 8.66958 21.3002 8.63991 21.3677L6.8085 25.4242V25.8293ZM8.68525 13.2412C9.03387 13.2821 9.38506 13.3029 9.73666 13.3035C9.98111 13.3035 10.3327 13.2953 10.7881 13.2836C11.2435 13.2718 11.6975 13.2412 12.1385 13.2007C12.537 13.1689 12.9296 13.0933 13.3075 12.9755C13.6426 12.8667 13.8095 12.7174 13.8095 12.5258C13.8095 12.28 13.6715 12.1025 13.3988 11.9966C13.3371 11.9966 13.2155 11.9884 13.0328 11.9761C12.8501 11.9637 12.7279 11.9543 12.6661 11.9543C11.8736 11.9573 11.0835 12.0331 10.3084 12.1807C9.50009 12.328 8.74374 12.4427 8.0393 12.5246L7.8093 12.7292C8.02615 13.0308 8.31463 13.2007 8.68262 13.2412H8.68525ZM10.6074 28.2914C11.4742 28.3726 12.3452 28.4133 13.2168 28.4131C13.4161 28.4169 13.6131 28.375 13.7892 28.2914C13.9574 28.2097 14.0408 28.0563 14.0408 27.8411C14.0408 27.6259 13.9626 27.4989 13.8108 27.4731C12.9881 27.3355 12.3091 27.2328 11.7738 27.165C11.1593 27.0917 10.5399 27.0573 9.92 27.0621C9.82887 27.0621 9.67554 27.0692 9.46001 27.0833C9.24491 27.0981 9.03111 27.1254 8.81996 27.165C8.61726 27.203 8.42355 27.2724 8.24761 27.3702C8.17062 27.4088 8.10668 27.4653 8.06251 27.5337C8.01834 27.6021 7.99557 27.6798 7.99658 27.7588L8.04193 27.8411C8.87812 28.0606 9.73513 28.2107 10.6021 28.2897L10.6074 28.2914ZM11.4774 18.5852C11.9041 19.103 12.499 19.3616 13.2621 19.3613H14.2229L14.3372 19.2601L14.4069 19.1578V19.0761C14.4069 18.7763 14.2754 18.4835 14.0172 18.1943C13.7443 17.8975 13.4197 17.642 13.0558 17.4376C12.6818 17.2227 12.2833 17.0439 11.8671 16.9044C11.455 16.7686 11.1107 16.7004 10.838 16.7004C10.8354 17.4365 11.047 18.0638 11.4748 18.5835L11.4774 18.5852ZM14.2229 20.9991H12.3448C12.1923 20.9991 12.0458 21.1214 11.9098 21.3677C11.7738 21.6141 11.6344 21.888 11.4964 22.1861C11.3655 22.4726 11.2586 22.7673 11.1764 23.0679C11.1212 23.2485 11.0833 23.433 11.0634 23.6194C11.3374 23.6194 11.6666 23.5512 12.0491 23.4148C12.4407 23.2743 12.8102 23.089 13.1485 22.8634C13.486 22.643 13.7867 22.3807 14.0415 22.0844C14.284 21.7987 14.4075 21.5041 14.4075 21.2025C14.4042 21.0662 14.3477 20.9974 14.2202 20.9974L14.2229 20.9991ZM15.4556 16.5811H16.3263C16.3263 16.2536 16.2258 15.885 16.0273 15.4752C15.8289 15.0655 15.5614 14.7662 15.2283 14.574C15.1626 14.574 14.9983 14.5669 14.7249 14.5552C14.4515 14.5434 14.2807 14.5323 14.2202 14.5323C14.0671 14.5323 13.8621 14.5399 13.6032 14.5552C13.3443 14.5705 13.1997 14.574 13.1675 14.574C12.9981 14.5799 12.8297 14.6005 12.6648 14.6357C12.4506 14.6763 12.3448 14.7116 12.3448 14.738V15.109L15.4556 16.5811ZM12.9586 25.4666C13.1557 25.4936 13.3627 25.5148 13.5756 25.5254C13.7885 25.5359 13.9955 25.5589 14.194 25.5842C14.3381 25.6072 14.4839 25.6213 14.6303 25.6265H15.0903C15.2736 25.6265 15.455 25.5571 15.6377 25.4213C15.8272 25.2794 15.9836 25.1054 16.0977 24.9092C16.2194 24.7068 16.3191 24.4944 16.3953 24.2749C16.465 24.09 16.5035 23.8968 16.5097 23.7017C16.1949 23.7152 15.8817 23.7496 15.5726 23.8046C15.1212 23.8738 14.677 23.9765 14.2446 24.1115C13.8255 24.2368 13.4257 24.4086 13.0545 24.6229C12.7049 24.8263 12.5288 25.0662 12.5288 25.3396L12.5748 25.4213C12.7047 25.4288 12.8339 25.4433 12.9618 25.4648L12.9586 25.4666ZM15.3617 11.3406C15.4524 11.5299 15.5759 11.6257 15.7264 11.6257H15.8644L15.934 11.5234L16.0497 11.4217C16.2613 11.2024 16.5208 10.9167 16.8244 10.5622C17.128 10.2077 17.4283 9.86611 17.7201 9.53688C18.0119 9.20766 18.3562 8.79966 18.7505 8.30759V6.75201C18.598 6.75201 18.46 6.83314 18.3391 6.99658C18.2162 7.13473 18.0257 7.34932 17.7648 7.65326C17.5039 7.9572 17.2312 8.26585 16.9421 8.5939C16.6529 8.92194 16.3855 9.23529 16.141 9.53453C15.8966 9.83377 15.7283 10.0413 15.637 10.1495C15.5401 10.2788 15.4336 10.4021 15.3183 10.5187C15.2572 10.5728 15.227 10.6815 15.227 10.8461C15.2366 11.0168 15.2835 11.1842 15.365 11.3388L15.3617 11.3406ZM16.1666 30.2791C16.4249 30.5636 16.7002 30.8588 16.99 31.1574C17.2798 31.4561 17.5532 31.7518 17.8147 32.0393C18.0763 32.3268 18.2491 32.5219 18.3404 32.6301C18.4009 32.686 18.5008 32.7818 18.6381 32.9176C18.7225 33.0127 18.8224 33.096 18.9345 33.1645C18.9345 33.1092 18.9437 32.9881 18.9568 32.7959C18.97 32.6037 18.9798 32.4808 18.9798 32.4261C18.9798 32.1541 18.8578 31.799 18.6138 31.3608C18.3648 30.9164 18.0742 30.4916 17.7451 30.091C17.4403 29.7135 17.1031 29.3579 16.7364 29.0275C16.4019 28.7271 16.145 28.5754 15.9603 28.5754C15.7467 28.5754 15.6383 28.6583 15.6383 28.8217V29.6812C15.7277 29.7912 15.9064 29.9881 16.1666 30.2791ZM16.532 22.3337C16.76 22.3478 17.0124 22.3613 17.287 22.3748C17.5617 22.3883 17.8128 22.4083 18.0408 22.4377C18.2006 22.4588 18.3616 22.472 18.5231 22.4771L18.7741 22.5794L18.9345 22.6829L19.9859 24.1567H20.0779C20.2619 24.1567 20.4216 24.0797 20.5595 23.9316C20.6983 23.7782 20.8208 23.6137 20.9256 23.4401C21.0307 23.2637 21.1378 23.0779 21.2443 22.8875C21.3291 22.7205 21.4643 22.578 21.6346 22.4759C22.0153 22.2542 22.4619 22.1405 22.916 22.1496C23.4351 22.1496 23.8918 22.135 24.2887 22.1079L24.3347 21.9433C24.3347 21.7544 24.2708 21.57 24.1514 21.4142C24.0298 21.2502 23.8991 21.0867 23.7637 20.9221C23.6303 20.765 23.5074 20.6008 23.3957 20.4306C23.2911 20.27 23.2362 20.0874 23.2367 19.9015L23.2814 19.7363C23.3123 19.6817 23.3655 19.5805 23.4417 19.4294C23.5179 19.2784 23.6027 19.1296 23.6947 18.9803C23.7867 18.831 23.8682 18.6863 23.947 18.5499C24.0259 18.4136 24.0785 18.3177 24.1061 18.2625L23.8761 18.0538C23.8143 18.0538 23.6855 18.0602 23.4864 18.0738C23.2873 18.0873 23.0823 18.0943 22.8674 18.0943C22.6525 18.0943 22.4481 18.0873 22.2497 18.0738C22.0512 18.0602 21.9073 18.0538 21.8153 18.0538L21.6123 17.992L21.4066 17.8892C21.3744 17.8351 21.3139 17.7328 21.2232 17.5829C21.1271 17.427 21.0199 17.2768 20.9026 17.1331C20.7817 16.9832 20.6752 16.8392 20.5806 16.704C20.4859 16.5687 20.4301 16.4688 20.3992 16.4159L20.1712 16.2113H20.0785C19.9892 16.2104 19.9009 16.2284 19.821 16.264C19.741 16.2996 19.6716 16.3516 19.6185 16.4159C19.4824 16.5711 19.36 16.7356 19.2525 16.9079C19.1303 17.0992 19.0155 17.2832 18.9082 17.46C18.814 17.6259 18.6816 17.7722 18.5198 17.8892C18.2458 18.0814 17.8548 18.1831 17.3515 18.1984C16.8481 18.2137 16.4906 18.2313 16.277 18.2572L16.1634 18.3207L16.0563 18.4212V18.5029C16.0543 18.6628 16.0918 18.8211 16.1661 18.9665C16.2403 19.1119 16.3496 19.2409 16.486 19.3442C16.6227 19.447 16.7324 19.5755 16.8073 19.7204C16.8823 19.8654 16.9206 20.0234 16.9197 20.1831L16.898 20.3472L16.8744 20.47C16.8744 20.5253 16.8277 20.6288 16.7364 20.7775C16.645 20.9262 16.555 21.0985 16.4643 21.289C16.3736 21.4794 16.2869 21.657 16.212 21.821C16.172 21.9213 16.1198 22.0173 16.0563 22.1073V22.3119C16.1423 22.3113 16.3027 22.3178 16.532 22.3313V22.3337ZM16.992 13.8591C17.071 14.0402 17.162 14.2169 17.2647 14.3882C17.3692 14.5623 17.492 14.727 17.6314 14.8803C17.7681 15.0308 17.9002 15.1078 18.0211 15.1078C18.2642 15.1078 18.4482 15.0037 18.5704 14.7986C18.6989 14.5796 18.7914 14.3451 18.8451 14.1025C18.9066 13.8462 18.9446 13.5859 18.9588 13.3241C18.9746 13.0643 18.9818 12.8673 18.9818 12.7309V12.1989C18.9818 11.8991 18.9667 11.7076 18.9364 11.6245L18.8707 11.4211L18.7505 11.2553L18.7032 11.2153H18.6578C18.506 11.2153 18.3293 11.3029 18.1321 11.4811C17.9214 11.6705 17.7297 11.8761 17.5591 12.0954C17.3751 12.3286 17.2142 12.5757 17.0781 12.8338C16.9405 13.0925 16.8717 13.3034 16.8717 13.4664C16.887 13.6014 16.9269 13.7333 16.99 13.8568L16.992 13.8591ZM17.4724 27.2473C17.5897 27.4452 17.7196 27.637 17.8614 27.8217C17.9977 27.9975 18.1679 28.1502 18.3641 28.2726C18.5592 28.3938 18.7916 28.4577 19.0291 28.4554V28.0057C19.0291 27.7606 19.0206 27.5019 19.0054 27.2279C18.9903 26.954 18.9746 26.7029 18.9588 26.4701C18.943 26.2373 18.9364 26.0815 18.9364 25.9998C18.9364 25.8634 18.8602 25.6388 18.7064 25.3237C18.5527 25.0086 18.4009 24.8534 18.2511 24.8534C18.1012 24.8534 17.9521 24.9216 17.8167 25.0603C17.6728 25.2029 17.5492 25.3609 17.4487 25.5307C17.3423 25.7089 17.2502 25.8938 17.1734 26.0839C17.109 26.2271 17.071 26.3788 17.061 26.533L17.0827 26.6371L17.107 26.7382C17.2441 26.8975 17.3657 27.067 17.4704 27.245L17.4724 27.2473ZM20.8336 8.24703C20.8802 8.36873 21.0097 8.56803 21.2232 8.84022C21.3278 8.98968 21.4426 9.1332 21.5669 9.26998C21.7641 9.50514 21.9862 9.75441 22.2293 10.0272C22.4724 10.3 22.7103 10.5675 22.9397 10.8267C23.169 11.086 23.3445 11.2847 23.4654 11.4199L23.878 11.7879H24.1067C24.255 11.6825 24.3855 11.5586 24.4944 11.4199C24.6337 11.2553 24.7008 11.1066 24.7008 10.9684V10.8885C24.5317 10.6546 24.3485 10.4291 24.1521 10.213C23.8774 9.89942 23.5872 9.56451 23.2814 9.20825C22.9765 8.85551 22.69 8.52687 22.4146 8.22528C22.1393 7.92369 21.9395 7.70734 21.8173 7.57154C21.7577 7.51745 21.6583 7.42182 21.519 7.28465C21.3829 7.14884 21.2837 7.04949 21.2232 6.99658H21.1312C20.9177 6.99658 20.8027 7.08006 20.7882 7.24408C20.7738 7.4081 20.7665 7.54332 20.7665 7.65267C20.7665 7.92663 20.7876 8.12358 20.8336 8.24703ZM21.6353 25.2185C21.5079 25.3333 21.3997 25.464 21.3139 25.6065C21.2291 25.7435 21.1602 25.8879 21.1082 26.0374C21.0636 26.175 21.0235 26.2832 20.9939 26.3655C20.9646 26.5019 20.9267 26.7958 20.8802 27.2473C20.8336 27.6988 20.8145 27.991 20.8145 28.1292C20.9965 28.1292 21.2035 28.0604 21.4302 27.9257C21.6649 27.7845 21.8738 27.6116 22.0493 27.4131C22.2306 27.2116 22.385 26.9918 22.5092 26.7582C22.6315 26.523 22.6919 26.3284 22.6919 26.1644C22.6862 25.9303 22.6559 25.6973 22.6012 25.4683C22.5388 25.195 22.3561 25.0568 22.0506 25.0568C21.9727 25.0568 21.8956 25.0712 21.8241 25.099C21.7527 25.1269 21.6884 25.1675 21.6353 25.2185V25.2185ZM20.9939 13.9984C20.9939 14.109 21.101 14.3265 21.3159 14.6551C21.5308 14.9838 21.7424 15.1448 21.9553 15.1448C22.2615 15.1448 22.4889 14.9826 22.6413 14.6551C22.7938 14.3277 22.8693 14.0543 22.8693 13.8362V13.4652C22.7774 13.3452 22.6787 13.2295 22.5736 13.1184C22.4356 12.9679 22.2911 12.8038 22.138 12.6263C21.9849 12.4487 21.839 12.28 21.7075 12.1131C21.615 11.999 21.5154 11.8897 21.4092 11.7856L21.2476 11.6427L20.9965 11.5839L20.9939 13.9984ZM21.2232 32.997C21.5639 32.7517 21.8852 32.4855 22.1846 32.2004C22.5509 31.8582 22.909 31.4964 23.259 31.1151C23.5916 30.7559 23.8903 30.3727 24.1521 29.9693C24.3956 29.5856 24.5179 29.2442 24.5187 28.9452C24.5168 28.7725 24.4934 28.6006 24.4491 28.4325C24.4024 28.2561 24.2585 28.1668 24.016 28.1668L23.878 28.2079L23.4654 28.5742C23.282 28.7941 23.052 29.0669 22.7787 29.3937C22.5053 29.7206 22.2293 30.0404 21.9553 30.3555C21.6813 30.6706 21.3599 31.061 20.9939 31.5225V32.7924L21.2232 32.997ZM24.5404 14.6128C24.3641 14.7883 24.2111 14.9814 24.0844 15.1883C23.9487 15.4012 23.8413 15.6275 23.7644 15.8627C23.6976 16.0411 23.6583 16.2268 23.6474 16.4147H25.1128L27.8136 14.9414L27.8372 14.8797L27.8576 14.818L27.8136 14.7363C27.7099 14.695 27.6029 14.6608 27.4936 14.634C27.39 14.6021 27.2826 14.5814 27.1735 14.5722C27.073 14.5644 26.9731 14.5506 26.8745 14.5311C26.6858 14.5021 26.4953 14.4825 26.3042 14.4723C26.0899 14.4594 25.8685 14.4376 25.6391 14.4106C25.4649 14.3878 25.2894 14.3743 25.1134 14.37H25.0228C24.869 14.3682 24.7073 14.4488 24.5404 14.6128V14.6128ZM24.1974 24.9939C24.3253 25.1454 24.4919 25.2672 24.6834 25.349C24.8748 25.4308 25.0854 25.4704 25.2974 25.4642C25.6638 25.4668 26.0301 25.4529 26.3948 25.4225C26.7011 25.3948 27.0953 25.3408 27.5849 25.2596L27.6302 25.1779L27.5849 25.0545C27.4316 24.8358 27.1643 24.6035 26.7832 24.3578C26.4014 24.1138 26.0604 23.9774 25.7548 23.9492C25.693 23.9492 25.5715 23.9404 25.3894 23.9292C25.2074 23.918 25.0063 23.9081 24.7928 23.9081C24.5792 23.9081 24.3814 23.9016 24.1974 23.8881C24.0134 23.8745 23.8774 23.8669 23.786 23.8669C23.7754 24.2736 23.9205 24.6713 24.1974 24.9939V24.9939ZM27.5606 17.1931C27.2521 17.3244 26.9542 17.4747 26.6689 17.6428C26.3974 17.8052 26.1645 18.014 25.9835 18.2572C25.7995 18.5029 25.7077 18.8033 25.7081 19.1584H27.5849C27.6762 19.1584 27.7748 19.0767 27.8819 18.9127C28.004 18.7222 28.1108 18.5242 28.2013 18.3201C28.3097 18.0849 28.3984 17.8621 28.4779 17.6428C28.5574 17.4235 28.6094 17.2613 28.6383 17.1519V16.9485L28.5239 16.845L28.4089 16.7863C28.134 16.9347 27.8509 17.0704 27.5606 17.1931V17.1931ZM26.1418 21.7546C26.3083 22.0127 26.5256 22.2418 26.7832 22.4307C27.0412 22.62 27.326 22.7782 27.6302 22.901C27.8881 23.0123 28.1689 23.0745 28.4549 23.0838C28.4583 22.745 28.3801 22.4096 28.2256 22.1003C28.1336 21.9374 28.0127 21.7128 27.8576 21.4265C27.7025 21.1402 27.6158 20.9962 27.5849 20.9962H25.8915C25.898 21.2644 25.9844 21.5262 26.1418 21.7546V21.7546ZM28.2926 13.1201C28.9982 13.2101 29.7097 13.258 30.4224 13.2636C30.7538 13.2642 31.0815 13.2008 31.3831 13.0778C31.6821 12.9611 31.9365 12.7688 32.1151 12.5246L31.7044 12.3606C31.0035 12.2512 30.4086 12.1691 29.9197 12.1142C29.4314 12.0596 28.934 12.0061 28.4313 11.9502C27.9286 11.8944 27.508 11.8414 27.1735 11.7868H26.9449C26.7421 11.7838 26.5428 11.8336 26.3712 11.9302C26.2036 12.026 26.1221 12.183 26.1221 12.4005L26.1432 12.6886L26.3482 12.892C26.8673 12.9481 27.5155 13.0239 28.2926 13.1195V13.1201ZM26.4178 28.0633C26.5847 28.1591 26.8075 28.2079 27.0822 28.2079H27.5849C27.7667 28.1801 28.0644 28.146 28.4779 28.1056C28.888 28.0645 29.325 28.0104 29.7804 27.9404C30.2357 27.8705 30.6747 27.8117 31.0861 27.757C31.4974 27.7023 31.7793 27.6618 31.9331 27.6342L32.1151 27.4713L32.1598 27.3884C32.1605 27.3219 32.1445 27.2561 32.113 27.1959C32.0815 27.1357 32.0353 27.0825 31.9778 27.0404C31.8427 26.9389 31.6863 26.8626 31.5178 26.8158C31.3398 26.7619 31.1551 26.7276 30.9678 26.7135C30.7858 26.7006 30.634 26.6923 30.5117 26.6923C29.7769 26.6924 29.0428 26.7337 28.3137 26.8158C27.5817 26.8985 26.8613 27.049 26.1642 27.265V27.4713C26.1668 27.7705 26.2503 27.9687 26.4178 28.0633ZM30.1483 19.199H30.6524C30.9238 19.199 31.2162 19.0009 31.5204 18.6064C31.8474 18.1759 32.1231 17.716 32.3432 17.2342C32.5836 16.7268 32.7905 16.2072 32.9628 15.6781C33.1311 15.1595 33.2152 14.777 33.2152 14.5305C32.7867 14.5305 32.374 14.7033 31.9778 15.0431C31.5645 15.4065 31.2106 15.8201 30.9264 16.2718C30.6295 16.7362 30.378 17.2227 30.1746 17.7257C29.9775 18.2178 29.877 18.6123 29.877 18.9127C29.8743 19.1032 29.9644 19.199 30.1483 19.199V19.199ZM30.2397 22.3284C30.3915 22.8335 30.6065 23.3218 30.8804 23.784C31.1379 24.2284 31.4784 24.6303 31.8871 24.9721C32.2814 25.2994 32.7241 25.4634 33.2152 25.4642L33.1908 25.2784L33.1679 25.0545C33.1389 24.9998 33.0837 24.884 33.0088 24.7058C32.9339 24.5277 32.8465 24.3437 32.7558 24.1526C32.6651 23.9616 32.581 23.7775 32.5041 23.6C32.4273 23.4225 32.3727 23.2925 32.3458 23.2108C32.2512 23.0468 32.1486 22.841 32.0238 22.5965C31.8989 22.3519 31.7715 22.1044 31.6348 21.8569C31.4981 21.6094 31.3226 21.3278 31.1091 20.9974H30.0104C30.021 21.4481 30.0981 21.8957 30.2397 22.3284V22.3284Z" fill="white"/>
</svg>
