<svg width="40" height="40" viewBox="0 0 40 40" fill="none" xmlns="http://www.w3.org/2000/svg">
<path d="M17.8956 36.5727C17.7899 36.6169 17.6882 36.6696 17.5917 36.7304C17.5284 36.7616 17.3741 36.8444 17.1229 36.9793C16.8718 37.1142 16.6077 37.2672 16.3263 37.4333C16.045 37.5993 15.7885 37.7519 15.5532 37.8873C15.3178 38.0226 15.1697 38.1091 15.1098 38.1385C14.9219 38.2292 14.6722 38.358 14.3587 38.5227C14.0453 38.6873 13.8775 38.758 13.844 38.7283L13.6561 38.5464V36.3216L14.2658 35.7322C14.3913 35.6713 14.6243 35.5434 14.9694 35.3452C15.3145 35.147 15.6701 34.9456 16.0454 34.7345C16.4207 34.5233 16.7721 34.3256 17.0999 34.1432C17.3345 34.0195 17.5614 33.8827 17.7796 33.7334C17.8754 33.6744 18.0902 33.5371 18.4343 33.326V31.5086H18.013L14.0798 33.5088C14.0481 33.539 13.9705 33.5553 13.8444 33.5553C13.6891 33.5553 13.5803 33.4957 13.5175 33.3743C13.4526 33.2458 13.4126 33.1067 13.3996 32.9641C13.3838 32.8133 13.3838 32.6613 13.3996 32.5106C13.4155 32.3589 13.4231 32.2538 13.4231 32.1919V31.5086L13.8444 31.0993L18.4343 28.5135L18.6227 24.4722C18.6227 24.2899 18.545 24.1156 18.3898 23.9494C18.2226 23.7757 18.0334 23.6235 17.8266 23.4963C17.6089 23.3594 17.373 23.2521 17.1253 23.1772C16.8761 23.1028 16.6896 23.0647 16.5641 23.0647H16.3301C16.2683 23.1247 16.0799 23.2307 15.7679 23.3819C15.4559 23.5331 15.2364 23.6401 15.1132 23.7005C14.9243 23.7908 14.6991 23.9126 14.433 24.0634C14.167 24.2141 13.9115 24.3671 13.6613 24.5192C13.4111 24.6713 13.0996 24.8662 12.7248 25.1076V30.9188C12.7248 31.0118 12.6155 31.1249 12.3979 31.2593C12.1621 31.4047 11.9119 31.5269 11.6511 31.624C11.3712 31.7286 11.0903 31.8203 10.8094 31.8952C10.5286 31.97 10.344 32.0077 10.2501 32.0077V26.7412L10.0862 26.7189L9.92367 26.6961L8.70574 27.2869C8.59008 27.3527 8.48068 27.4283 8.37885 27.5129V33.1436C8.37885 33.2343 8.28298 33.3483 8.09845 33.4846C7.89577 33.6307 7.68556 33.7667 7.46863 33.8921C7.25664 34.0175 7.03774 34.1316 6.81294 34.2339C6.61067 34.327 6.47742 34.3688 6.41607 34.3688L6.23009 34.3223C6.0697 33.4917 5.9839 32.6491 5.97366 31.804C5.95593 30.9095 5.96599 30.0829 5.99763 29.3275C5.96599 29.1773 5.82364 29.101 5.57535 29.101H5.3889L2.90607 30.509L2.71914 30.5555C2.37451 30.5555 2.10897 30.3522 1.92204 29.942C1.73511 29.5317 1.64116 29.2233 1.64116 29.0117V28.9228C1.79646 28.7102 2.02461 28.5274 2.32035 28.3763C2.61608 28.2251 2.92045 28.0814 3.23344 27.9455C3.51279 27.8273 3.77933 27.6824 4.02909 27.5129C4.2491 27.3636 4.35742 27.1962 4.35742 27.0134V26.9231L4.12256 26.6957L0.00047978 24.2894V23.8824C0.530918 23.5797 0.874425 23.3827 1.031 23.2912C1.21772 23.2059 1.39778 23.1075 1.56975 22.9968C1.67951 22.9209 1.842 22.8828 2.06296 22.8828H2.29494L6.83594 25.29C6.95914 25.3124 7.0837 25.3272 7.20885 25.3342C7.48908 25.3342 7.83962 25.2509 8.26046 25.0844C8.68129 24.9192 8.89219 24.6839 8.89219 24.3815V24.2885C8.82988 24.2587 8.72108 24.1982 8.56434 24.1066C8.40761 24.015 8.24416 23.9112 8.07401 23.7894C7.90385 23.6675 7.73849 23.5628 7.58223 23.4721C7.42598 23.3814 7.31765 23.3205 7.25582 23.2898C6.77749 23.0299 6.27719 22.81 5.76037 22.6325C5.19861 22.4353 4.79296 22.1252 4.5434 21.7022V21.5659C4.5434 21.4171 4.62871 21.2715 4.80031 21.1352C4.98699 20.9899 5.19184 20.8679 5.40999 20.7724C5.63632 20.6693 5.87142 20.5854 6.11266 20.5217C6.30278 20.4676 6.499 20.4364 6.69694 20.4286C6.80707 20.4351 6.91643 20.4507 7.02383 20.4752L11.3755 22.8809H11.562C11.781 22.8809 11.9521 22.8507 12.0777 22.7907C12.2033 22.7307 12.3912 22.6237 12.6394 22.4716C12.7331 22.4424 12.8968 22.3595 13.1307 22.2227C13.3646 22.0864 13.6163 21.9436 13.8818 21.792C14.1474 21.6404 14.3961 21.4976 14.6296 21.3608C14.863 21.2241 15.0288 21.1282 15.1218 21.065C15.2785 20.9143 15.3557 20.7017 15.3557 20.4286V19.1588C15.3557 18.8573 15.2785 18.6304 15.1218 18.4782C14.9344 18.328 14.6856 18.1461 14.3736 17.9349C14.0568 17.721 13.7283 17.5238 13.3896 17.3442C13.0459 17.1628 12.7185 17.0028 12.406 16.867C12.0935 16.7311 11.8275 16.6637 11.608 16.6637H11.3755C11.2183 16.7545 10.9607 16.8984 10.6029 17.0953C10.245 17.2923 9.85481 17.5115 9.43238 17.7531C9.00866 17.995 8.60988 18.2224 8.23601 18.4355C7.86215 18.6462 7.59757 18.7987 7.44227 18.889C7.38044 18.9201 7.24575 18.9871 7.04396 19.0936C6.84217 19.2002 6.70845 19.2518 6.64757 19.2518L6.50809 19.2983H6.46016L6.41223 19.2518L6.22626 19.1834L5.99379 19.0709C5.89793 19.0104 5.66594 18.8746 5.29064 18.6624C4.91534 18.4503 4.66754 18.315 4.541 18.2536V18.0708L4.65891 17.9596L4.77586 17.8903L8.7019 15.4375C8.82748 15.4375 8.88979 15.3785 8.88979 15.2566L8.93533 15.1663C8.93533 15.0756 8.85816 14.9687 8.7019 14.8491C8.5376 14.7209 8.35742 14.613 8.16555 14.5282C7.96871 14.4388 7.76581 14.3627 7.55827 14.3002C7.356 14.2407 7.20789 14.21 7.11442 14.21C6.74056 14.21 6.43811 14.2923 6.20373 14.4598C5.88081 14.6815 5.54558 14.8859 5.19957 15.0719C5.07399 15.1324 4.87125 15.2394 4.58989 15.3901C4.30853 15.5408 4.01903 15.7003 3.72329 15.8659C3.42756 16.0315 3.13709 16.1916 2.85766 16.3427C2.57822 16.4939 2.38889 16.6004 2.29446 16.6623L2.06248 16.6846L1.87315 16.7074C1.49785 16.7074 1.17911 16.64 0.914526 16.5023C0.649946 16.3646 0.344146 16.146 0 15.8445V15.6613L0.0704589 15.5496L0.186451 15.4347C0.968688 14.9212 1.68766 14.4677 2.34335 14.0742C2.99905 13.6806 3.73288 13.2719 4.54483 12.848L4.59276 12.755C4.59276 12.4829 4.44897 12.2782 4.17145 12.1419C3.89393 12.0056 3.57039 11.8693 3.21043 11.7335C2.87785 11.6092 2.55709 11.457 2.25181 11.2786C1.97093 11.1124 1.83049 10.893 1.83049 10.6204L1.87842 10.4385C1.90958 10.3483 2.00256 10.1436 2.16026 9.82545C2.25685 9.61532 2.36617 9.41091 2.48763 9.21331H2.81452C3.09121 9.21301 3.36421 9.27495 3.61209 9.39425C3.86038 9.51612 4.11202 9.64404 4.36078 9.78126C4.60954 9.91848 4.86022 10.0469 5.11042 10.1655C5.35657 10.2868 5.62904 10.3493 5.90512 10.3478V5.31253C6.00098 5.31253 6.18791 5.35904 6.46735 5.44835C6.75538 5.54259 7.03616 5.65653 7.30759 5.78931C7.56729 5.91368 7.81651 6.0577 8.05292 6.22004C8.27196 6.37261 8.3822 6.50844 8.3822 6.62798V12.0312C8.3822 12.0624 8.49724 12.1526 8.73162 12.3043C8.966 12.4559 9.163 12.5768 9.31638 12.6671C9.441 12.7275 9.60397 12.8113 9.80816 12.9173C10.0123 13.0234 10.1269 13.0606 10.159 13.0299L10.4399 12.8494V7.53689L10.6038 7.55922L10.7668 7.6276C11.4215 7.93181 11.8912 8.18067 12.1721 8.37696C12.453 8.57326 12.6016 8.99282 12.6313 9.6245C12.6313 9.80684 12.6385 10.1241 12.6553 10.5799C12.672 11.0358 12.685 11.5172 12.7032 12.0312C12.7214 12.5452 12.7411 13.0299 12.7717 13.4848C12.8024 13.9397 12.8197 14.257 12.8197 14.4388C12.975 14.6497 13.2167 14.8764 13.5449 15.1189C13.8779 15.3652 14.2305 15.5856 14.5994 15.778C14.9614 15.9688 15.3363 16.1357 15.7214 16.2776C16.0946 16.4137 16.4067 16.4818 16.6575 16.4818C16.8232 16.4769 16.9878 16.4541 17.1483 16.4139C17.3487 16.37 17.5447 16.309 17.7341 16.2316C17.9057 16.1644 18.0703 16.0812 18.2253 15.9832C18.3658 15.8901 18.4358 15.785 18.4358 15.6631V11.033L18.0145 10.6241C17.8577 10.5646 17.6147 10.4357 17.2878 10.2394C16.9609 10.0431 16.6096 9.83708 16.2333 9.62636C15.8571 9.41565 15.5081 9.21749 15.1788 9.03469C14.9448 8.91123 14.7184 8.77472 14.5006 8.62582C14.2145 8.45731 13.9476 8.25975 13.7045 8.03647C13.5166 7.85444 13.4228 7.55178 13.4231 7.12849C13.4199 6.84774 13.4359 6.5671 13.4711 6.28842C13.5172 5.99092 13.5791 5.69593 13.6565 5.40463C13.7203 5.43393 13.8607 5.50231 14.0798 5.60836L14.5006 5.81117C14.7188 5.96011 14.9458 6.09663 15.1803 6.22004C15.5072 6.40145 15.8587 6.59821 16.2348 6.81032C16.6109 7.02243 16.97 7.22725 17.3123 7.42479C17.6564 7.62015 17.8874 7.7504 18.0154 7.80947H18.4367V6.08422L13.6561 3.22491C13.5314 3.16506 13.4536 3.00567 13.4226 2.74674C13.3923 2.52085 13.3844 2.29264 13.3992 2.06528C13.415 1.86992 13.4226 1.75596 13.4226 1.72665V0.998686L13.6561 0.818206L18.0125 2.99652H18.5268V0H20.9124C21.036 0.605631 21.0982 0.999151 21.0988 1.18056V2.81511L21.1693 3.01932L21.3337 3.22398L25.88 0.818206L26.0678 0.998686V3.22491C25.5047 3.55796 25.0277 3.83659 24.6376 4.06498C24.2474 4.29337 23.841 4.53386 23.4187 4.79155C22.9964 5.04925 22.6451 5.25206 22.3642 5.40416C22.1259 5.56603 21.8662 5.6959 21.592 5.79024C21.2944 5.89536 21.13 6.10003 21.0988 6.40238C21.0988 6.55449 21.1151 6.82567 21.1468 7.22012C21.1784 7.61457 21.1947 7.88669 21.1947 8.0374H21.7104L26.0832 5.72186V8.0374C26.0832 8.18904 25.8699 8.40022 25.4467 8.6728C25.0234 8.94538 24.536 9.23982 23.9905 9.55659C23.4451 9.87336 22.9087 10.1678 22.3915 10.4404C21.8743 10.713 21.523 10.9097 21.337 11.0311C21.1803 11.1218 21.1017 11.1977 21.1017 11.2577V15.2533C21.1017 15.3752 21.1885 15.5041 21.3596 15.6389C21.5531 15.7898 21.758 15.9263 21.9726 16.0474C22.1957 16.1787 22.4331 16.2855 22.6805 16.366C22.914 16.4423 23.0803 16.4795 23.1738 16.4795C23.3623 16.4485 23.6764 16.3277 24.1161 16.1171C24.5558 15.9066 24.9872 15.6715 25.4102 15.412C25.833 15.1546 26.2092 14.9125 26.539 14.6858C26.8683 14.4593 27.0346 14.3165 27.0346 14.2551V8.62582L28.9916 7.44665L29.3195 7.6276V12.6675L29.5999 12.8499C29.6315 12.8499 29.8026 12.7727 30.1147 12.622C30.4267 12.4712 30.6783 12.3494 30.8648 12.2591L31.0747 12.1461L31.1931 12.0317V6.22004L33.1583 4.99436H33.5341C33.6887 5.83397 33.7746 6.68413 33.791 7.53689C33.8082 8.38347 33.8009 9.21579 33.7689 10.0338L33.8399 10.2618L33.9573 10.4422H34.1917L36.6721 9.03469L36.861 8.98817C37.1722 8.98817 37.4296 9.18493 37.6332 9.57845C37.8345 9.9729 37.937 10.2901 37.937 10.5329L37.9145 10.6911L37.8901 10.8493C37.7976 10.9102 37.6504 11 37.4448 11.1223C37.2392 11.2446 37.0163 11.3805 36.7666 11.5298C36.5168 11.6791 36.2911 11.8261 36.0874 11.9624C35.8837 12.0987 35.736 12.1977 35.6426 12.2573L35.5256 12.3252L35.4082 12.4392V12.6675L35.5256 12.7359L35.6426 12.8499L39.3414 15.0738L40 15.6627C39.6789 15.9025 39.3427 16.1226 38.9934 16.3218C38.6028 16.5488 38.2381 16.6637 37.8939 16.6637H37.7065L32.7379 14.03H32.5026C32.285 14.03 31.9886 14.1205 31.6135 14.3016C31.2382 14.4835 31.0517 14.6956 31.0517 14.937V15.0733L31.1677 15.1422L31.2856 15.2552L35.7821 17.9796L33.9559 19.0695C33.864 19.0945 33.7694 19.1093 33.674 19.1136C33.1676 19.1123 32.6719 18.9709 32.2452 18.7062C31.7796 18.4252 31.3338 18.1144 30.9108 17.7759C30.4921 17.4416 30.054 17.1309 29.5985 16.8456C29.1819 16.5789 28.694 16.4366 28.195 16.4362C28.0383 16.4362 27.9295 16.4516 27.8657 16.4827C27.802 16.5139 27.6951 16.5758 27.5384 16.6651C27.2268 16.8465 26.8194 17.0874 26.32 17.3912C25.8205 17.6949 25.4006 17.9429 25.057 18.1405C24.7133 18.3382 24.5101 18.4499 24.4473 18.4796V21.0682L24.6357 21.1831L24.8686 21.2957C24.9619 21.3552 25.1493 21.461 25.4308 21.6129C25.7127 21.7636 26.0017 21.9236 26.2984 22.0897C26.5951 22.2558 26.8836 22.4153 27.1636 22.567C27.4435 22.7186 27.6481 22.8242 27.7737 22.8842L27.9146 22.9074L28.0536 22.9302C28.5344 22.9264 29.0046 22.7928 29.4115 22.5442C29.8496 22.2865 30.2776 22.0074 30.6999 21.7032C31.1222 21.399 31.5493 21.1213 31.9873 20.8636C32.3946 20.6151 32.8652 20.4818 33.3462 20.4784C33.5223 20.486 33.6967 20.5161 33.8648 20.5677C34.0875 20.6306 34.3003 20.7224 34.4975 20.8408C34.6834 20.9497 34.8559 21.0787 35.0118 21.2254C35.1522 21.3627 35.2222 21.4897 35.2222 21.6115V21.7018L30.8682 24.2899V24.3829C30.8682 24.6253 31.0695 24.8448 31.4759 25.0411C31.8824 25.2374 32.2107 25.3356 32.4595 25.3356C32.9403 25.3311 33.4103 25.1968 33.8169 24.9476C34.2521 24.6899 34.6825 24.4108 35.1038 24.1066C35.5251 23.8024 35.9465 23.5242 36.3678 23.2693C36.7807 23.0151 37.2601 22.8811 37.7492 22.8833H38.124C38.2793 22.9433 38.5611 23.1033 38.9676 23.36C39.374 23.6168 39.6386 23.7912 39.7632 23.8829V24.1103L39.5768 24.2922L35.4068 26.6985V26.8803C35.4068 27.1831 35.5467 27.4097 35.829 27.5618C36.1317 27.7239 36.4443 27.8679 36.7651 27.993C37.1093 28.1293 37.4203 28.2656 37.7012 28.4014C37.9821 28.5372 38.1225 28.7423 38.1225 29.0145C38.1134 29.1471 38.0819 29.2774 38.0291 29.4001C37.9622 29.5749 37.8761 29.7423 37.7722 29.8992C37.6677 30.0601 37.5501 30.2125 37.4203 30.355C37.2957 30.4913 37.1864 30.5583 37.093 30.5583L36.9755 30.536L36.8595 30.5132L34.1903 29.1052H33.663V33.9153L33.5475 34.0297L33.3376 34.1432H33.1511L32.7772 33.9604C32.5908 33.8707 32.3967 33.7716 32.1944 33.6665C31.9921 33.5613 31.8047 33.4557 31.6346 33.3483C31.4644 33.2408 31.3796 33.1753 31.3796 33.1436V27.6957C31.3796 27.5446 31.2919 27.4073 31.1212 27.2869C30.9349 27.1594 30.7297 27.0602 30.5125 26.9929C30.2821 26.9177 30.0473 26.856 29.8094 26.8082C29.6478 26.7725 29.4835 26.7497 29.3181 26.7399V31.7356L28.9902 31.9175C28.3379 31.6165 27.9357 31.4184 27.7795 31.3277C27.6539 31.2672 27.4056 31.13 27.0332 30.9188V25.2904C27.0332 25.1974 26.8603 25.023 26.5146 24.7671C26.1401 24.4919 25.747 24.2414 25.3379 24.0173C24.8978 23.7757 24.4655 23.5565 24.0408 23.3596C23.6176 23.1647 23.3271 23.0647 23.1714 23.0647C23.0453 23.0647 22.8732 23.1028 22.6537 23.1772C22.4185 23.2592 22.1901 23.3583 21.9702 23.4735C21.7493 23.5847 21.5433 23.7221 21.3572 23.8824C21.1861 24.0327 21.0993 24.1689 21.0993 24.2899V27.9246C21.0993 27.9851 21.1544 28.0832 21.2632 28.2186C21.3435 28.3222 21.4299 28.4211 21.5221 28.5149L26.0683 31.2384V33.5064L25.8804 33.733L21.3342 31.3272L21.0993 31.5081V33.2795L26.0683 36.2769V38.7278H25.8804C25.7094 38.6598 25.5452 38.5765 25.3901 38.4789C25.1543 38.3428 24.9041 38.1988 24.6395 38.0468C24.3749 37.8949 24.125 37.7589 23.8899 37.6389C23.6564 37.5165 23.492 37.4272 23.3981 37.3668C23.2108 37.2759 22.9454 37.1395 22.6019 36.9574C22.2578 36.7746 21.9697 36.6318 21.7349 36.5262C21.5 36.4206 21.3687 36.3513 21.3375 36.3211L21.0106 36.5476V40L18.8087 39.7739C18.8087 39.7428 18.7933 39.5921 18.7607 39.3195C18.7281 39.0469 18.6989 38.7059 18.6678 38.2961C18.6366 37.8863 18.6198 37.5779 18.6198 37.3658C18.5908 37.1776 18.583 36.9868 18.5968 36.7969C18.6122 36.6304 18.48 36.547 18.2004 36.5467C18.0981 36.5421 17.9955 36.5509 17.8956 36.5727V36.5727ZM19.4174 17.5693C19.1664 17.6463 18.9232 17.7454 18.6908 17.8652C18.4666 17.9798 18.2554 18.1169 18.0605 18.274C17.8735 18.4261 17.7791 18.5624 17.7791 18.6843V20.6845C17.7791 20.7449 17.8646 20.8512 18.0355 21.0031C18.161 21.1172 18.294 21.2232 18.4338 21.3203C18.558 21.3808 18.8245 21.5171 19.2309 21.7306C19.6374 21.9441 19.9168 22.0632 20.0736 22.0934C20.1992 22.0316 20.4402 21.9036 20.7992 21.706C21.1583 21.5083 21.4008 21.3803 21.5244 21.3203L21.7818 21.0924L21.9458 20.9096V18.6843L21.7818 18.5034L21.5244 18.274C21.431 18.2154 21.1985 18.088 20.8232 17.8889C20.4479 17.6898 20.2001 17.5633 20.0736 17.501L19.9777 17.4544C19.8536 17.4586 19.6676 17.4958 19.4174 17.5693V17.5693Z" fill="white"/>
</svg>
