<svg width="48" height="48" viewBox="0 0 48 48" fill="none" xmlns="http://www.w3.org/2000/svg">
<path d="M24 48C37.2548 48 48 37.2548 48 24C48 10.7451 37.2548 0 24 0C10.7452 0 0 10.7451 0 24C0 37.2548 10.7452 48 24 48Z" fill="#50AE58"/>
<path d="M30.7393 5.06055L16.7196 42.4985C16.7316 42.4985 1.18363 15.9995 30.7393 5.06055Z" fill="white"/>
<path d="M35.8156 27.943C35.7768 27.9559 35.751 27.9559 35.7252 27.9559C32.8838 28.4725 30.0295 28.9762 27.1881 29.4799C26.0644 29.6866 24.9279 29.8932 23.8043 30.087C23.7655 30.0999 23.7397 30.0999 23.7009 30.087L32.2638 7.58837L32.2767 7.57544C33.465 14.3819 34.6403 21.1495 35.8156 27.943Z" fill="black"/>
<path d="M35.0671 29.8554C30.0043 33.2909 24.9415 36.7393 19.8657 40.1748L22.9912 31.9606C23.0171 31.9735 23.0429 31.9606 23.0817 31.9606C26.1168 31.4311 29.139 30.8887 32.1612 30.3591C33.0911 30.1912 34.021 30.0233 34.9509 29.8554C34.9896 29.8425 35.0155 29.8425 35.0671 29.8296C35.0542 29.8425 35.0671 29.8554 35.0671 29.8554Z" fill="black"/>
</svg>
