<svg width="37" height="39" viewBox="0 0 37 39" fill="none" xmlns="http://www.w3.org/2000/svg">
<path d="M19.1148 0L4.31207 38.6735C4.31207 38.6735 -12.1006 11.2928 19.1148 0Z" fill="#3B3B3B"/>
<path d="M7.75293 36.2739L18.1554 8.62883C18.1554 8.62883 37.3263 23.7954 7.75293 36.2739Z" fill="#3B3B3B"/>
<path d="M24.1328 0L23.8677 0.881244V26.4506L24.1328 26.7095L36.2626 19.6937L24.1328 0Z" fill="#343434"/>
<path d="M24.1301 0L12 19.6937L24.1301 26.7095V14.2988V0Z" fill="#8C8C8C"/>
<path d="M24.1331 28.9566L23.9836 29.1349V38.2431L24.1331 38.67L36.2703 21.9445L24.1331 28.9566Z" fill="#3C3C3B"/>
<path d="M24.1301 38.67V28.9566L12 21.9445L24.1301 38.67Z" fill="#8C8C8C"/>
<path d="M24.1282 26.7095L36.2579 19.6937L24.1282 14.2988V26.7095Z" fill="#141414"/>
<path d="M12 19.6937L24.1301 26.7095V14.2988L12 19.6937Z" fill="#393939"/>
</svg>
