<svg width="48" height="48" viewBox="0 0 48 48" fill="none" xmlns="http://www.w3.org/2000/svg">
<path d="M48 24C48 37.2548 37.2548 48 24 48C10.7452 48 0 37.2548 0 24C0 10.7452 10.7452 0 24 0C37.2548 0 48 10.7452 48 24Z" fill="black"/>
<path d="M25.436 28.708H22.16V27.588C22.16 23.08 27.424 22.828 27.424 19.664C27.424 18.152 26.192 17.004 24.232 17.004C22.132 17.004 20.508 18.376 20.48 20.896H16.952C17.26 16.472 20.256 13.98 24.26 13.98C28.264 13.98 30.784 16.444 30.784 19.552C30.784 24.172 25.436 24.368 25.436 27.588V28.708ZM23.812 34.364C22.58 34.364 21.656 33.44 21.656 32.208C21.656 31.004 22.58 30.08 23.812 30.08C25.044 30.08 25.968 31.004 25.968 32.208C25.968 33.44 25.044 34.364 23.812 34.364Z" fill="white"/>
</svg>