<svg width="233px" height="390px" viewBox="0 0 233 390" version="1.1" xmlns="http://www.w3.org/2000/svg" xmlns:xlink="http://www.w3.org/1999/xlink">
    <g id="Page-1" stroke="none" stroke-width="1" fill="none" fill-rule="evenodd">
        <g id="BeanstalkLogo" transform="translate(-140.000000, -61.000000)" fill="#000000" fill-rule="nonzero">
            <g id="?" transform="translate(140.000000, 61.000000)">
                <path d="M88.1268238,335.483871 L140.166105,335.483871 L140.166105,390 L88.1268238,390 L88.1268238,335.483871 Z M0,125.544355 C0,87.8024194 10.6344931,57.4428763 31.9034792,34.4657258 C53.1724654,11.4885753 82.3737374,2.84217094e-14 119.507295,2.84217094e-14 C153.851478,2.84217094e-14 181.352974,9.82862903 202.011785,29.4858871 C222.670595,49.1431452 233,74.2607527 233,104.83871 C233,123.360215 229.208193,138.387097 221.624579,149.919355 C214.040965,161.451613 198.742985,178.400538 175.73064,200.766129 C158.994388,217.016129 148.141975,230.77621 143.173401,242.046371 C138.204826,253.316532 135.720539,269.959677 135.720539,291.975806 L89.1728395,291.975806 C89.1728395,266.989247 92.1365507,246.851478 98.0639731,231.5625 C103.991395,216.273522 116.979424,198.75672 137.028058,179.012097 L157.948373,158.306452 C164.224467,152.365591 169.28021,146.162634 173.1156,139.697581 C180.089039,128.340054 183.575758,116.545699 183.575758,104.314516 C183.575758,87.1908602 178.476431,72.3387097 168.277778,59.7580645 C158.079125,47.1774194 141.212121,40.8870968 117.676768,40.8870968 C88.5626637,40.8870968 68.4268612,51.7204301 57.2693603,73.3870968 C50.993266,85.4435484 47.419379,102.829301 46.5476992,125.544355 L0,125.544355 Z" id="Shape"></path>
            </g>
        </g>
    </g>
</svg>