<svg width="48" height="48" viewBox="0 0 48 48" fill="none" xmlns="http://www.w3.org/2000/svg">
<path d="M48 24C48 37.2548 37.2548 48 24 48C10.7452 48 0 37.2548 0 24C0 10.7452 10.7452 0 24 0C37.2548 0 48 10.7452 48 24Z" fill="black"/>
<path d="M21.4 34H8.044V14.4H11.404V30.976H21.4V34Z" fill="white"/>
<path d="M27.7282 34H24.3682V14.4H34.3082C38.3122 14.4 40.7482 17.06 40.7482 20.56C40.7482 24.508 38.0042 26.916 34.3082 26.916H27.7282V34ZM27.7282 17.424V23.892H34.1402C36.2402 23.892 37.3322 22.324 37.3322 20.56C37.3322 18.712 36.0722 17.424 34.1402 17.424H27.7282Z" fill="white"/>
</svg>
