<svg xmlns="http://www.w3.org/2000/svg" version="1.1" width="204px" height="204px" style="shape-rendering:geometricPrecision; text-rendering:geometricPrecision; image-rendering:optimizeQuality; fill-rule:evenodd; clip-rule:evenodd" xmlns:xlink="http://www.w3.org/1999/xlink">
<g><path style="opacity:0.992" fill="#01a3ff" d="M 85.5,-0.5 C 96.1667,-0.5 106.833,-0.5 117.5,-0.5C 164.473,9.80645 193.14,38.4731 203.5,85.5C 203.5,96.1667 203.5,106.833 203.5,117.5C 193.036,164.964 164.036,193.63 116.5,203.5C 106.167,203.5 95.8333,203.5 85.5,203.5C 38.5269,193.194 9.86021,164.527 -0.5,117.5C -0.5,106.833 -0.5,96.1667 -0.5,85.5C 9.82442,38.5089 38.4911,9.84225 85.5,-0.5 Z"/></g>
<g><path style="opacity:1" fill="#fbfdff" d="M 100.5,31.5 C 101.659,42.3255 101.826,53.3255 101,64.5C 90.1846,71.49 79.0179,77.8233 67.5,83.5C 78.4735,66.1842 89.4735,48.8509 100.5,31.5 Z"/></g>
<g><path style="opacity:1" fill="#97d9ff" d="M 100.5,31.5 C 100.56,30.9569 100.893,30.6236 101.5,30.5C 113.425,48.0237 125.092,65.6904 136.5,83.5C 136.103,84.525 135.437,84.6917 134.5,84C 123.997,77.5807 113.33,71.4141 102.5,65.5C 101.501,78.8167 101.167,92.15 101.5,105.5C 89.3921,98.9434 77.3921,92.1101 65.5,85C 66.0442,84.2828 66.7109,83.7828 67.5,83.5C 79.0179,77.8233 90.1846,71.49 101,64.5C 101.826,53.3255 101.659,42.3255 100.5,31.5 Z"/></g>
<g><path style="opacity:1" fill="#33b6ff" d="M 136.5,83.5 C 137.774,84.1894 137.774,85.0228 136.5,86C 124.779,92.5242 113.112,99.0242 101.5,105.5C 101.167,92.15 101.501,78.8167 102.5,65.5C 113.33,71.4141 123.997,77.5807 134.5,84C 135.437,84.6917 136.103,84.525 136.5,83.5 Z"/></g>
<g><path style="opacity:1" fill="#fcfeff" d="M 60.5,95.5 C 74.0885,121.009 87.4218,146.676 100.5,172.5C 77.0327,171.184 61.1994,159.517 53,137.5C 47.9426,121.906 50.276,107.573 60,94.5C 60.3988,94.7284 60.5654,95.0618 60.5,95.5 Z"/></g>
<g><path style="opacity:1" fill="#97d9ff" d="M 60.5,95.5 C 74.1667,102.833 87.8333,110.167 101.5,117.5C 101.333,135.503 101.5,153.503 102,171.5C 115.752,146.33 129.252,120.997 142.5,95.5C 143.496,95.4142 144.329,95.7476 145,96.5C 157.532,121.139 153.699,142.973 133.5,162C 123.63,169.012 112.63,172.512 100.5,172.5C 87.4218,146.676 74.0885,121.009 60.5,95.5 Z"/></g>
<g><path style="opacity:1" fill="#34b6ff" d="M 142.5,95.5 C 129.252,120.997 115.752,146.33 102,171.5C 101.5,153.503 101.333,135.503 101.5,117.5C 115.039,109.898 128.706,102.564 142.5,95.5 Z"/></g>
</svg>
