<svg width="16" height="17" viewBox="0 0 16 17" fill="none" xmlns="http://www.w3.org/2000/svg">
<path d="M12.6667 7.83398H3.33333C2.59695 7.83398 2 8.43094 2 9.16732V13.834C2 14.5704 2.59695 15.1673 3.33333 15.1673H12.6667C13.403 15.1673 14 14.5704 14 13.834V9.16732C14 8.43094 13.403 7.83398 12.6667 7.83398Z" stroke="#666666" stroke-width="1.5" stroke-linecap="round" stroke-linejoin="round"/>
<path d="M4.66602 7.83398V5.16732C4.66602 4.28326 5.01721 3.43542 5.64233 2.8103C6.26745 2.18517 7.11529 1.83398 7.99935 1.83398C8.8834 1.83398 9.73125 2.18517 10.3564 2.8103C10.9815 3.43542 11.3327 4.28326 11.3327 5.16732V7.83398" stroke="#666666" stroke-width="1.5" stroke-linecap="round" stroke-linejoin="round"/>
</svg>
