<svg width="24" height="24" viewBox="0 0 24 24" fill="none" xmlns="http://www.w3.org/2000/svg">
<path d="M6.375 20.25C7.82475 20.25 9 19.0747 9 17.625C9 16.1753 7.82475 15 6.375 15C4.92525 15 3.75 16.1753 3.75 17.625C3.75 19.0747 4.92525 20.25 6.375 20.25Z" stroke="#1D8A79" stroke-width="1.5" stroke-linecap="round" stroke-linejoin="round"/>
<path d="M6.375 9C7.82475 9 9 7.82475 9 6.375C9 4.92525 7.82475 3.75 6.375 3.75C4.92525 3.75 3.75 4.92525 3.75 6.375C3.75 7.82475 4.92525 9 6.375 9Z" stroke="#1D8A79" stroke-width="1.5" stroke-linecap="round" stroke-linejoin="round"/>
<path d="M17.625 15.75C19.0747 15.75 20.25 14.5747 20.25 13.125C20.25 11.6753 19.0747 10.5 17.625 10.5C16.1753 10.5 15 11.6753 15 13.125C15 14.5747 16.1753 15.75 17.625 15.75Z" stroke="#1D8A79" stroke-width="1.5" stroke-linecap="round" stroke-linejoin="round"/>
<path d="M15 13.5H12.2344C11.5739 13.5013 10.9212 13.3566 10.3232 13.0762C9.72513 12.7958 9.19646 12.3867 8.775 11.8781L6.375 9V15" stroke="#1D8A79" stroke-width="1.5" stroke-linecap="round" stroke-linejoin="round"/>
</svg>
