<svg width="41" height="39" viewBox="0 0 41 39" fill="none" xmlns="http://www.w3.org/2000/svg">
<g clip-path="url(#clip0)">
<path d="M19.1148 -1L4.31207 37.6735C4.31207 37.6735 -12.1006 10.2928 19.1148 -1Z" fill="black"/>
<path d="M7.75293 35.2739L18.1554 7.62885C18.1554 7.62885 37.3263 22.7954 7.75293 35.2739Z" fill="black"/>
<path d="M24.1328 -1L23.8677 -0.118756V25.4506L24.1328 25.7095L36.2626 18.6937L24.1328 -1Z" fill="#343434"/>
<path d="M24.1301 -1L12 18.6937L24.1301 25.7095V13.2988V-1Z" fill="#8C8C8C"/>
<path d="M24.1328 27.9566L23.9834 28.1349V37.2431L24.1328 37.67L36.27 20.9445L24.1328 27.9566Z" fill="#3C3C3B"/>
<path d="M24.1301 37.67V27.9566L12 20.9445L24.1301 37.67Z" fill="#8C8C8C"/>
<path d="M24.1279 25.7095L36.2577 18.6938L24.1279 13.2988V25.7095Z" fill="#141414"/>
<path d="M12 18.6938L24.1301 25.7095V13.2988L12 18.6938Z" fill="#393939"/>
<path d="M22.27 25.7293L22.2699 25.7292L18.2114 21.6711C18.2113 21.6711 18.2113 21.671 18.2112 21.671C18.1296 21.5889 18.1296 21.4565 18.2112 21.3745C18.2113 21.3745 18.2113 21.3744 18.2114 21.3744L22.2699 17.3163L22.27 17.3162C22.4912 17.0946 22.8525 17.0946 23.0738 17.3162L23.0739 17.3163L24.0033 18.2457L24.0034 18.2458C24.225 18.4671 24.225 18.8284 24.0034 19.0496L24.0033 19.0497L23.0739 19.9792L22.8178 20.2352H23.1799H35.9688C38.6603 20.2352 40.85 22.425 40.85 25.1165C40.85 25.628 40.4333 26.0446 39.9219 26.0446H39.2031C38.6917 26.0446 38.275 25.628 38.275 25.1165C38.275 23.8446 37.2407 22.8102 35.9688 22.8102H23.1799H22.8178L23.0739 23.0663L24.0033 23.9957L24.0034 23.9958C24.225 24.2171 24.225 24.5784 24.0034 24.7996L24.0033 24.7997L23.0739 25.7292L23.0738 25.7293C22.8525 25.9509 22.4912 25.9509 22.27 25.7293Z" fill="#4CAF50" stroke="black" stroke-width="0.3"/>
<path d="M36.73 29.5349L36.7301 29.535L40.7886 33.5931C40.8704 33.6751 40.8705 33.8076 40.7888 33.8897C40.7887 33.8897 40.7887 33.8898 40.7886 33.8898L36.7301 37.9479L36.8362 38.054L36.7301 37.9479C36.5084 38.1696 36.1479 38.1697 35.9261 37.9479L34.9967 37.0185C34.774 36.7958 34.7744 36.4368 34.9967 36.2145L35.9261 35.285L36.1822 35.029H35.8201H23.0312C20.3397 35.029 18.15 32.8392 18.15 30.1477C18.15 29.6362 18.5667 29.2196 19.0781 29.2196H19.7969C20.3083 29.2196 20.725 29.6362 20.725 30.1477C20.725 31.4196 21.7593 32.454 23.0312 32.454H35.8201H36.1822L35.9261 32.1979L34.9967 31.2685C34.774 31.0458 34.7744 30.6868 34.9967 30.4645L35.9261 29.535C36.1479 29.3132 36.5088 29.3134 36.73 29.5349Z" fill="#4CAF50" stroke="black" stroke-width="0.3"/>
</g>
<defs>
<clipPath id="clip0">
<rect width="41" height="39" fill="white"/>
</clipPath>
</defs>
</svg>
