<svg xmlns="http://www.w3.org/2000/svg" width="426" height="164" fill="none"><path fill="#FFF1B6" stroke="#F7CF2D" stroke-miterlimit="10" stroke-width="2" d="M229 87.7c.9-.5 14.7-8.4 10.7-32.3l.4-.8L290 84.2l-61 3.5ZM210 108c1 .6 14.7 8.6 33.4-6.9h.8l-.5 58-33.6-51Zm-26.8-6.2c0 1 0 17 22.6 25.4l.5.8-50.6 28.5 27.5-54.7Zm-8.1-26.5c-1 .5-14.8 8.4-10.8 32.3l-.4.9L114 78.9l61-3.6ZM194 55.1c-1-.5-14.7-8.5-33.4 6.9h-.9l.6-58L194 55.1Zm26.9 6.3c0-1 0-17-22.6-25.4l-.6-.8 50.6-28.5-27.4 54.7Z"/><g clip-path="url(#a)"><path fill="#AE7B51" d="M424.2 144.8c-3.8 6.5-16 8.6-31 10.1a407 407 0 0 1-54 .9c-21.7-1.1-46.7-3.3-67.3 0-9.4 1.5-17.2 4.7-26.6 5.7-11.7 1.8-27.8 1.3-40.6 1.1-33.3-.8-63.4-6-96.2-7.9a170 170 0 0 0-35 1.7c-9.4 1.5-18.9 3.2-29.4 3.2-16.2 0-41.7-2.1-44-9-1.6-6.2 11.2-9.2 12.8-15 .6-2.8-.5-5 5-7.1 7.3-3.2 21.2-2.6 29-5a89 89 0 0 1 6-1.2c11.2-1.9 22.4-1.7 35.6-1.7h92.3c50.6 0 101.7 0 152.9.2 23.3 0 62.2.6 78.3 8.1 4.1 1.9 7.7 4.2 10.1 6.8 2.8 2.9 4 6.1 2.1 9.1Z"/><path fill="#BE9574" d="M422.1 135.6c-13 2-62-5.4-80.2-8.3-23.6-3.8-37 8-48 0-10.9-8-79.8-3-111.4-.4-22.3 1.7-91.1-2.1-129.6-4.6 11.2-1.9 22.4-1.7 35.6-1.7h92.3c50.6 0 101.7 0 152.9.2 23.3 0 62.2.6 78.3 8.1 4.1 1.9 7.7 4.2 10.1 6.7Z" opacity=".3"/><path fill="#AEBF45" d="M95.3 116.4c-1.7-.6-3.5 3-3.6 7.7 0 1.9 0 4 .2 5.8a.7.7 0 0 1-.8.2 56.8 56.8 0 0 1 0-7.5c.4-6.6 2.4-9.4 4.7-9 2.3.5 2.7 5.2 2.8 5.3l-1.6.8s0-2.8-1.7-3.3Z"/><path fill="#CED98F" d="M91 130.2a57.3 57.3 0 0 1 0-7.6c.2-3.3.9-5.9 1.8-7.4.8-1.3 1.9-1.8 3-1.6.8.1 2.2 1 2.8 5.1v.2s0 .2-1.6.9c0-.1-.1-2.8-1.7-3.3-.7-.3-1.5.2-2.1 1.3-.8 1.5-1.4 3.8-1.4 6.3l.1 5.8a.2.2 0 0 1 0 .1.8.8 0 0 1-.7.3.6.6 0 0 1-.1-.1Zm.7-6.1c0-2.5.6-5 1.4-6.4.7-1.2 1.5-1.7 2.2-1.5 1.5.6 1.8 2.8 1.8 3.3l1.4-.7c-.6-4-2-4.9-2.7-5-1.1-.2-2.1.3-2.9 1.5-1 1.5-1.6 4-1.8 7.3a55.4 55.4 0 0 0 0 7.4.7.7 0 0 0 .7-.1 89.7 89.7 0 0 1-.1-5.8Z"/><path fill="#B4D16B" d="M92.5 116.7c.7-1.2 1.6-2 2.5-2a1.8 1.8 0 0 1 1.4.7c.4.4.7 1 1 1.5.2.4.5.7.8.6a.3.3 0 0 0 .1 0l.3 1.4-1.6.8s0-2.8-1.7-3.3c-1.7-.6-3.5 3-3.6 7.7 0 2 0 4 .2 5.8a.7.7 0 0 1-.8.2 56.8 56.8 0 0 1 0-7.5l.3-3.1c.3-1 .6-2 1.1-2.8Z" opacity=".6" style="mix-blend-mode:multiply"/><path fill="#B4D16B" d="M91.9 130a.9.9 0 0 1-.3 0c0-2.2-.3-4.5-.2-6.8a15.4 15.4 0 0 1 1.3-5.6c.9-1.8 2.1-2.4 3.2-1.7a4 4 0 0 1 1.3 2l.5 1.4-.7.4s0-2.8-1.7-3.4c-1.7-.5-3.5 3-3.6 7.8 0 2 0 4 .2 5.8Z" opacity=".6" style="mix-blend-mode:multiply"/><path fill="#91BA59" d="M100.9 115.7s2.9 2.5 3 6.4c.3 3.9-2.4 3.8-3.7 3-1.3-.8.7-9.4.7-9.4Z"/><path fill="#6FAA57" d="M100.1 125.2c-1.3-.8.6-9.1.7-9.5h.1s3 2.5 3.1 6.4c.1 1.3-.2 2.3-.7 2.9a2.1 2.1 0 0 1-1.6.6 3.1 3.1 0 0 1-1.6-.4Zm.1-.1c.5.2 1 .4 1.5.4a2 2 0 0 0 1.5-.6c.5-.6.8-1.5.7-2.8a9.9 9.9 0 0 0-3-6.2c-.5 2.4-1.7 8.6-.7 9.2Z"/><path fill="#C5D872" d="m100.9 115.7.2.2c.4.4.7 1 1 1.5.2.5.5 1 .6 1.6a9.1 9.1 0 0 1 .4 3.5 8.6 8.6 0 0 1-.2 1 8.7 8.7 0 0 1-.2.9s-.3.6 0 .6a2 2 0 0 0 1-.8c-.7 1.7-2.5 1.5-3.5 1-1.3-.9.7-9.5.7-9.5Z" style="mix-blend-mode:multiply"/><path fill="#AEBF45" d="m101.2 116.6 2.3 1c1.2.4 2.2 1.5 2.3 2.7 0 0 0 .1-.2 0s-.5-.7-1.3-.8c-.8-.1-1.8 0-2.4-1a4.6 4.6 0 0 1-.7-2Z"/><path fill="#91BA59" d="M105.5 120.4a.9.9 0 0 1-.2-.2 1.6 1.6 0 0 0-1-.7h-.5c-.7 0-1.5-.1-2-1a4.5 4.5 0 0 1-.6-2c.8.4 1.5.8 2.3 1 1.3.4 2.3 1.7 2.3 2.7a.2.2 0 0 1-.1.2.3.3 0 0 1-.2 0Zm-2-2.7a12.9 12.9 0 0 1-2.2-1c.1.6.3 1.2.6 1.7.5.8 1.2.9 2 1h.4c.5 0 .9.3 1.2.7l.1.2h.1c0-1.1-1-2.3-2.2-2.6Z"/><path fill="#A2C629" d="M103.2 117.5a3.5 3.5 0 0 0-.5 0c0 .6.7 1 1.2 1.2.7.4 1.5.8 1.7 1.6-.2 0-.5-.8-1.3-.9-.8 0-1.8 0-2.4-1a4.6 4.6 0 0 1-.7-1.8l2 .9Z" style="mix-blend-mode:multiply"/><path fill="#AEBF45" d="M98.4 114.4s1.9-.3 3 1.7c1.3 2 1.5 3.8 1.5 5.9 0 2-1.2 3.8-3 4-1.8.3-3-1-3-2.6 0-1.5.3-2 0-3-.5-.9-1-2.4-.7-4 .4-1.8 2.2-2 2.2-2Z"/><path fill="#C5D872" d="M97.6 125.3a2.9 2.9 0 0 1-.7-1.9v-1.2a3.3 3.3 0 0 0-.2-1.7c-.3-.8-1-2.4-.6-4.2.5-1.8 2.3-2 2.3-2h.3a3.2 3.2 0 0 1 2.8 1.7c1.2 2 1.5 3.8 1.4 6 0 2.1-1.2 3.9-3 4.1h-.4a2.5 2.5 0 0 1-1.9-.8Zm.8-10.8s-1.7.2-2.1 1.8c-.4 1.8.2 3.4.6 4.1.2.6.3 1.2.2 1.8v1.2a2.7 2.7 0 0 0 .6 1.8 2.4 2.4 0 0 0 2.2.8c1.7-.3 2.9-1.9 2.9-4s-.2-4-1.4-6a3 3 0 0 0-2.7-1.6 2 2 0 0 0-.3 0Z" style="mix-blend-mode:multiply"/><path fill="#C5D872" d="M96.8 120.4c.4 1 .1 1.5.1 3 0 1.6 1.2 3 3 2.7 1.8-.3 3-2 3-4.1 0-2-.3-4-1.5-6-1.2-1.9-3-1.6-3-1.6s-1.8.2-2.2 2c-.4 1.6.2 3.1.6 4Zm1.8-4.9a1 1 0 0 1 1.2-.2c1.6.6 2 2.2 2.4 3.7a8.8 8.8 0 0 1 .2 3.3 2.8 2.8 0 0 1-.6 1.7 1 1 0 0 1-1.3.1 1.8 1.8 0 0 1-.6-1.2 10.2 10.2 0 0 1-.2-1.7 6.5 6.5 0 0 0-.3-2c-.3-.8-.8-1.5-1-2.4a1.7 1.7 0 0 1 .2-1.3Z" style="mix-blend-mode:multiply"/><path fill="#869C25" d="M96.2 116.3c.4-1.7 2.2-1.9 2.2-1.9h1a2.3 2.3 0 0 0-1.4.3 2.1 2.1 0 0 0-1.2 1.7c0 .8.4 1.4.7 2 .7 1 .8 2.3.9 3.5 0 .8 0 1.8.4 2.5a2 2 0 0 0 3 .4 3.7 3.7 0 0 0 .9-1.4c-.5 1.4-1.4 2.5-2.8 2.6-1.8.3-3-1-3-2.6s.3-2 0-3c-.5-.9-1.1-2.4-.7-4Z"/><path fill="#CED98F" d="M100.6 116a7.7 7.7 0 0 1 1.5 6.4 11.5 11.5 0 0 0-1.5-6.3Zm2.8 1.8c1 .4 1.8.9 2.1 2a4.5 4.5 0 0 0-2.1-2Zm-.1 2c.5 1.4.9 3.2 0 4.5.6-1.4.3-3 0-4.5Z"/><path fill="#9C6038" d="M77.4 136.2s.5-5.7 6.3-6.8c5.7-1 6.2-5.2 12-1.5 5.7 3.6 9.9 2.6 8.3 6.2s-26.6 2-26.6 2Z"/><path fill="#AEBF45" d="M60 118c-1.7-.5-3.5 3-3.6 7.8l.1 5.8a.7.7 0 0 1-.7.2 56.8 56.8 0 0 1 0-7.5c.4-6.6 2.4-9.4 4.7-9 2.2.5 2.7 5.2 2.8 5.2-.5.4-1 .6-1.6.9 0 0 0-2.8-1.7-3.4Z"/><path fill="#CED98F" d="M55.8 131.9v-.1a57.3 57.3 0 0 1-.1-7.5c.2-3.3.8-6 1.8-7.4.8-1.3 1.8-1.9 3-1.7.8.2 2.2 1 2.8 5.2v.2l-1.6.9a.1.1 0 0 1 0-.1s-.1-2.7-1.7-3.2c-.7-.3-1.5.2-2.1 1.3-.9 1.5-1.4 3.8-1.4 6.3v5.8a.2.2 0 0 1 0 .1.8.8 0 0 1-.6.2.6.6 0 0 1-.1 0Zm.6-6.1c0-2.5.5-5 1.4-6.5.7-1.1 1.5-1.6 2.2-1.4 1.5.5 1.7 2.8 1.8 3.3l1.4-.7c-.6-4-2-4.9-2.8-5-1-.2-2 .3-2.8 1.5-1 1.5-1.6 4-1.8 7.3a55.4 55.4 0 0 0 0 7.4.7.7 0 0 0 .7-.2 89.6 89.6 0 0 1-.1-5.7Z"/><path fill="#B4D16B" d="M57.2 118.4c.7-1.2 1.6-2 2.5-2a1.8 1.8 0 0 1 1.4.7c.4.4.6 1 1 1.5.2.3.5.7.8.6.3.7.3 1.3.3 1.3-.4.4-1 .6-1.5.9 0 0 0-2.8-1.7-3.4-1.7-.5-3.5 3-3.6 7.8l.1 5.8a.7.7 0 0 1-.7.2 56.8 56.8 0 0 1 0-7.5l.3-3.1c.2-1 .6-2 1.1-2.8Z" opacity=".6" style="mix-blend-mode:multiply"/><path fill="#B4D16B" d="M56.5 131.6a.9.9 0 0 1-.2.2c0-2.4-.3-4.6-.2-7a15.4 15.4 0 0 1 1.3-5.5c.9-1.8 2.1-2.4 3.2-1.7a4 4 0 0 1 1.3 2l.5 1.4-.7.3s0-2.7-1.7-3.3c-1.7-.6-3.5 3-3.6 7.7l.1 5.9Z" opacity=".6" style="mix-blend-mode:multiply"/><path fill="#91BA59" d="M65.6 117.4s2.9 2.5 3 6.4c.3 3.9-2.5 3.8-3.7 3-1.3-.8.7-9.4.7-9.4Z"/><path fill="#6FAA57" d="M64.8 126.9c-1.3-.8.6-9.1.7-9.5h.1s3 2.5 3.1 6.4c0 1.3-.2 2.2-.7 2.8a2.1 2.1 0 0 1-1.6.7 3.1 3.1 0 0 1-1.6-.4Zm0-.2c.5.3 1 .5 1.6.5a2 2 0 0 0 1.5-.6c.5-.6.7-1.5.7-2.8a9.9 9.9 0 0 0-3-6.3c-.5 2.5-1.7 8.6-.7 9.2Z"/><path fill="#C5D872" d="m65.6 117.4.2.2 1 1.4a8 8 0 0 1 .6 1.7 9.2 9.2 0 0 1 .4 3.5 8.4 8.4 0 0 1-.2 1 8.7 8.7 0 0 1-.2.9s-.3.6-.1.6a2 2 0 0 0 1-.8c-.7 1.7-2.5 1.5-3.4.9-1.3-.8.7-9.4.7-9.4Z" style="mix-blend-mode:multiply"/><path fill="#AEBF45" d="M66 118.2c.6.5 1.4.8 2.2 1 1.1.5 2.2 1.6 2.3 2.7 0 0 0 .2-.2.1-.2 0-.5-.8-1.3-.9-.8 0-1.8 0-2.4-1a4.5 4.5 0 0 1-.7-1.9Z"/><path fill="#91BA59" d="M70.2 122a.9.9 0 0 1-.2-.1 1.6 1.6 0 0 0-1-.7h-.5c-.7 0-1.5-.1-2-1a4.5 4.5 0 0 1-.6-2l2.3 1c1.2.4 2.3 1.6 2.3 2.7a.2.2 0 0 1-.2.2Zm-2-2.7a12.9 12.9 0 0 1-2.2-1c0 .7.3 1.3.6 1.8.5.8 1.2.9 2 1h.4c.4 0 .9.3 1.1.7a.8.8 0 0 0 .2.1c0-1-1-2.2-2.2-2.6Z"/><path fill="#A2C629" d="M67.9 119.2a3.5 3.5 0 0 0-.5 0c0 .6.7 1 1.1 1.2.8.4 1.5.8 1.8 1.6-.2-.1-.5-.8-1.3-.9-.8 0-1.8 0-2.4-1a4.6 4.6 0 0 1-.7-1.9l2 1Z" style="mix-blend-mode:multiply"/><path fill="#AEBF45" d="M63.1 116s1.8-.2 3 1.8c1.3 2 1.5 3.8 1.5 5.9 0 2-1.2 3.8-3 4-1.8.3-3-1-3-2.6 0-1.5.3-2 0-3-.5-.9-1-2.4-.7-4.1.4-1.7 2.2-2 2.2-2Z"/><path fill="#C5D872" d="M62.3 127a2.9 2.9 0 0 1-.7-1.9v-1.2a3.3 3.3 0 0 0-.2-1.7c-.3-.8-1-2.4-.6-4.2.5-1.8 2.3-2 2.3-2h.3a3.2 3.2 0 0 1 2.8 1.7c1.2 2 1.4 3.8 1.4 6 0 2-1.2 3.9-3 4.1a3.5 3.5 0 0 1-.4 0 2.5 2.5 0 0 1-2-.8Zm.8-10.8s-1.7.2-2.1 1.8c-.5 1.8.2 3.3.5 4.1.3.6.3 1.2.3 1.8v1.2a2.7 2.7 0 0 0 .6 1.8 2.4 2.4 0 0 0 2.2.8c1.7-.3 2.9-2 2.9-4 0-2.2-.2-4-1.4-6a3 3 0 0 0-2.7-1.6 2 2 0 0 0-.3 0Z" style="mix-blend-mode:multiply"/><path fill="#C5D872" d="M61.5 122.1c.4 1 .1 1.5.1 3s1.2 2.9 3 2.6c1.7-.2 3-2 3-4 0-2.1-.3-4-1.5-6-1.2-1.9-3-1.6-3-1.6s-1.8.2-2.2 1.9c-.5 1.7.2 3.2.6 4.1Zm1.8-4.9a1 1 0 0 1 1.2-.3c1.6.7 2 2.3 2.4 3.8a8.8 8.8 0 0 1 .2 3.3 2.8 2.8 0 0 1-.7 1.7 1 1 0 0 1-1.2.1 1.8 1.8 0 0 1-.6-1.2 10.2 10.2 0 0 1-.2-1.7 6.5 6.5 0 0 0-.3-2c-.3-.8-.8-1.6-1-2.5a1.7 1.7 0 0 1 .2-1.2Z" style="mix-blend-mode:multiply"/><path fill="#869C25" d="M60.9 118c.4-1.7 2.2-2 2.2-2l1 .1a2.3 2.3 0 0 0-1.4.3 2.1 2.1 0 0 0-1.2 1.7c0 .7.4 1.4.7 2 .6 1 .8 2.3.9 3.5 0 .8 0 1.7.3 2.5a2 2 0 0 0 3 .4c.5-.4.8-.9 1-1.4-.5 1.4-1.5 2.4-2.8 2.6-1.8.3-3-1-3-2.6s.3-2-.1-3c-.4-.9-1-2.4-.6-4.1Z"/><path fill="#CED98F" d="M65.3 117.7a7.7 7.7 0 0 1 1.5 6.4 11.4 11.4 0 0 0-1.5-6.4Zm2.7 1.8c1 .3 1.9.9 2.2 1.9a4.5 4.5 0 0 0-2.2-1.9Zm0 2c.5 1.4.9 3.2 0 4.5.6-1.4.3-3 0-4.5Z"/><path fill="#9C6038" d="M42.1 137.9s.5-5.8 6.3-6.8c5.7-1 6.2-5.2 12-1.6 5.7 3.7 9.8 2.6 8.3 6.3s-26.6 2-26.6 2Z"/><path fill="#AEBF45" d="M54.5 131.5c-1.7-.6-3.5 3-3.6 7.7 0 2 0 4 .2 5.9a.7.7 0 0 1-.8.1 56.8 56.8 0 0 1 0-7.4c.4-6.7 2.4-9.4 4.7-9 2.3.4 2.8 5.1 2.8 5.2a11.6 11.6 0 0 1-1.5.8s0-2.7-1.8-3.3Z"/><path fill="#CED98F" d="M50.3 145.3a57.3 57.3 0 0 1 0-7.5c.1-3.4.8-6 1.8-7.5.7-1.3 1.8-1.8 2.9-1.6.8.2 2.2 1 2.8 5.1v.2c0 .1 0 .2-1.6 1a.1.1 0 0 1 0-.1s0-2.7-1.7-3.3c-.7-.2-1.4.3-2 1.4-1 1.4-1.5 3.8-1.5 6.2l.1 5.8a.2.2 0 0 1 0 .2.8.8 0 0 1-.7.2Zm.6-6c0-2.6.6-5 1.5-6.5.6-1.2 1.4-1.7 2.1-1.4 1.6.5 1.8 2.7 1.8 3.3l1.4-.7c-.6-4-2-5-2.7-5-1.1-.3-2.1.3-2.9 1.5-1 1.5-1.5 4-1.8 7.3a55.4 55.4 0 0 0 0 7.3.7.7 0 0 0 .7-.1 89.7 89.7 0 0 1-.1-5.8Z"/><path fill="#B4D16B" d="M51.7 131.8c.7-1.2 1.6-2 2.5-2a1.8 1.8 0 0 1 1.4.7l1 1.6c.2.3.5.7.8.6a.3.3 0 0 0 .1-.1l.3 1.4-1.5.8s0-2.7-1.8-3.3c-1.7-.6-3.5 3-3.6 7.7 0 2 0 4 .2 5.9a.7.7 0 0 1-.4.2.7.7 0 0 1-.4 0 56.8 56.8 0 0 1 0-7.5l.3-3.2 1.1-2.8Z" opacity=".6" style="mix-blend-mode:multiply"/><path fill="#B4D16B" d="M51 145a.9.9 0 0 1-.2.2c0-2.3-.3-4.6-.1-7a15.4 15.4 0 0 1 1.2-5.4c1-1.8 2.1-2.5 3.2-1.7a4 4 0 0 1 1.3 1.9l.5 1.5-.6.3s0-2.7-1.8-3.3c-1.7-.6-3.5 3-3.6 7.7 0 2 0 4 .2 5.9Z" opacity=".6" style="mix-blend-mode:multiply"/><path fill="#91BA59" d="M60.1 130.9s2.9 2.5 3 6.3c.3 4-2.4 3.8-3.7 3-1.3-.7.7-9.3.7-9.3Z"/><path fill="#6FAA57" d="M59.3 140.3c-1.2-.8.6-9 .7-9.5h.1s3 2.6 3.2 6.4c0 1.3-.2 2.3-.8 2.9a2.1 2.1 0 0 1-1.6.6 3.1 3.1 0 0 1-1.6-.4Zm.1-.1c.5.3 1 .4 1.5.4a2 2 0 0 0 1.5-.6c.5-.6.8-1.5.7-2.7a9.9 9.9 0 0 0-3-6.3c-.5 2.5-1.7 8.6-.7 9.2Z"/><path fill="#C5D872" d="m60.1 130.9.2.1 1 1.5.7 1.6a9.2 9.2 0 0 1 .3 3.5 8.4 8.4 0 0 1-.1 1 8.6 8.6 0 0 1-.3 1s-.3.6 0 .5a2 2 0 0 0 1-.7c-.7 1.6-2.5 1.4-3.5.9-1.3-.8.7-9.4.7-9.4Z" style="mix-blend-mode:multiply"/><path fill="#AEBF45" d="M60.5 131.7c.7.4 1.4.8 2.2 1 1.2.4 2.3 1.6 2.3 2.7 0 0 0 .2-.2 0-.2 0-.5-.7-1.3-.8-.8-.1-1.8 0-2.4-1a4.6 4.6 0 0 1-.6-1.9Z"/><path fill="#91BA59" d="M64.8 135.5a.8.8 0 0 1-.2-.2 1.7 1.7 0 0 0-1.1-.6H63c-.7-.1-1.4-.2-2-1a4.5 4.5 0 0 1-.6-2l2.3 1c1.3.4 2.3 1.6 2.4 2.7a.2.2 0 0 1-.2.1.2.2 0 0 1-.1 0Zm-2.1-2.7a12.8 12.8 0 0 1-2.2-1c.1.6.3 1.2.7 1.8.4.8 1.2.8 1.8.9h.5c.5 0 .9.3 1.2.7l.1.2h.1c0-1-1-2.2-2.2-2.6Z"/><path fill="#A2C629" d="M62.4 132.6a3.5 3.5 0 0 0-.5 0c0 .7.7 1 1.2 1.2.7.4 1.5.8 1.8 1.7h-.1c-.2-.2-.5-.8-1.3-1-.8 0-1.8.1-2.4-.9a4.6 4.6 0 0 1-.6-2c.6.5 1.2.8 1.9 1Z" style="mix-blend-mode:multiply"/><path fill="#AEBF45" d="M57.7 129.5s1.8-.3 3 1.7 1.4 3.9 1.4 6c0 2-1.2 3.7-3 4-1.7.3-2.9-1.1-2.9-2.6s.2-2.1-.2-3c-.3-1-1-2.4-.5-4.1.4-1.8 2.2-2 2.2-2Z"/><path fill="#C5D872" d="M56.8 140.5a2.9 2.9 0 0 1-.7-2v-1.2a3.3 3.3 0 0 0-.1-1.7c-.4-.8-1-2.4-.6-4.2.4-1.8 2.2-2 2.2-2h.3a3.2 3.2 0 0 1 2.8 1.8c1.2 2 1.5 3.8 1.5 6 0 2-1.3 3.8-3 4l-.5.1a2.5 2.5 0 0 1-1.9-.8Zm.9-10.9s-1.8.2-2.2 1.9c-.4 1.7.3 3.3.6 4 .2.6.3 1.2.2 1.8v1.3c0 .6.2 1.3.6 1.8a2.4 2.4 0 0 0 2.2.7c1.7-.2 2.9-1.9 3-4 0-2.1-.3-3.9-1.5-5.9a3.1 3.1 0 0 0-2.7-1.6 2 2 0 0 0-.2 0Z" style="mix-blend-mode:multiply"/><path fill="#C5D872" d="M56 135.6c.4.9.1 1.4.2 3 0 1.5 1.1 2.9 2.9 2.6 1.8-.3 3-2 3-4 0-2.1-.3-4-1.5-6s-3-1.7-3-1.7-1.8.2-2.2 2c-.4 1.7.2 3.2.6 4Zm1.8-5a1 1 0 0 1 1.3-.2c1.5.6 2 2.3 2.3 3.7a8.8 8.8 0 0 1 .3 3.3 2.8 2.8 0 0 1-.7 1.7 1 1 0 0 1-.6.3 1 1 0 0 1-.7-.1 1.8 1.8 0 0 1-.6-1.2 10.2 10.2 0 0 1-.2-1.7 6.5 6.5 0 0 0-.3-2c-.3-.8-.8-1.6-1-2.5a1.7 1.7 0 0 1 .2-1.2Z" style="mix-blend-mode:multiply"/><path fill="#869C25" d="M55.4 131.5c.4-1.8 2.2-2 2.2-2h1a2.3 2.3 0 0 0-1.4.4 2.1 2.1 0 0 0-1.1 1.7c-.1.7.3 1.3.7 2 .6 1 .7 2.3.8 3.5 0 .8 0 1.7.4 2.4a2 2 0 0 0 3 .5c.4-.4.7-1 .9-1.5-.5 1.4-1.4 2.5-2.8 2.7-1.8.2-3-1.1-3-2.7s.3-2 0-3c-.5-.8-1.1-2.3-.7-4Z"/><path fill="#CED98F" d="M59.8 131.2a7.7 7.7 0 0 1 1.5 6.3 11.5 11.5 0 0 0-1.5-6.3Zm2.8 1.7c1 .4 1.8 1 2.2 2h-.1a4.5 4.5 0 0 0-2.1-2Zm0 2c.4 1.5.8 3.2 0 4.6 0 0-.1 0 0 0 .5-1.4.2-3.1 0-4.5Z"/><path fill="#9C6038" d="M36.6 151.3s.6-5.7 6.3-6.8c5.7-1 6.2-5.2 12-1.5 5.7 3.6 9.9 2.6 8.3 6.2s-26.6 2.1-26.6 2.1Z"/><path fill="#AEBF45" d="M89.4 130.2c-1.7-.5-3.5 3-3.6 7.8 0 1.9 0 4 .2 5.8a.7.7 0 0 1-.8.2 56.8 56.8 0 0 1 0-7.5c.4-6.6 2.4-9.4 4.7-9 2.3.5 2.8 5.2 2.8 5.2l-1.5.9s0-2.8-1.8-3.4Z"/><path fill="#CED98F" d="M85.2 144a57.3 57.3 0 0 1-.1-7.5c.2-3.3.9-6 1.8-7.5.8-1.2 1.9-1.8 3-1.6.8.2 2.2 1 2.8 5.2v.2l-1.6.9a.1.1 0 0 1 0-.1s0-2.7-1.7-3.2c-.7-.3-1.4.2-2 1.3-1 1.5-1.5 3.8-1.5 6.3l.1 5.8a.2.2 0 0 1 0 .1.8.8 0 0 1-.7.2Zm.6-6c0-2.5.6-5 1.5-6.5.6-1.1 1.4-1.6 2.1-1.4 1.6.5 1.8 2.8 1.8 3.3l1.4-.7c-.6-4-2-4.9-2.7-5-1.1-.2-2.1.3-2.9 1.5-1 1.5-1.5 4-1.8 7.3a55.4 55.4 0 0 0 0 7.4.7.7 0 0 0 .7-.2 89.7 89.7 0 0 1-.1-5.7Z"/><path fill="#B4D16B" d="M86.6 130.6c.7-1.2 1.6-2 2.5-2a1.8 1.8 0 0 1 1.4.7c.4.4.7 1 1 1.5.2.3.5.7.8.6a.3.3 0 0 0 .1 0l.3 1.3-1.5.9s0-2.8-1.8-3.4c-1.7-.5-3.5 3-3.6 7.8 0 1.9 0 4 .2 5.8a.7.7 0 0 1-.8.2 56.8 56.8 0 0 1 0-7.5l.3-3.1c.3-1 .6-2 1.1-2.8Z" opacity=".6" style="mix-blend-mode:multiply"/><path fill="#B4D16B" d="M86 143.8a.9.9 0 0 1-.3.1c0-2.3-.3-4.5-.1-6.9a15.4 15.4 0 0 1 1.2-5.5c.9-1.8 2.1-2.4 3.2-1.7a4 4 0 0 1 1.3 2l.5 1.4-.7.3s0-2.7-1.7-3.3c-1.7-.6-3.5 3-3.6 7.7 0 2 0 4 .2 5.9Z" opacity=".6" style="mix-blend-mode:multiply"/><path fill="#91BA59" d="M95 129.6s2.9 2.5 3 6.4c.3 3.8-2.4 3.8-3.7 3-1.3-.8.7-9.4.7-9.4Z"/><path fill="#6FAA57" d="M94.2 139c-1.2-.7.6-9 .7-9.4h.1s3 2.5 3.1 6.4c.1 1.3-.1 2.2-.7 2.8a2.1 2.1 0 0 1-1.6.7 3.1 3.1 0 0 1-1.6-.4Zm.1 0c.5.2 1 .4 1.5.4a2 2 0 0 0 1.5-.6c.5-.6.8-1.5.7-2.8a9.9 9.9 0 0 0-3-6.3c-.5 2.5-1.7 8.6-.7 9.2Z"/><path fill="#C5D872" d="m95 129.6.2.2 1 1.4a8 8 0 0 1 .6 1.7 9.2 9.2 0 0 1 .4 3.5 8.4 8.4 0 0 1-.1 1 8.7 8.7 0 0 1-.3.9s-.3.6 0 .6a2 2 0 0 0 1-.8c-.7 1.7-2.5 1.5-3.5.9-1.3-.8.7-9.4.7-9.4Z" style="mix-blend-mode:multiply"/><path fill="#AEBF45" d="M95.4 130.4c.7.5 1.4.8 2.2 1 1.2.5 2.3 1.6 2.3 2.7 0 0 0 .2-.2.1s-.5-.8-1.3-.9c-.8 0-1.8 0-2.4-1a4.6 4.6 0 0 1-.6-1.9Z"/><path fill="#91BA59" d="M99.7 134.2a.9.9 0 0 1-.2-.1 1.6 1.6 0 0 0-1.1-.7h-.5c-.7 0-1.5-.1-2-1a4.5 4.5 0 0 1-.6-2l2.3 1c1.3.4 2.3 1.6 2.4 2.7a.2.2 0 0 1-.2.2.3.3 0 0 1-.1 0Zm-2.1-2.7a12.9 12.9 0 0 1-2.2-1c.1.7.3 1.3.7 1.8.4.8 1.2.9 1.8 1h.5c.5 0 .9.3 1.2.7a.8.8 0 0 0 .1.1h.1c0-1-1-2.2-2.2-2.6Z"/><path fill="#A2C629" d="M97.3 131.4a3.5 3.5 0 0 0-.5 0c0 .6.7 1 1.2 1.2.7.4 1.5.8 1.7 1.6-.2-.1-.5-.8-1.3-.9-.8 0-1.8 0-2.4-1a4.6 4.6 0 0 1-.6-1.9 13 13 0 0 0 1.9 1Z" style="mix-blend-mode:multiply"/><path fill="#AEBF45" d="M92.6 128.3s1.8-.3 3 1.7 1.4 3.8 1.4 5.9c0 2-1.2 3.8-3 4-1.7.3-2.9-1-2.9-2.6 0-1.5.2-2-.2-3-.4-.9-1-2.4-.5-4.1.4-1.7 2.2-2 2.2-2Z"/><path fill="#C5D872" d="M91.7 139.2a2.9 2.9 0 0 1-.7-1.9v-1.2a3.3 3.3 0 0 0-.2-1.8c-.3-.7-1-2.3-.5-4.1.4-1.8 2.2-2 2.2-2h.3a3.2 3.2 0 0 1 2.8 1.7c1.2 2 1.5 3.8 1.5 6 0 2-1.3 3.9-3 4.1h-.5a2.5 2.5 0 0 1-1.9-.8Zm.9-10.8s-1.8.2-2.2 1.8c-.4 1.8.3 3.3.6 4 .2.7.3 1.3.2 1.9v1.2a2.7 2.7 0 0 0 .6 1.8 2.4 2.4 0 0 0 2.2.8c1.7-.3 2.9-2 3-4 0-2.2-.3-4-1.5-6a3 3 0 0 0-2.7-1.6 2 2 0 0 0-.2 0Z" style="mix-blend-mode:multiply"/><path fill="#C5D872" d="M90.9 134.3c.4 1 .1 1.5.2 3 0 1.5 1.1 2.9 2.9 2.6 1.8-.2 3-2 3-4 0-2.1-.3-4-1.5-6-1.2-1.9-3-1.6-3-1.6s-1.8.2-2.2 1.9c-.4 1.7.2 3.2.6 4.1Zm1.8-4.9a1 1 0 0 1 1.3-.3c1.5.7 2 2.3 2.3 3.8a8.8 8.8 0 0 1 .3 3.3 2.8 2.8 0 0 1-.7 1.7 1 1 0 0 1-1.3 0 1.8 1.8 0 0 1-.6-1 10.1 10.1 0 0 1-.2-1.8 6.5 6.5 0 0 0-.3-2c-.3-.8-.8-1.6-1-2.5a1.7 1.7 0 0 1 .2-1.2Z" style="mix-blend-mode:multiply"/><path fill="#869C25" d="M90.3 130.2c.4-1.7 2.2-2 2.2-2l1 .1a2.3 2.3 0 0 0-1.4.3 2.1 2.1 0 0 0-1.1 1.7c-.1.7.3 1.4.7 2 .6 1 .7 2.3.8 3.5 0 .8 0 1.7.4 2.5a2 2 0 0 0 3 .4c.4-.4.7-.9.9-1.4-.5 1.4-1.4 2.4-2.8 2.6-1.8.3-3-1-3-2.6s.3-2 0-3c-.5-1-1.1-2.4-.7-4.1Z"/><path fill="#CED98F" d="M94.7 130a7.7 7.7 0 0 1 1.5 6.3 11.5 11.5 0 0 0-1.5-6.4Zm2.8 1.7c1 .3 1.8.9 2.2 1.9h-.1a4.5 4.5 0 0 0-2.1-1.9Zm0 2c.4 1.4.8 3.2 0 4.5 0 0-.1 0 0 0 .5-1.4.2-3 0-4.5Z"/><path fill="#9C6038" d="M71.5 150s.6-5.7 6.3-6.7 6.2-5.2 12-1.6c5.7 3.7 9.9 2.6 8.3 6.3-1.6 3.6-26.6 2-26.6 2Z"/><path fill="#AEBF45" d="M136 114.7c-1.6-.6-3.4 3-3.5 7.7l.1 5.8a.7.7 0 0 1-.7.2 56.9 56.9 0 0 1 0-7.5c.4-6.6 2.4-9.3 4.6-9 2.3.5 2.8 5.2 2.8 5.3l-1.5.8s0-2.7-1.7-3.3Z"/><path fill="#CED98F" d="M131.9 128.5a57.1 57.1 0 0 1-.1-7.6c.2-3.3.8-5.9 1.8-7.4.8-1.3 1.8-1.8 3-1.6.8.1 2.2 1 2.8 5.1v.1a.2.2 0 0 1 0 .1s0 .2-1.6 1a.1.1 0 0 1 0-.2s-.1-2.6-1.7-3.2c-.7-.2-1.5.3-2.1 1.3-.9 1.5-1.4 3.9-1.5 6.3 0 1.7 0 3.6.2 5.8a.2.2 0 0 1 0 .1.8.8 0 0 1-.7.3.6.6 0 0 1-.1 0Zm.5-6c0-2.6.6-5 1.5-6.5.7-1.2 1.5-1.7 2.2-1.4 1.5.5 1.7 2.7 1.8 3.3l1.4-.8c-.6-4-2-4.8-2.8-5-1-.2-2 .3-2.8 1.6-1 1.4-1.6 4-1.8 7.2a55.5 55.5 0 0 0 0 7.4.7.7 0 0 0 .7-.1 90 90 0 0 1-.1-5.8Z"/><path fill="#B4D16B" d="M133.3 115c.7-1.2 1.6-2 2.5-2a1.8 1.8 0 0 1 1.4.7l1 1.6c.2.3.5.7.8.5.3.8.3 1.4.3 1.4l-1.5.8s0-2.7-1.7-3.3c-1.7-.6-3.5 3-3.6 7.7l.1 5.8a.7.7 0 0 1-.7.2 56.9 56.9 0 0 1 0-7.5 28.6 28.6 0 0 1 .3-3c.2-1 .6-2 1.1-2.9Z" opacity=".6" style="mix-blend-mode:multiply"/><path fill="#B4D16B" d="M132.6 128.2a.9.9 0 0 1-.2.2c0-2.3-.3-4.6-.2-7a15.4 15.4 0 0 1 1.3-5.5c.9-1.8 2-2.4 3.2-1.7a4 4 0 0 1 1.3 2l.5 1.5-.7.3s0-2.8-1.7-3.3c-1.7-.6-3.5 3-3.6 7.7l.1 5.8Z" opacity=".6" style="mix-blend-mode:multiply"/><path fill="#91BA59" d="M141.7 114s2.9 2.6 3 6.4c.3 3.9-2.5 3.8-3.7 3-1.3-.7.7-9.4.7-9.4Z"/><path fill="#6FAA57" d="M141 123.5c-1.4-.8.5-9.1.6-9.5h.1s3 2.5 3.1 6.4c0 1.3-.2 2.3-.7 2.9a2.1 2.1 0 0 1-1.6.6 3.1 3.1 0 0 1-1.6-.4Zm0-.1c.4.2 1 .4 1.5.4a2 2 0 0 0 1.5-.6c.5-.6.7-1.5.7-2.8a9.9 9.9 0 0 0-3-6.2c-.6 2.4-1.7 8.6-.7 9.2Z"/><path fill="#C5D872" d="m141.7 114 .2.2 1 1.5a8 8 0 0 1 .6 1.6 9.2 9.2 0 0 1 .4 3.5 8.4 8.4 0 0 1-.2 1 8.4 8.4 0 0 1-.2.9s-.3.7-.1.6a2 2 0 0 0 1-.7c-.7 1.6-2.5 1.4-3.4.8-1.3-.7.7-9.4.7-9.4Z" style="mix-blend-mode:multiply"/><path fill="#AEBF45" d="M142 114.9a12.6 12.6 0 0 0 2.3 1c1.1.4 2.2 1.6 2.3 2.7 0 0 0 .2-.2 0-.2 0-.5-.7-1.3-.8-.8-.1-1.8 0-2.4-1a4.6 4.6 0 0 1-.7-2Z"/><path fill="#91BA59" d="M146.3 118.7a.9.9 0 0 1-.2-.2 1.6 1.6 0 0 0-1-.7h-.5c-.7 0-1.5-.1-2-1a4.5 4.5 0 0 1-.6-2c.8.4 1.5.8 2.3 1 1.2.5 2.3 1.7 2.3 2.8a.2.2 0 0 1-.2.1Zm-2-2.7a12.8 12.8 0 0 1-2.2-1c0 .6.3 1.2.6 1.8.5.8 1.2.8 2 .9h.4c.4 0 .9.3 1.1.7l.2.2c0-1-1-2.2-2.2-2.6Z"/><path fill="#A2C629" d="M144 115.8a3.3 3.3 0 0 0-.5 0c0 .7.7 1 1.1 1.2.8.4 1.5.8 1.8 1.7-.2-.2-.5-.8-1.3-1-.8 0-1.8.1-2.4-.9a4.6 4.6 0 0 1-.7-2l2 1Z" style="mix-blend-mode:multiply"/><path fill="#AEBF45" d="M139.2 112.7s1.8-.3 3 1.7c1.3 2 1.5 3.8 1.5 5.9 0 2-1.2 3.8-3 4-1.8.3-3-1-3-2.6 0-1.5.3-2 0-3-.5-.8-1-2.3-.7-4 .4-1.8 2.2-2 2.2-2Z"/><path fill="#C5D872" d="M138.4 123.7a2.9 2.9 0 0 1-.7-2v-1.2a3.3 3.3 0 0 0-.2-1.7c-.3-.8-1-2.4-.6-4.2.5-1.8 2.3-2 2.3-2h.3a3.2 3.2 0 0 1 2.8 1.7c1.2 2 1.4 3.9 1.4 6s-1.2 3.9-3 4.1a3.5 3.5 0 0 1-.4 0 2.5 2.5 0 0 1-2-.7Zm.8-11s-1.7.3-2.1 2c-.5 1.7.2 3.3.5 4 .3.6.3 1.2.3 1.8v1.2a2.7 2.7 0 0 0 .6 1.9 2.4 2.4 0 0 0 2.2.7c1.7-.2 2.9-1.9 2.9-4s-.2-4-1.4-5.9a3 3 0 0 0-2.7-1.6 2 2 0 0 0-.3 0Z" style="mix-blend-mode:multiply"/><path fill="#C5D872" d="M137.6 118.8c.4.9.1 1.4.1 3 0 1.5 1.2 2.8 3 2.6 1.7-.3 3-2 3-4.1 0-2-.3-4-1.5-5.9-1.2-2-3-1.7-3-1.7s-1.8.2-2.2 2c-.5 1.7.2 3.2.6 4Zm1.8-5a1 1 0 0 1 1.2-.2c1.6.6 2 2.2 2.4 3.7a8.8 8.8 0 0 1 .2 3.3 2.8 2.8 0 0 1-.7 1.7 1 1 0 0 1-1.2.1 1.8 1.8 0 0 1-.6-1.1 10 10 0 0 1-.2-1.8 6.5 6.5 0 0 0-.3-1.9c-.3-.8-.8-1.6-1-2.5a1.6 1.6 0 0 1 .2-1.2Z" style="mix-blend-mode:multiply"/><path fill="#869C25" d="M137 114.6c.4-1.7 2.2-1.9 2.2-1.9h1a2.3 2.3 0 0 0-1.4.3 2.1 2.1 0 0 0-1.2 1.8c0 .7.4 1.3.7 2 .6 1 .8 2.3.9 3.5 0 .8 0 1.7.3 2.4a2 2 0 0 0 3 .4c.5-.4.8-.9 1-1.4-.5 1.4-1.5 2.5-2.8 2.7-1.8.2-3-1.1-3-2.7s.3-2-.1-3c-.4-.9-1-2.3-.6-4Z"/><path fill="#CED98F" d="M141.4 114.4a7.7 7.7 0 0 1 1.5 6.3 11.5 11.5 0 0 0-1.5-6.3Zm2.7 1.7c1 .4 1.9 1 2.2 2a4.5 4.5 0 0 0-2.1-2Zm0 2c.5 1.4.9 3.2 0 4.6.6-1.5.3-3.1 0-4.5Z"/><path fill="#9C6038" d="M118.2 134.5s.5-5.7 6.3-6.8c5.7-1 6.2-5.2 12-1.5 5.7 3.6 9.8 2.6 8.3 6.2s-26.6 2.1-26.6 2.1Z"/><path fill="#AEBF45" d="M174.3 113.8c-1.6-.5-3.5 3-3.5 7.8l.1 5.8a.7.7 0 0 1-.7.2 56.7 56.7 0 0 1-.1-7.5c.4-6.6 2.4-9.4 4.7-9 2.3.5 2.8 5.2 2.8 5.2l-1.5.9s0-2.8-1.8-3.4Z"/><path fill="#CED98F" d="M170.1 127.7v-.1a57.3 57.3 0 0 1 0-7.5c.2-3.3.8-6 1.8-7.5.8-1.2 1.8-1.8 3-1.6.7.2 2.1 1 2.7 5.2v.2l-1.5.9a.1.1 0 0 1-.1-.1s0-2.7-1.7-3.2c-.7-.3-1.4.2-2 1.3-1 1.5-1.5 3.8-1.5 6.3l.1 5.8a.2.2 0 0 1 0 .1.8.8 0 0 1-.6.2.6.6 0 0 1-.2 0Zm.6-6.1c0-2.5.6-5 1.5-6.5.6-1.1 1.4-1.6 2.2-1.4 1.5.5 1.7 2.8 1.7 3.3l1.4-.7c-.5-4-2-4.9-2.7-5-1-.2-2.1.3-2.9 1.5-.9 1.5-1.5 4-1.7 7.3a55.3 55.3 0 0 0 0 7.4.7.7 0 0 0 .6-.2 90 90 0 0 1 0-5.7Z"/><path fill="#B4D16B" d="M171.6 114.2c.7-1.2 1.6-2 2.5-2a1.8 1.8 0 0 1 1.4.7l1 1.5c.2.3.4.7.7.6a.3.3 0 0 0 .2 0l.2 1.3-1.5.9s0-2.8-1.8-3.4c-1.6-.5-3.5 3-3.5 7.8l.1 5.8a.7.7 0 0 1-.7.2 56.7 56.7 0 0 1-.1-7.5c0-1 .2-2 .4-3.1.2-1 .6-2 1-2.8Z" opacity=".6" style="mix-blend-mode:multiply"/><path fill="#B4D16B" d="M170.9 127.4a.9.9 0 0 1-.2.1c-.1-2.3-.4-4.5-.2-6.9a15.4 15.4 0 0 1 1.3-5.5c.8-1.8 2-2.4 3.1-1.7a4.1 4.1 0 0 1 1.3 2c.3.4.4 1 .5 1.4l-.6.3s0-2.7-1.8-3.3c-1.7-.6-3.5 3-3.5 7.7l.1 5.9Z" opacity=".6" style="mix-blend-mode:multiply"/><path fill="#91BA59" d="M180 113.2s2.8 2.5 3 6.4c.2 3.8-2.5 3.8-3.8 3-1.2-.8.7-9.4.7-9.4Z"/><path fill="#6FAA57" d="M179.2 122.7c-1.3-.8.6-9.2.6-9.5h.1s3 2.5 3.2 6.4c0 1.3-.2 2.2-.8 2.8a2.1 2.1 0 0 1-1.5.7 3.1 3.1 0 0 1-1.6-.4Zm0-.2c.5.3 1 .5 1.6.5a2 2 0 0 0 1.4-.6c.6-.6.8-1.5.7-2.8a9.9 9.9 0 0 0-3-6.3c-.5 2.5-1.6 8.6-.6 9.2Z"/><path fill="#C5D872" d="m180 113.2.1.2 1 1.4.7 1.7a9.2 9.2 0 0 1 .4 3.5 8.4 8.4 0 0 1-.2 1 8.7 8.7 0 0 1-.3.9s-.2.6 0 .6a2 2 0 0 0 1-.8c-.7 1.7-2.5 1.5-3.5.9-1.2-.8.7-9.4.7-9.4Z" style="mix-blend-mode:multiply"/><path fill="#AEBF45" d="M180.3 114c.7.5 1.4.8 2.2 1 1.2.5 2.3 1.6 2.3 2.7 0 0 0 .2-.2.1s-.5-.8-1.3-.9c-.8 0-1.8 0-2.4-1a4.6 4.6 0 0 1-.6-1.9Z"/><path fill="#91BA59" d="M184.6 117.8a.9.9 0 0 1-.2-.1 1.7 1.7 0 0 0-1.1-.7h-.4c-.7 0-1.5-.1-2-1a4.5 4.5 0 0 1-.7-2h.1l2.2 1c1.3.4 2.3 1.6 2.4 2.7a.2.2 0 0 1-.2.2.3.3 0 0 1-.1 0Zm-2-2.7a12.7 12.7 0 0 1-2.2-1c0 .7.3 1.3.6 1.8.5.8 1.2.9 1.9 1h.4c.5 0 1 .3 1.2.7l.2.1c0-1-1-2.2-2.2-2.6Z"/><path fill="#A2C629" d="M182.2 115a3.3 3.3 0 0 0-.4 0h-.1c0 .6.7 1 1.2 1.2.7.4 1.5.8 1.8 1.6-.3-.1-.6-.8-1.4-.9-.8 0-1.8 0-2.4-1a4.6 4.6 0 0 1-.6-1.9l2 1Z" style="mix-blend-mode:multiply"/><path fill="#AEBF45" d="M177.5 111.9s1.8-.3 3 1.7 1.4 3.8 1.4 5.9c0 2-1.2 3.8-3 4-1.7.3-2.9-1-2.9-2.6 0-1.5.3-2-.1-3-.4-.9-1-2.4-.6-4.1.4-1.7 2.2-2 2.2-2Z"/><path fill="#C5D872" d="M176.6 122.8a2.9 2.9 0 0 1-.7-1.9v-1.2a3.3 3.3 0 0 0-.1-1.8c-.4-.7-1-2.3-.6-4.1.4-1.8 2.3-2 2.3-2h.3a3.2 3.2 0 0 1 2.8 1.7c1.2 2 1.4 3.8 1.4 6 0 2-1.3 3.9-3 4.1a3.5 3.5 0 0 1-.4 0 2.5 2.5 0 0 1-2-.8Zm.9-10.8s-1.8.2-2.2 1.8c-.4 1.8.3 3.3.6 4 .2.7.3 1.3.2 1.9v1.2a2.7 2.7 0 0 0 .7 1.8 2.4 2.4 0 0 0 2.1.8c1.7-.3 3-2 3-4 0-2.2-.3-4-1.5-6a3.1 3.1 0 0 0-2.6-1.6 2 2 0 0 0-.3 0Z" style="mix-blend-mode:multiply"/><path fill="#C5D872" d="M175.8 118c.4.8.2 1.4.2 2.9s1.2 2.9 3 2.6c1.7-.2 2.9-2 2.9-4 0-2.1-.2-4-1.4-6-1.2-1.9-3-1.6-3-1.6s-1.9.2-2.3 1.9c-.4 1.7.2 3.2.6 4.1Zm1.8-5a1 1 0 0 1 1.3-.3c1.5.7 2 2.3 2.4 3.8a8.8 8.8 0 0 1 .2 3.3 2.8 2.8 0 0 1-.7 1.7 1 1 0 0 1-1.3 0 1.8 1.8 0 0 1-.6-1 10 10 0 0 1-.1-1.8 6.5 6.5 0 0 0-.4-2c-.3-.8-.8-1.6-1-2.5a1.6 1.6 0 0 1 .2-1.2Z" style="mix-blend-mode:multiply"/><path fill="#869C25" d="M175.2 113.8c.5-1.7 2.3-2 2.3-2l.9.1a2.3 2.3 0 0 0-1.4.3 2.1 2.1 0 0 0-.8.7 2.1 2.1 0 0 0-.3 1c-.1.7.3 1.4.7 2 .6 1 .7 2.3.8 3.5 0 .8 0 1.7.4 2.5a2 2 0 0 0 1.4 1 2 2 0 0 0 1.7-.6l.8-1.4c-.4 1.4-1.4 2.4-2.7 2.6-1.8.3-3-1-3-2.6s.2-2-.2-3c-.3-1-1-2.4-.6-4.1Z"/><path fill="#CED98F" d="M179.7 113.5a7.7 7.7 0 0 1 1.4 6.3c0 .1 0 0 0 0a11.4 11.4 0 0 0-1.4-6.3Zm2.7 1.8c1 .3 1.8.9 2.2 1.9a4.5 4.5 0 0 0-2.2-1.9Zm0 2c.4 1.4.8 3.2 0 4.5.6-1.4.2-3 0-4.5Z"/><path fill="#9C6038" d="M156.5 133.7s.5-5.8 6.2-6.8 6.3-5.2 12-1.6c5.7 3.7 9.9 2.6 8.3 6.3s-26.5 2-26.5 2Z"/><path fill="#AEBF45" d="M211.8 114.2c-1.7-.5-3.5 3.1-3.6 7.8l.1 5.8a.7.7 0 0 1-.7.2 56.9 56.9 0 0 1 0-7.5c.4-6.6 2.3-9.4 4.6-9 2.3.5 2.8 5.2 2.8 5.3l-1.5.8s0-2.8-1.7-3.4Z"/><path fill="#CED98F" d="M207.6 128.1a57.3 57.3 0 0 1-.1-7.6c.2-3.3.8-5.9 1.8-7.4.8-1.3 1.8-1.8 3-1.6.7.1 2.2 1 2.8 5.1a.2.2 0 0 1 0 .2s0 .2-1.6.9c0-.1-.1-2.8-1.8-3.3-.7-.3-1.4.2-2 1.3-.9 1.5-1.5 3.8-1.5 6.3 0 1.7 0 3.6.2 5.8a.2.2 0 0 1 0 .1.8.8 0 0 1-.7.3.7.7 0 0 1-.1-.1Zm.5-6.1c0-2.5.6-5 1.5-6.4.7-1.2 1.5-1.7 2.2-1.5 1.5.6 1.7 2.8 1.8 3.3l1.4-.7c-.6-4-2-4.9-2.8-5-1-.2-2 .3-2.8 1.5-1 1.5-1.6 4-1.8 7.3a55.5 55.5 0 0 0 0 7.4.7.7 0 0 0 .7-.1 89.4 89.4 0 0 1-.2-5.8Z"/><path fill="#B4D16B" d="M209 114.6c.7-1.2 1.6-2 2.5-2a1.8 1.8 0 0 1 1.4.7l1 1.5c.2.4.4.7.8.6.3.7.3 1.3.3 1.4l-1.5.8s0-2.8-1.7-3.3c-1.7-.6-3.5 3-3.6 7.7l.1 5.8a.7.7 0 0 1-.7.2 56.9 56.9 0 0 1 0-7.5 28.6 28.6 0 0 1 .3-3.1c.2-1 .6-2 1-2.8Z" opacity=".6" style="mix-blend-mode:multiply"/><path fill="#B4D16B" d="M208.3 127.8a.9.9 0 0 1-.2.2c0-2.3-.3-4.6-.2-7a15.4 15.4 0 0 1 1.3-5.5c.8-1.8 2-2.4 3.2-1.7a4 4 0 0 1 1.3 2l.4 1.4-.6.4s0-2.8-1.7-3.4c-1.7-.5-3.6 3-3.6 7.8l.1 5.8Z" opacity=".6" style="mix-blend-mode:multiply"/><path fill="#91BA59" d="M217.3 113.6s3 2.5 3.1 6.4c.2 3.9-2.5 3.8-3.8 3-1.2-.8.7-9.4.7-9.4Z"/><path fill="#6FAA57" d="M216.6 123c-1.3-.7.6-9 .7-9.4.1 0 3 2.5 3.2 6.4 0 1.3-.2 2.3-.8 2.9a2.1 2.1 0 0 1-1.5.6 3.1 3.1 0 0 1-1.6-.4Zm0 0c.5.2 1 .4 1.6.4a2 2 0 0 0 1.4-.6c.6-.6.8-1.5.8-2.8a9.9 9.9 0 0 0-3-6.2c-.6 2.4-1.7 8.6-.7 9.1Z"/><path fill="#C5D872" d="m217.3 113.6.2.2c.4.4.8 1 1 1.5a8 8 0 0 1 .7 1.6 9.2 9.2 0 0 1 .4 3.5 8.4 8.4 0 0 1-.2 1 8.4 8.4 0 0 1-.2.9s-.3.6-.1.6a2 2 0 0 0 1-.8c-.7 1.7-2.5 1.5-3.5 1-1.2-.9.7-9.5.7-9.5Z" style="mix-blend-mode:multiply"/><path fill="#AEBF45" d="m217.7 114.5 2.3 1c1.1.4 2.2 1.5 2.2 2.7 0 0 0 .1-.2 0-.1 0-.5-.7-1.3-.8-.8-.1-1.8 0-2.4-1a4.6 4.6 0 0 1-.6-2Z"/><path fill="#91BA59" d="M222 118.3a.8.8 0 0 1-.2-.2 1.7 1.7 0 0 0-1-.7h-.5c-.7 0-1.5-.1-2-1a4.5 4.5 0 0 1-.7-2h.1c.7.4 1.5.8 2.2 1 1.3.4 2.4 1.6 2.4 2.7a.2.2 0 0 1-.2.2.2.2 0 0 1-.1 0Zm-2-2.7a12.8 12.8 0 0 1-2.2-1c0 .6.3 1.2.6 1.7.5.8 1.2.9 1.9 1h.4c.5 0 1 .3 1.2.7l.2.1c0-1-1-2.2-2.2-2.5Z"/><path fill="#A2C629" d="M219.6 115.4a3.5 3.5 0 0 0-.4 0h-.1c0 .6.7 1 1.2 1.2.8.4 1.5.8 1.8 1.6-.2-.1-.6-.8-1.4-.9-.8 0-1.8 0-2.4-1a4.6 4.6 0 0 1-.6-1.8 13 13 0 0 0 2 .9Z" style="mix-blend-mode:multiply"/><path fill="#AEBF45" d="M214.9 112.3s1.8-.3 3 1.7 1.5 3.8 1.4 5.9c0 2-1.1 3.8-3 4-1.7.3-2.9-1-2.9-2.6s.3-2-.1-3c-.4-.9-1-2.4-.6-4 .4-1.8 2.2-2 2.2-2Z"/><path fill="#C5D872" d="M214 123.2a2.9 2.9 0 0 1-.7-1.9v-1.2a3.3 3.3 0 0 0-.1-1.7c-.3-.8-1-2.4-.6-4.2.4-1.8 2.3-2 2.3-2h.3a3.2 3.2 0 0 1 2.8 1.7c1.2 2 1.4 3.8 1.4 6 0 2.1-1.3 3.9-3 4.1a3.7 3.7 0 0 1-.4 0 2.5 2.5 0 0 1-2-.8Zm.9-10.8s-1.8.2-2.2 1.8c-.4 1.8.3 3.4.6 4.1.2.6.3 1.2.2 1.8v1.2c0 .7.2 1.3.7 1.8a2.4 2.4 0 0 0 2.2.8c1.6-.3 2.8-2 2.9-4 0-2.1-.3-4-1.4-6a3 3 0 0 0-2.7-1.6 2 2 0 0 0-.3 0Z" style="mix-blend-mode:multiply"/><path fill="#C5D872" d="M213.2 118.3c.4 1 .2 1.5.2 3 0 1.6 1.2 3 3 2.7 1.7-.3 2.9-2 2.9-4.1 0-2-.2-4-1.4-6-1.2-1.9-3-1.6-3-1.6s-1.9.2-2.3 2c-.4 1.6.2 3.1.6 4Zm1.8-4.9a1 1 0 0 1 1.3-.3c1.5.7 2 2.3 2.4 3.8a8.8 8.8 0 0 1 .2 3.3 2.8 2.8 0 0 1-.7 1.7 1 1 0 0 1-1.2.1 1.8 1.8 0 0 1-.7-1.2 10 10 0 0 1-.1-1.7 6.5 6.5 0 0 0-.3-2c-.3-.8-.9-1.5-1-2.4a1.7 1.7 0 0 1 .1-1.3Z" style="mix-blend-mode:multiply"/><path fill="#869C25" d="M212.7 114.2c.4-1.7 2.2-1.9 2.2-1.9h.9a2.3 2.3 0 0 0-1.4.3 2.1 2.1 0 0 0-1 1.7c-.2.8.3 1.4.6 2 .6 1 .7 2.3.8 3.5.1.8 0 1.8.4 2.5a2 2 0 0 0 3 .4c.5-.4.7-.9 1-1.4-.5 1.4-1.5 2.4-2.8 2.6-1.8.3-3-1-3-2.6s.3-2-.1-3c-.4-.9-1-2.4-.6-4Z"/><path fill="#CED98F" d="M217 114a7.7 7.7 0 0 1 1.6 6.3h-.1a11.4 11.4 0 0 0-1.4-6.3Zm2.8 1.7c1 .3 1.9.9 2.2 2a4.5 4.5 0 0 0-2.2-2Zm0 2c.4 1.4.9 3.2 0 4.5.6-1.4.3-3 0-4.5Z"/><path fill="#9C6038" d="M193.9 134s.5-5.6 6.2-6.7c5.8-1 6.3-5.2 12-1.6 5.8 3.7 10 2.7 8.4 6.3s-26.6 2-26.6 2Z"/><path fill="#AEBF45" d="M248.3 114.2c-1.6-.5-3.5 3.1-3.5 7.8l.1 5.8a.7.7 0 0 1-.8.2 56.7 56.7 0 0 1 0-7.5c.4-6.6 2.4-9.4 4.7-9 2.3.5 2.8 5.2 2.8 5.3l-1.5.8s0-2.8-1.8-3.4Z"/><path fill="#CED98F" d="M244.1 128.1a57.3 57.3 0 0 1 0-7.6c.2-3.3.8-5.9 1.8-7.4.8-1.3 1.8-1.8 3-1.6.7.1 2.1 1 2.7 5.1a.2.2 0 0 1 0 .2s0 .2-1.5.9a.1.1 0 0 1-.1 0c0-.1 0-2.8-1.7-3.3-.7-.3-1.4.2-2 1.3-1 1.5-1.5 3.8-1.5 6.3l.1 5.8a.2.2 0 0 1 0 .1.8.8 0 0 1-.3.2.8.8 0 0 1-.4 0Zm.6-6.1c0-2.5.6-5 1.5-6.4.6-1.2 1.4-1.7 2.2-1.5 1.5.6 1.7 2.8 1.7 3.3l1.4-.7c-.5-4-2-4.9-2.7-5-1.1-.2-2.1.3-2.9 1.5-.9 1.5-1.5 4-1.7 7.3a55.3 55.3 0 0 0 0 7.4.7.7 0 0 0 .6-.1 89.4 89.4 0 0 1 0-5.8Z"/><path fill="#B4D16B" d="M245.6 114.6c.7-1.2 1.6-2 2.5-2a1.8 1.8 0 0 1 1.4.7l1 1.5c.2.4.4.7.7.6a.3.3 0 0 0 .1 0l.3 1.4-1.5.8s0-2.8-1.8-3.3c-1.6-.6-3.5 3-3.5 7.7l.1 5.8a.7.7 0 0 1-.8.2 56.7 56.7 0 0 1 0-7.5c0-1 .2-2 .4-3.1.2-1 .6-2 1-2.8Z" opacity=".6" style="mix-blend-mode:multiply"/><path fill="#B4D16B" d="M244.9 127.8a.9.9 0 0 1-.2.2c-.1-2.3-.4-4.6-.2-7a15.4 15.4 0 0 1 1.2-5.5c1-1.8 2.2-2.4 3.2-1.7a4 4 0 0 1 1.3 2l.5 1.4-.6.4s0-2.8-1.8-3.4c-1.7-.5-3.5 3-3.5 7.8l.1 5.8Z" opacity=".6" style="mix-blend-mode:multiply"/><path fill="#91BA59" d="M254 113.6s2.8 2.5 3 6.4c.2 3.9-2.5 3.8-3.8 3-1.2-.8.7-9.4.7-9.4Z"/><path fill="#6FAA57" d="M253.2 123c-1.3-.7.6-9 .6-9.4a.1.1 0 0 1 .1 0s3 2.5 3.2 6.4c0 1.3-.2 2.3-.8 2.9a2.1 2.1 0 0 1-1.5.6 3.1 3.1 0 0 1-1.6-.4Zm0 0c.5.2 1 .4 1.6.4a2 2 0 0 0 1.4-.6c.6-.6.8-1.5.7-2.8a9.9 9.9 0 0 0-3-6.2c-.5 2.4-1.6 8.6-.6 9.1Z"/><path fill="#C5D872" d="m254 113.6.1.2c.4.4.7 1 1 1.5l.7 1.6a9.2 9.2 0 0 1 .4 3.5 8.6 8.6 0 0 1-.2 1 8.6 8.6 0 0 1-.3.9s-.2.6 0 .6a2 2 0 0 0 1-.8c-.7 1.7-2.5 1.5-3.5 1-1.2-.9.7-9.5.7-9.5Z" style="mix-blend-mode:multiply"/><path fill="#AEBF45" d="m254.3 114.5 2.2 1c1.2.4 2.3 1.5 2.3 2.7 0 0 0 .1-.2 0-.2 0-.5-.7-1.3-.8-.8-.1-1.8 0-2.4-1a4.6 4.6 0 0 1-.6-2Z"/><path fill="#91BA59" d="M258.6 118.3a.8.8 0 0 1-.2-.2 1.7 1.7 0 0 0-1.1-.7h-.4c-.7 0-1.5-.1-2-1a4.5 4.5 0 0 1-.7-2h.1a12.3 12.3 0 0 0 2.2 1c1.3.4 2.3 1.6 2.4 2.7a.2.2 0 0 1-.2.2.2.2 0 0 1-.1 0Zm-2.1-2.7a12.7 12.7 0 0 1-2.1-1c0 .6.3 1.2.6 1.7.5.8 1.2.9 1.9 1h.4c.5 0 1 .3 1.2.7a.8.8 0 0 0 .1.1.2.2 0 0 0 .1 0c0-1-1-2.2-2.2-2.5Z"/><path fill="#A2C629" d="M256.2 115.4a3.5 3.5 0 0 0-.4 0h-.1c0 .6.7 1 1.2 1.2.7.4 1.5.8 1.8 1.6-.3-.1-.6-.8-1.4-.9-.8 0-1.8 0-2.4-1a4.6 4.6 0 0 1-.6-1.8l2 .9Z" style="mix-blend-mode:multiply"/><path fill="#AEBF45" d="M251.5 112.3s1.8-.3 3 1.7 1.4 3.8 1.4 5.9c0 2-1.2 3.8-3 4-1.7.3-2.9-1-2.9-2.6s.3-2-.1-3c-.4-.9-1-2.4-.6-4 .4-1.8 2.2-2 2.2-2Z"/><path fill="#C5D872" d="M250.6 123.2a2.9 2.9 0 0 1-.7-1.9v-1.2a3.3 3.3 0 0 0-.1-1.7c-.4-.8-1-2.4-.6-4.2.4-1.8 2.2-2 2.3-2h.3a3.2 3.2 0 0 1 2.8 1.7c1.2 2 1.4 3.8 1.4 6 0 2.1-1.3 3.9-3 4.1h-.5a2.5 2.5 0 0 1-1.9-.8Zm.9-10.8s-1.8.2-2.2 1.8c-.4 1.8.3 3.4.6 4.1.2.6.3 1.2.2 1.8v1.2c0 .7.2 1.3.6 1.8a2.4 2.4 0 0 0 2.2.8c1.7-.3 3-2 3-4 0-2.1-.3-4-1.5-6a3 3 0 0 0-2.6-1.6 2.1 2.1 0 0 0-.3 0Z" style="mix-blend-mode:multiply"/><path fill="#C5D872" d="M249.8 118.3c.4 1 .2 1.5.2 3 0 1.6 1.2 3 3 2.7 1.7-.3 2.9-2 2.9-4.1 0-2-.2-4-1.4-6-1.2-1.9-3-1.6-3-1.6s-1.9.2-2.3 2c-.4 1.6.2 3.1.6 4Zm1.8-4.9a1 1 0 0 1 1.3-.3c1.5.7 2 2.3 2.4 3.8a8.8 8.8 0 0 1 .2 3.3 2.8 2.8 0 0 1-.7 1.7 1 1 0 0 1-1.3.1 1.8 1.8 0 0 1-.6-1.2 10.2 10.2 0 0 1-.1-1.7 6.6 6.6 0 0 0-.4-2c-.3-.8-.8-1.5-1-2.4a1.6 1.6 0 0 1 .2-1.3Z" style="mix-blend-mode:multiply"/><path fill="#869C25" d="M249.2 114.2c.5-1.7 2.3-1.9 2.3-1.9h.9a2.3 2.3 0 0 0-1.4.3 2.1 2.1 0 0 0-.8.7c-.2.3-.3.7-.3 1-.1.8.3 1.4.7 2 .6 1 .7 2.3.8 3.5 0 .8 0 1.8.4 2.5a2 2 0 0 0 2.3.9l.7-.5c.4-.4.7-.9.9-1.4-.4 1.4-1.4 2.4-2.8 2.6-1.7.3-2.9-1-2.9-2.6s.2-2-.2-3c-.3-.9-1-2.4-.6-4Z"/><path fill="#CED98F" d="M253.7 114a7.7 7.7 0 0 1 1.4 6.3 11.4 11.4 0 0 0-1.4-6.3Zm2.7 1.7c1 .3 1.8.9 2.2 2a4.5 4.5 0 0 0-2.2-2Zm0 2c.4 1.4.8 3.2 0 4.5.5-1.4.2-3 0-4.5Z"/><path fill="#9C6038" d="M230.5 134s.5-5.6 6.2-6.7c5.7-1 6.3-5.2 12-1.6 5.7 3.7 9.9 2.7 8.3 6.3s-26.5 2-26.5 2Z"/><path fill="#AEBF45" d="M289.1 114.2c-1.7-.5-3.5 3.1-3.6 7.8 0 1.9 0 4 .2 5.8a.7.7 0 0 1-.8.2 56.7 56.7 0 0 1 0-7.5c.4-6.6 2.4-9.4 4.7-9 2.3.5 2.8 5.2 2.8 5.3l-1.5.8s0-2.8-1.8-3.4Z"/><path fill="#CED98F" d="M285 128.1h-.1a57.3 57.3 0 0 1 0-7.6c.1-3.3.8-5.9 1.8-7.4.7-1.3 1.8-1.8 2.9-1.6.8.1 2.2 1 2.8 5.1v.2s0 .2-1.6.9c0-.1 0-2.8-1.7-3.3-.7-.3-1.4.2-2.1 1.3-.8 1.5-1.4 3.8-1.4 6.3l.1 5.8a.2.2 0 0 1 0 .1.8.8 0 0 1-.3.2.8.8 0 0 1-.4 0Zm.5-6.1c0-2.5.6-5 1.5-6.4.6-1.2 1.4-1.7 2.1-1.5 1.6.6 1.8 2.8 1.8 3.3l1.4-.7c-.6-4-2-4.9-2.7-5-1.1-.2-2.1.3-2.9 1.5-1 1.5-1.5 4-1.8 7.3a55.3 55.3 0 0 0 0 7.4.7.7 0 0 0 .7-.1 90 90 0 0 1-.1-5.8Z"/><path fill="#B4D16B" d="M286.3 114.6c.8-1.2 1.6-2 2.5-2a1.8 1.8 0 0 1 1.4.7c.4.4.7 1 1 1.5.2.4.5.7.8.6a.3.3 0 0 0 .1 0l.3 1.4-1.5.8s0-2.8-1.8-3.3c-1.7-.6-3.5 3-3.6 7.7 0 1.9 0 4 .2 5.8a.7.7 0 0 1-.8.2 56.7 56.7 0 0 1 0-7.5l.3-3.1 1.1-2.8Z" opacity=".6" style="mix-blend-mode:multiply"/><path fill="#B4D16B" d="M285.7 127.8a.9.9 0 0 1-.3.2c0-2.3-.3-4.6-.1-7a15.4 15.4 0 0 1 1.2-5.5c1-1.8 2.1-2.4 3.2-1.7a4 4 0 0 1 1.3 2l.5 1.4-.6.4s0-2.8-1.8-3.4c-1.7-.5-3.5 3-3.6 7.8 0 2 0 4 .2 5.8Z" opacity=".6" style="mix-blend-mode:multiply"/><path fill="#91BA59" d="M294.7 113.6s2.9 2.5 3 6.4c.3 3.9-2.4 3.8-3.7 3-1.3-.8.7-9.4.7-9.4Z"/><path fill="#6FAA57" d="M294 123c-1.3-.7.5-9 .6-9.4a.1.1 0 0 1 .1 0s3 2.5 3.2 6.4c0 1.3-.2 2.3-.8 2.9a2.1 2.1 0 0 1-1.6.6 3.1 3.1 0 0 1-1.6-.4Zm0 0c.5.2 1 .4 1.5.4a2 2 0 0 0 1.5-.6c.5-.6.8-1.5.7-2.8a9.9 9.9 0 0 0-3-6.2c-.5 2.4-1.7 8.6-.7 9.1Z"/><path fill="#C5D872" d="m294.7 113.6.2.2c.4.4.7 1 1 1.5l.7 1.6a9.2 9.2 0 0 1 .3 3.5 8.6 8.6 0 0 1-.1 1 8.6 8.6 0 0 1-.3.9s-.2.6 0 .6a2 2 0 0 0 1-.8c-.7 1.7-2.5 1.5-3.5 1-1.3-.9.7-9.5.7-9.5Z" style="mix-blend-mode:multiply"/><path fill="#AEBF45" d="m295 114.5 2.3 1c1.2.4 2.3 1.5 2.3 2.7 0 0 0 .1-.2 0-.2 0-.5-.7-1.3-.8-.8-.1-1.8 0-2.4-1a4.6 4.6 0 0 1-.6-2Z"/><path fill="#91BA59" d="M299.4 118.3a.8.8 0 0 1-.2-.2 1.7 1.7 0 0 0-1.1-.7h-.5c-.7 0-1.4-.1-2-1a4.5 4.5 0 0 1-.6-2 12.3 12.3 0 0 0 2.3 1c1.3.4 2.3 1.6 2.4 2.7a.2.2 0 0 1-.2.2.2.2 0 0 1-.1 0Zm-2.1-2.7a12.8 12.8 0 0 1-2.2-1c.1.6.3 1.2.7 1.7.4.8 1.2.9 1.8 1h.5c.5 0 .9.3 1.2.7a.8.8 0 0 0 .1.1h.1c0-1-1-2.2-2.2-2.5Z"/><path fill="#A2C629" d="M297 115.4a3.5 3.5 0 0 0-.5 0c0 .6.7 1 1.2 1.2.7.4 1.5.8 1.8 1.6a.2.2 0 0 1-.1 0c-.2-.1-.5-.8-1.3-.9-.8 0-1.8 0-2.4-1a4.6 4.6 0 0 1-.6-1.8l1.9.9Z" style="mix-blend-mode:multiply"/><path fill="#AEBF45" d="M292.3 112.3s1.8-.3 3 1.7 1.4 3.8 1.4 5.9c0 2-1.2 3.8-3 4-1.7.3-2.9-1-2.9-2.6s.2-2-.2-3c-.3-.9-1-2.4-.5-4 .4-1.8 2.2-2 2.2-2Z"/><path fill="#C5D872" d="M291.4 123.2a2.9 2.9 0 0 1-.7-1.9v-1.2a3.3 3.3 0 0 0-.1-1.7c-.4-.8-1-2.4-.6-4.2.4-1.8 2.2-2 2.2-2h.3a3.2 3.2 0 0 1 2.8 1.7c1.2 2 1.5 3.8 1.5 6 0 2.1-1.3 3.9-3 4.1a3.7 3.7 0 0 1-.5 0 2.5 2.5 0 0 1-1.9-.8Zm.9-10.8s-1.8.2-2.2 1.8c-.4 1.8.3 3.4.6 4.1.2.6.3 1.2.2 1.8v1.2c0 .7.2 1.3.6 1.8a2.4 2.4 0 0 0 2.2.8c1.7-.3 2.9-2 3-4 0-2.1-.3-4-1.5-6a3.1 3.1 0 0 0-2.7-1.6 2.1 2.1 0 0 0-.2 0Z" style="mix-blend-mode:multiply"/><path fill="#C5D872" d="M290.6 118.3c.4 1 .1 1.5.2 3 0 1.6 1.1 3 3 2.7 1.7-.3 2.8-2 2.8-4.1 0-2-.2-4-1.4-6-1.2-1.9-3-1.6-3-1.6s-1.8.2-2.2 2c-.4 1.6.2 3.1.6 4Zm1.8-4.9a1 1 0 0 1 1.3-.3c1.5.7 2 2.3 2.3 3.8a8.8 8.8 0 0 1 .3 3.3 2.8 2.8 0 0 1-.7 1.7 1 1 0 0 1-1.3.1 1.8 1.8 0 0 1-.6-1.2 10.2 10.2 0 0 1-.2-1.7 6.6 6.6 0 0 0-.3-2c-.3-.8-.8-1.5-1-2.4a1.6 1.6 0 0 1 .2-1.3Z" style="mix-blend-mode:multiply"/><path fill="#869C25" d="M290 114.2c.4-1.7 2.2-1.9 2.2-1.9h1a2.3 2.3 0 0 0-1.4.3 2.1 2.1 0 0 0-.8.7c-.2.3-.3.7-.3 1-.1.8.3 1.4.7 2 .6 1 .7 2.3.8 3.5 0 .8 0 1.8.4 2.5a2 2 0 0 0 2.3.9l.7-.5c.4-.4.7-.9.9-1.4-.5 1.4-1.4 2.4-2.8 2.6-1.8.3-3-1-3-2.6s.3-2 0-3c-.5-.9-1.1-2.4-.7-4Z"/><path fill="#CED98F" d="M294.4 114a7.7 7.7 0 0 1 1.5 6.3 11.4 11.4 0 0 0-1.5-6.3Zm2.8 1.7c1 .3 1.8.9 2.2 2h-.1a4.5 4.5 0 0 0-2.1-2Zm0 2c.4 1.4.8 3.2 0 4.5 0 0-.1 0 0 0 .5-1.4.2-3 0-4.5Z"/><path fill="#9C6038" d="M271.2 134s.6-5.6 6.3-6.7c5.7-1 6.3-5.2 12-1.6s9.9 2.7 8.3 6.3-26.6 2-26.6 2Z"/><path fill="#AEBF45" d="M325.3 114.2c-1.7-.5-3.5 3.1-3.6 7.8l.1 5.8a.7.7 0 0 1-.7.2 56.7 56.7 0 0 1 0-7.5c.4-6.6 2.3-9.4 4.6-9 2.3.5 2.8 5.2 2.8 5.3l-1.5.8s0-2.8-1.7-3.4Z"/><path fill="#CED98F" d="M321 128.1a57.3 57.3 0 0 1 0-7.6c.2-3.3.8-5.9 1.8-7.4.8-1.3 1.8-1.8 3-1.6.8.1 2.2 1 2.8 5.1a.2.2 0 0 1 0 .2s0 .2-1.6.9c0-.1-.1-2.8-1.7-3.3-.7-.3-1.5.2-2.1 1.3-.9 1.5-1.4 3.8-1.4 6.3v5.8a.2.2 0 0 1 0 .1.8.8 0 0 1-.2.2.8.8 0 0 1-.4 0 .8.8 0 0 1-.1 0Zm.6-6.1c0-2.5.6-5 1.5-6.4.7-1.2 1.5-1.7 2.2-1.5 1.5.6 1.7 2.8 1.8 3.3l1.4-.7c-.6-4-2-4.9-2.8-5-1-.2-2 .3-2.8 1.5-1 1.5-1.6 4-1.8 7.3a55.5 55.5 0 0 0 0 7.4.7.7 0 0 0 .7-.1 89.4 89.4 0 0 1-.2-5.8Z"/><path fill="#B4D16B" d="M322.5 114.6c.7-1.2 1.6-2 2.5-2a1.8 1.8 0 0 1 1.4.7c.4.4.6 1 1 1.5.2.4.5.7.8.6.3.7.3 1.3.3 1.4l-1.5.8s0-2.8-1.7-3.3c-1.7-.6-3.5 3-3.6 7.7l.1 5.8a.7.7 0 0 1-.7.2 56.7 56.7 0 0 1 0-7.5 28.6 28.6 0 0 1 .3-3.1c.2-1 .6-2 1.1-2.8Z" opacity=".6" style="mix-blend-mode:multiply"/><path fill="#B4D16B" d="M321.8 127.8a.9.9 0 0 1-.2.2c0-2.3-.3-4.6-.2-7a15.4 15.4 0 0 1 1.3-5.5c.9-1.8 2-2.4 3.2-1.7a4 4 0 0 1 1.3 2l.5 1.4-.7.4s0-2.8-1.7-3.4c-1.7-.5-3.5 3-3.6 7.8l.1 5.8Z" opacity=".6" style="mix-blend-mode:multiply"/><path fill="#91BA59" d="M330.9 113.6s2.8 2.5 3 6.4c.3 3.9-2.5 3.8-3.7 3-1.3-.8.7-9.4.7-9.4Z"/><path fill="#6FAA57" d="M330.1 123c-1.3-.7.6-9 .7-9.4.1 0 3 2.5 3.2 6.4 0 1.3-.2 2.3-.7 2.9a2.1 2.1 0 0 1-1.6.6 3.1 3.1 0 0 1-1.6-.4Zm0 0c.5.2 1 .4 1.6.4a2 2 0 0 0 1.5-.6c.5-.6.7-1.5.7-2.8a9.9 9.9 0 0 0-3-6.2c-.6 2.4-1.7 8.6-.7 9.1Z"/><path fill="#C5D872" d="m330.9 113.6.2.2 1 1.5.6 1.6a9.2 9.2 0 0 1 .4 3.5 8.4 8.4 0 0 1-.2 1 8.6 8.6 0 0 1-.2.9s-.3.6-.1.6a2 2 0 0 0 1-.8c-.7 1.7-2.5 1.5-3.4 1-1.3-.9.7-9.5.7-9.5Z" style="mix-blend-mode:multiply"/><path fill="#AEBF45" d="m331.2 114.5 2.3 1c1.1.4 2.2 1.5 2.3 2.7 0 0 0 .1-.2 0-.2 0-.5-.7-1.3-.8-.9-.1-1.8 0-2.4-1a4.5 4.5 0 0 1-.7-2Z"/><path fill="#91BA59" d="M335.5 118.3a.8.8 0 0 1-.2-.2 1.7 1.7 0 0 0-1-.7h-.5c-.7 0-1.5-.1-2-1a4.5 4.5 0 0 1-.6-2c.8.4 1.5.8 2.3 1 1.3.4 2.3 1.6 2.4 2.7a.2.2 0 0 1-.2.2.2.2 0 0 1-.2 0Zm-2-2.7a12.8 12.8 0 0 1-2.2-1c0 .6.3 1.2.6 1.7.5.8 1.2.9 1.9 1h.5c.4 0 .9.3 1.1.7l.2.1c0-1-1-2.2-2.2-2.5Z"/><path fill="#A2C629" d="M333.2 115.4a3.5 3.5 0 0 0-.5 0c0 .6.6 1 1.1 1.2.8.4 1.5.8 1.8 1.6-.2-.1-.5-.8-1.4-.9-.8 0-1.7 0-2.3-1a4.6 4.6 0 0 1-.7-1.8l2 .9Z" style="mix-blend-mode:multiply"/><path fill="#AEBF45" d="M328.4 112.3s1.8-.3 3 1.7 1.5 3.8 1.4 5.9c0 2-1.1 3.8-2.9 4-1.8.3-3-1-3-2.6s.3-2-.1-3c-.4-.9-1-2.4-.6-4 .4-1.8 2.2-2 2.2-2Z"/><path fill="#C5D872" d="M327.6 123.2a2.9 2.9 0 0 1-.7-1.9v-1.2a3.3 3.3 0 0 0-.2-1.7c-.3-.8-1-2.4-.6-4.2.4-1.8 2.3-2 2.3-2h.3a3.2 3.2 0 0 1 2.8 1.7c1.2 2 1.4 3.8 1.4 6 0 2.1-1.2 3.9-3 4.1h-.4a2.5 2.5 0 0 1-2-.8Zm.8-10.8s-1.8.2-2.1 1.8c-.5 1.8.2 3.4.5 4.1.3.6.3 1.2.2 1.8v1.2c0 .7.2 1.3.7 1.8a2.4 2.4 0 0 0 2.2.8c1.7-.3 2.9-2 2.9-4 0-2.1-.2-4-1.4-6a3 3 0 0 0-2.7-1.6 2.1 2.1 0 0 0-.3 0Z" style="mix-blend-mode:multiply"/><path fill="#C5D872" d="M326.8 118.3c.4 1 .1 1.5.1 3 0 1.6 1.2 3 3 2.7 1.7-.3 3-2 3-4.1 0-2-.3-4-1.5-6-1.2-1.9-3-1.6-3-1.6s-1.8.2-2.2 2c-.5 1.6.2 3.1.6 4Zm1.8-4.9a1 1 0 0 1 1.2-.3c1.6.7 2 2.3 2.4 3.8a8.8 8.8 0 0 1 .2 3.3 2.8 2.8 0 0 1-.7 1.7 1 1 0 0 1-1.2.1 1.8 1.8 0 0 1-.6-1.2 10 10 0 0 1-.2-1.7 6.6 6.6 0 0 0-.3-2c-.3-.8-.8-1.5-1-2.4a1.6 1.6 0 0 1 .2-1.3Z" style="mix-blend-mode:multiply"/><path fill="#869C25" d="M326.2 114.2c.4-1.7 2.2-1.9 2.2-1.9h.9a2.3 2.3 0 0 0-1.3.3 2.1 2.1 0 0 0-.8.7l-.4 1c0 .8.4 1.4.7 2 .6 1 .7 2.3.9 3.5 0 .8 0 1.8.3 2.5a2 2 0 0 0 1.5 1 2 2 0 0 0 1.6-.6c.4-.4.7-.9.8-1.4-.4 1.4-1.4 2.4-2.7 2.6-1.8.3-3-1-3-2.6s.3-2-.1-3c-.4-.9-1-2.4-.6-4Z"/><path fill="#CED98F" d="M330.6 114a7.7 7.7 0 0 1 1.5 6.3h-.1a11.4 11.4 0 0 0-1.4-6.3Zm2.7 1.7c1 .3 1.9.9 2.2 2a4.5 4.5 0 0 0-2.1-2s-.1 0 0 0Zm0 2c.4 1.4.9 3.2 0 4.5.6-1.4.3-3 0-4.5Z"/><path fill="#9C6038" d="M307.4 134s.5-5.6 6.3-6.7c5.7-1 6.2-5.2 12-1.6 5.7 3.7 9.8 2.7 8.3 6.3s-26.6 2-26.6 2Z"/><path fill="#AEBF45" d="M367 114.7c-1.8-.6-3.6 3-3.7 7.7 0 2 0 4 .2 5.8a.7.7 0 0 1-.8.2 56.9 56.9 0 0 1 0-7.5c.4-6.6 2.4-9.3 4.7-9 2.3.5 2.7 5.2 2.8 5.3l-1.6.8s0-2.7-1.7-3.3Z"/><path fill="#CED98F" d="M362.7 128.5a57.3 57.3 0 0 1-.1-7.6c.2-3.3.9-5.9 1.8-7.4.8-1.3 1.9-1.8 3-1.6.8.1 2.2 1 2.8 5.1v.2s0 .2-1.6 1a.1.1 0 0 1 0-.2s0-2.6-1.7-3.2c-.7-.2-1.4.3-2.1 1.3-.8 1.5-1.4 3.9-1.4 6.3a76 76 0 0 0 .1 5.8.2.2 0 0 1 0 .1.8.8 0 0 1-.7.3.6.6 0 0 1-.1 0Zm.6-6c0-2.6.6-5 1.4-6.5.7-1.2 1.5-1.7 2.2-1.4 1.5.5 1.8 2.7 1.8 3.3l1.4-.8c-.6-4-2-4.8-2.7-5-1.1-.2-2.1.3-2.9 1.6-1 1.4-1.6 4-1.8 7.2a55.3 55.3 0 0 0 0 7.4.7.7 0 0 0 .7-.1 90 90 0 0 1-.1-5.8Z"/><path fill="#B4D16B" d="M364.1 115c.7-1.2 1.6-2 2.5-2a1.8 1.8 0 0 1 1.4.7l1 1.6c.2.3.5.7.8.5a.3.3 0 0 0 .1 0l.3 1.4-1.6.8s0-2.7-1.7-3.3c-1.7-.6-3.5 3-3.6 7.7 0 2 0 4 .2 5.8a.7.7 0 0 1-.8.2 56.9 56.9 0 0 1 0-7.5l.3-3c.3-1 .6-2 1.1-2.9Z" opacity=".6" style="mix-blend-mode:multiply"/><path fill="#B4D16B" d="M363.5 128.2a.9.9 0 0 1-.3.2c0-2.3-.3-4.6-.2-7a15.4 15.4 0 0 1 1.3-5.5c.9-1.8 2.1-2.4 3.2-1.7a4 4 0 0 1 1.3 2l.5 1.5-.7.3s0-2.8-1.7-3.3c-1.7-.6-3.5 3-3.6 7.7 0 2 0 4 .2 5.8Z" opacity=".6" style="mix-blend-mode:multiply"/><path fill="#91BA59" d="M372.5 114s2.9 2.6 3 6.4c.3 3.9-2.4 3.8-3.7 3-1.3-.7.7-9.4.7-9.4Z"/><path fill="#6FAA57" d="M371.7 123.5c-1.3-.8.6-9.1.7-9.5h.1s3 2.5 3.1 6.4c.1 1.3-.2 2.3-.7 2.9a2.1 2.1 0 0 1-1.6.6 3.1 3.1 0 0 1-1.6-.4Zm.1-.1c.5.2 1 .4 1.5.4a2 2 0 0 0 1.5-.6c.5-.6.8-1.5.7-2.8a9.9 9.9 0 0 0-3-6.2c-.5 2.4-1.7 8.6-.7 9.2Z"/><path fill="#C5D872" d="m372.5 114 .2.2 1 1.5c.2.5.5 1 .6 1.6a9.2 9.2 0 0 1 .4 3.5 8.4 8.4 0 0 1-.2 1 8.7 8.7 0 0 1-.2.9s-.3.7 0 .6a2 2 0 0 0 1-.7c-.7 1.6-2.5 1.4-3.5.8-1.3-.7.7-9.4.7-9.4Z" style="mix-blend-mode:multiply"/><path fill="#AEBF45" d="M372.8 114.9c.8.4 1.5.8 2.3 1 1.2.4 2.2 1.6 2.3 2.7 0 0 0 .2-.2 0-.2 0-.5-.7-1.3-.8-.8-.1-1.8 0-2.4-1a4.6 4.6 0 0 1-.7-2Z"/><path fill="#91BA59" d="M377.1 118.7a.8.8 0 0 1-.2-.2 1.7 1.7 0 0 0-1-.7h-.5c-.7 0-1.4-.1-2-1a4.5 4.5 0 0 1-.6-2h.1c.7.4 1.5.8 2.2 1 1.3.5 2.3 1.7 2.4 2.8a.2.2 0 0 1-.2.1.3.3 0 0 1-.2 0Zm-2-2.7a12.8 12.8 0 0 1-2.2-1l.6 1.8c.5.8 1.2.8 2 .9h.4c.5 0 .9.3 1.2.7a.8.8 0 0 0 .1.2h.1c0-1-1-2.2-2.2-2.6Z"/><path fill="#A2C629" d="M374.8 115.8a3.3 3.3 0 0 0-.5 0c0 .7.7 1 1.2 1.2.7.4 1.5.8 1.7 1.7-.2-.2-.5-.8-1.3-1-.8 0-1.8.1-2.4-.9a4.6 4.6 0 0 1-.7-2l2 1Z" style="mix-blend-mode:multiply"/><path fill="#AEBF45" d="M370 112.7s1.9-.3 3 1.7c1.3 2 1.5 3.8 1.5 5.9 0 2-1.2 3.8-3 4-1.7.3-3-1-3-2.6 0-1.5.3-2 0-3-.5-.8-1-2.3-.7-4 .4-1.8 2.2-2 2.2-2Z"/><path fill="#C5D872" d="M369.2 123.7a2.9 2.9 0 0 1-.7-2v-1.2a3.3 3.3 0 0 0-.2-1.7c-.3-.8-1-2.4-.6-4.2.5-1.8 2.3-2 2.3-2h.3a3.2 3.2 0 0 1 2.8 1.7c1.2 2 1.5 3.9 1.4 6 0 2.1-1.2 3.9-3 4.1a3.5 3.5 0 0 1-.4 0 2.5 2.5 0 0 1-1.9-.7Zm.8-11s-1.7.3-2.1 2c-.4 1.7.2 3.3.6 4 .2.6.3 1.2.2 1.8v1.2a2.7 2.7 0 0 0 .6 1.9 2.4 2.4 0 0 0 2.2.7c1.7-.2 2.9-1.9 2.9-4s-.2-4-1.4-5.9a3.1 3.1 0 0 0-2.7-1.6 2 2 0 0 0-.3 0Z" style="mix-blend-mode:multiply"/><path fill="#C5D872" d="M368.4 118.8c.4.9.1 1.4.1 3 0 1.5 1.2 2.8 3 2.6 1.8-.3 3-2 3-4.1 0-2-.3-4-1.5-5.9-1.2-2-3-1.7-3-1.7s-1.8.2-2.2 2c-.4 1.7.2 3.2.6 4Zm1.8-5a1 1 0 0 1 1.2-.2c1.6.6 2 2.2 2.4 3.7a8.8 8.8 0 0 1 .2 3.3 2.8 2.8 0 0 1-.6 1.7 1 1 0 0 1-1.3.1 1.8 1.8 0 0 1-.6-1.1 10 10 0 0 1-.2-1.8 6.5 6.5 0 0 0-.3-1.9c-.3-.8-.8-1.6-1-2.5a1.7 1.7 0 0 1 .2-1.2Z" style="mix-blend-mode:multiply"/><path fill="#869C25" d="M367.8 114.6c.4-1.7 2.2-1.9 2.2-1.9h1a2.3 2.3 0 0 0-1.4.3 2.1 2.1 0 0 0-.8.8 2.1 2.1 0 0 0-.4 1c0 .7.4 1.3.7 2 .7 1 .8 2.3.9 3.5 0 .8 0 1.7.4 2.4a2 2 0 0 0 1.4 1 2 2 0 0 0 1.6-.6c.4-.4.7-.9.8-1.4-.4 1.4-1.3 2.5-2.7 2.7-1.8.2-3-1.1-3-2.7s.3-2-.1-3c-.4-.9-1-2.3-.6-4Z"/><path fill="#CED98F" d="M372.2 114.4a7.7 7.7 0 0 1 1.5 6.3 11.4 11.4 0 0 0-1.5-6.3Zm2.8 1.7c1 .4 1.8 1 2.1 2a4.5 4.5 0 0 0-2.1-2Zm-.1 2c.5 1.4.9 3.2 0 4.6.6-1.5.3-3.1 0-4.5Z"/><path fill="#9C6038" d="M349 134.5s.5-5.7 6.3-6.8c5.7-1 6.2-5.2 12-1.5 5.7 3.6 9.9 2.6 8.3 6.2s-26.6 2.1-26.6 2.1Z"/><path fill="#AEBF45" d="M127.7 127.7c-1.7-.6-3.5 3-3.6 7.7l.1 5.9a.7.7 0 0 1-.7.1 56.7 56.7 0 0 1 0-7.4c.4-6.7 2.3-9.4 4.6-9 2.3.5 2.8 5.1 2.8 5.2l-1.5.8s0-2.7-1.7-3.3Z"/><path fill="#CED98F" d="M123.5 141.6v-.1a57.3 57.3 0 0 1-.1-7.5c.2-3.4.8-6 1.8-7.5.8-1.2 1.8-1.8 3-1.6.7.2 2.2 1 2.8 5.2v.2l-1.6.8s-.1-2.7-1.7-3.3c-.7-.2-1.5.3-2.1 1.4-.9 1.5-1.4 3.8-1.5 6.2 0 1.7 0 3.7.2 5.9a.8.8 0 0 1-.7.3.6.6 0 0 1-.1 0Zm.5-6.2c0-2.5.6-4.9 1.5-6.4.7-1.1 1.5-1.7 2.2-1.4 1.5.5 1.7 2.8 1.8 3.3l1.4-.7c-.6-4-2-5-2.8-5-1-.3-2 .3-2.8 1.5-1 1.5-1.6 4-1.8 7.3a55.3 55.3 0 0 0 0 7.4.7.7 0 0 0 .7-.2 89.4 89.4 0 0 1-.2-5.8Z"/><path fill="#B4D16B" d="M124.9 128c.7-1.1 1.6-2 2.5-2a1.8 1.8 0 0 1 1.4.7l1 1.6c.2.3.5.7.8.6a.3.3 0 0 0 0-.1c.3.8.3 1.4.3 1.4l-1.5.8s0-2.7-1.7-3.3c-1.7-.6-3.5 3-3.6 7.7l.1 5.9a.7.7 0 0 1-.7.1 56.7 56.7 0 0 1 0-7.4 11.4 11.4 0 0 1 1.5-6Z" opacity=".6" style="mix-blend-mode:multiply"/><path fill="#B4D16B" d="M124.2 141.3a.9.9 0 0 1-.2.1c0-2.3-.3-4.5-.2-6.9a15.4 15.4 0 0 1 1.3-5.5c.9-1.8 2-2.4 3.2-1.7a4 4 0 0 1 1.3 1.9l.5 1.5-.7.3s0-2.7-1.7-3.3c-1.7-.6-3.5 3-3.6 7.7l.1 5.9Z" opacity=".6" style="mix-blend-mode:multiply"/><path fill="#91BA59" d="M133.3 127s2.8 2.6 3 6.5c.2 3.8-2.5 3.7-3.7 3-1.3-.8.7-9.4.7-9.4Z"/><path fill="#6FAA57" d="M132.5 136.5c-1.3-.7.6-9 .7-9.4.1 0 3 2.5 3.2 6.4 0 1.3-.2 2.2-.7 2.8a2.1 2.1 0 0 1-1.6.7 3.1 3.1 0 0 1-1.6-.5Zm0 0c.5.2 1 .3 1.6.3a2 2 0 0 0 1.5-.6c.5-.5.7-1.5.7-2.7a9.9 9.9 0 0 0-3-6.3c-.6 2.5-1.7 8.6-.7 9.2Z"/><path fill="#C5D872" d="m133.3 127 .2.3 1 1.4.6 1.6a9.2 9.2 0 0 1 .4 3.6 8.4 8.4 0 0 1-.2 1 8.8 8.8 0 0 1-.2.8c0 .1-.3.7-.1.7a2 2 0 0 0 1-.8c-.7 1.7-2.5 1.4-3.4.9-1.3-.8.7-9.4.7-9.4Z" style="mix-blend-mode:multiply"/><path fill="#AEBF45" d="m133.6 128 2.3 1c1.1.3 2.2 1.5 2.3 2.6 0 0 0 .2-.3 0-.1 0-.4-.7-1.3-.8-.8 0-1.7 0-2.3-1a4.6 4.6 0 0 1-.7-1.9Z"/><path fill="#91BA59" d="M138 131.7a.9.9 0 0 1-.3-.2 1.7 1.7 0 0 0-1-.6h-.5c-.7-.1-1.5-.2-2-1a4.5 4.5 0 0 1-.7-2h.1l2.3 1c1.2.4 2.3 1.6 2.3 2.7a.2.2 0 0 1-.2.1Zm-2.2-2.7a12.7 12.7 0 0 1-2.1-1c0 .7.3 1.3.6 1.8.5.8 1.2.8 1.9.9h.5c.4.1.8.4 1.1.7l.2.2c0-1-1-2.2-2.2-2.6Z"/><path fill="#A2C629" d="M135.6 128.8a3.5 3.5 0 0 0-.5 0c0 .7.6 1 1.1 1.3.8.3 1.5.8 1.8 1.6-.2-.1-.6-.8-1.4-.9-.8-.1-1.7 0-2.3-1a4.6 4.6 0 0 1-.7-1.9 13 13 0 0 0 2 1Z" style="mix-blend-mode:multiply"/><path fill="#AEBF45" d="M130.8 125.8s1.8-.4 3 1.6 1.5 3.9 1.4 6c0 2-1.1 3.8-2.9 4-1.8.3-3-1-3-2.6s.3-2.1-.1-3c-.4-1-1-2.4-.6-4.1.4-1.8 2.2-2 2.2-2Z"/><path fill="#C5D872" d="M130 136.7a2.9 2.9 0 0 1-.7-2v-1.1a3.3 3.3 0 0 0-.2-1.8c-.3-.7-1-2.3-.6-4.2.4-1.8 2.3-2 2.3-2h.3a3.2 3.2 0 0 1 2.8 1.8c1.2 2 1.4 3.8 1.4 6 0 2-1.2 3.8-3 4a3.5 3.5 0 0 1-.4.1 2.5 2.5 0 0 1-2-.8Zm.8-10.9s-1.8.2-2.1 1.9c-.5 1.7.2 3.3.5 4 .3.6.3 1.3.2 1.9v1.2a2.7 2.7 0 0 0 .7 1.8 2.4 2.4 0 0 0 2.2.7c1.7-.2 2.9-1.9 2.9-4 0-2-.2-3.9-1.4-5.9a3.1 3.1 0 0 0-2.7-1.6 2.1 2.1 0 0 0-.3 0Z" style="mix-blend-mode:multiply"/><path fill="#C5D872" d="M129.2 131.8c.3.9.1 1.4.1 3 0 1.5 1.2 2.9 3 2.6 1.7-.2 2.9-2 2.9-4 0-2.1-.2-4-1.4-6s-3-1.6-3-1.6-1.8.1-2.3 1.9c-.4 1.7.3 3.2.7 4.1Zm1.8-5a1 1 0 0 1 1.2-.2c1.6.6 2 2.3 2.4 3.7a8.8 8.8 0 0 1 .2 3.4 2.8 2.8 0 0 1-.7 1.6 1 1 0 0 1-1.2.2 1.8 1.8 0 0 1-.6-1.2 10 10 0 0 1-.2-1.7 6.5 6.5 0 0 0-.3-2c-.3-.8-.8-1.6-1-2.5a1.6 1.6 0 0 1 .2-1.2Z" style="mix-blend-mode:multiply"/><path fill="#869C25" d="M128.6 127.7c.4-1.8 2.2-2 2.2-2l.9.1a2.3 2.3 0 0 0-1.4.3 2.1 2.1 0 0 0-1 1.7c-.2.7.3 1.4.6 2 .6 1 .7 2.3.9 3.5 0 .8 0 1.7.3 2.4a2 2 0 0 0 1.5 1 2 2 0 0 0 1.6-.5 3.7 3.7 0 0 0 .8-1.5c-.4 1.4-1.4 2.5-2.7 2.7-1.8.3-3-1.1-3-2.6s.3-2.1-.1-3c-.4-1-1-2.4-.6-4.1Z"/><path fill="#CED98F" d="M133 127.4a7.7 7.7 0 0 1 1.5 6.3h-.1a11.4 11.4 0 0 0-1.4-6.3Zm2.7 1.7c1 .4 1.9 1 2.2 2a4.5 4.5 0 0 0-2.1-2s-.1 0 0 0Zm0 2c.4 1.5.9 3.3 0 4.6.6-1.4.3-3 0-4.5Z"/><path fill="#9C6038" d="M109.8 147.5s.5-5.7 6.2-6.7c5.8-1 6.3-5.2 12-1.6 5.8 3.7 10 2.6 8.4 6.3s-26.6 2-26.6 2Z"/><path fill="#AEBF45" d="M167.2 127.7c-1.7-.6-3.5 3-3.6 7.7 0 2 0 4 .2 5.9a.7.7 0 0 1-.8.1 57 57 0 0 1 0-7.4c.4-6.7 2.4-9.4 4.7-9 2.3.5 2.7 5.1 2.8 5.2l-1.6.8s0-2.7-1.7-3.3Z"/><path fill="#CED98F" d="M163 141.6v-.1a57.3 57.3 0 0 1-.1-7.5c.2-3.4.9-6 1.8-7.5.8-1.2 1.9-1.8 3-1.6.8.2 2.2 1 2.8 5.2v.2l-1.6.8s-.1-2.7-1.7-3.3c-.7-.2-1.5.3-2.1 1.4-.9 1.5-1.4 3.8-1.4 6.2v5.9a.8.8 0 0 1-.6.3.7.7 0 0 1-.1 0Zm.6-6.2c0-2.5.5-4.9 1.4-6.4.7-1.1 1.5-1.7 2.2-1.4 1.5.5 1.8 2.8 1.8 3.3l1.4-.7c-.6-4-2-5-2.7-5-1.1-.3-2.1.3-2.9 1.5-1 1.5-1.6 4-1.8 7.3a55.3 55.3 0 0 0 0 7.4.7.7 0 0 0 .7-.2 90 90 0 0 1-.1-5.8Z"/><path fill="#B4D16B" d="M164.4 128c.7-1.1 1.6-2 2.5-2a1.8 1.8 0 0 1 1.4.7l1 1.6c.2.3.5.7.8.6a.3.3 0 0 0 .1-.1l.3 1.4-1.6.8s0-2.7-1.7-3.3c-1.7-.6-3.5 3-3.6 7.7 0 2 0 4 .2 5.9a.7.7 0 0 1-.8.1 57 57 0 0 1 0-7.4 11.5 11.5 0 0 1 1.5-6Z" opacity=".6" style="mix-blend-mode:multiply"/><path fill="#B4D16B" d="M163.8 141.3a.9.9 0 0 1-.3.1c0-2.3-.3-4.5-.2-6.9a15.4 15.4 0 0 1 1.3-5.5c.9-1.8 2.1-2.4 3.2-1.7a4 4 0 0 1 1.3 1.9l.5 1.5-.7.3s0-2.7-1.7-3.3c-1.7-.6-3.5 3-3.6 7.7 0 2 0 4 .2 5.9Z" opacity=".6" style="mix-blend-mode:multiply"/><path fill="#91BA59" d="M172.8 127s2.9 2.6 3 6.5c.3 3.8-2.5 3.7-3.7 3-1.3-.8.7-9.4.7-9.4Z"/><path fill="#6FAA57" d="M172 136.5c-1.3-.7.6-9 .7-9.4h.1s3 2.5 3.1 6.4c0 1.3-.2 2.2-.7 2.8a2.1 2.1 0 0 1-1.6.7 3.1 3.1 0 0 1-1.6-.5Zm.1 0 1.5.3a2 2 0 0 0 1.5-.6c.5-.5.8-1.5.7-2.7a9.9 9.9 0 0 0-3-6.3c-.5 2.5-1.7 8.6-.7 9.2Z"/><path fill="#C5D872" d="m172.8 127 .2.3 1 1.4c.2.5.5 1 .6 1.6a9.2 9.2 0 0 1 .4 3.6 8.4 8.4 0 0 1-.2 1 8.5 8.5 0 0 1-.2.8c0 .1-.3.7 0 .7a2 2 0 0 0 1-.8c-.7 1.7-2.5 1.4-3.5.9-1.3-.8.7-9.4.7-9.4Z" style="mix-blend-mode:multiply"/><path fill="#AEBF45" d="m173.1 128 2.3 1c1.1.3 2.2 1.5 2.3 2.6 0 0 0 .2-.2 0s-.5-.7-1.3-.8c-.8 0-1.8 0-2.4-1a4.6 4.6 0 0 1-.7-1.9Z"/><path fill="#91BA59" d="M177.4 131.7a.9.9 0 0 1-.2-.2 1.6 1.6 0 0 0-1-.6h-.5c-.7-.1-1.5-.2-2-1a4.5 4.5 0 0 1-.6-2l2.3 1c1.2.4 2.3 1.6 2.3 2.7a.2.2 0 0 1-.1.1.3.3 0 0 1-.2 0Zm-2-2.7a12.8 12.8 0 0 1-2.2-1c.1.7.3 1.3.6 1.8.5.8 1.2.8 2 .9h.4c.4.1.9.4 1.1.7l.2.2h.1c0-1-1-2.2-2.2-2.6Z"/><path fill="#A2C629" d="M175 128.8a3.5 3.5 0 0 0-.4 0c0 .7.7 1 1.1 1.3.8.3 1.6.8 1.8 1.6-.2-.1-.5-.8-1.3-.9-.8-.1-1.8 0-2.4-1a4.6 4.6 0 0 1-.7-1.9l2 1Z" style="mix-blend-mode:multiply"/><path fill="#AEBF45" d="M170.3 125.8s1.9-.4 3 1.6c1.3 2 1.5 3.9 1.5 6 0 2-1.2 3.8-3 4-1.8.3-3-1-3-2.6s.3-2.1 0-3c-.5-1-1-2.4-.7-4.1.4-1.8 2.2-2 2.2-2Z"/><path fill="#C5D872" d="M169.5 136.7a2.9 2.9 0 0 1-.7-2v-1.1a3.3 3.3 0 0 0-.2-1.8c-.3-.7-1-2.3-.6-4.2.5-1.8 2.3-2 2.3-2h.3a3.2 3.2 0 0 1 2.8 1.8c1.2 2 1.5 3.8 1.4 6 0 2-1.2 3.8-3 4l-.4.1a2.5 2.5 0 0 1-1.9-.8Zm.8-10.9s-1.7.2-2.1 1.9c-.4 1.7.2 3.3.6 4 .2.6.3 1.3.2 1.9a16.3 16.3 0 0 0 0 1.2 2.7 2.7 0 0 0 .6 1.8 2.4 2.4 0 0 0 2.2.7c1.7-.2 2.9-1.9 2.9-4 0-2-.2-3.9-1.4-5.9a3 3 0 0 0-2.7-1.6 2 2 0 0 0-.3 0Z" style="mix-blend-mode:multiply"/><path fill="#C5D872" d="M168.7 131.8c.4.9.1 1.4.1 3 0 1.5 1.2 2.9 3 2.6 1.7-.2 3-2 3-4 0-2.1-.3-4-1.5-6s-3-1.6-3-1.6-1.8.1-2.2 1.9c-.4 1.7.2 3.2.6 4.1Zm1.8-5a1 1 0 0 1 1.2-.2c1.6.6 2 2.3 2.4 3.7a8.8 8.8 0 0 1 .2 3.4 2.8 2.8 0 0 1-.7 1.6 1 1 0 0 1-1.2.2 1.8 1.8 0 0 1-.6-1.2 10 10 0 0 1-.2-1.7 6.5 6.5 0 0 0-.3-2c-.3-.8-.8-1.6-1-2.5a1.7 1.7 0 0 1 .2-1.2Z" style="mix-blend-mode:multiply"/><path fill="#869C25" d="M168 127.7c.5-1.8 2.3-2 2.3-2l1 .1a2.3 2.3 0 0 0-1.4.3 2.1 2.1 0 0 0-1.2 1.7c0 .7.4 1.4.7 2 .7 1 .8 2.3.9 3.5 0 .8 0 1.7.4 2.4a2 2 0 0 0 1.4 1 2 2 0 0 0 1.6-.5 3.7 3.7 0 0 0 .8-1.5c-.4 1.4-1.3 2.5-2.7 2.7-1.8.3-3-1.1-3-2.6s.3-2.1-.1-3c-.4-1-1-2.4-.6-4.1Z"/><path fill="#CED98F" d="M172.5 127.4a7.7 7.7 0 0 1 1.5 6.3 11.5 11.5 0 0 0-1.5-6.3Zm2.8 1.7c1 .4 1.8 1 2.1 2a4.5 4.5 0 0 0-2.1-2Zm-.1 2c.5 1.5.9 3.3 0 4.6.6-1.4.3-3 0-4.5Z"/><path fill="#9C6038" d="M149.3 147.5s.5-5.7 6.3-6.7c5.7-1 6.2-5.2 12-1.6 5.7 3.7 9.9 2.6 8.3 6.3s-26.6 2-26.6 2Z"/><path fill="#AEBF45" d="M205 128.1c-1.6-.6-3.5 3-3.5 7.8v5.8a.7.7 0 0 1-.7.2 56.9 56.9 0 0 1 0-7.5c.4-6.6 2.4-9.4 4.7-9 2.3.5 2.8 5.2 2.8 5.2l-1.5.9s0-2.8-1.8-3.4Z"/><path fill="#CED98F" d="M200.8 142v-.1a57.3 57.3 0 0 1 0-7.5c.2-3.3.8-6 1.8-7.5.8-1.2 1.8-1.8 3-1.6.7.2 2.1 1 2.7 5.2a.2.2 0 0 1 0 .2l-1.5.9a.1.1 0 0 1-.1-.1s0-2.7-1.7-3.2c-.7-.3-1.4.2-2 1.3-1 1.5-1.5 3.8-1.5 6.3l.1 5.8a.2.2 0 0 1 0 .1.8.8 0 0 1-.7.2Zm.6-6.1c0-2.5.6-5 1.5-6.5.6-1.1 1.4-1.6 2.2-1.4 1.5.5 1.7 2.8 1.7 3.3a16 16 0 0 0 1.4-.7c-.6-4-2-4.9-2.7-5-1.1-.2-2.1.3-2.9 1.5-1 1.5-1.5 4-1.7 7.3a55.5 55.5 0 0 0 0 7.4.7.7 0 0 0 .6-.2 90.1 90.1 0 0 1-.1-5.7Z"/><path fill="#B4D16B" d="M202.3 128.5c.7-1.2 1.6-2 2.5-2a1.8 1.8 0 0 1 1.4.7l1 1.5c.2.3.4.7.7.6a.3.3 0 0 0 .1 0l.3 1.3-1.5.9s0-2.8-1.8-3.4c-1.7-.6-3.5 3-3.5 7.8v5.8a.7.7 0 0 1-.7.2 56.9 56.9 0 0 1 0-7.5 28.6 28.6 0 0 1 .4-3.1c.2-1 .6-2 1-2.8Z" opacity=".6" style="mix-blend-mode:multiply"/><path fill="#B4D16B" d="M201.6 141.7a.9.9 0 0 1-.2.1c-.1-2.3-.4-4.5-.2-6.9a15.4 15.4 0 0 1 1.2-5.5c1-1.8 2.1-2.4 3.2-1.7a4 4 0 0 1 1.3 2l.5 1.4-.6.3s0-2.7-1.8-3.3c-1.7-.6-3.5 3-3.5 7.7v5.9Z" opacity=".6" style="mix-blend-mode:multiply"/><path fill="#91BA59" d="M210.6 127.5s2.9 2.5 3.1 6.4c.2 3.8-2.5 3.8-3.8 3-1.2-.8.7-9.4.7-9.4Z"/><path fill="#6FAA57" d="M209.9 137c-1.3-.8.6-9.2.6-9.5h.1s3 2.5 3.2 6.4c0 1.3-.2 2.2-.8 2.8a2.1 2.1 0 0 1-1.5.7 3.1 3.1 0 0 1-1.6-.4Zm0-.2a3 3 0 0 0 1.6.5 2 2 0 0 0 1.4-.6c.6-.6.8-1.5.7-2.8a9.9 9.9 0 0 0-3-6.3c-.5 2.5-1.6 8.6-.7 9.2Z"/><path fill="#C5D872" d="m210.6 127.5.2.2 1 1.4a8 8 0 0 1 .7 1.7 9.2 9.2 0 0 1 .4 3.5 8.5 8.5 0 0 1-.2 1 8.5 8.5 0 0 1-.3.9s-.2.6 0 .6a2 2 0 0 0 1-.8c-.7 1.7-2.5 1.5-3.5.9-1.3-.8.7-9.4.7-9.4Z" style="mix-blend-mode:multiply"/><path fill="#AEBF45" d="M211 128.3c.7.5 1.4.8 2.2 1 1.2.5 2.3 1.6 2.3 2.7 0 0 0 .2-.2.1s-.5-.8-1.3-.9c-.8 0-1.8 0-2.4-1a4.6 4.6 0 0 1-.6-1.9Z"/><path fill="#91BA59" d="M215.3 132.1a.8.8 0 0 1-.2-.1 1.7 1.7 0 0 0-1.1-.7h-.4c-.7 0-1.5-.1-2-1a4.5 4.5 0 0 1-.7-2h.1l2.2 1c1.3.4 2.3 1.6 2.4 2.7a.2.2 0 0 1-.2.2.2.2 0 0 1-.1 0Zm-2.1-2.7a12.8 12.8 0 0 1-2.1-1c0 .7.3 1.3.6 1.8.5.8 1.2.9 1.9 1h.4c.5 0 1 .3 1.2.7l.1.1h.1c0-1-1-2.2-2.2-2.6Z"/><path fill="#A2C629" d="M213 129.3a3.5 3.5 0 0 0-.5 0h-.1c0 .6.7 1 1.2 1.2.7.4 1.5.8 1.8 1.6a.2.2 0 0 1-.1 0c-.2-.1-.5-.8-1.3-.9-.8 0-1.8 0-2.4-1a4.6 4.6 0 0 1-.6-1.9l2 1Z" style="mix-blend-mode:multiply"/><path fill="#AEBF45" d="M208.2 126.2s1.8-.3 3 1.7 1.4 3.8 1.4 5.9c0 2-1.2 3.8-3 4-1.7.3-2.9-1-2.9-2.6s.2-2-.1-3c-.4-.9-1-2.4-.6-4.1.4-1.7 2.2-2 2.2-2Z"/><path fill="#C5D872" d="M207.3 137.1a2.9 2.9 0 0 1-.7-2V134a3.3 3.3 0 0 0-.1-1.8c-.4-.7-1-2.3-.6-4.1.4-1.8 2.2-2 2.3-2h.3a3.2 3.2 0 0 1 2.8 1.7c1.2 2 1.4 3.8 1.4 6 0 2-1.3 3.9-3 4.1a3.7 3.7 0 0 1-.5 0 2.5 2.5 0 0 1-1.9-.8Zm.9-10.9s-1.8.3-2.2 1.9c-.4 1.8.3 3.3.6 4 .2.7.3 1.3.2 1.9v1.2c0 .7.2 1.3.6 1.8a2.4 2.4 0 0 0 2.2.8c1.7-.3 3-2 3-4 0-2.2-.3-4-1.5-6a3 3 0 0 0-2.6-1.6 2 2 0 0 0-.3 0Z" style="mix-blend-mode:multiply"/><path fill="#C5D872" d="M206.5 132.2c.4 1 .2 1.5.2 3s1.2 2.9 3 2.6c1.7-.2 2.9-2 2.9-4 0-2.1-.2-4-1.4-6-1.2-1.9-3-1.6-3-1.6s-1.9.2-2.3 1.9c-.4 1.7.2 3.2.6 4.1Zm1.8-4.9a1 1 0 0 1 1.3-.3c1.5.7 2 2.3 2.3 3.8a8.8 8.8 0 0 1 .3 3.3 2.8 2.8 0 0 1-.7 1.7 1 1 0 0 1-.6.2 1 1 0 0 1-.7-.1 1.8 1.8 0 0 1-.6-1.2 10 10 0 0 1-.1-1.7 6.5 6.5 0 0 0-.4-2c-.3-.8-.8-1.6-1-2.5a1.7 1.7 0 0 1 .2-1.2Z" style="mix-blend-mode:multiply"/><path fill="#869C25" d="M206 128c.4-1.6 2.2-1.8 2.2-1.8h.9a2.3 2.3 0 0 0-1.4.3 2.1 2.1 0 0 0-1.1 1.7c-.1.7.3 1.4.7 2 .6 1 .7 2.3.8 3.5 0 .8 0 1.7.4 2.5a2 2 0 0 0 3 .4c.4-.4.7-.9.9-1.4-.4 1.4-1.4 2.4-2.8 2.6-1.7.3-2.9-1-2.9-2.6s.2-2-.2-3-1-2.4-.6-4.1Z"/><path fill="#CED98F" d="M210.4 127.8a7.7 7.7 0 0 1 1.4 6.3 11.5 11.5 0 0 0-1.4-6.3Zm2.7 1.8c1 .3 1.8.9 2.2 1.9a4.5 4.5 0 0 0-2.2-1.9Zm0 2c.4 1.4.8 3.2 0 4.5.5-1.4.2-3 0-4.5Z"/><path fill="#9C6038" d="M187.2 148s.5-5.8 6.2-6.8 6.3-5.2 12-1.6c5.7 3.7 9.9 2.6 8.3 6.3s-26.5 2-26.5 2Z"/><path fill="#AEBF45" d="M243.3 128.5c-1.7-.5-3.5 3.1-3.6 7.8 0 1.9 0 4 .2 5.8a.7.7 0 0 1-.8.2 56.9 56.9 0 0 1 0-7.5c.4-6.6 2.4-9.4 4.7-9 2.3.5 2.7 5.2 2.8 5.3l-1.6.8s0-2.8-1.7-3.4Z"/><path fill="#CED98F" d="M239 142.4a57.3 57.3 0 0 1 0-7.6c.2-3.3.8-5.9 1.8-7.4.8-1.3 1.8-1.8 3-1.6.8.1 2.2 1 2.8 5.1v.2s0 .2-1.6.9c0-.1-.1-2.8-1.7-3.3-.7-.3-1.5.2-2.1 1.3-.9 1.5-1.4 3.8-1.5 6.3 0 1.7 0 3.6.2 5.8a.2.2 0 0 1 0 .1.8.8 0 0 1-.7.3.6.6 0 0 1-.1-.1Zm.7-6.1c0-2.5.5-5 1.4-6.4.7-1.2 1.5-1.7 2.2-1.5 1.5.6 1.8 2.8 1.8 3.3l1.4-.7c-.6-4-2-4.9-2.7-5-1.1-.2-2.2.3-2.9 1.5-1 1.5-1.6 4-1.8 7.3a55.3 55.3 0 0 0 0 7.4.7.7 0 0 0 .7-.2 90 90 0 0 1-.1-5.7Z"/><path fill="#B4D16B" d="M240.5 128.9c.7-1.2 1.6-2 2.5-2a1.8 1.8 0 0 1 1.4.7c.4.4.7 1 1 1.5.2.4.5.7.8.6a.3.3 0 0 0 .1 0l.3 1.4-1.6.8s0-2.8-1.7-3.4c-1.7-.5-3.5 3.1-3.6 7.8 0 1.9 0 4 .2 5.8a.7.7 0 0 1-.8.2 56.9 56.9 0 0 1 0-7.5l.3-3.1c.3-1 .6-2 1.1-2.8Z" opacity=".6" style="mix-blend-mode:multiply"/><path fill="#B4D16B" d="M239.9 142.1a.9.9 0 0 1-.3.2c0-2.3-.3-4.6-.2-7a15.4 15.4 0 0 1 1.3-5.5c.9-1.8 2.1-2.4 3.2-1.7a4 4 0 0 1 1.3 2l.5 1.4-.7.4s0-2.8-1.7-3.4c-1.7-.6-3.5 3-3.6 7.8 0 2 0 4 .2 5.8Z" opacity=".6" style="mix-blend-mode:multiply"/><path fill="#91BA59" d="M248.9 128s2.9 2.4 3 6.3c.3 3.9-2.5 3.8-3.7 3-1.3-.8.7-9.4.7-9.4Z"/><path fill="#6FAA57" d="M248.1 137.4c-1.3-.8.6-9.1.7-9.5h.1s3 2.5 3.1 6.4c0 1.3-.2 2.3-.7 2.8a2.1 2.1 0 0 1-1.6.7 3.1 3.1 0 0 1-1.6-.4Zm.1-.1c.5.2 1 .4 1.5.4a2 2 0 0 0 1.5-.6c.5-.6.8-1.5.7-2.8a9.9 9.9 0 0 0-3-6.2c-.5 2.4-1.7 8.6-.7 9.1Z"/><path fill="#C5D872" d="m248.9 128 .2.1c.4.4.7 1 1 1.5.2.5.5 1 .6 1.6a9.1 9.1 0 0 1 .4 3.5 8.6 8.6 0 0 1-.2 1 8.8 8.8 0 0 1-.2.9s-.3.6-.1.6a2 2 0 0 0 1-.8c-.6 1.7-2.4 1.5-3.4 1-1.3-.9.7-9.5.7-9.5Z" style="mix-blend-mode:multiply"/><path fill="#AEBF45" d="m249.2 128.8 2.3 1c1.1.4 2.2 1.5 2.3 2.7 0 0 0 .1-.2 0-.2 0-.5-.7-1.3-.8-.8-.1-1.8 0-2.4-1a4.6 4.6 0 0 1-.7-2Z"/><path fill="#91BA59" d="M253.5 132.6a.9.9 0 0 1-.2-.2 1.6 1.6 0 0 0-1-.7h-.5c-.7 0-1.5-.1-2-1a4.5 4.5 0 0 1-.6-2c.8.4 1.5.8 2.3 1 1.2.4 2.3 1.6 2.3 2.7a.2.2 0 0 1-.1.2.3.3 0 0 1-.2 0Zm-2-2.7a12.8 12.8 0 0 1-2.2-1 4.7 4.7 0 0 0 .6 1.7c.5.8 1.2.9 2 1h.4c.4 0 .9.3 1.1.7l.2.1h.1c0-1-1-2.2-2.2-2.5Z"/><path fill="#A2C629" d="M251.2 129.7a3.5 3.5 0 0 0-.5 0c0 .6.7 1 1.1 1.2.8.4 1.6.8 1.8 1.6-.2-.1-.5-.8-1.3-.9-.8 0-1.8 0-2.4-1a4.6 4.6 0 0 1-.7-1.8l2 .9Z" style="mix-blend-mode:multiply"/><path fill="#AEBF45" d="M246.4 126.6s1.9-.3 3 1.7c1.3 2 1.5 3.8 1.5 5.9 0 2-1.2 3.8-3 4-1.8.3-3-1-3-2.6 0-1.5.3-2 0-3-.5-.9-1-2.4-.7-4 .4-1.8 2.2-2 2.2-2Z"/><path fill="#C5D872" d="M245.6 137.5a2.9 2.9 0 0 1-.7-1.9v-1.2a3.3 3.3 0 0 0-.2-1.7c-.3-.8-1-2.4-.6-4.2.5-1.8 2.3-2 2.3-2h.3a3.2 3.2 0 0 1 2.8 1.7c1.2 2 1.5 3.8 1.4 6 0 2.1-1.2 3.9-3 4.1a3.5 3.5 0 0 1-.4 0 2.5 2.5 0 0 1-1.9-.8Zm.8-10.8s-1.7.2-2.1 1.8c-.4 1.8.2 3.4.6 4.1.2.6.3 1.2.2 1.8a15.8 15.8 0 0 0 0 1.2 2.7 2.7 0 0 0 .6 1.8 2.4 2.4 0 0 0 2.2.8c1.7-.3 2.9-2 2.9-4 0-2.1-.2-4-1.4-6a3.1 3.1 0 0 0-2.7-1.6 2.1 2.1 0 0 0-.3 0Z" style="mix-blend-mode:multiply"/><path fill="#C5D872" d="M244.8 132.6c.4 1 .1 1.5.1 3 0 1.6 1.2 3 3 2.7 1.7-.3 3-2 3-4.1 0-2-.3-4-1.5-6-1.2-1.9-3-1.6-3-1.6s-1.8.2-2.2 2c-.4 1.6.2 3.1.6 4Zm1.8-4.9a1 1 0 0 1 1.2-.3c1.6.7 2 2.3 2.4 3.8a8.8 8.8 0 0 1 .2 3.3 2.8 2.8 0 0 1-.7 1.7 1 1 0 0 1-1.2.1 1.8 1.8 0 0 1-.6-1.2 10 10 0 0 1-.2-1.7 6.5 6.5 0 0 0-.3-2c-.3-.8-.8-1.5-1-2.4a1.6 1.6 0 0 1 .2-1.3Z" style="mix-blend-mode:multiply"/><path fill="#869C25" d="M244.2 128.5c.4-1.7 2.2-1.9 2.2-1.9h1a2.3 2.3 0 0 0-1.4.3 2.1 2.1 0 0 0-1.2 1.7c0 .8.4 1.4.7 2 .7 1 .8 2.3.9 3.5 0 .8 0 1.8.3 2.5a2 2 0 0 0 3.1.4 3.7 3.7 0 0 0 .8-1.4c-.4 1.4-1.3 2.4-2.7 2.6-1.8.3-3-1-3-2.6s.3-2-.1-3c-.4-.9-1-2.4-.6-4Z"/><path fill="#CED98F" d="M248.6 128.3a7.7 7.7 0 0 1 1.5 6.3 11.4 11.4 0 0 0-1.5-6.3Zm2.8 1.7c1 .3 1.8.9 2.1 2a4.5 4.5 0 0 0-2.1-2Zm-.1 2c.5 1.4.9 3.2 0 4.5.6-1.4.3-3 0-4.5Z"/><path fill="#9C6038" d="M225.4 148.4s.5-5.8 6.3-6.8c5.7-1 6.2-5.2 12-1.6 5.7 3.7 9.9 2.6 8.3 6.3s-26.6 2-26.6 2Z"/><path fill="#AEBF45" d="M285.3 126.4c-1.6-.5-3.5 3.1-3.5 7.8l.1 5.8a.7.7 0 0 1-.8.2 56.7 56.7 0 0 1 0-7.5c.4-6.6 2.4-9.4 4.7-9 2.3.5 2.8 5.2 2.8 5.3l-1.5.8s0-2.8-1.8-3.4Z"/><path fill="#CED98F" d="M281.1 140.3a57.3 57.3 0 0 1 0-7.6c.2-3.3.8-5.9 1.8-7.4.8-1.3 1.8-1.9 3-1.6.7.1 2.1 1 2.7 5.1v.2s0 .2-1.5.9a.1.1 0 0 1-.1 0c0-.1 0-2.8-1.7-3.3-.7-.3-1.4.2-2 1.3-1 1.5-1.5 3.8-1.5 6.3l.1 5.8a.2.2 0 0 1 0 .1.8.8 0 0 1-.7.2Zm.6-6.1c0-2.5.6-5 1.5-6.4.6-1.2 1.4-1.7 2.2-1.5 1.5.6 1.7 2.8 1.7 3.3l1.4-.7c-.5-4-2-4.9-2.7-5-1.1-.2-2.1.3-2.9 1.5-1 1.5-1.5 4-1.7 7.3a55.5 55.5 0 0 0 0 7.4.7.7 0 0 0 .6-.2 89.4 89.4 0 0 1-.1-5.7Z"/><path fill="#B4D16B" d="M282.6 126.8c.7-1.2 1.6-2 2.5-2a1.8 1.8 0 0 1 1.4.7l1 1.5c.2.4.4.7.7.6a.3.3 0 0 0 .1 0l.3 1.4-1.5.8s0-2.8-1.8-3.4c-1.7-.5-3.5 3.1-3.5 7.8l.1 5.8a.7.7 0 0 1-.8.2 56.7 56.7 0 0 1 0-7.5 28.6 28.6 0 0 1 .4-3.1c.2-1 .6-2 1-2.8Z" opacity=".6" style="mix-blend-mode:multiply"/><path fill="#B4D16B" d="M281.9 140a.9.9 0 0 1-.2.2c-.1-2.3-.4-4.6-.2-7a15.4 15.4 0 0 1 1.2-5.5c1-1.8 2.1-2.4 3.2-1.7a4 4 0 0 1 1.3 2l.5 1.4-.6.4s0-2.8-1.8-3.4c-1.7-.6-3.5 3-3.5 7.8l.1 5.8Z" opacity=".6" style="mix-blend-mode:multiply"/><path fill="#91BA59" d="M291 125.8s2.8 2.5 3 6.4c.2 3.9-2.5 3.8-3.8 3-1.2-.8.7-9.4.7-9.4Z"/><path fill="#6FAA57" d="M290.2 135.3c-1.3-.8.6-9.1.6-9.5a.1.1 0 0 1 .1 0s3 2.5 3.2 6.4c0 1.3-.2 2.3-.8 2.8a2.1 2.1 0 0 1-1.5.7 3.1 3.1 0 0 1-1.6-.4Zm0-.1c.5.2 1 .4 1.6.4a2 2 0 0 0 1.4-.6c.6-.6.8-1.5.7-2.8a9.9 9.9 0 0 0-3-6.2c-.5 2.4-1.6 8.6-.6 9.1Z"/><path fill="#C5D872" d="m291 125.8.1.2c.4.4.7 1 1 1.5l.7 1.6a9.2 9.2 0 0 1 .4 3.5 8.4 8.4 0 0 1-.2 1 8.6 8.6 0 0 1-.3.9s-.2.6 0 .6a2 2 0 0 0 1-.8c-.7 1.7-2.5 1.5-3.5 1-1.3-.9.7-9.5.7-9.5Z" style="mix-blend-mode:multiply"/><path fill="#AEBF45" d="M291.3 126.6c.7.5 1.4.8 2.2 1.1 1.2.4 2.3 1.5 2.3 2.6 0 0 0 .2-.2.1-.2 0-.5-.7-1.3-.8-.8-.1-1.8 0-2.4-1a4.6 4.6 0 0 1-.6-2Z"/><path fill="#91BA59" d="M295.6 130.5a.8.8 0 0 1-.2-.2 1.7 1.7 0 0 0-1.1-.7h-.4c-.7 0-1.5-.1-2-1a4.5 4.5 0 0 1-.7-2h.1a12.3 12.3 0 0 0 2.2 1c1.3.4 2.3 1.6 2.4 2.7a.2.2 0 0 1-.2.2.2.2 0 0 1-.1 0Zm-2.1-2.7a12.7 12.7 0 0 1-2.1-1c0 .6.3 1.2.6 1.7.5.8 1.2.9 1.9 1h.4c.5 0 1 .3 1.2.7a.8.8 0 0 0 .1.1.2.2 0 0 0 .1 0c0-1-1-2.2-2.2-2.5Z"/><path fill="#A2C629" d="M293.2 127.6a3.5 3.5 0 0 0-.4 0h-.1c0 .6.7 1 1.2 1.2.7.4 1.5.8 1.8 1.6-.3-.1-.6-.8-1.4-.9-.8 0-1.8 0-2.4-1a4.6 4.6 0 0 1-.6-1.9 13 13 0 0 0 2 1Z" style="mix-blend-mode:multiply"/><path fill="#AEBF45" d="M288.5 124.5s1.8-.3 3 1.7 1.4 3.8 1.4 5.9c0 2-1.2 3.8-3 4-1.7.3-2.9-1-2.9-2.6s.3-2-.1-3c-.4-.9-1-2.4-.6-4.1.4-1.7 2.2-1.9 2.2-1.9Z"/><path fill="#C5D872" d="M287.6 135.4a2.9 2.9 0 0 1-.7-1.9v-1.2a3.3 3.3 0 0 0-.1-1.7c-.4-.8-1-2.4-.6-4.2.4-1.8 2.2-2 2.3-2h.3a3.2 3.2 0 0 1 2.8 1.7c1.2 2 1.4 3.8 1.4 6 0 2.1-1.3 3.9-3 4.1h-.5a2.5 2.5 0 0 1-1.9-.8Zm.9-10.8s-1.8.2-2.2 1.8c-.4 1.8.3 3.4.6 4.1.2.6.3 1.2.2 1.8v1.2c0 .7.2 1.3.6 1.8a2.4 2.4 0 0 0 2.2.8c1.7-.3 3-2 3-4 0-2.1-.3-4-1.5-6a3 3 0 0 0-2.6-1.6 2.3 2.3 0 0 0-.3 0Z" style="mix-blend-mode:multiply"/><path fill="#C5D872" d="M286.8 130.5c.4 1 .2 1.5.2 3 0 1.6 1.2 3 3 2.7 1.7-.3 2.9-2 2.9-4.1 0-2.1-.2-4-1.4-6-1.2-1.9-3-1.6-3-1.6s-1.9.2-2.3 1.9c-.4 1.7.2 3.2.6 4.1Zm1.8-4.9a1 1 0 0 1 1.3-.3c1.5.7 2 2.3 2.4 3.8a8.8 8.8 0 0 1 .2 3.3 2.8 2.8 0 0 1-.7 1.7 1 1 0 0 1-1.3.1 1.8 1.8 0 0 1-.6-1.2 10.2 10.2 0 0 1-.1-1.7 6.6 6.6 0 0 0-.4-2c-.3-.8-.8-1.5-1-2.4a1.6 1.6 0 0 1 .2-1.3Z" style="mix-blend-mode:multiply"/><path fill="#869C25" d="M286.2 126.4c.5-1.7 2.3-1.9 2.3-1.9h.9a2.3 2.3 0 0 0-1.4.3 2.1 2.1 0 0 0-.8.7c-.2.3-.3.7-.3 1-.1.8.3 1.4.7 2 .6 1 .7 2.3.8 3.5 0 .8 0 1.8.4 2.5a2 2 0 0 0 2.3.9l.7-.5c.4-.4.7-.9.9-1.4-.4 1.4-1.4 2.4-2.8 2.6-1.7.3-2.9-1-2.9-2.6s.2-2-.2-3c-.3-.9-1-2.4-.6-4Z"/><path fill="#CED98F" d="M290.7 126.2a7.7 7.7 0 0 1 1.4 6.3 11.4 11.4 0 0 0-1.4-6.3Zm2.7 1.7c1 .3 1.8.9 2.2 2a4.5 4.5 0 0 0-2.2-2Zm0 2c.4 1.4.8 3.2 0 4.5.5-1.4.2-3 0-4.5Z"/><path fill="#9C6038" d="M267.5 146.3s.5-5.8 6.2-6.8 6.3-5.2 12-1.6c5.7 3.7 9.9 2.6 8.3 6.3s-26.5 2-26.5 2Z"/><path fill="#AEBF45" d="M325.7 127.7c-1.7-.6-3.5 3-3.6 7.7 0 2 0 4 .2 5.9a.7.7 0 0 1-.8.1 56.9 56.9 0 0 1 0-7.4c.4-6.7 2.4-9.4 4.7-9 2.3.5 2.7 5.1 2.8 5.2l-1.6.8s0-2.7-1.7-3.3Z"/><path fill="#CED98F" d="M321.5 141.6v-.1a57.2 57.2 0 0 1-.1-7.5c.2-3.4.9-6 1.8-7.5.8-1.2 1.9-1.8 3-1.6.8.2 2.2 1 2.8 5.2a.2.2 0 0 1 0 .2l-1.6.8s0-2.7-1.7-3.3c-.7-.2-1.4.3-2.1 1.4-.8 1.5-1.4 3.8-1.4 6.2l.1 5.9a.8.8 0 0 1-.7.3.6.6 0 0 1-.1 0Zm.6-6.2c0-2.5.5-4.9 1.4-6.4.7-1.1 1.5-1.7 2.2-1.4 1.5.5 1.8 2.8 1.8 3.3l1.4-.7c-.6-4-2-5-2.7-5-1.1-.3-2.1.3-2.9 1.5-1 1.5-1.6 4-1.8 7.3a55.5 55.5 0 0 0 0 7.4.7.7 0 0 0 .7-.2 90 90 0 0 1-.1-5.8Z"/><path fill="#B4D16B" d="M323 128c.6-1.1 1.5-2 2.4-2a1.8 1.8 0 0 1 1.4.7l1 1.6c.2.3.5.7.8.6a.3.3 0 0 0 .1-.1l.3 1.4-1.6.8s0-2.7-1.7-3.3c-1.7-.6-3.5 3-3.6 7.7 0 2 0 4 .2 5.9a.7.7 0 0 1-.8.1 56.9 56.9 0 0 1 0-7.4 11.5 11.5 0 0 1 1.5-6Z" opacity=".6" style="mix-blend-mode:multiply"/><path fill="#B4D16B" d="M322.3 141.3a.9.9 0 0 1-.3.1c0-2.3-.3-4.5-.2-6.9a15.4 15.4 0 0 1 1.3-5.5c.9-1.8 2.1-2.4 3.2-1.7a4 4 0 0 1 1.3 1.9l.5 1.5-.7.3s0-2.7-1.7-3.3c-1.7-.6-3.5 3-3.6 7.7 0 2 0 4 .2 5.9Z" opacity=".6" style="mix-blend-mode:multiply"/><path fill="#91BA59" d="M331.3 127s2.9 2.6 3 6.5c.3 3.8-2.5 3.7-3.7 3-1.3-.8.7-9.4.7-9.4Z"/><path fill="#6FAA57" d="M330.5 136.5c-1.3-.7.6-9 .7-9.4h.1s3 2.5 3.1 6.4c.1 1.3-.2 2.2-.7 2.8a2.1 2.1 0 0 1-1.6.7 3.1 3.1 0 0 1-1.6-.5Zm.1 0 1.5.3a2 2 0 0 0 1.5-.6c.5-.5.8-1.5.7-2.7a9.9 9.9 0 0 0-3-6.3c-.5 2.5-1.7 8.6-.7 9.2Z"/><path fill="#C5D872" d="m331.3 127 .2.3 1 1.4a8 8 0 0 1 .6 1.6 9.2 9.2 0 0 1 .4 3.6 8.4 8.4 0 0 1-.2 1 8.8 8.8 0 0 1-.2.8c0 .1-.3.7 0 .7a2 2 0 0 0 1-.8c-.7 1.7-2.5 1.4-3.5.9-1.3-.8.7-9.4.7-9.4Z" style="mix-blend-mode:multiply"/><path fill="#AEBF45" d="M331.6 128a12.6 12.6 0 0 0 2.3 1c1.1.3 2.2 1.5 2.3 2.6 0 0 0 .2-.2 0-.2 0-.5-.7-1.3-.8-.8 0-1.8 0-2.4-1a4.6 4.6 0 0 1-.7-1.9Z"/><path fill="#91BA59" d="M336 131.7a.9.9 0 0 1-.3-.2 1.6 1.6 0 0 0-1-.6h-.5c-.7-.1-1.4-.2-2-1a4.5 4.5 0 0 1-.6-2l2.3 1c1.3.4 2.3 1.6 2.4 2.7a.2.2 0 0 1-.2.1.3.3 0 0 1-.2 0Zm-2.1-2.7a12.8 12.8 0 0 1-2.2-1 4.7 4.7 0 0 0 .6 1.8c.5.8 1.2.8 2 .9h.4c.4.1.9.4 1.2.7l.1.2h.1c0-1-1-2.2-2.2-2.6Z"/><path fill="#A2C629" d="M333.6 128.8a3.5 3.5 0 0 0-.5 0c0 .7.7 1 1.2 1.3.7.3 1.5.8 1.7 1.6-.2-.1-.5-.8-1.3-.9-.8-.1-1.8 0-2.4-1a4.6 4.6 0 0 1-.7-1.9l2 1Z" style="mix-blend-mode:multiply"/><path fill="#AEBF45" d="M328.8 125.8s1.9-.4 3 1.6c1.3 2 1.5 3.9 1.5 6 0 2-1.2 3.8-3 4-1.8.3-3-1-3-2.6s.3-2.1 0-3c-.5-1-1-2.4-.7-4.1.4-1.8 2.2-2 2.2-2Z"/><path fill="#C5D872" d="M328 136.7a2.9 2.9 0 0 1-.7-2v-1.1a3.3 3.3 0 0 0-.2-1.8c-.3-.7-1-2.3-.6-4.2.5-1.8 2.3-2 2.3-2h.3a3.2 3.2 0 0 1 2.8 1.8c1.2 2 1.5 3.8 1.4 6 0 2-1.2 3.8-3 4l-.4.1a2.5 2.5 0 0 1-1.9-.8Zm.8-10.9s-1.7.2-2.1 1.9c-.4 1.7.2 3.3.6 4 .2.6.3 1.3.2 1.9v1.2a2.7 2.7 0 0 0 .6 1.8 2.4 2.4 0 0 0 2.2.7c1.7-.2 2.9-1.9 2.9-4 0-2-.2-3.9-1.4-5.9a3 3 0 0 0-2.7-1.6 2 2 0 0 0-.3 0Z" style="mix-blend-mode:multiply"/><path fill="#C5D872" d="M327.2 131.8c.4.9.1 1.4.1 3 0 1.5 1.2 2.9 3 2.6 1.7-.2 3-2 3-4 0-2.1-.3-4-1.5-6s-3-1.6-3-1.6-1.8.1-2.2 1.9c-.4 1.7.2 3.2.6 4.1Zm1.8-5a1 1 0 0 1 1.2-.2c1.6.6 2 2.3 2.4 3.7a8.8 8.8 0 0 1 .2 3.4 2.8 2.8 0 0 1-.7 1.6 1 1 0 0 1-1.2.2 1.8 1.8 0 0 1-.6-1.2 10 10 0 0 1-.2-1.7 6.5 6.5 0 0 0-.3-2c-.3-.8-.8-1.6-1-2.5a1.7 1.7 0 0 1 .2-1.2Z" style="mix-blend-mode:multiply"/><path fill="#869C25" d="M326.6 127.7c.4-1.8 2.2-2 2.2-2l1 .1a2.3 2.3 0 0 0-1.4.3 2.1 2.1 0 0 0-1.2 1.7c0 .7.4 1.4.7 2 .7 1 .8 2.3.9 3.5 0 .8 0 1.7.4 2.4a2 2 0 0 0 1.4 1 2 2 0 0 0 1.6-.5 3.7 3.7 0 0 0 .8-1.5c-.4 1.4-1.3 2.5-2.7 2.7-1.8.3-3-1.1-3-2.6s.3-2.1-.1-3c-.4-1-1-2.4-.6-4.1Z"/><path fill="#CED98F" d="M331 127.4a7.7 7.7 0 0 1 1.5 6.3 11.4 11.4 0 0 0-1.5-6.3Zm2.8 1.7c1 .4 1.8 1 2.1 2a4.5 4.5 0 0 0-2.1-2Zm-.1 2c.5 1.5.9 3.3 0 4.6.6-1.4.3-3 0-4.5Z"/><path fill="#9C6038" d="M307.8 147.5s.5-5.7 6.3-6.7c5.7-1 6.2-5.2 12-1.6 5.7 3.7 9.9 2.6 8.3 6.3s-26.6 2-26.6 2Z"/><path fill="#AEBF45" d="M375.3 126c-1.7-.6-3.5 3-3.6 7.7 0 2 0 4 .2 5.9a.7.7 0 0 1-.8.2 56.9 56.9 0 0 1 0-7.5c.4-6.7 2.4-9.4 4.7-9 2.3.5 2.7 5.2 2.8 5.2l-1.6.8s0-2.7-1.7-3.3Z"/><path fill="#CED98F" d="M371.1 139.9v-.1a57.3 57.3 0 0 1-.1-7.5c.2-3.3.9-6 1.8-7.5.8-1.2 1.9-1.8 3-1.6.8.2 2.2 1 2.8 5.2a.2.2 0 0 1 0 .2l-1.6.9a.1.1 0 0 1 0-.1s0-2.7-1.7-3.2c-.7-.3-1.4.2-2 1.3-1 1.5-1.5 3.8-1.5 6.3a76.5 76.5 0 0 0 .1 5.8.2.2 0 0 1 0 .1.8.8 0 0 1-.7.2.6.6 0 0 1-.1 0Zm.6-6.1c0-2.5.6-5 1.4-6.5.7-1.1 1.5-1.7 2.2-1.4 1.5.5 1.8 2.8 1.8 3.3l1.4-.7c-.6-4-2-4.9-2.7-5-1.1-.2-2.1.3-2.9 1.5-1 1.5-1.6 4-1.8 7.3a55.5 55.5 0 0 0 0 7.4.7.7 0 0 0 .7-.2 90.1 90.1 0 0 1-.1-5.7Z"/><path fill="#B4D16B" d="M372.5 126.4c.7-1.2 1.6-2 2.5-2a1.8 1.8 0 0 1 1.4.7c.4.4.7 1 1 1.5.2.3.5.7.8.6a.3.3 0 0 0 .1 0l.3 1.3-1.6.9s0-2.8-1.7-3.4c-1.7-.6-3.5 3-3.6 7.8 0 1.9 0 4 .2 5.8a.7.7 0 0 1-.8.2 56.9 56.9 0 0 1 0-7.5 28.6 28.6 0 0 1 .3-3.1c.3-1 .6-2 1.1-2.8Z" opacity=".6" style="mix-blend-mode:multiply"/><path fill="#B4D16B" d="M371.9 139.6a.9.9 0 0 1-.3.1c0-2.3-.3-4.5-.1-6.9a15.4 15.4 0 0 1 1.2-5.5c.9-1.8 2.1-2.4 3.2-1.7a4 4 0 0 1 1.3 2l.5 1.4-.7.3s0-2.7-1.7-3.3c-1.7-.6-3.5 3-3.6 7.7 0 2 0 4 .2 5.9Z" opacity=".6" style="mix-blend-mode:multiply"/><path fill="#91BA59" d="M380.9 125.4s2.9 2.5 3 6.4c.3 3.8-2.4 3.8-3.7 3-1.3-.8.7-9.4.7-9.4Z"/><path fill="#6FAA57" d="M380.1 134.9c-1.3-.8.6-9.2.7-9.5h.1s3 2.5 3.1 6.4c.1 1.3-.1 2.2-.7 2.8a2.1 2.1 0 0 1-1.6.7 3.1 3.1 0 0 1-1.6-.4Zm.1-.2a3 3 0 0 0 1.5.5 2 2 0 0 0 1.5-.6c.5-.6.8-1.5.7-2.8a9.9 9.9 0 0 0-3-6.3c-.5 2.5-1.7 8.6-.7 9.2Z"/><path fill="#C5D872" d="m380.9 125.4.2.2 1 1.4a8 8 0 0 1 .6 1.7 9.2 9.2 0 0 1 .4 3.5 8.4 8.4 0 0 1-.1 1 8.7 8.7 0 0 1-.3.9s-.3.6 0 .6a2 2 0 0 0 1-.8c-.7 1.7-2.5 1.5-3.5.9-1.3-.8.7-9.4.7-9.4Z" style="mix-blend-mode:multiply"/><path fill="#AEBF45" d="M381.2 126.2c.8.5 1.5.8 2.3 1 1.2.5 2.3 1.6 2.3 2.7 0 0 0 .2-.2.1s-.5-.8-1.3-.9c-.8 0-1.8 0-2.4-1a4.6 4.6 0 0 1-.7-1.9Z"/><path fill="#91BA59" d="M385.5 130a.9.9 0 0 1-.1-.1 1.7 1.7 0 0 0-1.1-.7h-.5c-.6 0-1.4-.1-2-1a4.5 4.5 0 0 1-.6-2h.1l2.2 1c1.3.4 2.3 1.6 2.4 2.7a.2.2 0 0 1-.2.2.3.3 0 0 1-.2 0Zm-2-2.7a12.7 12.7 0 0 1-2.2-1c.1.7.3 1.3.7 1.8.4.8 1.1.9 1.8 1h.5c.5 0 .9.3 1.2.7l.1.1h.1c0-1-1-2.2-2.2-2.6Z"/><path fill="#A2C629" d="M383.2 127.2a3.3 3.3 0 0 0-.5 0c0 .6.7 1 1.2 1.2.7.4 1.5.8 1.7 1.6-.2-.1-.5-.8-1.3-.9-.8 0-1.8 0-2.4-1a4.6 4.6 0 0 1-.7-1.9l2 1Z" style="mix-blend-mode:multiply"/><path fill="#AEBF45" d="M378.5 124s1.8-.2 3 1.8 1.4 3.8 1.4 5.8c0 2.1-1.2 3.9-3 4.1-1.7.3-3-1-3-2.6s.3-2 0-3c-.5-.9-1-2.4-.7-4.1.5-1.7 2.3-2 2.3-2Z"/><path fill="#C5D872" d="M377.6 135a2.9 2.9 0 0 1-.7-2V132a3.3 3.3 0 0 0-.2-1.8c-.3-.7-1-2.3-.6-4.1.5-1.8 2.3-2 2.3-2h.3a3.2 3.2 0 0 1 2.8 1.7c1.2 2 1.5 3.8 1.4 6 0 2-1.2 3.9-3 4.1h-.4a2.5 2.5 0 0 1-1.9-.8Zm.9-10.9s-1.8.2-2.2 1.9c-.4 1.8.2 3.3.6 4 .2.7.3 1.3.2 1.9v1.2a2.7 2.7 0 0 0 .6 1.8 2.4 2.4 0 0 0 2.2.8c1.7-.3 2.9-2 3-4 0-2.2-.3-4-1.5-6a3 3 0 0 0-2.7-1.6 2 2 0 0 0-.2 0Z" style="mix-blend-mode:multiply"/><path fill="#C5D872" d="M376.8 130.1c.4 1 .1 1.5.2 3 0 1.5 1.1 2.9 2.9 2.6 1.8-.2 3-2 3-4 0-2.1-.3-4-1.5-6-1.2-1.9-3-1.6-3-1.6s-1.8.2-2.2 1.9c-.4 1.7.2 3.2.6 4.1Zm1.8-4.9a1 1 0 0 1 1.3-.3c1.5.7 2 2.3 2.3 3.8a8.8 8.8 0 0 1 .3 3.3 2.8 2.8 0 0 1-.7 1.7 1 1 0 0 1-1.3 0 1.8 1.8 0 0 1-.6-1 10 10 0 0 1-.2-1.8 6.5 6.5 0 0 0-.3-2c-.3-.8-.8-1.6-1-2.5a1.7 1.7 0 0 1 .2-1.2Z" style="mix-blend-mode:multiply"/><path fill="#869C25" d="M376.2 126c.4-1.7 2.2-2 2.2-2l1 .1a2.3 2.3 0 0 0-1.4.3 2.1 2.1 0 0 0-1.1 1.7c-.1.7.3 1.4.6 2 .7 1 .8 2.3.9 3.5 0 .8 0 1.7.4 2.5a2 2 0 0 0 1.4 1 2 2 0 0 0 1.6-.6 3.7 3.7 0 0 0 .9-1.4c-.5 1.4-1.4 2.4-2.8 2.6-1.8.3-3-1-3-2.6s.3-2 0-3c-.5-1-1.1-2.4-.7-4.1Z"/><path fill="#CED98F" d="M380.6 125.7a7.7 7.7 0 0 1 1.5 6.3 11.5 11.5 0 0 0-1.5-6.3Zm2.8 1.8c1 .3 1.8.9 2.1 1.9a4.5 4.5 0 0 0-2.1-2Zm0 2c.4 1.4.8 3.2 0 4.5h-.1c.6-1.4.3-3 0-4.5Z"/><path fill="#9C6038" d="M357.4 145.9s.6-5.8 6.3-6.8 6.2-5.2 12-1.6c5.7 3.7 9.9 2.6 8.3 6.3-1.6 3.6-26.6 2-26.6 2Z"/></g><defs><clipPath id="a"><path fill="#fff" d="M0 111h425.5v52.1H0z"/></clipPath></defs></svg>