<svg width="11" height="16" viewBox="0 0 11 16" fill="none" xmlns="http://www.w3.org/2000/svg">
<path d="M5.92972 1.01929C0.856976 4.41261 -1.2555 11.1863 1.79377 15.9964L5.92972 1.01929Z" fill="#46B955"/>
<path d="M10.5961 0.174297C6.75526 -0.441496 3.10643 2.07766 3.67318 6.40114C9.74361 6.26761 10.1792 5.32456 10.5961 0.174297Z" fill="#46B955"/>
<path d="M3.59676 6.48354V6.4103C3.3298 4.41223 3.94337 2.68972 5.32047 1.46674C6.02439 0.87499 6.86969 0.443544 7.78822 0.207183C8.7068 -0.0291787 9.67288 -0.0638469 10.6087 0.105972H10.6836V0.174872C10.4869 2.61221 10.2855 4.27871 9.32059 5.2175C8.35569 6.15625 6.51022 6.4146 3.6998 6.47489L3.59676 6.48354ZM9.43301 0.157647C7.95185 0.140686 6.52066 0.649715 5.43757 1.57871C4.11668 2.73278 3.53121 4.41223 3.74667 6.3242C9.56882 6.18637 10.0887 5.33807 10.5056 0.239466C10.1512 0.184626 9.7924 0.157256 9.43301 0.157647Z" fill="#46B955"/>
<path d="M8.96988 4.01577C5.07752 3.8952 1.8409 6.84927 3.06342 11.0651C9.04015 10.1651 9.32587 9.17463 8.96988 4.01577Z" fill="#46B955"/>
<path d="M2.9853 11.1515V11.0826C2.40917 9.14907 2.75578 7.32751 3.94081 5.96676C4.54836 5.28935 5.32063 4.75282 6.19531 4.4005C7.07003 4.04817 8.02261 3.88991 8.97609 3.93852H9.05102V4.00742C9.21966 6.44475 9.2712 8.12418 8.45617 9.17489C7.64114 10.2256 5.8425 10.7208 3.06491 11.1385L2.9853 11.1515ZM8.73252 4.09354C7.84005 4.07312 6.95425 4.24016 6.14258 4.58193C5.33091 4.9237 4.61472 5.43119 4.04857 6.06582C2.91504 7.35768 2.57311 9.11461 3.08834 10.9749C8.83089 10.1137 9.21966 9.19645 8.86837 4.08493L8.73252 4.09354Z" fill="#46B955"/>
<path d="M7.79682 8.86513C3.89975 8.74456 0.663131 11.6986 1.87159 15.9145C7.86237 15.0145 8.15281 14.024 7.79682 8.86513Z" fill="#46B955"/>
<path d="M1.81147 15.9999V15.931C1.23534 13.9932 1.58196 12.163 2.767 10.8151C3.37451 10.1378 4.14679 9.6012 5.0215 9.24888C5.89618 8.89656 6.84876 8.73829 7.80228 8.78691H7.87722V8.8558C8.04585 11.2931 8.09268 12.9726 7.27765 14.0233C6.46267 15.074 4.66403 15.5606 1.88173 15.9783L1.81147 15.9999ZM7.55871 8.94195C6.6662 8.92151 5.78045 9.08855 4.96873 9.43032C4.15706 9.77209 3.44087 10.2796 2.87473 10.9142C1.73652 12.2061 1.39928 13.963 1.90983 15.8233C7.65708 14.9621 8.04114 14.0448 7.69453 8.9333L7.55871 8.94195Z" fill="#46B955"/>
<path d="M10.1961 0.537249C6.80962 -0.0225635 3.55894 2.21238 4.06014 6.04494C9.44202 5.92437 9.82607 5.08894 10.1961 0.537249Z" fill="white"/>
<path d="M3.6847 6.44018L3.64254 6.09138C3.49327 5.25152 3.56417 4.39101 3.8493 3.58139C4.1344 2.77177 4.62557 2.03638 5.28194 1.43633C5.94472 0.875998 6.74165 0.467053 7.60831 0.24261C8.475 0.0181679 9.38695 -0.0154572 10.2704 0.144458L10.6451 0.204745L10.617 0.536326C10.2282 5.34209 9.6802 6.29809 4.05942 6.41866L3.6847 6.44018ZM9.1509 0.829151C7.93547 0.820711 6.7625 1.23974 5.87212 2.00045C5.35853 2.47375 4.96594 3.04624 4.72288 3.67637C4.47982 4.30652 4.3924 4.97847 4.46695 5.64352C9.11345 5.50573 9.4413 4.75214 9.76919 0.854987C9.5631 0.837762 9.35702 0.829151 9.1509 0.829151Z" fill="#46B955"/>
<path d="M8.79622 4.41213C5.34413 4.30882 2.47286 6.927 3.53143 10.6648C8.85243 9.86386 9.11006 8.9897 8.79622 4.41213Z" fill="white"/>
<path d="M3.23196 11.1042L3.13359 10.7598C2.8617 9.94665 2.80485 9.08564 2.9678 8.24826C3.13071 7.41089 3.50873 6.62138 4.07038 5.94537C4.64277 5.30553 5.37106 4.79862 6.19619 4.46571C7.02137 4.13277 7.9202 3.9832 8.81993 4.0291H9.20402L9.22746 4.38221C9.56002 9.18797 9.14314 10.2043 3.60668 11.0353L3.23196 11.1042ZM8.38433 4.80421C7.67965 4.81381 6.9857 4.96438 6.35069 5.24549C5.71572 5.52656 5.15496 5.93147 4.70743 6.432C4.26746 6.96551 3.96229 7.58239 3.81403 8.23788C3.66574 8.89333 3.67813 9.57095 3.85025 10.2215C8.44521 9.49374 8.656 8.71859 8.39838 4.80421H8.38433Z" fill="#46B955"/>
<path d="M7.43193 9.26126C3.99857 9.1493 1.10856 11.7718 2.17651 15.5096C7.48814 14.7087 7.74572 13.8345 7.43193 9.26126Z" fill="white"/>
<path d="M1.8682 15.9488L1.76984 15.6086C1.49793 14.7955 1.44108 13.9345 1.60402 13.0971C1.76696 12.2598 2.14497 11.4703 2.70663 10.7942C3.27852 10.1539 4.00672 9.64654 4.83198 9.31359C5.65728 8.98063 6.55637 8.83134 7.45618 8.87797H7.83557L7.86367 9.23108C8.19156 14.0368 7.77936 15.0531 2.24292 15.8842L1.8682 15.9488ZM7.02058 9.64878C6.3159 9.65834 5.62192 9.8089 4.98695 10.09C4.35198 10.3711 3.79122 10.776 3.34365 11.2765C2.90371 11.81 2.59852 12.4269 2.45025 13.0824C2.30199 13.7379 2.31436 14.4155 2.48649 15.066C7.0768 14.3383 7.27821 13.5546 7.03464 9.64878H7.02058Z" fill="#46B955"/>
</svg>
