<svg width="25" height="25" viewBox="0 0 25 25" fill="none" xmlns="http://www.w3.org/2000/svg">
<circle cx="12.5" cy="12.5" r="12.5" fill="#E0AE9F"/>
<path d="M12.9568 5.08301C7.56697 8.68841 5.32247 15.8855 8.56231 20.9962L12.9568 5.08301Z" fill="black"/>
<path d="M17.9145 4.18566C13.8336 3.53138 9.95674 6.20798 10.5589 10.8017C17.0087 10.6598 17.4716 9.65782 17.9145 4.18566Z" fill="black"/>
<path d="M10.478 10.8888V10.8109C10.1944 8.68799 10.8463 6.85783 12.3095 5.55842C13.0574 4.92968 13.9555 4.47127 14.9315 4.22013C15.9074 3.969 16.9339 3.93216 17.9282 4.1126H18.0078V4.1858C17.7988 6.77547 17.5848 8.54613 16.5596 9.54359C15.5344 10.541 13.5736 10.8155 10.5875 10.8796L10.478 10.8888ZM16.679 4.1675C15.1053 4.14948 13.5847 4.69032 12.4339 5.67738C11.0304 6.90358 10.4084 8.68799 10.6373 10.7195C16.8233 10.573 17.3758 9.6717 17.8187 4.25443C17.4421 4.19616 17.0609 4.16708 16.679 4.1675Z" fill="black"/>
<path d="M16.187 8.26648C12.0513 8.13837 8.61242 11.2771 9.91134 15.7564C16.2616 14.8001 16.5652 13.7478 16.187 8.26648Z" fill="black"/>
<path d="M9.82825 15.8487V15.7754C9.21611 13.7211 9.58439 11.7857 10.8435 10.3399C11.489 9.62016 12.3095 9.0501 13.2389 8.67576C14.1683 8.30141 15.1804 8.13326 16.1935 8.18491H16.2731V8.25811C16.4523 10.8478 16.507 12.6322 15.6411 13.7486C14.7751 14.865 12.864 15.3911 9.91283 15.8349L9.82825 15.8487ZM15.9347 8.34962C14.9864 8.32792 14.0453 8.5054 13.1829 8.86853C12.3205 9.23166 11.5595 9.77086 10.958 10.4452C9.7536 11.8178 9.3903 13.6845 9.93773 15.6611C16.0392 14.746 16.4523 13.7715 16.079 8.34047L15.9347 8.34962Z" fill="black"/>
<path d="M14.9408 13.4188C10.8001 13.2907 7.36122 16.4294 8.64521 20.9087C15.0104 19.9525 15.319 18.9002 14.9408 13.4188Z" fill="black"/>
<path d="M8.58118 21V20.9269C7.96904 18.8679 8.33732 16.9234 9.59643 15.4913C10.2419 14.7716 11.0625 14.2015 11.9918 13.8271C12.9212 13.4528 13.9333 13.2846 14.9464 13.3363H15.026V13.4095C15.2052 15.9991 15.255 17.7835 14.389 18.9C13.5231 20.0163 11.612 20.5333 8.65583 20.9771L8.58118 21ZM14.6876 13.501C13.7393 13.4793 12.7982 13.6568 11.9358 14.0199C11.0734 14.383 10.3124 14.9222 9.71089 15.5965C8.50155 16.9691 8.14323 18.8359 8.68569 20.8125C14.7921 19.8974 15.2002 18.9228 14.8319 13.4918L14.6876 13.501Z" fill="black"/>
<path d="M17.4901 4.57115C13.8919 3.97635 10.4381 6.35097 10.9706 10.4231C16.6888 10.295 17.0969 9.40732 17.4901 4.57115Z" fill="white"/>
<path d="M10.5712 10.8426L10.5265 10.472C10.3678 9.5796 10.4432 8.66531 10.7461 7.80509C11.049 6.94487 11.5709 6.16352 12.2683 5.52596C12.9725 4.93061 13.8193 4.49611 14.7401 4.25764C15.6609 4.01917 16.6299 3.98344 17.5685 4.15335L17.9667 4.2174L17.9368 4.56971C17.5237 9.67583 16.9415 10.6916 10.9694 10.8197L10.5712 10.8426ZM16.3791 4.88084C15.0877 4.87187 13.8414 5.31709 12.8954 6.12534C12.3497 6.62822 11.9326 7.23649 11.6743 7.90601C11.4161 8.57554 11.3232 9.28949 11.4024 9.9961C16.3393 9.8497 16.6876 9.04901 17.036 4.90829C16.817 4.88998 16.5981 4.88084 16.3791 4.88084Z" fill="black"/>
<path d="M16.0025 8.68771C12.3346 8.57793 9.28391 11.3598 10.4086 15.3312C16.0622 14.4802 16.3359 13.5514 16.0025 8.68771Z" fill="white"/>
<path d="M10.0906 15.7984L9.98606 15.4324C9.69717 14.5685 9.63677 13.6536 9.80991 12.7639C9.98299 11.8742 10.3846 11.0354 10.9814 10.3171C11.5896 9.63727 12.3634 9.09869 13.2401 8.74496C14.1168 8.39122 15.0718 8.2323 16.0278 8.28107H16.4359L16.4608 8.65625C16.8141 13.7624 16.3712 14.8422 10.4887 15.7252L10.0906 15.7984ZM15.565 9.10462C14.8162 9.11482 14.0789 9.2748 13.4042 9.57348C12.7296 9.87212 12.1338 10.3023 11.6583 10.8342C11.1908 11.401 10.8665 12.0564 10.709 12.7529C10.5515 13.4493 10.5646 14.1693 10.7475 14.8605C15.6297 14.0873 15.8536 13.2637 15.5799 9.10462H15.565Z" fill="black"/>
<path d="M14.553 13.8406C10.9051 13.7216 7.83446 16.508 8.96915 20.4795C14.6128 19.6284 14.8864 18.6996 14.553 13.8406Z" fill="white"/>
<path d="M8.64161 20.9455L8.5371 20.584C8.2482 19.7201 8.1878 18.8052 8.36092 17.9156C8.53404 17.0258 8.93568 16.187 9.53245 15.4687C10.1401 14.7883 10.9138 14.2493 11.7906 13.8955C12.6675 13.5418 13.6228 13.3831 14.5788 13.4327H14.9819L15.0118 13.8079C15.3602 18.914 14.9222 19.9938 9.03975 20.8768L8.64161 20.9455ZM14.116 14.2517C13.3673 14.2618 12.6299 14.4218 11.9553 14.7205C11.2806 15.0192 10.6848 15.4493 10.2093 15.9812C9.74183 16.548 9.41757 17.2035 9.26004 17.8999C9.10251 18.5964 9.11566 19.3163 9.29854 20.0075C14.1757 19.2343 14.3897 18.4016 14.1309 14.2517H14.116Z" fill="black"/>
</svg>
