<svg width="33" height="50" viewBox="0 0 33 50" fill="none" xmlns="http://www.w3.org/2000/svg">
<path d="M17.3432 3.18457C1.49092 13.7887 -5.11056 34.9565 4.4184 49.9881L17.3432 3.18457Z" fill="black"/>
<path d="M31.9251 0.544402C19.9225 -1.37995 8.51992 6.4924 10.291 20.0033C29.2611 19.586 30.6223 16.639 31.9251 0.544402Z" fill="black"/>
<path d="M10.0523 20.2611V20.0322C9.21806 13.7882 11.1355 8.40537 15.4389 4.58358C17.6387 2.73434 20.2802 1.38608 23.1506 0.647447C26.0212 -0.0911836 29.0402 -0.199522 31.9645 0.331163H32.1988V0.546475C31.584 8.16315 30.9546 13.371 27.9393 16.3047C24.924 19.2383 19.1569 20.0456 10.3743 20.234L10.0523 20.2611ZM28.2906 0.492648C23.662 0.439645 19.1895 2.03036 15.8048 4.93347C11.6771 8.53995 9.84747 13.7882 10.5208 19.7631C28.715 19.3324 30.3398 16.6815 31.6425 0.748331C30.5349 0.576956 29.4137 0.491426 28.2906 0.492648Z" fill="black"/>
<path d="M26.8443 12.5492C14.6807 12.1724 4.56622 21.4039 8.38659 34.5783C27.0639 31.7659 27.9568 28.6707 26.8443 12.5492Z" fill="black"/>
<path d="M8.14132 34.8486V34.6332C6.34091 28.5911 7.42408 22.8987 11.1273 18.6463C13.0259 16.5294 15.4392 14.8528 18.1726 13.7518C20.9061 12.6507 23.8829 12.1562 26.8625 12.3081H27.0967V12.5234C27.6237 20.14 27.7847 25.3883 25.2378 28.6718C22.6908 31.9554 17.0701 33.5029 8.39008 34.8082L8.14132 34.8486ZM26.1014 12.7925C23.3124 12.7287 20.5443 13.2507 18.0078 14.3188C15.4713 15.3868 13.2332 16.9727 11.464 18.9559C7.92174 22.993 6.85322 28.4834 8.46332 34.2969C26.4088 31.6055 27.6237 28.7391 26.5259 12.7656L26.1014 12.7925Z" fill="black"/>
<path d="M23.1784 27.7035C11 27.3267 0.885576 36.5582 4.66202 49.7326C23.3832 46.9202 24.2908 43.8251 23.1784 27.7035Z" fill="black"/>
<path d="M4.47433 50V49.7847C2.67392 43.729 3.75709 38.0097 7.46036 33.7977C9.35883 31.6809 11.7722 30.0041 14.5057 28.9031C17.239 27.8021 20.2159 27.3075 23.1956 27.4595H23.4298V27.6747C23.9568 35.2914 24.1031 40.5396 21.5561 43.8232C19.0093 47.1067 13.3886 48.6273 4.69388 49.9326L4.47433 50ZM22.4345 27.944C19.6454 27.8801 16.8774 28.4021 14.3408 29.4701C11.8043 30.5381 9.5662 32.124 7.797 34.1072C4.24011 38.1443 3.18623 43.6348 4.78171 49.4482C22.7419 46.7568 23.942 43.8905 22.8589 27.9169L22.4345 27.944Z" fill="black"/>
<path d="M30.6762 1.67881C20.0934 -0.0706025 9.93505 6.91359 11.5013 18.8904C28.3197 18.5136 29.5198 15.9028 30.6762 1.67881Z" fill="white"/>
<path d="M10.3267 20.125L10.195 19.035C9.72848 16.4105 9.95004 13.7214 10.8411 11.1913C11.732 8.66125 13.2669 6.36317 15.3181 4.48802C17.3892 2.73697 19.8797 1.45902 22.588 0.757637C25.2964 0.0562559 28.1462 -0.0488226 30.9069 0.450911L32.0779 0.63931L31.9901 1.6755C30.7752 16.6935 29.0626 19.681 11.4977 20.0578L10.3267 20.125ZM27.4086 2.59058C23.6104 2.5642 19.9448 3.87368 17.1624 6.25089C15.5574 7.72996 14.3306 9.51898 13.571 11.4881C12.8114 13.4573 12.5383 15.5572 12.7712 17.6355C27.2916 17.2049 28.3161 14.8499 29.3407 2.67132C28.6967 2.61749 28.0527 2.59058 27.4086 2.59058Z" fill="black"/>
<path d="M26.3012 13.7875C15.5134 13.4647 6.54068 21.6465 9.84871 33.3272C26.4768 30.8242 27.2819 28.0925 26.3012 13.7875Z" fill="white"/>
<path d="M8.91312 34.7006L8.60571 33.6241C7.75604 31.0831 7.57839 28.3925 8.08762 25.7756C8.59669 23.1588 9.77803 20.6916 11.5332 18.5791C13.3219 16.5796 15.5978 14.9955 18.1763 13.9551C20.755 12.9147 23.5639 12.4473 26.3755 12.5908H27.5758L27.649 13.6942C28.6883 28.7122 27.3856 31.8881 10.0841 34.4853L8.91312 34.7006ZM25.0143 15.013C22.8121 15.043 20.6436 15.5135 18.6591 16.392C16.6749 17.2703 14.9225 18.5357 13.524 20.0998C12.1491 21.767 11.1954 23.6948 10.7321 25.7432C10.2687 27.7915 10.3074 29.909 10.8453 31.9419C25.2045 29.6678 25.8632 27.2454 25.0582 15.013H25.0143Z" fill="black"/>
<path d="M22.0375 28.9415C11.3083 28.5916 2.27698 36.7868 5.61432 48.4676C22.2132 45.9645 23.0181 43.2328 22.0375 28.9415Z" fill="white"/>
<path d="M4.65143 49.8402L4.34404 48.7771C3.49433 46.2362 3.31668 43.5454 3.82586 40.9287C4.33504 38.3119 5.51633 35.8447 7.27153 33.7322C9.05867 31.731 11.3343 30.1456 13.9132 29.1051C16.4923 28.0646 19.302 27.5981 22.1139 27.7439H23.2994L23.3873 28.8473C24.4119 43.8653 23.1238 47.0411 5.82241 49.6384L4.65143 49.8402ZM20.7526 30.1526C18.5505 30.1825 16.3818 30.653 14.3975 31.5315C12.4132 32.41 10.6608 33.6752 9.26219 35.2393C7.88738 36.9066 6.93366 38.8343 6.47033 40.8827C6.007 42.9311 6.04568 45.0487 6.58357 47.0816C20.9283 44.8073 21.5577 42.3582 20.7965 30.1526H20.7526Z" fill="black"/>
</svg>
