<svg width="24" height="49" viewBox="0 0 24 49" fill="none" xmlns="http://www.w3.org/2000/svg">
<path d="M14.7861 0H8.94238V1.56648H14.7861V0Z" fill="#313335"/>
<path d="M15.0313 0H8.70166V0.306196H15.0313V0Z" fill="#525557"/>
<path d="M21.9947 11.5816V44.7173C21.9947 44.8948 21.986 45.0768 21.9641 45.2543C21.8897 45.9155 21.6708 46.5545 21.325 47.1181C21.2243 47.2867 21.1105 47.442 20.9836 47.5929C20.7866 47.8325 20.5633 48.05 20.3139 48.2364C20.0293 48.4538 19.7185 48.6269 19.3859 48.7556C19.3508 48.7689 19.3202 48.7822 19.2852 48.7911C19.2501 48.8 19.2108 48.8177 19.1758 48.8266C19.0269 48.871 18.8781 48.9109 18.7249 48.9376C18.6111 48.9553 18.4972 48.973 18.3834 48.9819C18.2915 48.9908 18.1996 48.9952 18.1033 48.9952H5.56216C5.36956 48.9907 5.17258 48.973 4.98435 48.9376C4.91869 48.9242 4.85303 48.9109 4.79174 48.8976C4.17454 48.7467 3.60548 48.4449 3.1371 48.0101C3.01454 47.8991 2.90073 47.7837 2.79567 47.6595C2.10405 46.8385 1.7276 45.7957 1.73197 44.7173V11.5816C1.73197 11.1422 1.79326 10.7029 1.91582 10.2814C2.41484 8.5507 3.88125 7.29932 5.61469 7.29932H18.1164C20.095 7.29932 21.7277 8.93232 21.9685 11.0446C21.9816 11.2222 21.9947 11.3997 21.9947 11.5816Z" fill="#B36940"/>
<path d="M21.9949 11.5826V44.7183C21.9949 44.8959 21.9862 45.0778 21.9642 45.2553C21.8242 46.4934 21.207 47.5629 20.3184 48.2418V11.0457H21.9642C21.9818 11.2231 21.9949 11.4006 21.9949 11.5826Z" fill="#C58257"/>
<path d="M10.7062 28.2632L13.5209 20.5906C13.5209 20.5906 7.63772 22.5831 10.7062 28.2632Z" fill="#CE9D83"/>
<path d="M13.3629 22.3083L11.4062 27.8554C11.4062 27.8554 16.856 25.7785 13.3629 22.3083Z" fill="#CE9D83"/>
<path d="M1.66209 10.4597C1.66209 10.4109 1.65771 10.3577 1.65771 10.3044C1.65771 5.04581 6.22329 0.78125 11.8613 0.78125C17.4994 0.78125 22.0606 5.04581 22.0606 10.3044C22.0606 10.3577 22.0606 10.4065 22.0606 10.4597H1.66209Z" fill="#E2DBD6"/>
<path d="M1.65771 10.3086C1.65771 5.05001 6.22329 0.785452 11.8613 0.785452C13.2971 0.781009 14.7241 1.06502 16.0504 1.62416C14.8336 1.2869 13.1921 1.09165 11.5549 1.69516C7.63719 3.13295 7.16878 9.70066 7.16878 9.70066V10.4684H1.66209C1.66209 10.4107 1.65771 10.3574 1.65771 10.3086Z" fill="#B6A7A4"/>
<path opacity="0.7" d="M21.51 9.07862H20.4332C20.4332 9.07862 19.5227 3.46504 14.6157 1.761C14.6157 1.75656 20.3238 2.98578 21.51 9.07862Z" fill="#A2A4A6"/>
<path d="M1.72803 10.2817V44.7177C1.72803 47.083 3.46584 49 5.61074 49H7.17343V10.2817H1.72803Z" fill="#885031"/>
<path d="M22.6129 9.4436H1.10693V11.0368H22.6129V9.4436Z" fill="#373738"/>
<path d="M22.6129 10.7703H1.10693V11.0454H22.6129V10.7703Z" fill="#999B9E"/>
<path d="M22.6129 9.64355H1.10693V9.82996H22.6129V9.64355Z" fill="#A2A4A6"/>
<path d="M1.02288 13.3224H22.8615C23.1285 13.3446 23.3605 13.1449 23.378 12.8742C23.3999 12.6035 23.203 12.3683 22.9359 12.3506C22.9097 12.3506 22.8834 12.3506 22.8571 12.3506H1.02288C0.755857 12.3727 0.558875 12.6079 0.580762 12.8742C0.598272 13.1138 0.786498 13.3046 1.02288 13.3224Z" fill="#373738"/>
<path d="M1.02349 36.8323H22.8621C22.9978 36.8367 23.116 36.7302 23.1204 36.5926C23.1247 36.4551 23.0197 36.3353 22.884 36.3308C22.8752 36.3308 22.8709 36.3308 22.8621 36.3308H1.02349C0.887791 36.3353 0.778358 36.4551 0.787112 36.5926C0.79149 36.7213 0.892168 36.8278 1.02349 36.8323Z" fill="#373738"/>
<path d="M1.02406 41.0791H22.8627C22.9984 41.0791 23.1122 40.9681 23.1122 40.8306C23.1122 40.693 23.0028 40.5776 22.8671 40.5776H1.02406C0.888365 40.5776 0.774553 40.693 0.778931 40.8306C0.778931 40.9637 0.888365 41.0791 1.02406 41.0791Z" fill="#373738"/>
<path d="M22.8619 48.6499C23.1289 48.6499 23.3434 48.4325 23.3434 48.1617V7.93466C23.3434 7.66397 23.1289 7.44653 22.8619 7.44653C22.5949 7.44653 22.3804 7.66397 22.3804 7.93466V48.1617C22.3804 48.428 22.5949 48.6499 22.8619 48.6499Z" fill="#462718"/>
<path d="M0.861392 48.6499C1.12841 48.6499 1.3429 48.4325 1.3429 48.1617V7.93466C1.3429 7.66397 1.12841 7.44653 0.861392 7.44653C0.594373 7.44653 0.379883 7.66397 0.379883 7.93466V48.1617C0.379883 48.428 0.594373 48.6499 0.861392 48.6499Z" fill="#462718"/>
<path d="M6.52631 38.9313V38.6517H3.23453V40.1827H5.43635C5.31815 40.3203 5.19997 40.4623 5.08616 40.5999H3.23453V42.2862H3.79046L3.47091 42.7033H3.23453V43.0184C3.03318 43.2891 2.8362 43.5598 2.65234 43.8438V7.96116C2.65234 7.79697 2.78366 7.66382 2.94563 7.66382C3.10759 7.66382 3.23891 7.79697 3.23891 7.96116V9.86041H6.53506V7.96116C6.53506 7.79697 6.66635 7.66382 6.82831 7.66382C6.99033 7.66382 7.12162 7.79697 7.12162 7.96116V38.1858C6.92905 38.4432 6.73203 38.6917 6.52631 38.9313ZM6.52631 10.282H3.23453V11.813H6.53068V10.282H6.52631ZM6.52631 12.2301H3.23453V13.9165H6.53068V12.2301H6.52631ZM6.52631 14.3336H3.23453V15.8645H6.53068V14.3336H6.52631ZM6.52631 16.2817H3.23453V17.968H6.53068V16.2817H6.52631ZM6.52631 18.3851H3.23453V19.9161H6.53068V18.3851H6.52631ZM6.52631 20.3377H3.23453V22.024H6.53068V20.3377H6.52631ZM6.52631 22.4411H3.23453V23.9677H6.53068V22.4411H6.52631ZM6.52631 24.3892H3.23453V26.0755H6.53068V24.3892H6.52631ZM6.52631 26.4927H3.23453V28.0237H6.53068V26.4927H6.52631ZM6.52631 28.4408H3.23453V30.1271H6.53068V28.4408H6.52631ZM6.52631 30.5442H3.23453V32.0752H6.53068V30.5442H6.52631ZM6.52631 32.4923H3.23453V34.1786H6.53068V32.4923H6.52631ZM6.52631 34.6002H3.23453V36.1312H6.53068V34.6002H6.52631ZM6.52631 36.5483H3.23453V38.2346H6.53068V36.5483H6.52631Z" fill="#999B9E"/>
<path d="M3.06804 10.2819H6.78877C6.90259 10.2819 6.99456 10.1887 6.99456 10.0733C6.99456 9.95792 6.90259 9.86475 6.78877 9.86475H3.06804C2.95423 9.86475 2.8623 9.95792 2.8623 10.0733C2.8623 10.1842 2.95423 10.2819 3.06804 10.2819Z" fill="#373738"/>
<path d="M3.06748 10.3219H6.78823C6.9239 10.3175 7.03333 10.1976 7.02463 10.0601C7.02025 9.93139 6.9152 9.82489 6.78823 9.82045H3.06748C2.93178 9.816 2.81359 9.9225 2.80921 10.0601C2.80484 10.1976 2.9099 10.3175 3.04559 10.3219C3.05434 10.3219 3.05873 10.3219 3.06748 10.3219ZM6.78823 9.90035C6.88014 9.90473 6.95019 9.98464 6.94581 10.0778C6.94143 10.1622 6.87576 10.2332 6.78823 10.2376H3.06748C2.97556 10.242 2.89676 10.171 2.89238 10.0778C2.88801 9.98464 2.95804 9.90473 3.04997 9.90035C3.05434 9.90035 3.0631 9.90035 3.06748 9.90035H6.78823Z" fill="#373738"/>
<path d="M3.06819 12.2306H6.78895C6.90277 12.2306 6.99468 12.1374 6.99468 12.022C6.99468 11.9066 6.90277 11.8135 6.78895 11.8135H3.06819C2.95437 11.8135 2.86245 11.9066 2.86245 12.022C2.85807 12.133 2.95437 12.2306 3.06819 12.2306Z" fill="#373738"/>
<path d="M3.06787 12.2708H6.78865C6.92431 12.2708 7.03813 12.1598 7.03813 12.0178C7.03813 11.8803 6.92869 11.7649 6.78865 11.7649H3.06787C2.93217 11.7649 2.81836 11.8758 2.81836 12.0178C2.81836 12.1598 2.92779 12.2708 3.06787 12.2708ZM6.78865 11.8492C6.88055 11.8536 6.95061 11.9335 6.94622 12.0267C6.94184 12.111 6.87179 12.182 6.78865 12.1864H3.06787C2.97594 12.1909 2.89715 12.1199 2.89277 12.0267C2.8884 11.9335 2.95843 11.8536 3.05036 11.8492C3.05473 11.8492 3.06349 11.8492 3.06787 11.8492H6.78865Z" fill="#373738"/>
<path d="M3.06768 14.3333H6.78842C6.90223 14.3288 6.98976 14.2312 6.98544 14.1158C6.98105 14.0093 6.89347 13.9206 6.78842 13.9162H3.06768C2.95387 13.9117 2.85756 14.0005 2.85318 14.1158C2.84881 14.2312 2.93636 14.3288 3.05016 14.3333C3.05454 14.3333 3.05892 14.3333 3.06768 14.3333Z" fill="#373738"/>
<path d="M3.06748 14.3729H6.78823C6.9239 14.3685 7.03333 14.2487 7.02463 14.1111C7.02025 13.9824 6.9152 13.8759 6.78823 13.8715H3.06748C2.93178 13.8671 2.81359 13.9736 2.80921 14.1111C2.80484 14.2487 2.9099 14.3685 3.04559 14.3729C3.05434 14.3729 3.05873 14.3729 3.06748 14.3729ZM6.78823 13.9558C6.88014 13.9558 6.95458 14.0313 6.95458 14.1244C6.95458 14.2176 6.88014 14.2931 6.78823 14.2931H3.06748C2.97556 14.2931 2.90114 14.2176 2.90114 14.1244C2.90114 14.0313 2.97556 13.9558 3.06748 13.9558H6.78823Z" fill="#373738"/>
<path d="M3.06819 16.2816H6.78895C6.90277 16.2816 6.99468 16.1884 6.99468 16.0731C6.99468 15.9577 6.90277 15.8645 6.78895 15.8645H3.06819C2.95437 15.8645 2.86245 15.9577 2.86245 16.0731C2.85807 16.1884 2.95437 16.2816 3.06819 16.2816Z" fill="#373738"/>
<path d="M3.06787 16.3218H6.78865C6.92431 16.3218 7.03813 16.2109 7.03813 16.0688C7.03813 15.9313 6.92869 15.8159 6.78865 15.8159H3.06787C2.93217 15.8159 2.81836 15.9269 2.81836 16.0688C2.81836 16.2109 2.92779 16.3218 3.06787 16.3218ZM6.78865 15.9046C6.88055 15.9091 6.95061 15.989 6.94622 16.0822C6.94184 16.1664 6.87617 16.2375 6.78865 16.2419H3.06787C2.97594 16.2464 2.89715 16.1753 2.89277 16.0822C2.8884 15.989 2.95843 15.9091 3.05036 15.9046C3.05473 15.9046 3.06349 15.9046 3.06787 15.9046H6.78865Z" fill="#373738"/>
<path d="M3.06768 18.3858H6.78842C6.90223 18.3813 6.98976 18.2837 6.98544 18.1683C6.98105 18.0618 6.89347 17.9731 6.78842 17.9687H3.06768C2.95387 17.9642 2.85756 18.0529 2.85318 18.1683C2.84881 18.2837 2.93636 18.3813 3.05016 18.3858C3.05454 18.3858 3.05892 18.3858 3.06768 18.3858Z" fill="#373738"/>
<path d="M3.06787 18.4297H6.78865C6.92431 18.4297 7.03813 18.3188 7.03813 18.1767C7.03813 18.0392 6.92869 17.9238 6.78865 17.9238H3.06787C2.93217 17.9238 2.81836 18.0348 2.81836 18.1767C2.81836 18.3143 2.92779 18.4297 3.06787 18.4297ZM6.78865 18.0081C6.88055 18.0126 6.95061 18.0925 6.94622 18.1856C6.94184 18.27 6.87617 18.3409 6.78865 18.3454H3.06787C2.97594 18.3498 2.89715 18.2788 2.89277 18.1856C2.8884 18.0925 2.95843 18.0126 3.05036 18.0081C3.05473 18.0081 3.06349 18.0081 3.06787 18.0081H6.78865Z" fill="#373738"/>
<path d="M3.06804 20.3329H6.78877C6.90259 20.3329 6.99456 20.2397 6.99456 20.1243C6.99456 20.0089 6.90259 19.9158 6.78877 19.9158H3.06804C2.95423 19.9158 2.8623 20.0089 2.8623 20.1243C2.8623 20.2397 2.95423 20.3329 3.06804 20.3329Z" fill="#373738"/>
<path d="M3.06787 20.377H6.78865C6.92431 20.377 7.03813 20.266 7.03813 20.1241C7.03813 19.9865 6.92869 19.8711 6.78865 19.8711H3.06787C2.93217 19.8711 2.81836 19.982 2.81836 20.1241C2.81836 20.2616 2.92779 20.377 3.06787 20.377ZM6.78865 19.9554C6.88055 19.9598 6.95061 20.0397 6.94622 20.1329C6.94184 20.2172 6.87617 20.2883 6.78865 20.2926H3.06787C2.97594 20.2971 2.89715 20.2261 2.89277 20.1329C2.8884 20.0397 2.95843 19.9598 3.05036 19.9554C3.05473 19.9554 3.06349 19.9554 3.06787 19.9554H6.78865Z" fill="#373738"/>
<path d="M3.06726 22.4411H6.78802C6.90184 22.4367 6.98936 22.3391 6.98498 22.2193C6.9806 22.1083 6.89307 22.024 6.78802 22.0195H3.06726C2.95344 22.024 2.86589 22.1216 2.87027 22.2414C2.87465 22.3479 2.95782 22.4367 3.06726 22.4411Z" fill="#373738"/>
<path d="M3.06748 22.4806H6.78823C6.9239 22.4762 7.03333 22.3563 7.02463 22.2187C7.02025 22.0901 6.9152 21.9836 6.78823 21.9791H3.06748C2.93178 21.9747 2.81359 22.0812 2.80921 22.2187C2.80484 22.3563 2.9099 22.4762 3.04559 22.4806C3.05434 22.4806 3.05873 22.4806 3.06748 22.4806ZM6.78823 22.059C6.88014 22.0634 6.95019 22.1433 6.94581 22.2365C6.94143 22.3208 6.87137 22.3918 6.78823 22.3962H3.06748C2.97556 22.4007 2.89676 22.3297 2.89238 22.2365C2.88801 22.1433 2.95804 22.0634 3.04997 22.059C3.05434 22.059 3.0631 22.059 3.06748 22.059H6.78823Z" fill="#373738"/>
<path d="M3.06768 24.3841H6.78842C6.90223 24.3796 6.98976 24.282 6.98544 24.1666C6.98105 24.0601 6.89347 23.9714 6.78842 23.967H3.06768C2.95387 23.9625 2.85756 24.0512 2.85318 24.1666C2.84881 24.282 2.93636 24.3796 3.05016 24.3841C3.05454 24.3841 3.05892 24.3841 3.06768 24.3841Z" fill="#373738"/>
<path d="M3.06787 24.4292H6.78865C6.92431 24.4292 7.03374 24.3182 7.03374 24.1763C7.03374 24.0387 6.92431 23.9277 6.78865 23.9277H3.06787C2.93217 23.9277 2.81836 24.0387 2.81836 24.1763C2.81836 24.3182 2.92779 24.4292 3.06787 24.4292ZM6.78865 24.0121C6.88055 24.0121 6.95499 24.0875 6.95499 24.1807C6.95499 24.2739 6.88055 24.3493 6.78865 24.3493H3.06787C2.97594 24.3493 2.90152 24.2739 2.90152 24.1807C2.90152 24.0875 2.97594 24.0121 3.06787 24.0121H6.78865Z" fill="#373738"/>
<path d="M3.06804 26.4933H6.78877C6.90259 26.4933 6.99456 26.4001 6.99456 26.2847C6.99456 26.1693 6.90259 26.0762 6.78877 26.0762H3.06804C2.95423 26.0762 2.8623 26.1693 2.8623 26.2847C2.8623 26.4001 2.95423 26.4933 3.06804 26.4933Z" fill="#373738"/>
<path d="M3.06748 26.5331H6.78823C6.9239 26.5286 7.03333 26.4088 7.02463 26.2712C7.02025 26.1426 6.9152 26.0361 6.78823 26.0316H3.06748C2.93178 26.0272 2.81359 26.1337 2.80921 26.2712C2.80484 26.4088 2.9099 26.5286 3.04559 26.5331C3.05434 26.5331 3.05873 26.5331 3.06748 26.5331ZM6.78823 26.1159C6.88014 26.1159 6.95458 26.1914 6.95458 26.2845C6.95458 26.3778 6.88014 26.4532 6.78823 26.4532H3.06748C2.97556 26.4532 2.90114 26.3778 2.90114 26.2845C2.90114 26.1914 2.97556 26.1159 3.06748 26.1159H6.78823Z" fill="#373738"/>
<path d="M3.06768 28.4407H6.78842C6.90223 28.4363 6.98976 28.3387 6.98544 28.2233C6.98105 28.1168 6.89347 28.028 6.78842 28.0236H3.06768C2.95387 28.0192 2.85756 28.1079 2.85318 28.2233C2.84881 28.3387 2.93636 28.4363 3.05016 28.4407C3.05454 28.4407 3.05892 28.4407 3.06768 28.4407Z" fill="#373738"/>
<path d="M3.06748 28.4805H6.78823C6.9239 28.4761 7.03333 28.3563 7.02463 28.2187C7.02025 28.0901 6.9152 27.9835 6.78823 27.9791H3.06748C2.93178 27.9747 2.81359 28.0812 2.80921 28.2187C2.80484 28.3563 2.9099 28.4761 3.04559 28.4805C3.05434 28.4805 3.05873 28.4805 3.06748 28.4805ZM6.78823 28.0634C6.88014 28.0634 6.95458 28.1389 6.95458 28.2321C6.95458 28.3252 6.88014 28.4007 6.78823 28.4007H3.06748C2.97556 28.4007 2.90114 28.3252 2.90114 28.2321C2.90114 28.1389 2.97556 28.0634 3.06748 28.0634H6.78823Z" fill="#373738"/>
<path d="M3.06768 30.5445H6.78842C6.90223 30.5401 6.98976 30.4424 6.98544 30.3271C6.98105 30.2205 6.89347 30.1318 6.78842 30.1274H3.06768C2.95387 30.1229 2.85756 30.2117 2.85318 30.3271C2.84881 30.4424 2.93636 30.5401 3.05016 30.5445C3.05454 30.5445 3.05892 30.5445 3.06768 30.5445Z" fill="#373738"/>
<path d="M3.06787 30.5842H6.78865C6.92431 30.5842 7.03374 30.4733 7.03374 30.3312C7.03374 30.1937 6.92431 30.0828 6.78865 30.0828H3.06787C2.93217 30.0828 2.81836 30.1937 2.81836 30.3312C2.81836 30.4733 2.92779 30.5842 3.06787 30.5842ZM6.78865 30.167C6.88055 30.167 6.95499 30.2425 6.95499 30.3357C6.95499 30.4288 6.88055 30.5043 6.78865 30.5043H3.06787C2.97594 30.5043 2.90152 30.4288 2.90152 30.3357C2.90152 30.2425 2.97594 30.167 3.06787 30.167H6.78865Z" fill="#373738"/>
<path d="M3.06768 32.492H6.78842C6.90224 32.4964 6.99852 32.4077 7.0029 32.2923C7.00729 32.1769 6.91976 32.0793 6.80595 32.0749C6.80157 32.0749 6.7928 32.0749 6.78842 32.0749H3.06768C2.95387 32.0704 2.85756 32.1592 2.85318 32.2745C2.84881 32.3899 2.93636 32.4876 3.05016 32.492C3.05454 32.492 3.05892 32.492 3.06768 32.492Z" fill="#373738"/>
<path d="M3.06695 32.5369H6.78771C6.92338 32.5324 7.03281 32.4126 7.02411 32.275C7.01972 32.1419 6.91467 32.0398 6.78771 32.0354H3.06695C2.93125 32.0398 2.82181 32.1596 2.83057 32.2972C2.83057 32.4259 2.93563 32.5324 3.06695 32.5369ZM6.78771 32.1152C6.87961 32.1152 6.95405 32.1907 6.95405 32.2839C6.95405 32.377 6.87961 32.4525 6.78771 32.4525H3.06695C2.97502 32.4525 2.90061 32.377 2.90061 32.2839C2.90061 32.1907 2.97502 32.1152 3.06695 32.1152H6.78771Z" fill="#373738"/>
<path d="M3.06819 34.5997H6.78896C6.90277 34.5997 6.99468 34.5066 6.99468 34.3912C6.99468 34.2758 6.90277 34.1826 6.78896 34.1826H3.06819C2.95438 34.1826 2.86245 34.2758 2.86245 34.3912C2.85808 34.5021 2.95 34.5997 3.06819 34.5997Z" fill="#373738"/>
<path d="M3.06748 34.6395H6.78823C6.9239 34.6351 7.03333 34.5153 7.02463 34.3777C7.02025 34.249 6.9152 34.1425 6.78823 34.1381H3.06748C2.93178 34.1336 2.81359 34.2401 2.80921 34.3777C2.80484 34.5153 2.9099 34.6351 3.04559 34.6395C3.05434 34.6395 3.05873 34.6395 3.06748 34.6395ZM6.78823 34.218C6.88014 34.218 6.95458 34.2934 6.95458 34.3866C6.95458 34.4798 6.88014 34.5552 6.78823 34.5552H3.06748C2.97556 34.5552 2.90114 34.4798 2.90114 34.3866C2.90114 34.2934 2.97556 34.218 3.06748 34.218H6.78823Z" fill="#373738"/>
<path d="M3.06768 36.5445H6.78842C6.90223 36.5401 6.98976 36.4424 6.98544 36.327C6.98105 36.2205 6.89347 36.1318 6.78842 36.1274H3.06768C2.95387 36.1229 2.85756 36.2116 2.85318 36.327C2.84881 36.4424 2.93636 36.5401 3.05016 36.5445C3.05454 36.5489 3.05892 36.5489 3.06768 36.5445Z" fill="#373738"/>
<path d="M3.06787 36.5884H6.78865C6.92431 36.5884 7.03813 36.473 7.03813 36.3355C7.03813 36.1979 6.92869 36.087 6.78865 36.0825H3.06787C2.93217 36.0825 2.81836 36.1935 2.81836 36.3355C2.81836 36.4775 2.92779 36.5884 3.06787 36.5884ZM6.78865 36.1669C6.88055 36.1713 6.95061 36.2512 6.94622 36.3444C6.94184 36.4331 6.87179 36.4997 6.78865 36.5041H3.06787C2.97594 36.5086 2.89715 36.4376 2.89277 36.3444C2.8884 36.2512 2.95843 36.1713 3.05036 36.1669C3.05473 36.1669 3.06349 36.1669 3.06787 36.1669H6.78865Z" fill="#373738"/>
<path d="M3.06768 38.6524H6.78842C6.90224 38.6569 6.99852 38.5681 7.0029 38.4528C7.00729 38.3374 6.91976 38.2397 6.80595 38.2353C6.80157 38.2353 6.7928 38.2353 6.78842 38.2353H3.06768C2.95387 38.2309 2.85756 38.3196 2.85318 38.435C2.84881 38.5504 2.93636 38.648 3.05016 38.6524C3.05454 38.6524 3.05892 38.6524 3.06768 38.6524Z" fill="#373738"/>
<path d="M3.06787 38.6924H6.78865C6.92431 38.6924 7.03813 38.577 7.03813 38.4394C7.03813 38.3019 6.92869 38.1909 6.78865 38.1865H3.06787C2.93217 38.1865 2.81836 38.2975 2.81836 38.4394C2.81836 38.5814 2.92779 38.6924 3.06787 38.6924ZM6.78865 38.2752C6.88055 38.2797 6.95061 38.3595 6.94622 38.4528C6.94184 38.5371 6.87617 38.6081 6.78865 38.6125H3.06787C2.97594 38.617 2.89715 38.5459 2.89277 38.4528C2.8884 38.3595 2.95843 38.2797 3.05036 38.2752C3.05473 38.2752 3.06349 38.2752 3.06787 38.2752H6.78865Z" fill="#373738"/>
<path d="M3.06804 40.5995H6.78877C6.90259 40.5995 6.99456 40.5063 6.99456 40.3909C6.99456 40.2755 6.90259 40.1824 6.78877 40.1824H3.06804C2.95423 40.1824 2.8623 40.2755 2.8623 40.3909C2.8623 40.5063 2.94985 40.5995 3.06804 40.5995C3.06804 40.5995 3.06367 40.5995 3.06804 40.5995Z" fill="#373738"/>
<path d="M3.06787 40.6391H6.78865C6.92431 40.6391 7.03813 40.5238 7.03375 40.3862C7.03375 40.2486 6.92431 40.1377 6.78865 40.1377H3.06787C2.93217 40.1377 2.81836 40.2486 2.81836 40.3862C2.81836 40.5282 2.92779 40.6391 3.06787 40.6391C3.06787 40.6391 3.06349 40.6391 3.06787 40.6391ZM6.78865 40.222C6.88055 40.222 6.95499 40.2974 6.95499 40.3906C6.95499 40.4838 6.88055 40.5592 6.78865 40.5592H3.06787C2.97594 40.5592 2.90152 40.4838 2.90152 40.3906C2.90152 40.2974 2.97594 40.222 3.06787 40.222H6.78865Z" fill="#373738"/>
<path d="M3.06804 42.7032H6.78877C6.90259 42.7032 6.99456 42.6101 6.99456 42.4947C6.99456 42.3793 6.90259 42.2861 6.78877 42.2861H3.06804C2.95423 42.2861 2.8623 42.3793 2.8623 42.4947C2.8623 42.6101 2.94985 42.7032 3.06804 42.7032C3.06804 42.7032 3.06367 42.7032 3.06804 42.7032Z" fill="#373738"/>
<path d="M3.06748 42.7472H6.78823C6.9239 42.7427 7.03333 42.623 7.02463 42.4854C7.02025 42.3567 6.9152 42.2502 6.78823 42.2457H3.06748C2.93178 42.2413 2.81359 42.3479 2.80921 42.4854C2.80484 42.623 2.9099 42.7427 3.04559 42.7472C3.05434 42.7472 3.05873 42.7472 3.06748 42.7472ZM6.78823 42.3256C6.88014 42.3256 6.95019 42.4011 6.95019 42.4943C6.95019 42.5874 6.87576 42.6629 6.78823 42.6629H3.06748C2.97556 42.6629 2.90114 42.5874 2.90114 42.4943C2.90114 42.4011 2.97556 42.3256 3.06748 42.3256H6.78823Z" fill="#373738"/>
<path d="M3.06819 44.652H6.78896C6.90277 44.652 6.99468 44.5588 6.99468 44.4434C6.99468 44.328 6.90277 44.2349 6.78896 44.2349H3.06819C2.95438 44.2349 2.86245 44.328 2.86245 44.4434C2.85808 44.5588 2.95 44.652 3.06819 44.652Z" fill="#373738"/>
<path d="M3.06787 44.6958H6.78865C6.92431 44.6958 7.03813 44.5804 7.03375 44.4428C7.03375 44.3053 6.92431 44.1943 6.78865 44.1943H3.06787C2.93217 44.1943 2.81836 44.3053 2.81836 44.4428C2.81836 44.5804 2.92779 44.6958 3.06787 44.6958C3.06787 44.6958 3.06349 44.6958 3.06787 44.6958ZM6.78865 44.2742C6.88055 44.2786 6.95061 44.3585 6.94622 44.4517C6.94184 44.536 6.87617 44.607 6.78865 44.6114H3.06787C2.97594 44.6159 2.89715 44.5449 2.89277 44.4517C2.8884 44.3585 2.95843 44.2786 3.05036 44.2742C3.05473 44.2742 3.06349 44.2742 3.06787 44.2742H6.78865Z" fill="#373738"/>
<path d="M6.83625 48.6231C6.99821 48.6231 7.12517 48.49 7.12517 48.3258V7.96116C7.12517 7.79697 6.99383 7.66382 6.83187 7.66382C6.66991 7.66382 6.53857 7.79697 6.53857 7.96116V48.3258C6.54295 48.49 6.67429 48.6231 6.83625 48.6231Z" fill="#373738"/>
<path d="M6.8366 48.6628C7.02041 48.6628 7.16928 48.5118 7.16928 48.3255V7.96084C7.17805 7.77444 7.03356 7.61913 6.84969 7.61025C6.66588 7.60136 6.51266 7.74784 6.50391 7.93418C6.50391 7.94307 6.50391 7.95195 6.50391 7.96084V48.3255C6.50391 48.5118 6.65273 48.6628 6.8366 48.6628ZM6.8366 7.70786C6.97227 7.70786 7.08608 7.8188 7.08608 7.96084V48.3255C7.09047 48.4675 6.98541 48.5829 6.84537 48.5917C6.70526 48.5962 6.59144 48.4897 6.58268 48.3476C6.58268 48.3388 6.58268 48.3344 6.58268 48.3255V7.96084C6.58706 7.8188 6.69649 7.70786 6.8366 7.70786Z" fill="#373738"/>
<path d="M2.96236 48.6233C3.12432 48.6233 3.25564 48.4902 3.25564 48.326V7.96138C3.25126 7.79719 3.11556 7.67292 2.9536 7.67736C2.80039 7.6818 2.67783 7.80601 2.67345 7.96138V48.326C2.66907 48.4902 2.80039 48.6233 2.96236 48.6233C2.96236 48.6233 2.95797 48.6233 2.96236 48.6233Z" fill="#373738"/>
<path d="M2.96197 48.6624C3.14582 48.6624 3.29465 48.5116 3.29902 48.3252V7.96055C3.29902 7.77415 3.1502 7.62329 2.96635 7.62329C2.7825 7.62329 2.63367 7.77415 2.63367 7.96055V48.3252C2.62491 48.5116 2.77374 48.6624 2.96197 48.6624C2.96197 48.6624 2.95759 48.6624 2.96197 48.6624ZM2.96197 7.70758C3.10204 7.70758 3.21148 7.81852 3.21148 7.96055V48.3252C3.21586 48.4672 3.1108 48.5826 2.97072 48.5915C2.83065 48.6003 2.71684 48.4894 2.70808 48.3474C2.70808 48.3385 2.70808 48.334 2.70808 48.3252V7.96055C2.71246 7.82296 2.8219 7.70758 2.96197 7.70758Z" fill="#373738"/>
</svg>
