<svg width="38" height="30" viewBox="0 0 38 30" fill="none" xmlns="http://www.w3.org/2000/svg">
<path d="M17.7945 1.8122L20.5223 0.502473L23.6807 0L26.5519 0.502473L28.4183 1.15322L29.9975 2.47118L30.5717 3.78914V14.0033V29.6459H16V16.0791V8.54204V4.01978L17.0049 2.51236L17.7945 1.8122Z" fill="#CCEBC5"/>
<path d="M30.9706 4.53141H29.1592V4.37351C29.0772 2.43141 27.0765 0.797203 24.5709 0.426151L24.23 0.386677C24.0407 0.386677 23.8514 0.386677 23.662 0.347203H23.296C23.1129 0.347203 22.9236 0.347203 22.7342 0.386677L22.3934 0.426151C19.8689 0.797203 17.9187 2.43141 17.8114 4.37351V4.53141H16V4.38141C16 3.31562 16.6311 0.797203 22.3745 0.0945722C22.6761 0.0480913 22.9795 0.0217383 23.2833 0.015625H23.6809C23.9848 0.0217383 24.2882 0.0480913 24.5898 0.0945722C30.3395 0.797203 30.9706 3.31562 30.9706 4.38141V4.53141ZM29.519 4.21562H30.5793C30.4783 2.49457 28.8689 1.53141 27.1838 0.986676C28.4965 1.76036 29.3864 2.95246 29.519 4.21562ZM16.385 4.21562H17.4453C17.5778 2.95246 18.4677 1.76036 19.7679 0.986676C18.0954 1.53141 16.486 2.49457 16.385 4.21562Z" fill="black"/>
<path d="M25.6188 4.53165H21.3459V4.38165C21.3459 1.1685 22.6398 0.300079 23.1952 0.0711316C23.3814 -0.00767864 23.5833 -0.00767864 23.7695 0.0711316C24.3249 0.300079 25.6188 1.1685 25.6188 4.38165V4.53165ZM21.7309 4.21586H25.2338C25.2338 3.27639 25.0255 0.947446 23.6054 0.371131C23.5253 0.339616 23.4394 0.339616 23.3593 0.371131C21.9392 0.947446 21.7499 3.27639 21.7309 4.21586Z" fill="black"/>
<path opacity="0.5" d="M17.8113 4.55524H17.4326V29.7631H17.8113V4.55524Z" fill="black"/>
<path d="M30.9643 4.25531H16V4.72899H30.9643V4.25531Z" fill="black"/>
<path d="M30.9643 29.5263H16V30H30.9643V29.5263Z" fill="black"/>
<path d="M16.3787 4.55524H16V29.7631H16.3787V4.55524Z" fill="black"/>
<path opacity="0.5" d="M29.5313 4.55524H29.1526V29.7631H29.5313V4.55524Z" fill="black"/>
<path opacity="0.5" d="M25.6121 4.54041H25.2334V29.7483H25.6121V4.54041Z" fill="black"/>
<path opacity="0.5" d="M21.7246 4.54041H21.3459V29.7483H21.7246V4.54041Z" fill="black"/>
<path d="M30.9644 4.55524H30.5857V29.7631H30.9644V4.55524Z" fill="black"/>
</svg>
