<svg width="20" height="20" viewBox="0 0 20 20" fill="none" xmlns="http://www.w3.org/2000/svg">
<path fill-rule="evenodd" clip-rule="evenodd" d="M15.0538 0.0074553C14.2656 0.0587337 13.4688 0.290369 12.7924 0.664844C12.2658 0.956369 11.8437 1.2887 11.3975 1.76307C10.7012 2.50339 10.199 3.49604 9.99577 4.53405C9.95409 4.74689 9.91515 5.02001 9.90339 5.18203C9.88201 5.47631 9.88822 6.07343 9.9149 6.28988C9.9217 6.34506 9.92933 6.41466 9.93184 6.44456L9.93642 6.4989L9.86416 6.6285C9.622 7.0628 9.40736 7.47712 9.26388 7.78723C8.88477 8.60659 8.60314 9.41086 8.3858 10.2948L8.3344 10.5039L8.3291 10.4328C8.32619 10.3937 8.31954 10.2996 8.31433 10.2238C8.25913 9.41983 7.99846 8.64481 7.55928 7.97881C6.92204 7.01248 5.90607 6.32156 4.78802 6.09418C4.43498 6.02239 4.14592 6.00141 3.73023 6.01741C3.16368 6.03922 2.60103 6.18115 2.05557 6.43985L2.01013 6.4614L2.00497 6.51777C1.99724 6.60214 1.99871 6.85215 2.00812 7.05481C2.04617 7.874 2.33922 8.73998 2.80891 9.42109C3.06057 9.78604 3.41378 10.1594 3.7551 10.4212C4.20983 10.77 4.74052 11.0348 5.2703 11.1772C5.72065 11.2983 6.07796 11.3365 6.59556 11.3188C7.10153 11.3015 7.62733 11.1779 8.13885 10.956C8.18743 10.935 8.23165 10.9177 8.23713 10.9177C8.24463 10.9177 8.24333 10.9387 8.23178 11.0034C8.1221 11.6184 8.08548 11.9069 8.02936 12.5983C8.01331 12.7962 8.01161 12.8931 8.0058 13.9444C8.00236 14.5675 7.99916 16.185 7.99869 17.5387L7.99783 20L8.04444 19.9946C8.14412 19.9829 8.34932 19.9732 8.49835 19.973L8.65439 19.9728V17.3139C8.65439 15.8516 8.6562 14.6551 8.65841 14.6551C8.66064 14.6551 8.69646 14.6811 8.73803 14.713C8.7796 14.7448 8.86077 14.8026 8.9184 14.8414C9.97707 15.5549 11.2725 15.6937 12.4378 15.2185C13.1371 14.9334 13.7258 14.4561 14.1641 13.819C14.3073 13.6108 14.462 13.3227 14.5642 13.074C14.6271 12.9208 14.7138 12.6512 14.7586 12.4696L14.7935 12.3284L14.7728 12.3108C14.7615 12.3011 14.7033 12.2524 14.6436 12.2027C14.1148 11.7624 13.472 11.475 12.768 11.3643C12.5113 11.324 12.0666 11.3191 11.7913 11.3536C10.9203 11.4628 10.1384 11.8534 9.52572 12.4854C9.17843 12.8436 8.91385 13.2461 8.70988 13.7265C8.68364 13.7883 8.65994 13.841 8.65721 13.8436C8.65019 13.8502 8.6617 13.0005 8.67102 12.824C8.72136 11.8709 8.8969 10.8341 9.16501 9.90604C9.41378 9.04502 9.79552 8.12282 10.2371 7.3162C10.2919 7.21605 10.3054 7.19705 10.3213 7.19705C10.3317 7.19705 10.3868 7.20629 10.4436 7.21759C10.7725 7.28292 10.9558 7.30418 11.2832 7.31501C11.7439 7.33024 12.0571 7.31086 12.4504 7.24277C13.3505 7.0869 14.2492 6.66889 14.9646 6.07328C15.9654 5.24009 16.6473 4.08059 16.905 2.77405C16.9703 2.44328 17 2.51507 17 1.66037C17 0.897907 16.9666 0.888235 16.9478 0.771573C16.9268 0.641968 16.8807 0.404556 16.8577 0.307534C16.8495 0.273045 16.8405 0.234625 16.8378 0.222167C16.8335 0.202653 16.8252 0.197168 16.7782 0.182737C16.6719 0.150145 16.3683 0.0875376 16.1683 0.057003C15.8556 0.00926129 15.3628 -0.0126531 15.0538 0.0074553Z" fill="white"/>
</svg>
