<svg width="31" height="39" viewBox="0 0 31 39" fill="none" xmlns="http://www.w3.org/2000/svg">
<g clip-path="url(#clip0)">
<g clip-path="url(#clip1)">
<path d="M20.8001 38.31H14.0601C14.0601 38.31 13.7501 37.12 13.3901 35.56C13.3401 35.35 13.2901 35.14 13.2501 34.92C12.7909 33.0794 12.4931 31.2023 12.3601 29.31C12.3601 26.45 15.9901 22.23 16.0701 19.38C16.1301 16.76 14.2001 12.38 14.3801 9.79001C14.5601 7.20001 16.6201 3.21001 17.8001 1.79001C18.2648 1.32366 18.7665 0.895606 19.3001 0.51001C19.3001 0.51001 19.1601 1.11001 19.0001 2.00001L18.7501 2.35001C18.2343 3.09412 17.7698 3.8726 17.3601 4.68001C17.1246 5.13725 16.9337 5.61613 16.7901 6.11001C16.6551 6.5807 16.6076 7.07218 16.6501 7.56001C16.6199 7.82248 16.6199 8.08754 16.6501 8.35001C16.7782 9.32474 17.0303 10.2791 17.4001 11.19C17.6801 11.93 17.9901 12.66 18.3101 13.38C19.0801 15.51 20.1401 17.8 20.1801 19.38C20.1801 19.58 20.1801 19.8 20.1801 20.02C20.0458 21.0396 19.8148 22.0442 19.4901 23.02C18.7931 24.9197 18.2807 26.8821 17.9601 28.88C17.9501 29.0465 17.9501 29.2135 17.9601 29.38C17.9732 29.6384 18.0033 29.8956 18.0501 30.15C18.7363 32.9423 19.6562 35.672 20.8001 38.31V38.31Z" fill="#1D8A79"/>
<path d="M21 38.42H14V38.34C14 38.34 13.68 37.13 13.33 35.58L13.13 35C12.6733 33.1491 12.3789 31.262 12.25 29.36C12.25 27.88 13.2 26.04 14.12 24.26C15.04 22.48 15.92 20.81 15.95 19.43C15.859 17.8755 15.5803 16.3376 15.12 14.85C14.597 13.233 14.3107 11.5489 14.27 9.85C14.7627 6.94727 15.9421 4.20437 17.71 1.85C18.1782 1.33053 18.6901 0.852119 19.24 0.42L19.48 0.25L19.39 0.62C19.39 0.81 19.23 1.31 19.06 1.99L18.82 2.34C18.3043 3.07725 17.8399 3.84907 17.43 4.65C17.2002 5.10171 17.0127 5.57372 16.87 6.06C16.7381 6.51759 16.6906 6.9954 16.73 7.47C16.7049 7.73274 16.7049 7.99726 16.73 8.26C16.858 9.22396 17.1066 10.168 17.47 11.07C17.72 11.73 18.02 12.44 18.38 13.25C18.55 13.72 18.73 14.2 18.91 14.67C19.5845 16.1374 20.0329 17.6984 20.24 19.3C20.2543 19.5164 20.2543 19.7336 20.24 19.95C20.1027 20.97 19.8683 21.9746 19.54 22.95C19.42 23.37 19.28 23.79 19.15 24.22C18.5943 25.7325 18.2085 27.3022 18 28.9C18 29.07 18 29.24 18 29.4C18.0137 29.6517 18.0438 29.9022 18.09 30.15C18.8064 32.926 19.7496 35.6384 20.91 38.26L21 38.42ZM14.17 38.2H20.65C19.5053 35.6162 18.5819 32.94 17.89 30.2C17.8407 29.9423 17.8073 29.6818 17.79 29.42C17.79 29.25 17.79 29.08 17.79 28.9C17.9993 27.3271 18.3782 25.7814 18.92 24.29C19.06 23.86 19.19 23.44 19.32 23.02C19.6401 22.0367 19.8678 21.0256 20 20C20.0144 19.7902 20.0144 19.5798 20 19.37C19.7914 17.7968 19.3499 16.2633 18.69 14.82C18.51 14.36 18.33 13.88 18.16 13.41C17.8 12.6 17.5 11.89 17.25 11.23C16.8776 10.3089 16.6222 9.3447 16.49 8.36C16.46 8.09083 16.46 7.81917 16.49 7.55C16.4315 7.02918 16.4791 6.50191 16.63 6C16.7735 5.49819 16.9678 5.01234 17.21 4.55C17.6229 3.73906 18.0906 2.95724 18.61 2.21C18.69 2.1 18.76 1.98 18.85 1.87C18.96 1.4 19.06 1.01 19.12 0.76C18.6776 1.08879 18.266 1.45696 17.89 1.86C16.1443 4.1992 14.9821 6.92128 14.5 9.8C14.5413 11.4785 14.8242 13.1422 15.34 14.74C15.8093 16.2464 16.0914 17.8047 16.18 19.38C16.18 20.82 15.18 22.6 14.32 24.32C13.46 26.04 12.47 27.89 12.47 29.32C12.6095 31.205 12.9072 33.0749 13.36 34.91C13.36 35.12 13.45 35.33 13.5 35.54C13.8 36.84 14.07 37.9 14.15 38.2H14.17Z" fill="#1D8A79"/>
<path d="M18 30.17C17.85 30.34 17.69 30.51 17.53 30.67C16.0092 32.1698 14.63 33.8067 13.41 35.56C13.36 35.35 13.31 35.14 13.27 34.92C14.3016 33.338 15.448 31.834 16.7 30.42C17.12 29.91 17.53 29.42 17.92 28.9C17.9051 29.0664 17.9051 29.2337 17.92 29.4C17.9298 29.6582 17.9565 29.9154 18 30.17V30.17Z" fill="#1D8A79"/>
<path d="M13.29 36.15L13.17 35.61L13 35V34.91L13.05 34.84C13.864 33.5512 14.7767 32.3276 15.78 31.18C16.02 30.89 16.27 30.6 16.5 30.31C16.9 29.82 17.32 29.31 17.71 28.79L18.17 28.18L18.12 28.94C18.11 29.0998 18.11 29.2601 18.12 29.42C18.1338 29.6684 18.1639 29.9156 18.21 30.16V30.27L18.13 30.35L17.67 30.85L16.85 31.73C15.6263 32.9536 14.5245 34.2932 13.56 35.73L13.29 36.15ZM13.49 35C14.4001 33.7278 15.4028 32.5246 16.49 31.4L17.3 30.54C17.4333 30.3933 17.5633 30.2533 17.69 30.12C17.69 29.92 17.63 29.74 17.62 29.58L16.81 30.58L16.08 31.45C15.13 32.5676 14.2643 33.7542 13.49 35V35Z" fill="#1D8A79"/>
</g>
</g>
<defs>
<clipPath id="clip0">
<rect width="31" height="38.67" fill="white"/>
</clipPath>
<clipPath id="clip1">
<rect width="24.27" height="38.67" fill="white" transform="translate(4)"/>
</clipPath>
</defs>
</svg>
