<svg width="12" height="50" viewBox="0 0 12 50" fill="none" xmlns="http://www.w3.org/2000/svg">
<path fill-rule="evenodd" clip-rule="evenodd" d="M0.000217438 50H8.88911V49.8952C8.88911 49.8952 9.23143 48.5599 9.63134 46.7706L9.44709 46.4749C8.22233 44.5928 6.82322 42.838 5.26931 41.2352L4.22804 40.0825L3.64392 39.4275L3.63267 39.4159C2.73089 42.9655 1.55437 46.4347 0.114504 49.7904L0.000217438 50ZM3.69692 36.7269L4.17725 37.384C4.62917 38.0056 5.11281 38.6163 5.57993 39.2061L5.71376 39.3751C5.90841 39.6283 6.11435 39.8815 6.32029 40.1347L6.32041 40.1348L6.32051 40.1349C6.42349 40.2615 6.52647 40.3881 6.62804 40.5148C7.88694 42.0002 9.0335 43.5828 10.0578 45.2489C10.6014 42.9113 10.9537 40.5307 11.1113 38.132C11.1113 36.1933 9.90498 33.7831 8.73673 31.4514L8.65431 31.287C7.51645 29.0169 6.45011 26.8896 6.41292 25.1244C6.52847 23.0882 6.88238 21.0736 7.46688 19.125C8.13101 17.0068 8.49457 14.8008 8.54625 12.5753C7.9206 8.77295 6.42295 5.17995 4.178 2.09589C3.58346 1.41542 2.93342 0.788733 2.23514 0.222688L1.93038 0L2.04466 0.484674C2.04466 0.650507 2.13486 0.99662 2.25892 1.47264L2.25893 1.47267L2.25894 1.47272C2.32106 1.7111 2.39168 1.98207 2.46371 2.27928L2.76847 2.73775C3.42333 3.7035 4.01304 4.71453 4.53355 5.76369C4.82536 6.3554 5.06345 6.9737 5.24466 7.61069C5.41215 8.2101 5.47247 8.836 5.42244 9.45769C5.45431 9.80186 5.45431 10.1484 5.42244 10.4925C5.2599 11.7553 4.94422 12.9919 4.48276 14.1734C4.1653 15.038 3.78435 15.968 3.3272 17.0291C3.11133 17.6447 2.88276 18.2735 2.65419 18.8892C1.79768 20.8114 1.22828 22.8562 0.965298 24.9542C0.947139 25.2376 0.947139 25.5221 0.965298 25.8056C1.13965 27.1417 1.4373 28.4577 1.85419 29.7354C1.94612 30.0673 2.04731 30.3993 2.14937 30.7341L2.1494 30.7342C2.21649 30.9543 2.28396 31.1756 2.34942 31.399C2.96467 33.1264 3.41591 34.9108 3.69692 36.7269Z" fill="#1F78B4"/>
</svg>
