<svg width="38" height="30" viewBox="0 0 38 30" fill="none" xmlns="http://www.w3.org/2000/svg">
<path d="M30.1082 20.7978C30.8438 20.8002 31.5621 21.0208 32.1722 21.4319C32.7822 21.843 33.2564 22.426 33.5347 23.1069C33.813 23.7878 33.8829 24.5361 33.7354 25.2568C33.588 25.9774 33.2298 26.6381 32.7064 27.155C32.183 27.6719 31.518 28.0217 30.7955 28.1602C30.073 28.2986 29.3257 28.2194 28.6483 27.9326C27.9709 27.6458 27.3939 27.1644 26.9905 26.5492C26.5871 25.9341 26.3754 25.2131 26.3822 24.4775C26.3837 23.9908 26.4815 23.5092 26.6698 23.0604C26.8582 22.6116 27.1334 22.2045 27.4797 21.8625C27.826 21.5205 28.2365 21.2504 28.6876 21.0677C29.1387 20.885 29.6215 20.7933 30.1082 20.7978V20.7978ZM31.5777 24.5122C31.5777 24.2198 31.4911 23.9339 31.3289 23.6906C31.1667 23.4472 30.936 23.2574 30.6661 23.145C30.3961 23.0325 30.0989 23.0025 29.8119 23.0588C29.5249 23.115 29.261 23.2549 29.0534 23.4609C28.8458 23.6669 28.7038 23.9297 28.6454 24.2162C28.5869 24.5028 28.6146 24.8002 28.7249 25.071C28.8353 25.3419 29.0233 25.574 29.2654 25.7381C29.5074 25.9022 29.7926 25.991 30.085 25.9933C30.2805 25.9949 30.4744 25.9577 30.6554 25.8839C30.8364 25.8102 31.0011 25.7013 31.1398 25.5636C31.2786 25.4259 31.3887 25.2621 31.4639 25.0817C31.5391 24.9012 31.5777 24.7077 31.5777 24.5122Z" fill="black"/>
<path d="M20.3644 21.5479L20.505 21.2468L22.0345 21.9898C21.9672 22.1311 21.9044 22.2699 21.8429 22.4059L21.8365 22.4201C21.7707 22.5657 21.7064 22.708 21.6395 22.8474L21.6393 22.8478L19.1303 28.1766H15.0553L14.5809 26.7757C12.7223 21.2616 10.8675 15.7475 9.01662 10.2334C9.00569 10.1557 8.97917 10.0811 8.93864 10.0139C8.89727 9.94527 8.84219 9.88595 8.77684 9.83962C8.7115 9.79328 8.6373 9.76093 8.55888 9.74458C8.48218 9.72859 8.40306 9.72824 8.32626 9.74354H0.05V8.05H10.0883L10.3202 8.77886L10.3202 8.77887L10.3207 8.78034L10.3678 8.7637L10.3207 8.78035L10.3207 8.78037L10.3207 8.78045L10.3208 8.78077L10.3213 8.78203L10.323 8.78701L10.3298 8.80622L10.3546 8.8771C10.3756 8.93707 10.4045 9.02016 10.4363 9.11263C10.4999 9.29779 10.5749 9.51984 10.6209 9.66939L10.6209 9.66941L10.6215 9.67123L10.9337 10.5616L11.2804 11.6478C11.3339 11.8378 11.4081 11.9639 11.5253 12.0398C11.6408 12.1147 11.7894 12.1347 11.9762 12.1347H19.2309C20.3185 12.1578 20.319 12.1579 21.4763 12.1579L22.4097 12.1578L22.5439 12.1578H22.544H22.5441H22.5442H22.5443H22.5444H22.5446H22.5448H22.545H22.5452H22.5455H22.5457H22.546H22.5464H22.5467H22.5471H22.5474H22.5479H22.5482H22.5488H22.5492H22.5498H22.5502H22.551H22.5512H22.5522H22.5524H22.5535H22.5537H22.5549H22.555H22.5564H22.5564H22.5579H22.558H22.5595H22.5598H22.5611H22.5616H22.5629H22.5635H22.5647H22.5655H22.5666H22.5677H22.5685H22.5699H22.5706H22.5723H22.5727H22.5747H22.5749H22.5772H22.5773H22.5795H22.58H22.5819H22.5827H22.5844H22.5856H22.587H22.5886H22.5896H22.5917H22.5924H22.5949H22.5951H22.598H22.5983H22.6009H22.6017H22.6039H22.6053H22.607H22.609H22.6101H22.6127H22.6133H22.6165H22.6166H22.6199H22.6207H22.6233H22.6248H22.6267H22.629H22.6302H22.6334H22.6338H22.6375H22.6379H22.6412H22.6425H22.6449H22.6472H22.6488H22.652H22.6527H22.6566H22.657H22.6606H22.6621H22.6647H22.6673H22.6688H22.6726H22.673H22.6772H22.6781H22.6815H22.6836H22.6859H22.6893H22.6903H22.6947H22.6952H22.6992H22.7011H22.7038H22.7072H22.7084H22.7131H22.7134H22.7178H22.7197H22.7226H22.7262H22.7274H22.7323H22.7327H22.7372H22.7395H22.7421H22.7463H22.7471H22.7522H22.7533H22.7573H22.7604H22.7625H22.7676H22.7677H22.7729H22.775H22.7782H22.7825H22.7835H22.7889H22.7901H22.7943H22.7979H22.7997H22.8052H22.8058H22.8107H22.8138H22.8163H22.8219H22.822H22.8275H22.8303H22.8332H22.8387H22.8389H22.8447H22.8473H22.8505H22.8561H22.8563H22.8622H22.8649H22.8681H22.8739H22.874H22.8799H22.8831H22.8859H22.892H22.8923H22.898H22.9018H22.9041H22.9102H22.9113H22.9163H22.921H22.9225H22.9287H22.9309H22.9349H22.9409H22.9412H22.9474H22.951H22.9537H22.96H22.9613H22.9664H22.9718H22.9727H22.9791H22.9823H22.9855H22.992H22.9931H22.9984H23.0039H23.0049H23.0114H23.015H23.0179H23.0244H23.0261H23.031H23.0375H23.0375H23.0441H23.0489H23.0507H23.0573H23.0605H23.0639H23.0706H23.0723H23.0772H23.0839H23.0842H23.0906H23.0963H23.0973H23.1039H23.1086H23.1107H23.1174H23.1209H23.1241H23.1308H23.1335H23.1376H23.1443H23.1462H23.1511H23.1578H23.159H23.1646H23.1713H23.172H23.1781H23.1849H23.1852H23.1917H23.1984H23.1985H23.2052H23.212H23.2188H23.2255H23.2256H23.2323H23.2388H23.2391H23.2459H23.252H23.2527H23.2594H23.265H23.2662H23.2729H23.2778H23.2797H23.2864H23.2905H23.2932H23.2999H23.3031H23.3066H23.3134H23.3155H23.3201H23.3268H23.3277H23.3334H23.3398H23.3401H23.3468H23.3517H23.3534H23.3601H23.3635H23.3667H23.3733H23.3751H23.3799H23.3865H23.3866H23.393H23.3979H23.3996H23.4061H23.409H23.4126H23.4191H23.4201H23.4256H23.4309H23.432H23.4385H23.4417H23.4449H23.4513H23.4523H23.4576H23.4627H23.464H23.4703H23.473H23.4766H23.4829H23.4831H23.4891H23.4931H23.4953H23.5015H23.503H23.5077H23.5127H23.5138H23.5199H23.5222H23.526H23.5317H23.5321H23.5381H23.5409H23.5441H23.55H23.5501H23.5559H23.5591H23.5618H23.5677H23.568H23.5735H23.5767H23.5793H23.5851H23.5853H23.5908H23.5937H23.5965H23.602H23.6021H23.6077H23.6102H23.6133H23.6182H23.6188H23.6243H23.6261H23.6297H23.6339H23.6352H23.6405H23.6415H23.6458H23.649H23.6511H23.6564H23.6564H23.6616H23.6636H23.6667H23.6707H23.6718H23.6769H23.6777H23.6819H23.6846H23.6868H23.6913H23.6918H23.6966H23.6979H23.7014H23.7043H23.7062H23.7106H23.7109H23.7156H23.7168H23.7202H23.7229H23.7248H23.7289H23.7293H23.7337H23.7347H23.7381H23.7404H23.7425H23.7459H23.7468H23.751H23.7514H23.7552H23.7567H23.7593H23.7619H23.7634H23.767H23.7674H23.7714H23.772H23.7752H23.7768H23.7791H23.7815H23.7828H23.7861H23.7866H23.7902H23.7906H23.7938H23.795H23.7973H23.7992H23.8008H23.8034H23.8041H23.8074H23.8075H23.8107H23.8113H23.8139H23.8151H23.8171H23.8187H23.8201H23.8223H23.8231H23.8257H23.826H23.8289H23.8291H23.8317H23.8323H23.8344H23.8354H23.837H23.8384H23.8396H23.8413H23.8421H23.8441H23.8445H23.8467H23.8468H23.8491H23.8493H23.8513H23.8517H23.8534H23.8541H23.8555H23.8563H23.8574H23.8585H23.8593H23.8605H23.8612H23.8624H23.8629H23.8643H23.8645H23.866H23.8661H23.8676H23.869H23.8691H23.8704H23.8705H23.8716H23.8718H23.8728H23.8731H23.8739H23.8742H23.8748H23.8752H23.8758H23.8761H23.8766H23.8769H23.8773H23.8777H23.878H23.8783H23.8785H23.8788H23.879H23.8793H23.8794H23.8796H23.8797H23.8798H23.8799H23.88H23.8801H26.6833H28.2107L29.5762 12.1579L30.3051 12.1578H37.9135L37.7379 12.463C37.7377 12.4632 37.7375 12.4635 37.7373 12.4638C37.2092 13.3004 36.6797 14.1357 36.1502 14.971C35.0907 16.6425 34.0312 18.3142 32.9819 19.9961L32.9813 19.9971C32.9081 20.1211 32.8469 20.177 32.7798 20.1975C32.7108 20.2185 32.6231 20.2063 32.4855 20.1605C31.3352 19.7327 30.0846 19.6516 28.8886 19.9273C27.6924 20.203 26.6032 20.8236 25.7561 21.7121L25.7559 21.7119L25.7522 21.7168C25.6816 21.8118 25.5763 21.875 25.4593 21.8926C25.3422 21.9102 25.223 21.8806 25.1277 21.8105L25.1282 21.8099L25.1201 21.8059L13.2017 15.9509L13.2017 15.9508L13.2006 15.9503L12.7493 15.7421L12.6468 15.6947L12.6807 15.8024L12.808 16.2074L12.808 16.2074L12.8083 16.2084L16.2218 26.3564L16.2332 26.3904H16.2692H18.0859H18.1184L18.1316 26.3607C18.8488 24.7412 19.5929 23.1372 20.3641 21.5486L20.3644 21.5479Z" fill="#DECBE4" stroke="black" stroke-width="0.1"/>
</svg>
