<svg width="38" height="30" viewBox="0 0 38 30" fill="none" xmlns="http://www.w3.org/2000/svg">
<rect x="27.25" y="17.0625" width="4.6875" height="7.5" fill="#FED9A6"/>
<path d="M16 20.8125V24.5625C16 26.1563 18.5313 27.375 21.625 27.375C24.7187 27.375 27.25 26.1563 27.25 24.5625V20.8125" fill="#FED9A6"/>
<path d="M16 20.8125V24.5625C16 26.1563 18.5313 27.375 21.625 27.375C24.7187 27.375 27.25 26.1563 27.25 24.5625V20.8125" stroke="black" stroke-miterlimit="10" stroke-linecap="round" stroke-linejoin="round"/>
<path d="M16 17.0625V20.8125C16 22.4063 18.5313 23.625 21.625 23.625C24.7187 23.625 27.25 22.4063 27.25 20.8125V17.0625" fill="#FED9A6"/>
<path d="M16 17.0625V20.8125C16 22.4063 18.5313 23.625 21.625 23.625C24.7187 23.625 27.25 22.4063 27.25 20.8125V17.0625" stroke="black" stroke-miterlimit="10" stroke-linecap="round" stroke-linejoin="round"/>
<path d="M27.25 24.75C28.2813 25.2188 29.5938 25.5 31 25.5C34.0937 25.5 36.625 24.2813 36.625 22.6875V18.9375" fill="#FED9A6"/>
<path d="M27.25 24.75C28.2813 25.2188 29.5938 25.5 31 25.5C34.0937 25.5 36.625 24.2813 36.625 22.6875V18.9375" stroke="black" stroke-miterlimit="10" stroke-linecap="round" stroke-linejoin="round"/>
<path d="M27.25 21C28.2813 21.4688 29.5938 21.75 31 21.75C34.0937 21.75 36.625 20.5313 36.625 18.9375V15.1875" fill="#FED9A6"/>
<path d="M27.25 21C28.2813 21.4688 29.5938 21.75 31 21.75C34.0937 21.75 36.625 20.5313 36.625 18.9375V15.1875" stroke="black" stroke-miterlimit="10" stroke-linecap="round" stroke-linejoin="round"/>
<path d="M27.25 13.125C28.2813 12.6563 29.5938 12.375 31 12.375C34.0937 12.375 36.625 13.5937 36.625 15.1875C36.625 16.7813 34.0937 18 31 18C29.5938 18 28.2813 17.7188 27.25 17.25" fill="#FED9A6"/>
<path d="M27.25 13.125C28.2813 12.6563 29.5938 12.375 31 12.375C34.0937 12.375 36.625 13.5937 36.625 15.1875C36.625 16.7813 34.0937 18 31 18C29.5938 18 28.2813 17.7188 27.25 17.25" stroke="black" stroke-miterlimit="10" stroke-linecap="round" stroke-linejoin="round"/>
<path d="M16 13.3125V17.0625C16 18.6563 18.5313 19.875 21.625 19.875C24.7187 19.875 27.25 18.6563 27.25 17.0625V13.3125" fill="#FED9A6"/>
<path d="M16 13.3125V17.0625C16 18.6563 18.5313 19.875 21.625 19.875C24.7187 19.875 27.25 18.6563 27.25 17.0625V13.3125" stroke="black" stroke-miterlimit="10" stroke-linecap="round" stroke-linejoin="round"/>
<path d="M16 9.5625V13.3125C16 14.9063 18.5313 16.125 21.625 16.125C24.7187 16.125 27.25 14.9063 27.25 13.3125V9.5625" fill="#FED9A6"/>
<path d="M16 9.5625V13.3125C16 14.9063 18.5313 16.125 21.625 16.125C24.7187 16.125 27.25 14.9063 27.25 13.3125V9.5625" stroke="black" stroke-miterlimit="10" stroke-linecap="round" stroke-linejoin="round"/>
<path d="M16 5.8125V9.5625C16 11.1563 18.5313 12.375 21.625 12.375C24.7187 12.375 27.25 11.1563 27.25 9.5625V5.8125" fill="#FED9A6"/>
<path d="M16 5.8125V9.5625C16 11.1563 18.5313 12.375 21.625 12.375C24.7187 12.375 27.25 11.1563 27.25 9.5625V5.8125" stroke="black" stroke-miterlimit="10" stroke-linecap="round" stroke-linejoin="round"/>
<path d="M21.625 8.625C24.7316 8.625 27.25 7.3658 27.25 5.8125C27.25 4.2592 24.7316 3 21.625 3C18.5184 3 16 4.2592 16 5.8125C16 7.3658 18.5184 8.625 21.625 8.625Z" fill="#FED9A6" stroke="black" stroke-miterlimit="10" stroke-linecap="round" stroke-linejoin="round"/>
</svg>
