<svg width="24" height="24" viewBox="0 0 24 24" fill="none" xmlns="http://www.w3.org/2000/svg">
<path fill-rule="evenodd" clip-rule="evenodd" d="M5.32724 6.69779L7.94433 4.0807C8.63853 3.3864 9.58012 2.99634 10.5619 2.99634C11.5437 2.99634 12.4853 3.3864 13.1795 4.0807L14.353 5.25419C14.4855 5.38639 14.5251 5.58541 14.4535 5.75828C14.3818 5.93116 14.213 6.04377 14.0259 6.04352H13.2916C12.8008 6.0437 12.3301 6.23873 11.983 6.58574L11.2167 7.35206V8.66161L9.25288 10.6244L8.24246 10.3243L7.29006 11.2757V12.5842L6.72783 13.1465C6.31531 13.5588 5.64672 13.5588 5.23421 13.1465L2.80219 10.7135C2.60371 10.5156 2.49214 10.2469 2.49214 9.96665C2.49214 9.6864 2.60371 9.41768 2.80219 9.21984L3.36343 8.65861H4.67297L5.62437 7.70621L5.32724 6.69779Z" stroke="#323232" stroke-width="1.5" stroke-linecap="round" stroke-linejoin="round"/>
<path fill-rule="evenodd" clip-rule="evenodd" d="M20.8117 20.3084V20.3084C20.3419 20.778 19.697 21.0294 19.0334 21.0016C18.3698 20.9739 17.7481 20.6695 17.3192 20.1624L9.25287 10.6244L11.2167 8.66159L20.6846 16.831C21.1843 17.2624 21.4819 17.8823 21.506 18.542C21.5301 19.2017 21.2786 19.8417 20.8117 20.3084Z" stroke="#323232" stroke-width="1.5" stroke-linecap="round" stroke-linejoin="round"/>
</svg>
