<svg width="25" height="24" viewBox="0 0 25 24" fill="none" xmlns="http://www.w3.org/2000/svg">
<path fill-rule="evenodd" clip-rule="evenodd" d="M10 12.1423L12.3575 14.4998L10 16.8573L7.64253 14.4998L10 12.1423Z" stroke="#323232" stroke-width="1.49999" stroke-linecap="round" stroke-linejoin="round"/>
<path d="M8.5 4H6.5C4.291 4 2.5 5.791 2.5 8" stroke="#323232" stroke-width="1.5" stroke-linecap="round" stroke-linejoin="round"/>
<path d="M6.5 2L8.5 4L6.5 6" stroke="#323232" stroke-width="1.5" stroke-linecap="round" stroke-linejoin="round"/>
<path d="M16.5 20H18.5C20.709 20 22.5 18.209 22.5 16" stroke="#323232" stroke-width="1.5" stroke-linecap="round" stroke-linejoin="round"/>
<path d="M18.5 22L16.5 20L18.5 18" stroke="#323232" stroke-width="1.5" stroke-linecap="round" stroke-linejoin="round"/>
<path d="M9.52399 9.024C9.76599 6.21 12.123 4 15 4C18.038 4 20.5 6.462 20.5 9.5C20.5 12.377 18.29 14.734 15.476 14.976" stroke="#323232" stroke-width="1.5" stroke-linecap="round" stroke-linejoin="round"/>
<path d="M13.8891 10.6109C16.037 12.7588 16.037 16.2412 13.8891 18.3891C11.7412 20.537 8.25879 20.537 6.11091 18.3891C3.96303 16.2412 3.96303 12.7588 6.11091 10.6109C8.25879 8.46303 11.7412 8.46303 13.8891 10.6109" stroke="#323232" stroke-width="1.5" stroke-linecap="round" stroke-linejoin="round"/>
</svg>
