<svg width="24" height="24" viewBox="0 0 24 24" fill="none" xmlns="http://www.w3.org/2000/svg">
<path d="M10.667 21L12 19.667L10.667 18.334" stroke="#323232" stroke-width="1.5" stroke-linecap="round" stroke-linejoin="round"/>
<path d="M20.889 14.006C21.518 14.3885 21.9297 15.0452 22 15.778C22 17.414 19.4 18.811 15.722 19.386" stroke="#323232" stroke-width="1.5" stroke-linecap="round" stroke-linejoin="round"/>
<path d="M3.111 14.006C2.48205 14.3885 2.07031 15.0452 2 15.778C2 17.926 6.477 19.667 12 19.667" stroke="#323232" stroke-width="1.5" stroke-linecap="round" stroke-linejoin="round"/>
<path fill-rule="evenodd" clip-rule="evenodd" d="M8.80329 12.5409V12.5409C7.3989 10.9216 7.3989 8.51598 8.80329 6.89663L10.8668 4.51723C11.1517 4.18871 11.5652 4 12 4C12.4349 4 12.8483 4.18871 13.1332 4.51723L15.1967 6.89663C16.6011 8.51599 16.6011 10.9216 15.1967 12.5409V12.5409C14.393 13.4677 13.2267 14 12 14C10.7733 14 9.60699 13.4677 8.80329 12.5409Z" stroke="#323232" stroke-width="1.5" stroke-linecap="round" stroke-linejoin="round"/>
</svg>
