<svg width="294" height="512" viewBox="0 0 294 512" fill="none" xmlns="http://www.w3.org/2000/svg" xmlns:xlink="http://www.w3.org/1999/xlink"><path d="M26.8247 184.244L27.6958 405.811L121.062 460.15L120.191 238.586L26.8247 184.244Z" fill="#3DB542"/><path d="M256.898 381.611L121.052 460.138L120.175 238.587L256.024 160.027L256.898 381.611Z" fill="#6DCB60"/><path d="M210.486 408.445L169.385 432.19L168.51 210.639L209.612 186.861L210.486 408.445Z" fill="#3DAA47"/><path d="M76.6343 162.915L211.999 84.1328L256.033 160.042L120.191 238.586L76.6343 162.915Z" fill="#81D672"/><path d="M124.966 134.97L165.59 110.969L209.621 186.875L168.523 210.64L124.966 134.97Z" fill="#46B955"/><path d="M212.125 47.9183L212.009 84.146L76.6151 162.912L76.7312 126.742C76.7312 124.71 75.3406 122.329 73.6016 121.285C72.7304 120.762 71.9206 120.762 71.3398 121.052L206.734 42.2864C207.314 41.9374 208.066 41.9956 208.937 42.519C210.673 43.5077 212.125 45.944 212.125 47.9183Z" fill="#6DCB60"/><path d="M165.713 74.7523L165.597 110.98L124.947 134.968L125.063 98.7986C125.063 96.7662 123.673 94.3848 121.934 93.3411C121.062 92.8177 120.253 92.8177 119.672 93.1085L160.322 69.1203C160.902 68.7714 161.654 68.8295 162.525 69.353C164.264 70.3385 165.713 72.778 165.713 74.7523Z" fill="#42A84C"/><path d="M73.5789 121.298C75.3179 122.303 76.7408 124.72 76.7376 126.723L76.6343 162.916L120.191 238.583L26.8247 184.244L70.346 159.226L70.4493 123.085C70.4525 121.085 71.8399 120.29 73.5789 121.298Z" fill="#2C9A2C"/><path d="M107.879 226.766L36.6201 185.565L72.3625 165.17L83.7905 184.964L107.879 226.766Z" fill="#6DCB60"/><path d="M81.3481 180.731L36.6201 185.565L72.3625 165.17L81.3481 180.731Z" fill="#81D672"/><path d="M240.901 364.949L136.494 425.337L136.171 267.859L240.579 207.508L240.901 364.949Z" fill="white"/><path d="M95.493 209.237C86.046 212.203 77.6476 219.874 73.8727 230.789C73.3759 232.378 71.1948 232.378 70.6011 230.789C67.3295 220.559 59.1957 212.513 49.0808 209.237C47.2966 208.639 47.2966 206.455 49.0808 205.86C59.1957 202.548 67.2553 194.354 70.6011 184.308C71.1948 182.619 73.3791 182.619 73.8727 184.308C77.6412 194.997 85.4362 202.503 95.493 205.86C97.1804 206.455 97.1804 208.639 95.493 209.237Z" fill="white"/><path d="M195.789 264.257C218.926 257.543 232.664 274.888 228.096 299.49C224.075 321.142 206.743 342.335 188.327 349.311C169.155 356.572 152.61 347.043 152.029 325.346C151.365 300.424 171.443 271.324 195.789 264.257Z" fill="#46B955"/><path d="M206.417 271.848L178.337 345.424C178.337 345.424 153.768 310.027 206.417 271.848Z" fill="white"/><path d="M183.39 340.21L202.952 289.293C202.952 289.293 226.782 306.483 183.39 340.21Z" fill="white"/><rect width="78.3284" height="68.4768" transform="matrix(0.996731 0.0807976 -0.0805627 0.99675 154.216 336.166)" fill="url(#pattern0)"/><defs><pattern id="pattern0" patternContentUnits="objectBoundingBox" width="1" height="1"><use xlink:href="#image0_10349_104960" transform="scale(0.00325733 0.00373134)"/></pattern></defs><text font-family="sans-serif" font-size="20" x="20" y="490" fill="black" ><tspan dy="0" x="20"> BPF Remaining </tspan></text></svg>