<svg width="26" height="27" viewBox="0 0 26 27" fill="none" xmlns="http://www.w3.org/2000/svg">
<path d="M14.4215 16.2535C14.4215 20.8007 11.7 25.4362 7.21075 25.5045C2.58685 25.5744 0 20.7947 0 16.2535C0 11.7123 2.63551 8.06593 7.21075 8.02035C11.4016 7.97933 14.4215 11.7077 14.4215 16.2535Z" fill="#EC7920"/>
<path d="M10.1729 8.4047C10.5687 7.6252 11.0738 6.89864 11.6747 6.24425C12.3445 5.49523 12.8262 5.22324 12.8635 4.69149C12.9008 4.15973 11.4606 3.73738 11.3779 2.96406C11.2773 2.01905 12.6494 1.02542 12.6494 1.02542C12.822 1.00141 12.9981 1.03763 13.1441 1.1272C13.2169 1.1794 13.2778 1.24475 13.3232 1.31938C13.3686 1.39401 13.3976 1.47644 13.4084 1.56174C13.2269 1.75572 13.1268 2.00491 13.1268 2.2629C13.1268 2.52089 13.2269 2.77008 13.4084 2.96406C14.0572 3.72371 15.2914 4.02757 15.3547 5.12451C15.4439 6.59215 14.6281 6.59217 15.5541 7.75899C15.9174 8.21478 16.7592 9.05192 16.7592 9.05192L10.1729 8.4047Z" fill="#4F2F25"/>
<path d="M26.0006 16.2535C26.0006 20.8555 23.923 25.3693 18.7898 25.5046C14.3006 25.6246 11.5791 20.7947 11.5791 16.2535C11.5791 11.7123 14.2016 8.01432 18.7898 8.02039C23.3148 8.02039 26.0006 11.7077 26.0006 16.2535Z" fill="#D7512E"/>
<path d="M26.0006 16.2535C26.0006 20.8555 23.923 25.3693 18.7898 25.5046C14.3006 25.6246 11.5791 20.7947 11.5791 16.2535C11.5791 11.7123 14.2016 8.01432 18.7898 8.02039C23.3148 8.02039 26.0006 11.7077 26.0006 16.2535Z" fill="#ED7626"/>
<path d="M20.4284 16.2535C20.4284 21.0849 17.9146 25.9862 12.8641 26.0181C7.90936 26.0515 5.2998 21.0849 5.2998 16.2535C5.2998 11.4221 7.51363 7.50532 12.8641 7.50684C17.767 7.50684 20.4284 11.4221 20.4284 16.2535Z" fill="#ED7626"/>
<path d="M14.252 5.60615C14.252 5.60615 15.5089 5.96471 16.4074 5.60615C17.5589 5.15036 17.7779 3.85896 17.5897 3.29986C17.2199 2.20444 15.9938 2.86991 16.2209 3.65387C16.4074 4.2935 17.2134 4.64598 18.0909 4.22969C18.3401 4.11887 18.5581 3.95469 18.7271 3.75042C18.8962 3.54615 19.0115 3.3075 19.064 3.05375" stroke="#4F2F25" stroke-width="5" stroke-miterlimit="10" stroke-linecap="round"/>
<path d="M16.8105 8.26038C16.6807 8.29532 16.5542 8.33178 16.4293 8.3728C19.0243 9.78728 20.3915 12.7788 20.3915 16.2534C20.3915 19.7964 19.0405 23.3759 16.3271 25.0472C16.4455 25.0973 16.5639 25.1429 16.6856 25.1854C19.5562 23.581 20.9867 19.8982 20.9867 16.2534C20.9867 12.6906 19.5368 9.62471 16.8105 8.26038Z" fill="#DD691B"/>
<path d="M5.33783 16.2411C5.33783 12.7133 6.51854 9.67318 9.24001 8.28909C9.0616 8.23592 8.87833 8.18879 8.69182 8.14929C5.76114 9.45893 4.49609 12.5887 4.49609 16.2411C4.49609 19.9178 6.00765 23.672 8.91239 25.243C9.09241 25.1898 9.26757 25.1291 9.43949 25.0607C6.74397 23.3955 5.33783 19.7887 5.33783 16.2411Z" fill="#DD691B"/>
<path opacity="0.13" d="M16.8105 8.26038C16.6807 8.29532 16.5542 8.33178 16.4293 8.3728C19.0243 9.78728 20.3915 12.7788 20.3915 16.2534C20.3915 19.7964 19.0405 23.3759 16.3271 25.0472C16.4455 25.0973 16.5639 25.1429 16.6856 25.1854C19.5562 23.581 20.9867 19.8982 20.9867 16.2534C20.9867 12.6906 19.5368 9.62471 16.8105 8.26038Z" fill="#31547C"/>
<path d="M8.51465 10.2902C8.53281 10.0847 8.62822 9.892 8.78388 9.74627C8.92305 9.60489 9.08776 9.48766 9.27044 9.3999C9.26152 9.60742 9.16875 9.804 9.01093 9.94987C8.87063 10.0924 8.70207 10.208 8.51465 10.2902Z" fill="#CB6120"/>
<path d="M8.52832 9.51988C8.57344 9.37691 8.6553 9.24649 8.76673 9.14005C8.87016 9.03427 8.98858 8.94229 9.11868 8.86661C9.37432 8.70994 9.67127 8.62263 9.97663 8.61438C9.76949 8.81077 9.53619 8.98134 9.28248 9.12184C9.03272 9.26314 8.80079 9.38466 8.52832 9.51988Z" fill="#CB6120"/>
<path d="M14.7725 11.2036L10.4913 22.4052C10.4913 22.4052 5.74445 14.4745 14.7725 11.2036Z" fill="white"/>
<path d="M11.4854 21.7103L14.4939 13.703C14.4939 13.703 20.0384 18.0959 11.4854 21.7103Z" fill="white"/>
</svg>
