<svg width="39" height="42" viewBox="0 0 39 42" fill="none" xmlns="http://www.w3.org/2000/svg">
<path fill-rule="evenodd" clip-rule="evenodd" d="M32.8416 4.03169C35.9085 24.4204 42.1824 26.6603 37.0345 33.224C34.2063 36.8341 26.7233 36.2557 20.2418 38.5366C12.6809 41.1949 4.23784 43.3774 1.1865 37.909C-4.75532 27.2428 13.4749 27.5013 15.2912 23.3292C17.1075 19.1571 12.6965 10.858 11.5548 5.80802C11.0359 3.53121 16.2253 3.55171 21.2641 2.61227C26.7389 1.59488 32.2137 -0.140404 32.8416 4.03169Z" fill="#EB3836"/>
<path fill-rule="evenodd" clip-rule="evenodd" d="M38.3528 24.8551C39.3543 28.137 39.3907 30.2456 37.0347 33.2239C35.5557 35.1151 32.8002 35.8535 29.5828 36.4607C28.903 30.9758 33.4956 27.3452 38.3528 24.8551Z" fill="white"/>
<path fill-rule="evenodd" clip-rule="evenodd" d="M12.3229 40.8296C7.47601 41.7895 3.17924 41.4819 1.18653 37.9087C-1.17463 33.6751 0.278391 31.1603 3.0028 29.4127C7.93269 31.6403 11.2539 36.0544 12.3229 40.8296Z" fill="white"/>
<path fill-rule="evenodd" clip-rule="evenodd" d="M9.38071 6.91545C10.0086 8.58101 10.7403 10.7101 11.2956 12.1829C12.1777 14.5294 13.4699 14.6935 14.788 14.4843C19.0536 13.8156 27.8911 12.109 32.7016 11.067C35.7582 10.4066 35.8153 9.65992 35.2963 7.67848C34.8916 6.136 34.3103 4.0438 33.7395 2.37825C32.9974 0.236818 31.7831 -0.452393 29.2663 0.286031C24.4402 1.70955 16.4798 2.84181 11.9858 3.50229C9.56235 3.85509 8.67496 5.04478 9.38071 6.91545Z" fill="white"/>
<path d="M5.36418 29.4415C5.30535 29.3946 5.27059 29.3322 5.26663 29.2663C5.26267 29.2003 5.28976 29.1356 5.34271 29.0845C5.39565 29.0335 5.47064 28.9998 5.55321 28.99C5.63577 28.9801 5.72005 28.9948 5.78968 29.0312H5.81565H5.84156H5.87273H5.90383L5.9298 29.0517L5.96091 29.0723H5.99207L6.02318 29.0928V29.1174L6.05434 29.1379L6.08551 29.1625H6.11661V29.1871L6.14778 29.2117L6.17888 29.2323L6.21005 29.2569L6.24115 29.2815L6.27232 29.3061L6.30862 29.3348L6.33978 29.3594L6.37089 29.384L6.40205 29.4086L6.43835 29.4374L6.46952 29.462L6.50062 29.4907C6.55316 29.5378 6.58301 29.598 6.58493 29.6607C6.58686 29.7235 6.56074 29.7847 6.51114 29.8338C6.46154 29.8828 6.39167 29.9164 6.31381 29.9287C6.23595 29.9409 6.15512 29.9311 6.08551 29.9009C6.05928 29.8896 6.03487 29.8759 6.01285 29.8599L5.98168 29.8353L5.95058 29.8107L5.91941 29.7861L5.88831 29.7615L5.85714 29.7328L5.82604 29.7081H5.79487L5.76371 29.6835V29.6589L5.73261 29.6343H5.70144V29.6097H5.67034L5.63917 29.5892L5.61326 29.5645L5.58209 29.544V29.5235H5.55618H5.52502V29.503H5.49911L5.36418 29.4415ZM15.6702 15.9037C15.5867 15.9135 15.5015 15.8983 15.4315 15.8609C15.3616 15.8235 15.3119 15.7667 15.2924 15.7017C15.2728 15.6368 15.2847 15.5684 15.3259 15.5101C15.367 15.4518 15.4343 15.4078 15.5145 15.3868H15.5664H15.6235H15.665H15.7065H15.7532H15.8467H15.8933H15.9401H15.9868H16.0335H16.0853H16.1373H16.184H16.2359H16.2877H16.3396H16.3916H16.4486H16.5005H16.5576H16.6095H16.6666H16.7237H16.7808H16.8378H16.8897C16.9771 15.3705 17.0691 15.3823 17.1455 15.4196C17.2219 15.4569 17.2765 15.5167 17.2971 15.5858C17.3177 15.6548 17.3028 15.7276 17.2556 15.788C17.2084 15.8484 17.1328 15.8915 17.0454 15.9078H17.0143H16.9624H16.9001H16.843H16.786H16.7288H16.6769H16.6199H16.5628H16.5109H16.459H16.4019H16.35H16.2981H16.2462H16.1996H16.1476H16.0957H16.049H16.0024H15.9556H15.9089H15.8622H15.8156H15.7273H15.6806L15.6702 15.9037ZM19.0122 15.4155C18.9692 15.4244 18.9245 15.4265 18.8805 15.4218C18.8365 15.417 18.7942 15.4054 18.7559 15.3877C18.7176 15.37 18.6841 15.3465 18.6573 15.3185C18.6305 15.2906 18.6109 15.2587 18.5996 15.2247C18.5884 15.1908 18.5857 15.1555 18.5917 15.1207C18.5978 15.086 18.6124 15.0525 18.6348 15.0222C18.6572 14.9919 18.687 14.9654 18.7223 14.9442C18.7577 14.923 18.798 14.9075 18.8409 14.8986H18.8772H18.9395H19.0122H19.0848H19.1627H19.2353H19.308H19.3858H19.4584H19.5363H19.6089H19.6868H19.7595H19.8373H19.9151H19.9929H20.0708H20.1487H20.2005C20.2879 14.8828 20.3797 14.8952 20.4556 14.9329C20.5315 14.9706 20.5854 15.0305 20.6053 15.0996C20.6253 15.1687 20.6097 15.2413 20.562 15.3013C20.5143 15.3613 20.4384 15.4038 20.351 15.4196H20.2991H20.2213H20.1435H20.0656H19.9878H19.9099H19.8321H19.7595H19.6816H19.6089H19.5311H19.4532H19.3806H19.308H19.2353H19.1575H19.0848H19.0225L19.0122 15.4155ZM22.3282 14.8535C22.2476 14.867 22.1636 14.8568 22.092 14.8247C22.0204 14.7926 21.966 14.741 21.9392 14.6795C21.9124 14.6179 21.915 14.5508 21.9465 14.4906C21.978 14.4305 22.0362 14.3815 22.1102 14.353H22.1776H22.2503H22.3385H22.4216H22.5046H22.5876H22.6707H22.7537H22.8419H22.9249H23.008H23.091H23.1792H23.2623H23.3453H23.4335H23.4958C23.5803 14.3408 23.6675 14.3546 23.7396 14.3915C23.8117 14.4284 23.8632 14.4857 23.8838 14.5516C23.9043 14.6176 23.8922 14.6872 23.85 14.7464C23.8078 14.8055 23.7387 14.8497 23.6567 14.8699H23.5944H23.5113H23.4231H23.3401H23.2519H23.1688H23.0858H22.9976H22.9146H22.8315H22.7485H22.6603H22.5772H22.4943H22.4112H22.3385L22.3282 14.8535ZM25.6286 14.2504C25.5426 14.27 25.4502 14.2618 25.3719 14.2276C25.2936 14.1933 25.2356 14.1359 25.2109 14.0679C25.1861 13.9999 25.1965 13.9269 25.2398 13.865C25.2831 13.803 25.3558 13.7572 25.4418 13.7376H25.4677H25.5507H25.639H25.722H25.8051H25.888H25.9763H26.0593H26.1423H26.2254H26.3136H26.3966H26.4796H26.5627H26.6457H26.7287H26.7703C26.8497 13.7222 26.9335 13.73 27.0061 13.7598C27.0787 13.7895 27.1352 13.8391 27.1651 13.8993C27.1949 13.9595 27.196 14.0262 27.1683 14.0871C27.1405 14.1479 27.0857 14.1987 27.0142 14.2299C26.9907 14.2423 26.9641 14.2507 26.9363 14.2545H26.8948H26.8118H26.7235H26.6405H26.5575H26.4744H26.3863H26.3032H26.2202H26.1319H26.049H25.9659H25.8777H25.7947H25.7116H25.6234L25.6286 14.2504ZM28.9187 13.5982C28.8361 13.6148 28.7486 13.606 28.6738 13.5737C28.5991 13.5414 28.5425 13.488 28.5156 13.4241C28.4887 13.3602 28.4933 13.2906 28.5286 13.2293C28.5639 13.168 28.6273 13.1195 28.7059 13.0936H28.7422H28.82H28.8979H28.9758H29.0535H29.1314H29.2041H29.2819H29.3546H29.4324H29.505H29.5829H29.6555H29.7282H29.806H29.8787H29.9514H30.024C30.1073 13.0813 30.1936 13.0939 30.2659 13.129C30.3382 13.1641 30.3914 13.2191 30.4153 13.2835C30.4392 13.3478 30.432 13.4169 30.3952 13.4773C30.3584 13.5377 30.2946 13.5852 30.216 13.6105H30.1434H30.0655H29.9928H29.9202H29.8423H29.7697H29.6971H29.6192H29.5414H29.4687H29.3909H29.313H29.2352H29.1574H29.0795H29.0017H28.9238L28.9187 13.5982ZM32.1879 12.8639C32.1114 12.8826 32.0288 12.8792 31.9551 12.8542C31.8814 12.8293 31.8214 12.7844 31.7858 12.7276C31.7502 12.6708 31.7414 12.6058 31.7609 12.5443C31.7803 12.4829 31.8269 12.4289 31.8922 12.3921L31.9855 12.3552H32.0167H32.0738H32.1361H32.1879H32.245H32.3021H32.3592H32.4111H32.4682H32.5201H32.5719H32.6238H32.6758H32.7276H32.7795H32.8314H32.8781H32.9248H32.9767H33.0234H33.0702H33.1168H33.1583H33.205H33.2466C33.3061 12.3363 33.3712 12.3318 33.4339 12.342C33.4966 12.3522 33.5542 12.3767 33.5994 12.4126C33.6409 12.4437 33.6717 12.4827 33.6889 12.5258C33.706 12.5689 33.709 12.6148 33.6976 12.6591C33.6862 12.7034 33.6607 12.7447 33.6236 12.7791C33.5864 12.8135 33.5388 12.8398 33.4853 12.8557H33.4386H33.3919H33.3452H33.2985H33.2518H33.1999H33.1531H33.1013H33.0494H32.9975H32.9456H32.8937H32.8418H32.7899H32.7328H32.681H32.6238H32.5667H32.5097H32.4526H32.3955H32.3384H32.2814H32.2191H32.1879V12.8639ZM28.4153 35.5909C28.4194 35.6402 28.4062 35.6894 28.377 35.7331C28.3478 35.7768 28.3039 35.8132 28.2501 35.8383C28.1963 35.8634 28.1348 35.8762 28.0723 35.8752C28.0098 35.8743 27.9489 35.8597 27.8963 35.833C27.8567 35.8117 27.8235 35.7838 27.7993 35.7511C27.775 35.7185 27.7603 35.682 27.7562 35.6442V35.5622V35.4801V35.3981V35.3202V35.2381V35.1602V34.5694C27.7562 34.4987 27.7918 34.4309 27.855 34.3809C27.9183 34.3309 28.0041 34.3028 28.0935 34.3028C28.183 34.3028 28.2688 34.3309 28.332 34.3809C28.3953 34.4309 28.4308 34.4987 28.4308 34.5694V35.1397V35.2135V35.2914V35.3694V35.4473V35.5294V35.6073L28.4153 35.5909ZM28.379 32.9695C28.3761 33.0025 28.365 33.0347 28.3463 33.0643C28.3276 33.0938 28.3017 33.1202 28.27 33.1418C28.2199 33.1788 28.1566 33.2028 28.0888 33.2106C28.0209 33.2184 27.9517 33.2097 27.8902 33.1857C27.8288 33.1616 27.7781 33.1233 27.7449 33.0759C27.7117 33.0285 27.6975 32.9742 27.7043 32.9203V32.83V32.7603V32.6905V32.6249V32.5552V32.4854V32.4198V32.3501V32.2844V32.2147V32.149V32.0834V32.0178V31.9521V31.8865V31.8373C27.7247 31.7733 27.774 31.7174 27.8429 31.68C27.9117 31.6427 27.9955 31.6266 28.0783 31.6347C28.1612 31.6427 28.2374 31.6744 28.2928 31.7238C28.3482 31.7732 28.3788 31.8369 28.379 31.9029V31.9357V31.9808V32.0424V32.1039V32.1696V32.2311V32.2967V32.3582V32.4239V32.4895V32.5552V32.6167V32.6823V32.7521V32.8177V32.8834V32.9695ZM29.0691 30.4301C29.0538 30.4633 29.0303 30.4937 29.0001 30.5197C28.9699 30.5456 28.9336 30.5667 28.8931 30.5815C28.8526 30.5964 28.8088 30.6048 28.7642 30.6063C28.7197 30.6077 28.6751 30.6023 28.6332 30.5901C28.5913 30.578 28.5528 30.5595 28.52 30.5356C28.4871 30.5117 28.4605 30.483 28.4417 30.451C28.4229 30.419 28.4123 30.3844 28.4104 30.3491C28.4086 30.3139 28.4155 30.2787 28.4308 30.2455L28.462 30.1881V30.1307V30.0732V30.0199L28.4931 29.9625V29.905L28.5243 29.8517V29.7943L28.5554 29.7409L28.5866 29.6835L28.6177 29.6302L28.6488 29.5769L28.6799 29.5194L28.7111 29.4661L28.7422 29.4128L28.7734 29.3594L28.8045 29.3061L28.8356 29.2569C28.8808 29.2012 28.9502 29.1605 29.0308 29.1425C29.1114 29.1245 29.1975 29.1305 29.2729 29.1592C29.3483 29.188 29.4077 29.2377 29.44 29.2987C29.4722 29.3598 29.475 29.4281 29.4479 29.4907L29.4168 29.5399L29.3857 29.5892V29.6384L29.3546 29.6876L29.3234 29.7409V29.7902L29.2923 29.8435L29.2611 29.8927L29.2352 29.9461V29.9953L29.2041 30.0486V30.1019L29.1781 30.1553V30.2086V30.2619V30.3153V30.3686L29.1522 30.4219V30.4466L29.0691 30.4301ZM30.6259 28.1492C30.6043 28.1854 30.5727 28.2173 30.5334 28.2425C30.4942 28.2677 30.4482 28.2856 30.399 28.2948C30.3498 28.3041 30.2986 28.3045 30.2491 28.296C30.1997 28.2875 30.1534 28.2703 30.1135 28.2457C30.0736 28.2211 30.0412 28.1897 30.0187 28.1539C29.9962 28.118 29.9842 28.0787 29.9836 28.0387C29.983 27.9987 29.9938 27.9591 30.0151 27.9228C30.0365 27.8866 30.0679 27.8546 30.107 27.8293L30.1486 27.7841L30.19 27.739L30.2367 27.6939L30.2783 27.6529L30.325 27.6077L30.3665 27.5626L30.4132 27.5216L30.4547 27.4765L30.5014 27.4354L30.5429 27.3903L30.5896 27.3493L30.6363 27.3082L30.683 27.2672L30.7246 27.2221L30.7713 27.1811L30.8179 27.1401L30.8647 27.099L30.9114 27.058L30.9633 27.017L30.9944 26.9924C31.0557 26.938 31.1417 26.905 31.2337 26.9008C31.3256 26.8966 31.416 26.9214 31.4848 26.9698C31.5536 27.0182 31.5953 27.0863 31.6006 27.159C31.606 27.2317 31.5746 27.3031 31.5134 27.3575L31.4822 27.3821L31.4355 27.4231L31.3939 27.46L31.3473 27.497L31.3058 27.538L31.259 27.5749L31.2175 27.6159L31.176 27.657L31.1293 27.6939L31.0878 27.7349L31.0463 27.7759L31.0047 27.8169L30.9633 27.858L30.9218 27.899L30.8802 27.94L30.8387 27.981L30.7972 28.0221L30.7557 28.0631L30.7142 28.1082L30.6778 28.1492H30.6259ZM32.93 26.295C32.8604 26.322 32.7812 26.3295 32.7054 26.3163C32.6296 26.3031 32.5618 26.27 32.513 26.2223C32.4641 26.1747 32.4372 26.1153 32.4366 26.054C32.436 25.9926 32.4618 25.933 32.5097 25.8847L32.5616 25.8519L32.6186 25.8191L32.6706 25.7822L32.7276 25.7535L32.7795 25.7206L32.8366 25.6878L32.8885 25.655L32.9456 25.6222L33.0027 25.5894L33.0546 25.5606L33.1117 25.5278L33.1687 25.495L33.2258 25.4663L33.2777 25.4335L33.3348 25.4047L33.3919 25.3719L33.449 25.3432L33.5061 25.3145L33.5631 25.2817L33.6202 25.253C33.6939 25.2153 33.7827 25.2007 33.8693 25.2119C33.9362 25.2215 33.998 25.2469 34.0463 25.2847C34.0947 25.3225 34.1275 25.3709 34.1404 25.4237C34.1533 25.4765 34.1457 25.5312 34.1186 25.5805C34.0915 25.6298 34.0462 25.6715 33.9886 25.7001L33.9367 25.7288L33.8797 25.7576L33.8278 25.7863L33.7707 25.815L33.7188 25.8437L33.6669 25.8724L33.6098 25.9052L33.5579 25.934L33.5061 25.9627L33.449 25.9955L33.397 26.0242L33.3452 26.0529L33.2933 26.0858L33.2414 26.1145L33.1895 26.1473L33.1376 26.176L33.0805 26.2088L33.0286 26.2416L32.9819 26.2704L32.93 26.3032V26.295ZM35.7271 24.8961C35.6691 24.9181 35.6044 24.9268 35.5404 24.9211C35.4764 24.9155 35.4157 24.8957 35.3653 24.864C35.315 24.8323 35.2769 24.79 35.2555 24.742C35.2341 24.694 35.2303 24.6421 35.2445 24.5925C35.2555 24.5546 35.2771 24.5191 35.3076 24.4886C35.3381 24.4581 35.3768 24.4333 35.4209 24.4161L35.4832 24.3915L35.5402 24.3669L35.6025 24.3422L35.6596 24.3176H35.7219L35.7842 24.293L35.8413 24.2684H35.9035L35.9658 24.2438L36.0229 24.2192L36.0851 24.1987H36.1474L36.2045 24.174H36.2668L36.329 24.1494L36.3913 24.1289H36.4484L36.5106 24.1043H36.573L36.6301 24.0838C36.7093 24.0624 36.7956 24.0646 36.8729 24.0901C36.9501 24.1156 37.0129 24.1626 37.0493 24.2222C37.0858 24.2818 37.0933 24.3499 37.0705 24.4136C37.0478 24.4773 36.9963 24.5321 36.9258 24.5679H36.8636L36.8065 24.5925H36.7494L36.6871 24.613H36.6301H36.5678L36.5106 24.6335L36.4536 24.6581L36.3913 24.6786H36.3342L36.2772 24.7033H36.2149L36.1578 24.7279L36.1007 24.7484L36.0385 24.773L35.9814 24.7935L35.9243 24.8181L35.8672 24.8386L35.8049 24.8633L35.7478 24.8879L35.7271 24.8961ZM13.5789 39.0943C13.5943 39.1611 13.5769 39.2301 13.5302 39.2871C13.4835 39.3441 13.4111 39.3848 13.3277 39.401C13.2443 39.4173 13.1561 39.4077 13.0813 39.3743C13.0065 39.341 12.9506 39.2863 12.925 39.2215V39.1969V39.1436V39.0943V39.0451V38.9959V38.9425V38.8933V38.84V38.7907V38.7415V38.6882V38.639V38.5856V38.5364V38.4831V38.4338V38.3805V38.3313V38.2779V38.2287V38.1877C12.8982 38.1197 12.9066 38.046 12.9485 37.983C12.9903 37.9199 13.0622 37.8725 13.1482 37.8513C13.2342 37.8301 13.3274 37.8368 13.4072 37.8698C13.487 37.9029 13.5469 37.9597 13.5737 38.0277V38.0728V38.1262V38.1795V38.2328V38.2862V38.3395V38.3928V38.4503V38.5036V38.5569V38.6102V38.6636V38.7169V38.7702V38.8236V38.8769V38.9302V38.9836V39.0369V39.0902L13.5789 39.0943ZM12.541 36.4975C12.581 36.5612 12.5872 36.6348 12.5585 36.7021C12.5298 36.7694 12.4684 36.8249 12.3879 36.8565C12.3074 36.888 12.2144 36.893 12.1292 36.8703C12.0441 36.8476 11.9738 36.7991 11.9339 36.7355V36.6944L11.9028 36.6411L11.8768 36.5919L11.8457 36.5385L11.8145 36.4852V36.436L11.7834 36.3827L11.7522 36.3334L11.7211 36.2801L11.69 36.2268L11.6589 36.1775L11.6277 36.1242L11.5966 36.075L11.5032 36.0052L11.4669 35.956L11.4357 35.9027L11.4046 35.8535L11.3734 35.8001V35.7673C11.3435 35.7054 11.3434 35.6371 11.373 35.5751C11.4026 35.5131 11.4599 35.4619 11.534 35.4311C11.6082 35.4003 11.694 35.392 11.7754 35.4078C11.8567 35.4237 11.9279 35.4625 11.9754 35.5171V35.554L12.0065 35.6073L12.0429 35.6606L12.074 35.714L12.1103 35.7673L12.1414 35.8206L12.1726 35.8699L12.2037 35.9232L12.2401 35.9765L12.2712 36.0299L12.3023 36.0832L12.3335 36.1365L12.3646 36.1899L12.3957 36.2432L12.4269 36.2965L12.458 36.3499V36.4032L12.4892 36.4565V36.4975H12.541ZM10.9531 34.1017C10.9981 34.162 11.0119 34.2336 10.9916 34.3017C10.9713 34.3697 10.9184 34.4289 10.8441 34.4669C10.7661 34.5035 10.673 34.5146 10.5848 34.4978C10.4965 34.4809 10.4201 34.4374 10.3719 34.3766V34.3397L10.3356 34.2905L10.2941 34.2453L10.2577 34.1961L10.2214 34.1469L10.1799 34.0976L10.1436 34.0484L10.1073 34.0033L10.0657 33.9541L10.0294 33.9048L9.99305 33.8597L9.95155 33.8105L9.91519 33.7613L9.8737 33.7161L9.8374 33.6669L9.79585 33.6218L9.75955 33.5726L9.71806 33.5274L9.6817 33.4823C9.65203 33.4276 9.64601 33.3667 9.66453 33.309C9.68306 33.2513 9.72511 33.2001 9.78419 33.1632C9.84327 33.1263 9.91606 33.1058 9.99134 33.1049C10.0666 33.104 10.1402 33.1227 10.2006 33.1582V33.1869L10.237 33.232L10.2785 33.2813L10.3148 33.3305L10.3563 33.3756L10.3978 33.4249L10.4341 33.4741L10.4757 33.5233L10.512 33.5684L10.5535 33.6177L10.595 33.6669L10.6313 33.7161L10.6729 33.7654L10.7092 33.8146L10.7507 33.8638L10.787 33.9131L10.8233 33.9623L10.8649 34.0115L10.9012 34.0648L10.9324 34.1017H10.9531ZM9.03822 31.866C9.09878 31.9204 9.12952 31.9916 9.12368 32.0639C9.11784 32.1362 9.07587 32.2037 9.00706 32.2516C8.93824 32.2995 8.84819 32.3238 8.75671 32.3192C8.66523 32.3145 8.57984 32.2814 8.51929 32.227C8.50109 32.2153 8.48535 32.2015 8.4726 32.186L8.44143 32.1572L8.40514 32.1162L8.36358 32.0752L8.32728 32.0342L8.28579 31.9931L8.24943 31.9521L8.20794 31.9152L8.16638 31.8742L8.13009 31.8332L8.08859 31.7921L8.05223 31.7552L8.01074 31.7142L7.97438 31.6773L7.93808 31.6362L7.89659 31.5993L7.86023 31.5624L7.81874 31.5255L7.78238 31.4844L7.74088 31.4475L7.70459 31.4106L7.66823 31.3737V31.3532C7.60629 31.302 7.57259 31.2335 7.57454 31.1628C7.57648 31.092 7.61393 31.0247 7.67861 30.9758C7.7433 30.9268 7.82992 30.9002 7.91946 30.9017C8.00899 30.9032 8.09412 30.9328 8.15606 30.984L8.19236 31.0127V31.0373L8.22865 31.0742L8.27021 31.1111L8.30651 31.1522L8.34806 31.1891L8.38436 31.226L8.42585 31.267L8.46741 31.3039L8.5037 31.345L8.54526 31.386L8.58675 31.4229L8.62305 31.4639L8.6646 31.505L8.7061 31.546L8.74246 31.587L8.78395 31.628L8.82544 31.6691L8.8618 31.7101L8.90329 31.7511L8.94479 31.7921L8.98634 31.8373L9.03822 31.866Z" fill="white"/>
<path d="M27.2072 16.25L21.2387 31.9859C21.2387 31.9859 14.6209 20.8449 27.2072 16.25Z" fill="white"/>
<path d="M22.6254 31.0097L26.8197 19.7611C26.8197 19.7611 34.5496 25.9323 22.6254 31.0097Z" fill="white"/>
</svg>
