<svg width="43" height="41" viewBox="0 0 43 41" fill="none" xmlns="http://www.w3.org/2000/svg">
<path d="M23.7527 13.9976L23.2535 12.6397C23.2535 12.6397 30.4147 9.21262 32.8309 6.89876C35.2471 4.5849 30.8091 0.309082 30.8091 0.309082L37.3938 3.71126C37.3938 3.71126 38.517 9.28001 34.5283 11.1421C29.9555 13.2662 23.7527 13.9976 23.7527 13.9976Z" fill="#D5D5D5"/>
<path d="M23.0339 14.0651L24.2819 14.7989C24.2819 14.7989 26.4885 7.11352 29.2092 5.1516C31.9299 3.18969 37.3963 3.70137 37.3963 3.70137L30.8117 0.299183C30.8117 0.299183 28.1034 -1.17351 25.5699 2.41585C22.637 6.53438 23.0339 14.0651 23.0339 14.0651Z" fill="#FCF7EF"/>
<path d="M24.1197 14.6866L24.0823 13.491C24.0823 13.491 30.607 12.6747 33.1181 11.4791C35.6291 10.2835 33.2554 5.77313 33.2554 5.77313L37.5386 10.1712C37.5386 10.1712 36.9621 14.8439 33.3378 15.2607C29.1843 15.74 24.1197 14.6866 24.1197 14.6866Z" fill="white"/>
<path d="M23.5357 14.5492L24.3219 15.4529C24.3219 15.4529 28.066 9.98889 30.7244 9.16269C33.3827 8.33649 37.5386 10.1611 37.5386 10.1611L33.2554 5.76307C33.2554 5.76307 31.5081 3.89348 28.5727 6.04759C25.1981 8.52869 23.5357 14.5492 23.5357 14.5492Z" fill="#FFFEFB"/>
<path d="M21.958 13.9976L22.4572 12.6397C22.4572 12.6397 15.2985 9.21262 12.8823 6.89876C10.4661 4.5849 14.9016 0.309082 14.9016 0.309082L8.31944 3.71126C8.31944 3.71126 7.1962 9.28001 11.1849 11.1421C15.7577 13.2662 21.958 13.9976 21.958 13.9976Z" fill="#D4D4D4"/>
<path d="M22.6769 14.0651L21.4289 14.7989C21.4289 14.7989 19.2223 7.11352 16.5016 5.1516C13.7809 3.18969 8.31449 3.70137 8.31449 3.70137L14.8991 0.299183C14.8991 0.299183 17.6099 -1.17351 20.1409 2.41585C23.0763 6.53438 22.6769 14.0651 22.6769 14.0651Z" fill="#FCF7EF"/>
<path d="M21.5936 14.6866L21.631 13.491C21.631 13.491 15.1038 12.6747 12.5952 11.4791C10.0866 10.2835 12.4554 5.77313 12.4554 5.77313L8.17215 10.1712C8.17215 10.1712 8.75124 14.8439 12.373 15.2607C16.529 15.74 21.5936 14.6866 21.5936 14.6866Z" fill="white"/>
<path d="M22.1776 14.5492L21.3914 15.4529C21.3914 15.4529 17.6473 9.98889 14.9889 9.16269C12.3306 8.33649 8.17215 10.1611 8.17215 10.1611L12.4554 5.76307C12.4554 5.76307 14.2027 3.89348 17.1405 6.04759C20.5152 8.52869 22.1776 14.5492 22.1776 14.5492Z" fill="#FEFEFE"/>
<path d="M25.5424 13.9901C25.5424 14.8262 24.4466 15.5027 23.0912 15.5027C21.7359 15.5027 20.6401 14.8262 20.6401 13.9901C20.6401 13.1539 21.7384 12.4774 23.0912 12.4774C24.4441 12.4774 25.5424 13.1539 25.5424 13.9901Z" fill="#DEDEDE"/>
<path d="M42.049 20.3801H26.1415V40.1491H42.049V20.3801Z" fill="#BF1D23"/>
<path d="M43 14.7415H26.3562V20.3801H43V14.7415Z" fill="#C8312B"/>
<path d="M26.1414 20.3801H0.951045V40.1491H26.1414V20.3801Z" fill="#EB3836"/>
<path d="M26.3561 14.7415H0V20.3801H26.3561V14.7415Z" fill="#E63933"/>
<g style="mix-blend-mode:multiply">
<path d="M16.1721 20.3801H10.9204V21.5308H16.1721V20.3801Z" fill="#CFB7BB"/>
</g>
<path d="M37.3039 20.3801H32.0522V40.1491H37.3039V20.3801Z" fill="white"/>
<g style="mix-blend-mode:multiply">
<path d="M37.3039 20.3801H32.0522V21.5308H37.3039V20.3801Z" fill="#CFB7BB"/>
</g>
<path d="M37.6908 14.7415H31.6678V20.3801H37.6908V14.7415Z" fill="white"/>
<path opacity="0.7" d="M0.951045 21.5308H26.2712L26.1414 20.5399L0.951045 20.3801V21.5308Z" fill="#D01A18"/>
<path d="M17.1091 22.2963L11.2595 37.7184C11.2595 37.7184 4.77379 26.7996 17.1091 22.2963Z" fill="white"/>
<path d="M12.6186 36.7615L16.7293 25.7373C16.7293 25.7373 24.305 31.7854 12.6186 36.7615Z" fill="white"/>
</svg>
