<svg width="56" height="40" viewBox="0 0 56 40" fill="none" xmlns="http://www.w3.org/2000/svg">
<path d="M50.5805 25.2764C51.5852 18.7242 46.756 0.997238 28.8304 0.0391662C21.2987 -0.365353 12.1413 2.30128 6.27007 10.9505C3.54364 14.9691 2.77609 17.7874 3.51433 19.8021C4.76694 23.2618 7.19487 20.9996 7.87715 18.6497C9.40959 13.351 14.1855 12.9359 16.0724 15.6211C19.036 19.842 14.508 27.1845 18.5377 32.0654L50.5805 25.2764Z" fill="#EE3E36"/>
<path d="M5.96619 18.2611C6.58439 16.6576 7.54056 15.2054 8.76991 14.0031C11.0193 11.7995 22.5353 5.89138 22.4207 25.5931C22.4207 27.5411 22.0556 29.4653 21.7971 31.3947L18.5376 32.084C14.5079 27.2032 19.036 19.8606 16.0724 15.6398C14.1855 12.9545 9.40955 13.3697 7.8771 18.6683C7.42136 20.2385 6.18741 21.7661 5.04407 21.5771C5.25498 20.4473 5.5635 19.3378 5.96619 18.2611Z" fill="#D92B2C"/>
<path d="M14.0602 35.6662C14.3183 36.8957 15.0549 37.9724 16.108 38.6597C17.1611 39.3469 18.4444 39.5883 19.6757 39.3308L52.2595 32.4114C53.4461 32.1058 54.4686 31.3546 55.1139 30.3144C55.7592 29.2742 55.9775 28.0254 55.7231 26.8285C55.4687 25.6315 54.7614 24.5789 53.7486 23.89C52.7358 23.2012 51.4959 22.9295 50.2873 23.1314L17.7035 30.0508C16.4754 30.3145 15.4023 31.0537 14.7193 32.1064C14.0363 33.1591 13.7993 34.4393 14.0602 35.6662Z" fill="white"/>
<path d="M18.2017 37.2949L52.7791 29.971C53.4428 29.8302 54.0708 29.5556 54.6244 29.1638C55.178 28.7721 55.6456 28.2715 55.9986 27.6929C56.0255 28.7926 55.6676 29.8672 54.9865 30.7318C54.3055 31.5964 53.344 32.197 52.2674 32.43L19.6836 39.3494C18.6049 39.5755 17.481 39.4187 16.5055 38.9062C15.5301 38.3937 14.7643 37.5575 14.34 36.5417C14.8989 36.9221 15.5295 37.185 16.1934 37.3145C16.8572 37.444 17.5405 37.4373 18.2017 37.2949Z" fill="#D4F1FF"/>
<path d="M0.110976 22.1812C0.319277 23.1363 0.806208 24.0083 1.51033 24.6873C2.21445 25.3663 3.10421 25.8218 4.06732 25.9963C5.03042 26.1708 6.02371 26.0565 6.92185 25.6679C7.81999 25.2793 8.58274 24.6337 9.11382 23.8126C9.64489 22.9916 9.92049 22.0318 9.90587 21.0545C9.89125 20.0772 9.58707 19.1261 9.03167 18.3212C8.47627 17.5164 7.69458 16.8938 6.78521 16.5322C5.87585 16.1705 4.87958 16.0859 3.92212 16.2891C2.63438 16.566 1.50948 17.3422 0.794793 18.4472C0.0801035 19.5521 -0.165877 20.8952 0.110976 22.1812Z" fill="white"/>
<path d="M2.38694 16.8986C1.83874 17.7195 1.54729 18.6847 1.54966 19.6714C1.55203 20.6582 1.8481 21.6219 2.40025 22.4402C2.95239 23.2586 3.73568 23.8945 4.65061 24.2673C5.56553 24.6401 6.57077 24.7329 7.53862 24.5339C8.08082 24.4191 8.5998 24.214 9.07373 23.9271C8.53248 24.7387 7.76276 25.3722 6.86157 25.7477C5.96037 26.1232 4.96805 26.224 4.0096 26.0373C3.05115 25.8506 2.16947 25.3848 1.47568 24.6986C0.781892 24.0124 0.307019 23.1365 0.11091 22.1813C-0.104242 21.1738 -0.000833033 20.1244 0.406865 19.1782C0.814564 18.2319 1.50645 17.4353 2.38694 16.8986Z" fill="#D4F1FF"/>
<path d="M35.3779 6.53662L29.6644 21.6001C29.6644 21.6001 23.3294 10.9352 35.3779 6.53662Z" fill="white"/>
<path d="M30.9918 20.6656L35.0069 9.89771C35.0069 9.89771 42.4064 15.8051 30.9918 20.6656Z" fill="white"/>
</svg>
