<svg width="23" height="22" viewBox="0 0 23 22" fill="none" xmlns="http://www.w3.org/2000/svg">
<path d="M4.26996 8.72925L4.26987 8.72916L0.211353 4.6711C0.211311 4.67105 0.211268 4.67101 0.211226 4.67097C0.129592 4.58894 0.129591 4.45654 0.211223 4.3745C0.211266 4.37446 0.21131 4.37442 0.211353 4.37437L4.26987 0.316306L4.26996 0.316215C4.49123 0.0945949 4.85252 0.0945949 5.07379 0.316215L5.07387 0.3163L6.00331 1.24573L6.00339 1.24582C6.22501 1.46708 6.22501 1.82838 6.00339 2.04965L6.00331 2.04973L5.07387 2.97917L4.81781 3.23523H5.17994H17.9688C20.6603 3.23523 22.85 5.42495 22.85 8.11648C22.85 8.62796 22.4333 9.04461 21.9219 9.04461H21.2031C20.6917 9.04461 20.275 8.62796 20.275 8.11648C20.275 6.84456 19.2407 5.81023 17.9688 5.81023H5.17994H4.81781L5.07387 6.0663L6.00331 6.99573L6.00339 6.99582C6.22501 7.21708 6.22501 7.57838 6.00339 7.79965L6.00331 7.79973L5.07387 8.72917L5.07379 8.72925C4.85252 8.95087 4.49123 8.95087 4.26996 8.72925Z" fill="#4CAF50" stroke="black" stroke-width="0.3"/>
<path d="M18.73 12.5349L18.7301 12.535L22.7886 16.5931C22.8705 16.6752 22.8705 16.8078 22.7886 16.8898L18.7301 20.9479L18.8362 21.054L18.7301 20.9479C18.5084 21.1696 18.1479 21.1697 17.9261 20.9479L16.9967 20.0185C16.774 19.7958 16.7744 19.4368 16.9967 19.2145L17.9261 18.285L18.1822 18.029H17.8201H5.03125C2.33972 18.029 0.15 15.8392 0.15 13.1477C0.15 12.6362 0.566651 12.2196 1.07812 12.2196H1.79688C2.30835 12.2196 2.725 12.6362 2.725 13.1477C2.725 14.4196 3.75933 15.454 5.03125 15.454H17.8201H18.1822L17.9261 15.1979L16.9967 14.2685C16.774 14.0458 16.7744 13.6868 16.9967 13.4645L17.9261 12.535C18.1479 12.3132 18.5088 12.3134 18.73 12.5349Z" fill="#4CAF50" stroke="black" stroke-width="0.3"/>
</svg>
