<svg width="1024" height="1024" viewBox="0 0 1024 1024" fill="none" xmlns="http://www.w3.org/2000/svg">
<mask id="mask0_3407_72488" style="mask-type:luminance" maskUnits="userSpaceOnUse" x="0" y="77" width="1024" height="870">
<path d="M546.712 946.605V469.349H1024C1024 732.93 810.311 946.605 546.712 946.605ZM477.288 946.605V469.349H0C0 732.93 213.689 946.605 477.288 946.605ZM873.691 77.3953H545.028V406.036C726.55 406.036 873.691 258.892 873.691 77.3953ZM477.363 406.036V77.3953H148.7C148.7 258.904 295.855 406.036 477.363 406.036Z" fill="white"/>
</mask>
<g mask="url(#mask0_3407_72488)">
<path d="M-145.894 1186.46L1291.75 1186.46L1291.75 -251.082L-145.894 -251.082L-145.894 1186.46Z" fill="#46B955"/>
<path d="M1178.6 378.809C964.447 353.73 784.07 194.573 669.246 83.6023C534.494 -46.6428 355.913 -107.594 261.584 -69.7617C196.557 -43.6901 179.569 39.2742 227.431 104.862C275.293 170.449 313.102 396.776 261.935 514.946C203.544 649.803 34.5 659.151 34.5 905.493V1260.92H1348.17V378.809H1178.61H1178.6Z" fill="#46B955"/>
<g style="mix-blend-mode:multiply" opacity="0.06">
<path d="M1178.6 378.809C964.447 353.73 784.07 194.573 669.246 83.6023C534.494 -46.6428 355.913 -107.594 261.584 -69.7617C196.557 -43.6901 179.569 39.2742 227.431 104.862C275.293 170.449 313.102 396.776 261.935 514.946C203.544 649.803 34.5 659.151 34.5 905.493V1260.92H1348.17V378.809H1178.61H1178.6Z" fill="#46B955"/>
</g>
<path d="M289.643 1058.66C289.643 1058.66 106.426 937.307 139.259 862.597C175.247 780.726 292.169 801.32 374.021 732.453C456.978 662.656 437.69 546.597 395.244 444.647C337.53 306.022 276.713 172.07 375.868 57.5433C434.184 -9.81578 554.838 9.01862 622.466 116.358C687.655 219.816 775.84 360.263 883.878 366.055C961.809 370.227 1086.46 396.927 1202.22 561.197H1344.78V1246.25H289.643V1058.66Z" fill="#46B955"/>
<g style="mix-blend-mode:multiply" opacity="0.06">
<path d="M289.643 1058.66C289.643 1058.66 106.426 937.31 139.259 862.6C175.247 780.729 292.169 801.323 374.021 732.456C456.978 662.659 437.69 546.6 395.244 444.65C337.53 306.024 276.713 172.073 375.868 57.5462C434.184 -9.81286 554.838 9.02154 622.466 116.361C687.655 219.819 775.84 360.266 883.878 366.058C961.809 370.23 1086.46 396.93 1202.22 561.2H1344.78V1246.25H289.643V1058.66Z" fill="#46B955"/>
</g>
<path d="M370.937 1127.39C293.659 919.679 432.03 897.892 500.198 874.66C568.379 851.428 638.079 812.616 639.097 719.286C640.178 620.892 577.162 590.599 529.137 523.83C481.111 457.062 357.014 359.824 444.194 282.614C514.297 220.52 635.541 378.859 748.178 378.859C860.816 378.859 1108.46 454.926 1144.63 515.035L1244.96 532.889V1127.39H370.937Z" fill="#46B955"/>
<g style="mix-blend-mode:multiply" opacity="0.06">
<path d="M370.945 1127.38C293.667 919.677 432.038 897.89 500.206 874.658C568.386 851.426 638.087 812.614 639.105 719.284C640.186 620.89 577.17 590.597 529.144 523.828C481.119 457.06 357.022 359.822 444.202 282.612C514.305 220.518 635.549 378.857 748.186 378.857C860.823 378.857 1108.46 454.924 1144.64 515.033L1244.96 532.887V1127.38H370.945Z" fill="#46B955"/>
</g>
</g>
</svg>
