<svg width="20" height="20" viewBox="0 0 20 20" fill="none" xmlns="http://www.w3.org/2000/svg">
<path d="M16.9475 15.1527C16.7608 15.1527 16.6013 15.221 16.492 15.3303C16.4874 15.3303 16.4874 15.3303 16.4828 15.3303C15.8724 15.2711 15.3074 14.9932 14.8701 14.5741C14.8701 14.5695 14.8701 14.5695 14.8701 14.5695C14.861 14.5558 14.8473 14.5467 14.8382 14.5331C14.7881 14.483 14.7334 14.4419 14.6879 14.4146C14.5648 13.9454 14.4783 13.5536 14.4236 13.2757C13.8359 10.3782 14.2232 9.12988 14.3507 8.78819C14.4965 8.39639 15.7175 5.18 13.2528 3.47157C10.7926 1.7677 8.03637 3.47157 7.67191 3.79047C7.30289 4.10938 5.01132 6.17771 4.62407 9.85881C4.51929 10.8748 4.51929 11.9864 4.56941 13.0752C3.95437 13.836 3.38945 14.6424 3.08877 15.59L3.08421 15.5991C2.91109 15.6492 2.75619 15.7905 2.6833 15.9955C2.57396 16.3098 2.69241 16.6333 2.94754 16.7244C3.20266 16.8155 3.49879 16.6333 3.60813 16.3235C3.68102 16.1185 3.64913 15.918 3.54891 15.7722L3.55346 15.7631C3.78125 15.0479 4.17305 14.4192 4.61496 13.8269C4.62407 14.0593 4.65141 14.4009 4.74252 14.8019C4.9202 15.5718 5.18899 15.9226 5.39401 16.4921C5.54435 16.9066 5.68558 17.5536 5.63091 18.3782C6.37351 18.7745 7.77214 19.3941 9.62635 19.4716C11.8951 19.5672 13.599 18.7973 14.3644 18.3964C14.5238 17.8041 14.6605 17.0297 14.6833 16.1777C14.6924 15.7814 14.6787 15.4169 14.6469 15.0843C14.7881 15.18 14.9339 15.2711 15.0979 15.3668C15.1571 15.4032 15.2209 15.4351 15.2801 15.467C15.2801 15.4716 15.2801 15.4716 15.2801 15.4716C15.6218 15.6447 15.9954 15.7586 16.3826 15.8132C16.3826 15.8132 16.3826 15.8132 16.3872 15.8132C16.4737 15.9955 16.6833 16.1276 16.9384 16.1322C17.271 16.1367 17.5398 15.918 17.5443 15.6492C17.5443 15.3759 17.2801 15.1572 16.9475 15.1527ZM9.05688 8.76086C9.05688 8.43284 9.32567 8.16404 9.65369 8.16404C9.7858 8.16404 9.90881 8.20961 10.009 8.2825C9.9817 8.27339 9.95437 8.26883 9.92704 8.26883C9.79492 8.26883 9.68102 8.37817 9.68102 8.51484C9.68102 8.65152 9.79492 8.76086 9.92704 8.76086C10.0637 8.76086 10.173 8.65152 10.173 8.51484C10.173 8.50118 10.1731 8.48295 10.1685 8.46928C10.2186 8.55584 10.2459 8.65608 10.2459 8.76086C10.2459 9.08888 9.9817 9.35311 9.65369 9.35311C9.32567 9.35311 9.05688 9.08888 9.05688 8.76086ZM13.3029 13.1071C13.3029 13.3167 13.1617 13.344 12.9703 13.2073C12.8473 13.1162 12.7152 13.0388 12.574 12.975C12.3872 12.8748 12.0956 12.7472 11.7175 12.7016C11.1434 12.6287 10.6879 12.7791 10.4646 12.8702C10.2232 12.9522 10.0045 13.0661 9.80859 13.2073C9.61269 13.3394 9.47146 13.3167 9.47146 13.1071V13.0069C9.52157 12.8337 9.61724 12.5923 9.80859 12.3554C9.87237 12.2734 9.9407 12.2096 10.0045 12.1504C10.2551 12.2506 10.6286 12.3645 11.0888 12.3827C11.7995 12.4146 12.3507 12.205 12.6423 12.0729C12.738 12.1322 12.8564 12.2233 12.9703 12.3508C13.1844 12.5968 13.2664 12.852 13.3029 13.0023V13.1071ZM13.0933 9.35311C12.7653 9.35311 12.4965 9.08888 12.4965 8.76086C12.4965 8.43284 12.7653 8.16404 13.0933 8.16404C13.2391 8.16404 13.3712 8.21872 13.476 8.30983C13.4396 8.2825 13.3895 8.26883 13.3393 8.26883C13.2027 8.26883 13.0933 8.37817 13.0933 8.51484C13.0933 8.65152 13.2027 8.76086 13.3393 8.76086C13.476 8.76086 13.5854 8.65152 13.5854 8.51484C13.5854 8.46473 13.5717 8.41461 13.5444 8.37817C13.6355 8.48295 13.6901 8.61507 13.6901 8.76086C13.6901 9.08888 13.4213 9.35311 13.0933 9.35311Z" fill="#1D8A79"/>
</svg>
