<svg width="21" height="15" viewBox="0 0 21 15" fill="none" xmlns="http://www.w3.org/2000/svg">
<path fill-rule="evenodd" clip-rule="evenodd" d="M6.39858 1.00002C5.48009 1.27166 4.62658 1.65558 3.92267 2.11389C3.42418 2.43842 3.34471 2.53664 2.97236 3.2874C2.74889 3.73798 2.42711 4.47122 2.25724 4.91682C1.63333 6.55335 1.04231 9.43824 1.01502 10.9806L1 11.8274L1.66667 12.389C2.76302 13.3126 4.42356 14.0108 5.87769 14.1598L6.43991 14.2174L6.73502 13.8065C6.89733 13.5805 7.06667 13.3956 7.11138 13.3956C7.34667 13.3956 7.05822 13.1757 6.53173 12.9535C5.92071 12.6958 4.58498 11.8556 4.31636 11.56C4.22996 11.465 4.56782 11.5925 5.1168 11.8619C6.60818 12.5942 8.25964 12.9511 10.1556 12.9511C12.2464 12.9511 14.2769 12.4758 15.6667 11.6609L16.2 11.3483L15.814 11.6926C15.3188 12.1342 14.1934 12.8122 13.6222 13.013C13.3778 13.099 13.1613 13.1799 13.1412 13.193C13.0464 13.2547 13.736 14.1185 13.9173 14.1651C14.2307 14.2454 15.3954 14.0297 16.2429 13.7343C17.166 13.4126 18.0076 12.9279 18.7765 12.2757C19.4518 11.7028 19.4436 11.7456 19.2224 9.95904C18.9116 7.44918 18.2769 5.19638 17.3578 3.3418C16.9314 2.48144 16.91 2.45575 16.298 2.06429C15.5564 1.5898 14.5783 1.16118 13.7612 0.952554C12.8795 0.727398 12.6316 0.725976 12.5142 0.945265C12.3602 1.23318 12.4012 1.2746 13 1.43673C13.3178 1.52269 13.5778 1.62544 13.5778 1.66509C13.5778 1.70464 13.7078 1.76464 13.8667 1.79842C14.0255 1.8322 14.2156 1.90855 14.2889 1.9682C14.3622 2.02784 14.6122 2.18509 14.8444 2.31762C15.3685 2.61673 15.3901 2.69175 14.8889 2.47229C14.0061 2.08562 13.0124 1.84304 11.5397 1.6546C9.79298 1.43122 7.02551 1.77975 5.58284 2.405C5.18898 2.57566 4.86667 2.70411 4.86667 2.69033C4.86667 2.63967 5.90116 2.03984 6.28889 1.86562C7.07476 1.51255 7.61289 1.30669 7.74978 1.30669C7.91129 1.30669 7.92676 1.18793 7.79689 0.945265C7.67342 0.714687 7.31644 0.728643 6.39858 1.00002ZM8.18044 6.95904C8.56747 7.24527 8.80738 7.76731 8.80738 8.32331C8.80738 9.95042 6.95724 10.5046 6.22711 9.09611C6.00311 8.66402 6.02987 7.91344 6.28542 7.46224C6.40311 7.25442 6.552 7.08447 6.61636 7.08447C6.68071 7.08447 6.73333 7.04313 6.73333 6.99273C6.73333 6.69931 7.79591 6.6746 8.18044 6.95904ZM13.677 7.04962C14.1548 7.50678 14.3253 8.06118 14.1868 8.70695C13.9323 9.89407 12.6582 10.3027 11.9009 9.44011C11.3995 8.869 11.3424 8.13362 11.7428 7.4042C12.1345 6.69087 13.1144 6.51122 13.677 7.04962ZM19.4515 11.0474C19.4557 11.151 19.4768 11.172 19.5052 11.1012C19.5308 11.037 19.5276 10.9603 19.4981 10.9308C19.4686 10.9013 19.4476 10.9537 19.4515 11.0474Z" fill="#1D8A79"/>
</svg>
