<svg width="21" height="22" viewBox="0 0 21 22" fill="none" xmlns="http://www.w3.org/2000/svg">
<g clip-path="url(#clip0_15944_154620)">
<path d="M10 0.5V6.5C10 7.03043 10.2107 7.53914 10.5858 7.91421C10.9609 8.28929 11.4696 8.5 12 8.5H18V18.5C18 19.0304 17.7893 19.5391 17.4142 19.9142C17.0391 20.2893 16.5304 20.5 16 20.5H4C3.46957 20.5 2.96086 20.2893 2.58579 19.9142C2.21071 19.5391 2 19.0304 2 18.5V2.5C2 1.96957 2.21071 1.46086 2.58579 1.08579C2.96086 0.710714 3.46957 0.5 4 0.5H10ZM11.5 1V6.5C11.5 6.63261 11.5527 6.75979 11.6464 6.85355C11.7402 6.94732 11.8674 7 12 7H17.5L11.5 1Z" fill="#1D8A79"/>
</g>
<defs>
<clipPath id="clip0_15944_154620">
<rect width="21" height="21" fill="white" transform="translate(0 0.5)"/>
</clipPath>
</defs>
</svg>
