<svg width="21" height="21" viewBox="0 0 21 21" fill="none" xmlns="http://www.w3.org/2000/svg">
<g clip-path="url(#clip0_15944_154636)">
<path d="M16.6826 0.833008L12.516 4.99967V14.1663L16.6826 10.4163V0.833008ZM1.68262 4.99967V17.208C1.68262 17.4163 1.89095 17.6247 2.09928 17.6247C2.18262 17.6247 2.22428 17.583 2.30762 17.583C3.43262 17.0413 5.05762 16.6663 6.26595 16.6663C7.89095 16.6663 9.64095 16.9997 10.8493 17.9163V4.99967C9.64095 4.08301 7.89095 3.74967 6.26595 3.74967C4.64095 3.74967 2.89095 4.08301 1.68262 4.99967ZM20.016 16.2497V4.99967C19.516 4.62467 18.9743 4.37467 18.3493 4.16634V15.4163C17.4326 15.1247 16.4326 14.9997 15.4326 14.9997C14.016 14.9997 11.9743 15.5413 10.8493 16.2497V17.9163C11.9743 17.208 14.016 16.6663 15.4326 16.6663C16.8076 16.6663 18.2243 16.9163 19.391 17.5413C19.4743 17.583 19.516 17.583 19.5993 17.583C19.8076 17.583 20.016 17.3747 20.016 17.1663V16.2497Z" fill="#1D8A79"/>
</g>
<defs>
<clipPath id="clip0_15944_154636">
<rect width="20" height="20" fill="white" transform="translate(0.849609)"/>
</clipPath>
</defs>
</svg>
