<svg width="20" height="21" viewBox="0 0 20 21" fill="none" xmlns="http://www.w3.org/2000/svg">
<path fill-rule="evenodd" clip-rule="evenodd" d="M7.95794 0.762347C4.25392 1.57779 1.32181 4.33877 0.322619 7.9521C-0.258599 10.0541 -0.0433039 12.6823 0.878127 14.7357C1.40146 15.9018 1.72448 16.1437 2.7579 16.1437C4.16891 16.1437 4.1656 16.1513 4.21859 12.6473C4.27159 9.13929 4.24446 9.2038 5.67092 9.2038C7.13115 9.2038 7.12247 9.18535 7.17578 12.423C7.20102 13.9633 7.26458 15.2663 7.31695 15.3187C7.36915 15.371 7.6059 15.3458 7.8428 15.2627L8.27339 15.1114L8.35225 11.3927C8.41219 8.56517 8.48301 7.61172 8.64752 7.41378C8.80934 7.21915 9.1281 7.15401 9.90932 7.15574C10.4844 7.15716 11.0612 7.22545 11.1913 7.30747C11.385 7.42971 11.4422 8.05619 11.5068 10.7618L11.5856 14.0669L12.0982 13.8512L12.6108 13.6354V9.60569C12.6108 5.71665 12.6225 5.56445 12.9436 5.24332C13.2305 4.95642 13.4174 4.91967 14.3032 4.97613C15.7814 5.07014 15.7653 5.02929 15.7653 8.68189C15.7653 10.3569 15.8119 11.7274 15.8688 11.7274C16.1065 11.7274 17.1805 10.821 18.2449 9.72177C19.755 8.1625 19.8085 7.88475 18.9367 6.12564C16.9131 2.04197 12.3255 -0.199146 7.95794 0.762347ZM19.0315 11.0675C16.3242 14.4239 11.4046 17.1219 5.96461 18.2337C5.02236 18.4263 4.2514 18.6209 4.2514 18.6662C4.2514 18.8591 5.80057 19.6602 6.91191 20.0419C7.92214 20.389 8.39468 20.4561 9.85064 20.4584C12.8801 20.4637 14.9709 19.6214 17.042 17.5612C17.9618 16.6462 18.3927 16.0596 18.8982 15.0343C19.6148 13.5813 20.0662 11.7705 19.9921 10.6473L19.9451 9.93517L19.0315 11.0675Z" fill="#1D8A79"/>
</svg>
