<svg width="21" height="21" viewBox="0 0 21 21" fill="none" xmlns="http://www.w3.org/2000/svg">
<g clip-path="url(#clip0_15944_154623)">
<path d="M20.1504 12.358V8.68371L17.9004 8.30793C17.7337 7.68162 17.4837 7.09705 17.192 6.596L18.5254 4.75888L15.942 2.1284L14.067 3.42274C13.5254 3.13049 12.942 2.87996 12.3587 2.7129L11.9837 0.5H8.31703L7.94203 2.7547C7.31703 2.92169 6.77539 3.17222 6.23375 3.46447L4.40039 2.17013L1.77539 4.75888L3.10875 6.596C2.8171 7.13885 2.56711 7.72335 2.40039 8.34966L0.150391 8.68371V12.358L2.40039 12.7338C2.56703 13.3601 2.81703 13.903 3.10875 14.4457L1.77539 16.3247L4.35875 18.9134L6.23375 17.5773C6.77539 17.8695 7.35875 18.12 7.98375 18.2871L8.35875 20.5H12.0254L12.4004 18.2453C12.9837 18.0783 13.567 17.8278 14.1087 17.5355L15.9837 18.8716L18.567 16.2829L17.2337 14.404C17.5254 13.8612 17.7754 13.3184 17.942 12.6921L20.1504 12.358ZM10.1504 14.3622C8.02539 14.3622 6.31703 12.6503 6.31703 10.5209C6.31703 8.39146 8.06703 6.67953 10.1504 6.67953C12.2337 6.67953 13.9837 8.39146 13.9837 10.5209C13.9837 12.6503 12.2754 14.3622 10.1504 14.3622Z" fill="#1D8A79"/>
</g>
<defs>
<clipPath id="clip0_15944_154623">
<rect width="21" height="20" fill="white" transform="translate(0 0.5)"/>
</clipPath>
</defs>
</svg>
