<svg width="20" height="21" viewBox="0 0 20 21" fill="none" xmlns="http://www.w3.org/2000/svg">
<path fill-rule="evenodd" clip-rule="evenodd" d="M8.6452 0.903954C7.59249 1.04652 6.62483 1.34101 5.6266 1.82256C2.71995 3.22485 0.726293 5.83777 0.130464 9.02589C-0.00924692 9.77331 -0.0431885 11.2031 0.0601094 11.9857C0.288192 13.7128 0.954233 15.3391 1.99672 16.7144C2.3696 17.2063 3.184 18.0488 3.65381 18.4286C4.43879 19.0631 5.56808 19.7126 6.42679 20.0233C6.94137 20.2095 7.16104 20.2169 7.354 20.0545C7.54647 19.8926 7.5681 19.7219 7.52646 18.6925L7.49176 17.8344L7.31977 17.8652C7.22517 17.8821 6.91247 17.908 6.62487 17.9227C5.34328 17.9886 4.58097 17.5571 4.05184 16.4663C3.77208 15.8896 3.49884 15.523 3.18956 15.3095C2.60705 14.9075 2.5249 14.7503 2.84687 14.6539C2.99604 14.6092 3.09297 14.6092 3.28659 14.6537C3.82851 14.7784 4.25463 15.0964 4.61853 15.6476C5.26403 16.6254 6.17841 16.9442 7.26653 16.5707L7.52789 16.481L7.61136 16.1624C7.71105 15.782 7.83478 15.528 8.0275 15.3086C8.10579 15.2194 8.16983 15.1333 8.16983 15.1171C8.16983 15.1009 8.10674 15.0877 8.02964 15.0877C7.79623 15.0877 6.91128 14.9023 6.51863 14.7711C5.28262 14.3582 4.45895 13.6139 4.01785 12.5113C3.77218 11.8972 3.69531 11.4663 3.66755 10.5466C3.64435 9.77659 3.652 9.64876 3.74313 9.28687C3.87272 8.77223 4.14824 8.19679 4.4318 7.84868L4.65432 7.57544L4.57009 7.30281C4.4531 6.92432 4.45448 5.91084 4.57246 5.50901C4.75871 4.87491 4.77554 4.86379 5.36818 4.98386C5.84118 5.0797 6.45807 5.34063 7.05779 5.69854L7.50859 5.96755L7.9224 5.87167C8.62342 5.70923 9.11025 5.65956 10 5.65956C10.8897 5.65956 11.3766 5.70923 12.0776 5.87167L12.4914 5.96755L12.9422 5.69854C13.5419 5.34063 14.1588 5.0797 14.6318 4.98386C15.2245 4.86379 15.2413 4.87491 15.4275 5.50901C15.5455 5.91084 15.5469 6.92432 15.4299 7.30281L15.3457 7.57544L15.5616 7.84055C15.8173 8.15449 16.0566 8.61407 16.2042 9.07428C16.34 9.49779 16.388 10.6005 16.2993 11.2544C16.0002 13.4574 14.6887 14.6936 12.2818 15.0411C12.0465 15.0751 11.8458 15.1094 11.8357 15.1175C11.8257 15.1255 11.8876 15.2119 11.9733 15.3095C12.1395 15.4988 12.2748 15.7717 12.3936 16.1571C12.4539 16.3525 12.4674 16.7076 12.4695 18.1459L12.4719 19.8967L12.6272 20.0355C12.8329 20.2193 13.0388 20.2167 13.5732 20.0233C14.4319 19.7126 15.5612 19.0631 16.3462 18.4286C16.816 18.0488 17.6304 17.2063 18.0033 16.7144C19.0458 15.3391 19.7118 13.7128 19.9399 11.9857C20.0432 11.2031 20.0092 9.77331 19.8695 9.02589C19.427 6.65774 18.2413 4.6425 16.3748 3.08576C15.2894 2.18056 13.7036 1.40271 12.258 1.06648C11.2358 0.828751 9.70831 0.760012 8.6452 0.903954ZM3.51961 14.9757C3.54262 15.0927 3.68585 15.1698 3.75388 15.1017C3.83921 15.0164 3.76595 14.8976 3.62805 14.8976C3.53868 14.8976 3.50849 14.9193 3.51961 14.9757ZM3.92144 15.3027C3.88907 15.387 4.06078 15.578 4.14406 15.5502C4.22464 15.5234 4.24218 15.3805 4.17482 15.2993C4.0999 15.2091 3.95662 15.211 3.92144 15.3027ZM4.31933 15.8647C4.31933 15.926 4.36173 16.0145 4.4135 16.0614C4.4906 16.1311 4.52079 16.1358 4.57988 16.0867C4.67243 16.0099 4.67158 15.9221 4.57741 15.8279C4.46146 15.712 4.31933 15.7323 4.31933 15.8647ZM4.82408 16.3486C4.73333 16.4394 4.78562 16.5752 4.94397 16.66C5.02292 16.7023 5.05934 16.6974 5.12033 16.6364C5.20746 16.5493 5.16672 16.4485 4.99963 16.3375C4.91421 16.2807 4.89044 16.2823 4.82408 16.3486ZM5.46022 16.8627C5.46022 17.0054 5.65982 17.108 5.79569 17.0353C5.98317 16.935 5.8677 16.7515 5.61709 16.7515C5.48432 16.7515 5.46022 16.7686 5.46022 16.8627ZM7.10414 16.8141C6.96267 16.9175 7.02675 17.0605 7.21457 17.0605C7.40833 17.0605 7.50844 16.9423 7.41256 16.8268C7.33645 16.7352 7.21875 16.7303 7.10414 16.8141ZM6.35154 16.8979C6.22623 16.9709 6.2471 17.1247 6.38709 17.1598C6.62036 17.2183 6.79396 17.0357 6.62349 16.911C6.51958 16.835 6.4641 16.8324 6.35154 16.8979Z" fill="#1D8A79"/>
</svg>
