<svg width="21" height="20" viewBox="0 0 21 20" fill="none" xmlns="http://www.w3.org/2000/svg">
<path fill-rule="evenodd" clip-rule="evenodd" d="M11.5887 1.37559C11.0658 2.13224 10.3166 3.2096 9.92396 3.76978C9.53127 4.32996 9.06596 4.99987 8.88993 5.25838C8.7139 5.51697 8.12671 6.36438 7.58508 7.14163C7.04344 7.91895 6.53371 8.65189 6.45237 8.77055C6.37103 8.88914 6.14945 9.20567 5.95997 9.47394C5.40761 10.256 5 10.9405 5 11.086C5 11.1602 5.04594 11.3182 5.10207 11.4371L5.2041 11.6534H7.23577C8.35317 11.6534 9.28207 11.6777 9.29994 11.7075C9.32978 11.7573 8.63477 14.066 7.55504 17.5038C7.05462 19.0971 6.99302 19.3493 7.03561 19.632C7.07594 19.8998 7.32174 20.0835 7.4765 19.9615C7.53623 19.9144 7.95423 19.346 8.40546 18.6985C8.85664 18.0509 9.92041 16.524 10.7694 15.3053C11.6183 14.0866 12.4124 12.9544 12.5341 12.7893C12.6557 12.6243 12.8549 12.3321 12.9768 12.1399C13.0987 11.9479 13.5669 11.2634 14.0174 10.6188C14.8382 9.44423 15.0449 9.09808 15.0449 8.89767C15.0449 8.83859 14.9914 8.6866 14.926 8.55997L14.8071 8.3297H12.7882C11.6778 8.3297 10.7547 8.30532 10.7368 8.27553C10.7189 8.24582 10.8591 7.72881 11.0482 7.12661C12.2147 3.41403 12.9902 0.821972 13.0123 0.561167C13.0354 0.289939 13.0231 0.247839 12.8867 0.130321C12.8035 0.0585949 12.6914 0 12.6376 0C12.5815 0 12.133 0.588249 11.5887 1.37559Z" fill="#1D8A79"/>
</svg>
