<svg width="22" height="19" viewBox="0 0 22 19" fill="none" xmlns="http://www.w3.org/2000/svg">
<path d="M12.5714 0C7.36476 0 3.14286 4.25389 3.14286 9.5H0L4.07524 13.6061L4.14857 13.7539L8.38095 9.5H5.2381C5.2381 5.415 8.51714 2.11111 12.5714 2.11111C16.6257 2.11111 19.9048 5.415 19.9048 9.5C19.9048 13.585 16.6257 16.8889 12.5714 16.8889C10.5495 16.8889 8.71619 16.055 7.39619 14.7144L5.90857 16.2133C7.61619 17.9339 9.96286 19 12.5714 19C17.7781 19 22 14.7461 22 9.5C22 4.25389 17.7781 0 12.5714 0ZM11.5238 5.27778V10.5556L16.0076 13.2367L16.7619 11.9594L13.0952 9.76389V5.27778H11.5238Z" fill="#1D8A79"/>
</svg>
