<svg width="21" height="21" viewBox="0 0 21 21" fill="none" xmlns="http://www.w3.org/2000/svg">
<path d="M9.21583 2.17223H10.947V6.13334H9.21583V2.17223Z" fill="#1D8A79"/>
<path d="M9.21583 15.2611H10.947V19.2222H9.21583V15.2611Z" fill="#1D8A79"/>
<path d="M13.5437 3.21779L14.7678 2L19.9934 7.19866L18.7693 8.41645L13.5437 3.21779Z" fill="#1D8A79"/>
<path d="M5.30023 2.1385L6.52434 3.3563L1.43794 8.41646L0.213829 7.19866L5.30023 2.1385Z" fill="#1D8A79"/>
<path d="M6.35122 17.7379L5.12711 18.9557L0.0407101 13.8956L1.26482 12.6778L6.35122 17.7379Z" fill="#1D8A79"/>
<path d="M14.7678 18.9557L13.5437 17.7379L18.6301 12.6778L19.8542 13.8956L14.7678 18.9557Z" fill="#1D8A79"/>
<path d="M9.91404 17.2063L8.68993 15.9885L18.7693 5.96111L19.9934 7.1789L9.91404 17.2063Z" fill="#1D8A79"/>
<path d="M8.80529 5.04826L10.0294 3.83047L20 13.7496L18.7759 14.9674L8.80529 5.04826Z" fill="#1D8A79"/>
<path d="M9.77389 4.06667L10.998 5.28446L1.22411 15.0079L0 13.7901L9.77389 4.06667Z" fill="#1D8A79"/>
<path d="M11.0387 15.8568L9.8146 17.0746L0.0407073 7.35112L1.26482 6.13333L11.0387 15.8568Z" fill="#1D8A79"/>
</svg>
