<svg width="40" height="41" viewBox="0 0 40 41" fill="none" xmlns="http://www.w3.org/2000/svg">
<path fill-rule="evenodd" clip-rule="evenodd" d="M17.5383 1.50003V2.57695L22.4614 2.57695V1.50003L17.5383 1.50003ZM16.5383 0.500031V1.50003V2.57695C16.5383 3.12924 16.986 3.57695 17.5383 3.57695H17.8428L17.0531 13.3856L9.55889 7.00825L9.77414 6.793C10.1647 6.40248 10.1647 5.76931 9.77414 5.37879L9.01264 4.61729L8.30553 3.91018L7.59842 4.61729L4.11728 8.09843L3.41018 8.80554L4.11728 9.51264L4.87878 10.2741C5.26931 10.6647 5.90247 10.6647 6.293 10.2741L6.50831 10.0588L12.8761 17.5418L3.07668 18.3429V18.0385C3.07668 17.4862 2.62896 17.0385 2.07668 17.0385H0.999756H-0.000244141V18.0385V22.9615V23.9615H0.999756H2.07668C2.62896 23.9615 3.07668 23.5138 3.07668 22.9615V22.6572L12.8611 23.457L6.50813 30.9411L6.29289 30.7259C5.90236 30.3353 5.2692 30.3353 4.87867 30.7259L4.11717 31.4874L3.41007 32.1945L4.11717 32.9016L7.59831 36.3827L8.30542 37.0898L9.01253 36.3827L9.77403 35.6212C10.1646 35.2307 10.1646 34.5975 9.77403 34.207L9.55885 33.9918L17.0429 27.6388L17.8427 37.4231H17.5383C16.986 37.4231 16.5383 37.8708 16.5383 38.4231V39.5V40.5H17.5383H22.4614H23.4614V39.5V38.4231C23.4614 37.8708 23.0137 37.4231 22.4614 37.4231H22.1571L22.9569 27.6386L30.4411 33.9917L30.2258 34.207C29.8353 34.5975 29.8353 35.2307 30.2258 35.6212L30.9873 36.3827L31.6944 37.0898L32.4015 36.3827L35.8827 32.9015L36.5898 32.1944L35.8827 31.4873L35.1212 30.7258C34.7307 30.3353 34.0975 30.3353 33.707 30.7258L33.4918 30.941L27.1292 23.4456L36.9228 22.6571V22.9615C36.9228 23.5138 37.3705 23.9615 37.9228 23.9615H38.9997H39.9997V22.9615V18.0384V17.0384H38.9997H37.9228C37.3705 17.0384 36.9228 17.4862 36.9228 18.0384V18.343L27.1142 17.5532L33.4916 10.0589L33.7068 10.2742C34.0974 10.6647 34.7305 10.6647 35.1211 10.2742L35.8826 9.51267L36.5897 8.80556L35.8826 8.09845L32.4014 4.61731L31.6943 3.91021L30.9872 4.61731L30.2257 5.37881C29.8352 5.76934 29.8352 6.4025 30.2257 6.79303L30.441 7.00834L22.9467 13.3858L22.157 3.57695H22.4614C23.0137 3.57695 23.4614 3.12924 23.4614 2.57695V1.50003V0.500031H22.4614H17.5383H16.5383ZM7.21771 9.34943L8.8495 7.71765L16.9542 14.6145L16.9474 14.6989C17.3106 14.5226 17.6913 14.3768 18.0863 14.2648L17.992 14.1846L18.8461 3.57696L21.1538 3.57696L22.0078 14.1847L21.9137 14.2648C22.3086 14.3768 22.6893 14.5226 23.0525 14.6988L23.0457 14.6146L31.1504 7.71774L32.7822 9.34953L25.9742 17.3499C26.1983 17.7159 26.3897 18.1042 26.5444 18.5106L36.9228 19.3462V21.6539L26.8464 22.4652C26.7298 23.0128 26.5491 23.5368 26.3126 24.0289L32.7823 31.6505L31.1506 33.2823L23.6902 26.9494C23.1531 27.2833 22.5675 27.5464 21.9464 27.7258L21.1538 37.4231H18.8461L18.0534 27.7258C17.4323 27.5463 16.8468 27.2832 16.3098 26.9494L8.84936 33.2824L7.21757 31.6506L13.6874 24.0289C13.4527 23.5406 13.273 23.0209 13.1563 22.4778L3.07668 21.6539V19.3462L13.4606 18.4974C13.6144 18.0958 13.8041 17.712 14.0258 17.3499L7.21771 9.34943ZM9.06703 6.08589L8.79485 6.35808L8.14239 7.01054L6.51061 8.64233L5.85814 9.29479L5.58589 9.56703L4.82439 8.80554L8.30553 5.32439L9.06703 6.08589ZM34.1411 31.7059L33.4894 32.3576L31.8577 33.9894L31.206 34.641L30.9329 34.9141L31.6944 35.6756L35.1756 32.1944L34.4141 31.4329L34.1411 31.7059ZM31.2051 6.35817L31.8575 7.01064L33.4893 8.64242L34.1418 9.29488L34.414 9.56706L35.1755 8.80556L31.6943 5.32442L30.9328 6.08592L31.2051 6.35817ZM5.58578 31.433L5.8588 31.706L6.51046 32.3577L8.14225 33.9895L8.79391 34.6411L9.06692 34.9141L8.30542 35.6756L4.82428 32.1945L5.58578 31.433ZM2.07668 18.4246L2.07664 18.4246V19.3462V21.6539V22.5755L2.07668 22.5755V22.9615L0.999756 22.9615V18.0385H2.07668V18.4246ZM17.9245 38.4231L17.9245 38.4231H17.5383V39.5H22.4614V38.4231H22.0754L22.0754 38.4231H21.1538H18.8461H17.9245ZM37.9228 18.0384H38.9997V22.9615H37.9228V18.0384Z" fill="#1D8A79"/>
</svg>
