<svg width="20" height="21" viewBox="0 0 20 21" fill="none" xmlns="http://www.w3.org/2000/svg">
<g clip-path="url(#clip0_15944_154629)">
<path d="M20.7917 17.887H2.875V1.63704C2.875 1.52246 2.78125 1.42871 2.66667 1.42871H1.20833C1.09375 1.42871 1 1.52246 1 1.63704V19.5537C1 19.6683 1.09375 19.762 1.20833 19.762H20.7917C20.9062 19.762 21 19.6683 21 19.5537V18.0954C21 17.9808 20.9062 17.887 20.7917 17.887ZM4.75 16.2204H18.7083C18.8229 16.2204 18.9167 16.1266 18.9167 16.012V4.65788C18.9167 4.47038 18.6901 4.37923 18.5599 4.50944L13.0833 9.986L9.81771 6.75684C9.77855 6.71806 9.72568 6.69632 9.67057 6.69632C9.61547 6.69632 9.56259 6.71806 9.52344 6.75684L4.60156 11.6943C4.58245 11.7135 4.56731 11.7362 4.55703 11.7613C4.54675 11.7863 4.54153 11.8131 4.54167 11.8402V16.012C4.54167 16.1266 4.63542 16.2204 4.75 16.2204Z" fill="#1D8A79"/>
</g>
<defs>
<clipPath id="clip0_15944_154629">
<rect width="20" height="20" fill="white" transform="translate(0 0.428711)"/>
</clipPath>
</defs>
</svg>
