<svg width="20" height="17" viewBox="0 0 20 17" fill="none" xmlns="http://www.w3.org/2000/svg">
<path fill-rule="evenodd" clip-rule="evenodd" d="M13.4912 0.483396C13.0635 0.510788 12.6279 0.607317 12.2307 0.762711C12.1689 0.786893 12.0424 0.843467 11.9497 0.888422C11.4077 1.15116 10.9383 1.52372 10.5601 1.99133C9.83414 2.88881 9.52629 4.05187 9.71372 5.18888C9.72268 5.24329 9.73717 5.32039 9.7459 5.36021C9.75465 5.40003 9.76179 5.43591 9.76179 5.43993C9.76179 5.44846 9.65442 5.44301 9.38443 5.4208C7.23603 5.24404 5.17719 4.46996 3.44304 3.18696C2.71758 2.65022 2.0227 1.99476 1.44951 1.30651C1.41018 1.25929 1.3756 1.22066 1.37265 1.22066C1.3697 1.22066 1.33602 1.27906 1.2978 1.35044C0.712262 2.44407 0.662724 3.74165 1.16297 4.88231C1.45543 5.54917 1.94463 6.14622 2.53979 6.56265C2.57954 6.59046 2.6146 6.61549 2.61771 6.61829C2.62583 6.62559 2.43091 6.61392 2.29893 6.59921C1.82382 6.54626 1.35302 6.40555 0.922756 6.18793L0.783037 6.11726L0.788007 6.2984C0.820741 7.49245 1.38545 8.60203 2.3471 9.36189C2.46044 9.45145 2.72675 9.62806 2.86095 9.70266C3.08772 9.82872 3.35705 9.94578 3.60362 10.0254C3.72493 10.0646 3.98564 10.1332 4.01324 10.1332C4.04386 10.1332 4.02879 10.1465 3.987 10.1564C3.39932 10.2953 2.88647 10.3175 2.32872 10.2281C2.27004 10.2187 2.22025 10.2128 2.21808 10.215C2.21185 10.2212 2.28724 10.4292 2.34332 10.5605C2.68801 11.3676 3.29838 12.0497 4.06999 12.4901C4.62847 12.8088 5.24113 12.9861 5.90987 13.0226L6.01218 13.0282L5.86571 13.1368C5.45014 13.4448 5.07941 13.672 4.61526 13.903C3.69795 14.3597 2.69068 14.642 1.66866 14.7288C1.17605 14.7706 0.577778 14.7647 0.107348 14.7134C0.0501184 14.7071 0.00186466 14.7034 0.000122386 14.7052C-0.00805104 14.7133 0.395016 14.9544 0.654133 15.0964C2.18515 15.9354 3.86154 16.4099 5.63494 16.5063C6.06452 16.5296 6.66102 16.5246 7.1243 16.4937C9.70954 16.3213 12.0287 15.3694 13.8889 13.7172C14.7041 12.993 15.4082 12.1559 16.0097 11.1954C16.4015 10.5698 16.7702 9.82827 17.0383 9.12694C17.4581 8.02861 17.7104 6.9116 17.7943 5.78076C17.8167 5.4783 17.8249 5.18452 17.821 4.82394L17.8173 4.47008L17.9505 4.36947C18.5338 3.92901 19.0399 3.43337 19.4859 2.86581C19.6411 2.66833 19.8436 2.3845 19.8321 2.38068C19.8284 2.37944 19.7912 2.3932 19.7494 2.41125C19.2346 2.63384 18.6232 2.81924 18.0557 2.92486C17.8634 2.96064 17.526 3.01142 17.5194 3.00558C17.5181 3.00445 17.5343 2.99349 17.5555 2.98124C17.6814 2.90838 17.9206 2.73418 18.0717 2.6053C18.1914 2.50324 18.4003 2.29557 18.5005 2.179C18.7783 1.85606 19.0103 1.48294 19.1746 1.09466C19.2207 0.985709 19.2945 0.781127 19.2894 0.776112C19.2878 0.774451 19.2416 0.798777 19.1869 0.830178C18.4904 1.22978 17.7038 1.5329 16.8995 1.71171L16.7108 1.75365L16.5823 1.62891C15.8874 0.954092 14.9962 0.556445 14.0211 0.486119C13.9191 0.478756 13.59 0.477071 13.4912 0.483396Z" fill="#1D8A79"/>
</svg>
