<svg width="26" height="40" viewBox="0 0 26 40" xmlns="http://www.w3.org/2000/svg">
<path d="M20.5397 1.19739L4.72487 39.0187C4.72487 39.0187 -10.3384 11.2729 20.5397 1.19739Z" fill="currentColor"/>
<path d="M4.75726 39.53L4.53179 39.0948C4.46737 38.9751 -1.99597 26.854 2.3845 15.7992C5.0042 9.04227 11.1025 4.04803 20.4754 1.01232L20.9371 0.859985L4.75726 39.53ZM20.1533 1.56723C11.1777 4.59206 5.30482 9.44486 2.74954 15.9842C-1.0619 25.7006 3.62993 36.2875 4.70358 38.4963L20.1533 1.56723Z" fill="currentColor"/>
<path d="M8.14966 36.7446L19.2619 9.71692C19.2619 9.71692 37.5139 25.4722 8.14966 36.7446Z" fill="currentColor"/>
<path d="M7.75269 37.1254L19.2622 9.36877L19.4984 9.56463C19.5628 9.62991 26.1979 15.4728 24.9847 22.5344C23.9647 28.2141 18.3388 33.0561 8.22509 36.9187L7.75269 37.1254ZM19.3803 10.1195L8.52571 36.342C18.1885 32.5664 23.5568 27.8768 24.5016 22.4583C25.543 16.3759 20.5183 11.1967 19.3803 10.1195Z" fill="currentColor"/>
</svg>
