<svg width="25" height="39" viewBox="0 0 25 39" fill="none" xmlns="http://www.w3.org/2000/svg">
<path d="M15.6641 15.045L15.9863 14.2258C16.4052 13.2073 16.8133 12.1777 17.2322 11.1592C17.8015 9.76428 18.3708 8.3583 18.9508 6.96339L20.6371 2.81187L20.9916 1.94835C20.9959 1.9255 21.0048 1.90383 21.0178 1.88476C21.0307 1.86569 21.0474 1.84964 21.0668 1.83765C21.0668 1.99264 21.0668 2.12548 21.1312 2.2694C21.1957 2.7233 21.2494 3.1772 21.3138 3.6311L21.5394 5.23636L21.7327 6.56484L21.9583 8.20331C22.0549 8.85648 22.1516 9.49858 22.2375 10.1518L22.4631 11.7791C22.5168 12.1223 22.5598 12.4545 22.6135 12.7977C22.6672 13.1408 22.7316 13.6833 22.7961 14.1261C22.8605 14.569 22.8927 14.7904 22.9357 15.1225C23.0109 15.6871 23.0861 16.2296 23.172 16.7942L23.3653 18.1227C23.4405 18.6541 23.505 19.2297 23.5802 19.7168C23.6553 20.204 23.6983 20.5582 23.7628 20.9789L23.9561 22.3738C24.0313 22.9163 24.1172 23.4809 24.1924 23.9901C24.1924 24.1451 24.1924 24.3001 24.2461 24.4551C24.2998 24.6101 24.2461 24.5215 24.2461 24.5437C24.0872 24.4132 23.9431 24.2646 23.8165 24.1008L22.0335 22.1192C21.3031 21.2889 20.5619 20.4697 19.8208 19.6394L18.0271 17.6466C17.286 16.8274 16.5663 15.9971 15.8252 15.1889C15.7741 15.1379 15.7203 15.0899 15.6641 15.045Z" fill="#343434"/>
<path d="M15.6643 15.045C15.6643 15.045 15.7395 15.045 15.7717 15.045L16.6632 16.0414L17.4365 16.9049L18.4354 18.012L19.0906 18.7427L19.8103 19.5398L20.3688 20.1597L21.6577 21.5989L22.2592 22.2631C22.517 22.5399 22.7641 22.8278 23.0218 23.1156L23.72 23.8905L24.2248 24.4551C24.2363 24.4873 24.2363 24.5226 24.2248 24.5548L23.2796 24.6876L21.9155 24.8758L20.5192 25.0751L19.1229 25.2744L17.4795 25.4958L16.5021 25.6951L15.0735 25.8943L13.7846 26.0825L12.2594 26.2929L11.0994 26.4589H11.0457C11.0457 26.4589 11.0457 26.3815 11.0457 26.3372L12.3346 23.1931L13.8061 19.573L15.5246 15.355C15.5616 15.2474 15.6083 15.1436 15.6643 15.045Z" fill="#141414"/>
<path d="M23.3763 26.6583L6.55597 37.419C6.54719 37.406 6.54248 37.3905 6.54248 37.3747C6.54248 37.3589 6.54719 37.3434 6.55597 37.3304C7.27203 35.5517 7.98809 33.7693 8.70416 31.9833L10.0683 28.662C10.0815 28.616 10.1082 28.5754 10.1448 28.5457C10.1813 28.5159 10.2259 28.4986 10.2723 28.496L12.5387 28.186L14.558 27.9092L16.7062 27.6103L18.4355 27.3225L20.4333 27.0457L22.1304 26.8022L23.3656 26.6361L23.3763 26.6583Z" fill="#3C3C3C"/>
<path d="M19.3482 0.387451L3.83827 38.0943C3.83827 38.0943 -10.9198 10.4397 19.3482 0.387451Z" fill="#010101"/>
<path d="M3.87049 38.67L3.63419 38.2161C3.56974 38.0943 -2.8104 26.0383 1.48599 14.9676C4.10679 8.2034 10.0788 3.21051 19.2838 0.166061L19.7886 0L3.87049 38.67ZM18.9079 0.797091C10.154 3.8194 4.47198 8.63516 1.93711 15.1447C-1.76852 24.743 2.72121 35.1827 3.81678 37.5076L18.9079 0.797091Z" fill="#010101"/>
</svg>
