<svg xmlns="http://www.w3.org/2000/svg" width="39" height="39" fill="none"><path fill="#00F" d="m16.3 23.5-2.9.6-.4-1.4 3.2-.5.1 1.3Zm-2.9.6-2.6.9-.5-1.5 2.7-.8.4 1.4Z"/><path fill="#0028FF" d="m16.1 22.2-3 .5-.4-1.6 3.3-.5.1 1.6Z"/><path fill="#0018FF" d="m13 22.7-2.7.8-.5-1.6 3-.8.2 1.6Z"/><path fill="#0000F1" d="m16.5 24.5-2.7.7-.4-1.1 3-.6.1 1Z"/><path fill="#0000DA" d="m13.8 25.2-2.4 1-.6-1.2 2.6-.9.4 1.1Z"/><path fill="#0058FF" d="m16 20.6-3.3.5-.3-1.8 3.4-.3.2 1.6Z"/><path fill="#0048FF" d="m12.7 21.1-2.9.8-.4-1.9 3-.7.3 1.8Z"/><path fill="#0014FF" d="m19.5 23-3.2.5-.1-1.3 3.3-.4V23Z"/><path fill="#0000DA" d="m16.7 25.3-2.5.7-.4-.8 2.7-.7.2.8Z"/><path fill="#0000E8" d="m10.8 25-2 1-.8-1.4 2.3-1 .5 1.4Z"/><path fill="#0000C4" d="m14.2 26-2.1 1-.7-.9 2.4-.9.4.8Z"/><path fill="#003CFF" d="m19.5 21.8-3.3.4-.2-1.6 3.5-.2v1.4Z"/><path fill="#0008FF" d="m10.3 23.5-2.3 1-.6-1.7 2.4-1 .5 1.7Z"/><path fill="#00F" d="m19.5 24-3 .5-.2-1 3.2-.5v1Z"/><path fill="#0000C8" d="m11.4 26.1-1.8 1.1-.8-1.2 2-1 .6 1.1Z"/><path fill="#0090FF" d="m15.8 19-3.4.3-.2-1.9 3.5-.3.1 1.9Z"/><path fill="#0084FF" d="m12.4 19.3-3 .7-.4-2 3.2-.6.2 2Z"/><path fill="#0068FF" d="m19.5 20.4-3.5.2-.2-1.6 3.7-.2v1.6Z"/><path fill="#003CFF" d="m9.8 21.9-2.4 1-.6-2 2.6-.9.4 1.9Z"/><path fill="#0000F6" d="m19.6 24.7-2.9.6-.2-.8 3-.5v.7Z"/><path fill="#0000D1" d="m17 25.7-2.4.8-.4-.5 2.5-.7.2.4Z"/><path fill="#0000AD" d="M12 27 10.5 28l-.8-.9 1.8-1 .7.8Z"/><path fill="#00B" d="m14.6 26.5-2 1-.5-.5 2.1-1 .4.5Z"/><path fill="#009CFF" d="m19.5 18.8-3.7.2V17h3.7v1.7Z"/><path fill="#0078FF" d="m9.4 20-2.6 1-.5-2.2L9 18l.4 2Z"/><path fill="#0000ED" d="m19.6 25.1-2.7.6-.2-.4 2.9-.6v.4Z"/><path fill="#0CF" d="m15.7 17.1-3.5.3-.2-2 3.7-.2v2Z"/><path fill="#002CFF" d="m22.9 22.8-3.4.2v-1.2l3.5-.1-.1 1.1Z"/><path fill="#00C4FF" d="M12.2 17.4 9 18l-.3-2.2 3.3-.4.2 2Z"/><path fill="#0014FF" d="m22.7 23.7-3.2.3v-1l3.4-.2-.2.9Z"/><path fill="#0050FF" d="m23 21.7-3.5.1v-1.4h3.6l-.1 1.3Z"/><path fill="#0000DA" d="m8.8 26-1.6 1.3-1-1.5L8 24.6l.8 1.4Z"/><path fill="#00F" d="m8 24.6-1.7 1.2-.8-1.8 1.9-1.2.6 1.8Z"/><path fill="#0000A4" d="m12.7 27.5-1.5 1.1-.8-.5L12 27l.6.5Z"/><path fill="#0000B6" d="M9.6 27.2 8 28.5l-1-1.2L8.9 26l.8 1.2Z"/><path fill="#0000D6" d="m17.1 26-2 .7-.5-.2 2.3-.8.2.2Z"/><path fill="#0004FF" d="m22.6 24.3-3 .4V24l3.1-.3-.1.6Z"/><path fill="#0078FF" d="M23.1 20.4h-3.6v-1.6l3.7.1v1.5Z"/><path fill="#0000BF" d="m15 26.7-1.7 1-.6-.2 2-1 .3.2Z"/><path fill="#00D8FF" d="M19.5 17.1h-3.8v-2l3.8.2V17Z"/><path fill="#0034FF" d="m7.4 22.8-2 1.2-.7-2 2-1 .7 1.8Z"/><path fill="#0000F1" d="m19.6 25.3-2.4.6-.3-.2 2.7-.6v.2Z"/><path fill="#00009F" d="m10.4 28.1-1.2 1.3-1-1 1.4-1.2.8.9Z"/><path fill="#00BCFF" d="m9 18-2.7.8-.3-2.2 2.7-.8L9 18Z"/><path fill="#00F" d="m22.4 24.7-2.8.4v-.4l3-.4-.2.4Z"/><path fill="#23FFD4" d="m15.7 15.2-3.7.2-.1-2.1 3.7-.1v2Z"/><path fill="#00ACFF" d="m23.2 19-3.7-.2v-1.7l3.8.2V19Z"/><path fill="#1CFFDB" d="m12 15.4-3.2.4-.2-2.1 3.3-.4.1 2Z"/><path fill="#0000AD" d="M13.3 27.7 12 28.8l-.8-.2 1.5-1 .6.1Z"/><path fill="#0070FF" d="m6.8 21-2 1-.6-2 2.1-1.2.5 2.1Z"/><path fill="#0000E8" d="m17.4 25.8-2 .8-.4.1 2.2-.8.2-.1Z"/><path fill="#000096" d="m11.2 28.6-1 1.3-1-.5 1.2-1.3.8.5Z"/><path fill="#26FFD1" d="m19.5 15.3-3.8-.1-.1-2 4 .2-.1 1.9Z"/><path fill="#00F" d="m22.3 24.8-2.7.5V25l2.8-.4-.1.1Z"/><path fill="#04F" d="M26.2 22.8h-3.3l.1-1h3.4l-.2 1Z"/><path fill="#002CFF" d="m25.9 23.6-3.2.1.2-.9h3.3l-.3.8Z"/><path fill="#0000D1" d="m15.4 26.6-1.5 1-.6.1 1.7-1 .4-.1Z"/><path fill="#00E0FB" d="m23.3 17.3-3.8-.2v-1.8l4 .3-.2 1.7Z"/><path fill="#00F" d="m19.6 25.1-2.2.7-.2.1 2.4-.6V25Z"/><path fill="#0064FF" d="m26.4 21.8-3.4-.1.1-1.3 3.6.2-.3 1.2Z"/><path fill="#19FFDE" d="m8.8 15.8-2.8.8-.3-2.2 2.9-.7.2 2.1Z"/><path fill="#001CFF" d="m25.6 24.1-3 .2.1-.6 3.2-.1-.3.5Z"/><path fill="#0000D1" d="M7.2 27.3 6 28.7l-1-1.5 1.2-1.4.9 1.5Z"/><path fill="#0000A8" d="m8.1 28.5-1 1.4-1-1.2 1-1.4 1 1.2Z"/><path fill="#5AFF9D" d="M15.6 13.2h-3.7v-2h3.7v2Z"/><path fill="#008CFF" d="m26.7 20.6-3.6-.2.1-1.5 3.7.3-.2 1.4Z"/><path fill="#00F" d="M6.3 25.8 5 27.2l-1-1.8L5.6 24l.8 1.8Z"/><path fill="#00B8FF" d="M6.3 18.8 4.2 20l-.5-2.2 2.3-1 .3 2.1Z"/><path fill="#5AFF9D" d="m11.9 13.3-3.3.4-.1-2.2 3.4-.3v2Z"/><path fill="#0018FF" d="m25.3 24.5-2.9.2.2-.4 3-.2-.3.4Z"/><path fill="#0000BF" d="m14 27.6-1.1 1-.9.2 1.3-1.1.6-.1Z"/><path fill="#00009B" d="m12 28.8-.8 1.3-1-.2 1-1.3.8.2Z"/><path fill="#000092" d="m9.2 29.4-.8 1.3-1.2-.8 1-1.4 1 .9Z"/><path fill="#000CFF" d="m22.1 24.6-2.5.5v.2l2.7-.5-.2-.2Z"/><path fill="#002CFF" d="M5.5 24 4 25.4l-.9-2 1.5-1.3.8 2Z"/><path fill="#5DFF9A" d="m19.5 13.4-3.9-.2v-2l4 .3v2Z"/><path fill="#2CFFCA" d="m23.4 15.6-3.9-.3v-1.9l4 .5v1.7Z"/><path fill="#00B8FF" d="m26.9 19.2-3.7-.3.1-1.6 3.8.5-.2 1.4Z"/><path fill="#00F" d="m17.5 25.3-1.7.8-.4.5 2-.8.1-.5Z"/><path fill="#000CFF" d="m19.6 24.7-2 .6-.2.5 2.2-.7v-.4Z"/><path fill="#0018FF" d="m25 24.5-2.7.3h.1l2.9-.3H25Z"/><path fill="#0000F1" d="m15.8 26.1-1.3 1-.6.5 1.5-1 .4-.5Z"/><path fill="#56FFA0" d="m8.6 13.7-2.9.7V12l2.8-.6v2.2Z"/><path fill="#000089" d="m10.2 29.9-.6 1.3-1.2-.5.8-1.3 1 .5Z"/><path fill="#006CFF" d="m4.7 22-1.5 1.4-.6-2.1 1.6-1.4.5 2.2Z"/><path fill="#16FFE1" d="m6 16.6-2.3 1-.3-2.3 2.3-1 .3 2.3Z"/><path fill="#06ECF1" d="m27 17.8-3.7-.5.1-1.7 3.8.6-.1 1.6Z"/><path fill="#94FF63" d="M15.6 11.2h-3.7v-2h3.7v2Z"/><path fill="#0024FF" d="m22 24.2-2.4.5v.4l2.5-.5-.1-.4Z"/><path fill="#0000AD" d="m12.9 28.7-.7 1.2-1 .2.8-1.3.9-.1Z"/><path fill="#04F" d="M28.8 23.6h-3l.4-.8 3 .1-.4.7Z"/><path fill="#005CFF" d="m29.2 23-3-.2.2-1 3.2.2-.4 1Z"/><path fill="#5DFF9A" d="m23.5 13.9-4-.5v-1.9l4 .6V14Z"/><path fill="#94FF63" d="m11.9 11.2-3.4.3V9.3l3.4-.2v2Z"/><path fill="#0028FF" d="m24.7 24.3-2.6.3.2.2 2.7-.3-.3-.2Z"/><path fill="#0000DF" d="m14.5 27-.9 1.1-.7.6 1-1.1.6-.5Z"/><path fill="#0038FF" d="M28.4 24.1h-2.8l.3-.5h3l-.5.5Z"/><path fill="#0078FF" d="m29.6 22-3.2-.2.3-1.2 3.2.3-.3 1.1Z"/><path fill="#90FF66" d="m19.5 11.5-4-.3v-2l4 .5v1.8Z"/><path fill="#00008D" d="m11.2 30-.4 1.4-1.2-.2.6-1.3 1 .2Z"/><path fill="#001CFF" d="m17.7 24.5-1.5.8-.4.8 1.7-.8.2-.8Z"/><path fill="#0034FF" d="M28 24.4h-2.7l.3-.3h2.8l-.4.3Z"/><path fill="#0030FF" d="m19.7 24-2 .5-.2.8 2.1-.6v-.8Z"/><path fill="#00A0FF" d="m30 21-3.3-.4.2-1.4 3.3.5L30 21Z"/><path fill="#33FFC4" d="m27.2 16.2-3.8-.6V14l3.9.7-.1 1.6Z"/><path fill="#00B0FF" d="m4.2 20-1.6 1.3L2 19l1.7-1.3.5 2.2Z"/><path fill="#0000C8" d="m6 28.7-.6 1.5-1.2-1.5.8-1.5 1 1.5Z"/><path fill="#0000A4" d="m7.2 29.9-.5 1.4-1.3-1.1.7-1.5 1.1 1.2Z"/><path fill="#0008FF" d="m16.2 25.3-1.2 1-.5.8 1.3-1 .4-.8Z"/><path fill="#00F" d="m5 27.2-.8 1.5-1-1.8.9-1.5 1 1.8Z"/><path fill="#94FF63" d="m8.5 11.5-2.9.6V9.9l3-.6-.1 2.2Z"/><path fill="#0034FF" d="m27.6 24.4-2.6.1h.3l2.7-.1h-.4Z"/><path fill="#003CFF" d="m24.5 23.9-2.5.3.1.4 2.6-.3-.2-.4Z"/><path fill="#56FFA0" d="m5.7 14.4-2.3 1-.1-2.4 2.3-1 .1 2.4Z"/><path fill="#000089" d="M8.4 30.7 8 32.1l-1.3-.8.5-1.4 1.2.8Z"/><path fill="#04F" d="m21.9 23.5-2.2.4v.8l2.3-.5-.1-.7Z"/><path fill="#00C8FF" d="m30.2 19.7-3.3-.5.2-1.4 3.4.6-.3 1.3Z"/><path fill="#90FF66" d="m23.5 12.1-4-.6V9.7l4 .7v1.7Z"/><path fill="#CAFF2C" d="M15.6 9.3 11.9 9V7.2l3.7.2v1.9Z"/><path fill="#0000CD" d="m13.6 28.1-.4 1.2-1 .6.7-1.2.7-.6Z"/><path fill="#0028FF" d="M4 25.4 3.3 27l-1-2 1-1.5.9 2Z"/><path fill="#CEFF29" d="m11.9 9.1-3.4.2.1-2 3.4-.1-.1 2Z"/><path fill="#C7FF30" d="m19.5 9.7-4-.4.1-1.9 4 .6v1.7Z"/><path fill="#00009F" d="M12.2 29.9 12 31l-1.1.3.4-1.3 1-.2Z"/><path fill="#60FF97" d="m27.3 14.6-3.8-.7V12l3.9.8-.1 1.7Z"/><path fill="#0040FF" d="m27.2 24.2-2.5.1.3.2h2.6l-.4-.3Z"/><path fill="#00F" d="m15 26.2-.7 1-.7 1 .9-1.1.5-.9Z"/><path fill="navy" d="m9.6 31.2-.3 1.4-1.3-.5.4-1.4 1.2.5Z"/><path fill="#16FFE1" d="M3.7 17.7 2 19l-.3-2.4 1.7-1.3.3 2.4Z"/><path fill="#0FF8E7" d="m30.5 18.4-3.4-.6.1-1.6 3.5.7-.2 1.5Z"/><path fill="#0058FF" d="m19.7 23-1.8.5-.2 1 2-.6v-1Z"/><path fill="#0048FF" d="m17.9 23.5-1.4.7-.3 1.1 1.5-.8.2-1Z"/><path fill="#0058FF" d="m24.2 23.2-2.3.3v.7l2.6-.3-.3-.7Z"/><path fill="#0068FF" d="m3.2 23.4-1 1.6-.7-2.2 1-1.5.7 2.1Z"/><path fill="#0060FF" d="m31.4 23.8-2.6-.2.4-.7 2.7.3-.5.6Z"/><path fill="#0054FF" d="M31 24.2h-2.6l.4-.6 2.6.2-.5.4Z"/><path fill="#0074FF" d="m31.9 23.2-2.7-.3.4-.9 2.7.4-.4.8Z"/><path fill="#006CFF" d="m21.8 22.5-2.1.4v1l2.2-.4-.1-1Z"/><path fill="#0038FF" d="m16.5 24.2-1 .9-.5 1.1 1.2-.9.3-1.1Z"/><path fill="#0054FF" d="m26.9 23.7-2.4.2.2.4 2.5-.1-.3-.5Z"/><path fill="#C1FF36" d="m23.5 10.4-4-.7V8l4 .8v1.6Z"/><path fill="#000084" d="m10.8 31.4-.1 1.3H9.3l.3-1.5 1.2.2Z"/><path fill="#97FF60" d="m5.6 12-2.3 1v-2.3l2.3-.8V12Z"/><path fill="#004CFF" d="M30.4 24.4H28l.4-.3 2.5.1-.5.2Z"/><path fill="#D1FF26" d="m8.5 9.3-2.9.6.2-2.1 2.8-.5v2Z"/><path fill="#0090FF" d="m32.3 22.4-2.7-.4.3-1 2.9.4-.5 1Z"/><path fill="#36FFC1" d="m30.7 17-3.5-.8.1-1.6 3.5.8-.1 1.5Z"/><path fill="#8DFF6A" d="m27.4 13-3.9-.9v-1.7l3.9 1v1.5Z"/><path fill="#FFEA00" d="M15.6 7.4 12 7.2l.1-1.8 3.6.3v1.7Z"/><path fill="#00F" d="m14.3 27.3-.3 1.1-.8 1 .4-1.3.7-.8Z"/><path fill="#0050FF" d="M30 24.4h-2.4 2.8-.4Z"/><path fill="#0000C4" d="m13.2 29.3-.2 1.2-1 .6.2-1.2 1-.6Z"/><path fill="#00B0FF" d="m32.8 21.4-2.9-.5.3-1.2 3 .6-.4 1.1Z"/><path fill="#FBF100" d="m19.5 8-3.9-.6.1-1.7 3.9.7V8Z"/><path fill="#0080FF" d="m24 22.3-2.2.2v1l2.4-.3-.2-1Z"/><path fill="#FFE200" d="m12 7.2-3.4.1.3-1.9H12L12 7.2Z"/><path fill="#53FFA4" d="m3.4 15.3-1.7 1.3-.2-2.4L3.3 13l.1 2.3Z"/><path fill="#00B0FF" d="m2.6 21.3-1.1 1.5-.6-2.3L2 19l.6 2.3Z"/><path fill="#002CFF" d="m15.5 25-.6 1-.6 1.3.7-1 .5-1.2Z"/><path fill="#0070FF" d="m26.5 23-2.3.2.3.7 2.4-.2-.4-.6Z"/><path fill="#00009F" d="m6.7 31.3-.1 1.4-1.4-1.1.2-1.4 1.3 1.1Z"/><path fill="#0000C8" d="m5.4 30.2-.2 1.4L4 30l.2-1.4 1.2 1.5Z"/><path fill="#008CFF" d="m19.7 21.6-1.7.6-.1 1.3 1.8-.6v-1.3Z"/><path fill="#005CFF" d="M29.5 24.2h-2.3l.4.2H30l-.5-.2Z"/><path fill="#007CFF" d="m18 22.2-1.3.6-.2 1.4 1.4-.7.1-1.3Z"/><path fill="#00D8FF" d="m33.1 20.3-2.9-.6.3-1.3 3 .7-.4 1.2Z"/><path fill="#000089" d="M8 32.1v1.4l-1.4-.8v-1.4l1.4.8Z"/><path fill="#00009B" d="M12 31.1v1.3l-1.3.3v-1.3L12 31Z"/><path fill="#63FF94" d="m30.8 15.4-3.5-.8v-1.7l3.6 1-.1 1.5Z"/><path fill="#0000FA" d="M4.2 28.7 4 30l-1-1.7.2-1.5 1 1.8Z"/><path fill="#009CFF" d="m21.7 21.3-2 .3V23l2-.4v-1.2Z"/><path fill="#F1FC06" d="m23.5 8.8-4-.8V6.4l4 .9v1.5Z"/><path fill="#BEFF39" d="m27.4 11.4-3.9-1V8.8l3.8 1v1.6Z"/><path fill="#0070FF" d="m16.7 22.8-.8.8-.4 1.5 1-.9.2-1.4Z"/><path fill="navy" d="M9.3 32.6V34L8 33.5v-1.4l1.4.5Z"/><path fill="#006CFF" d="M29 23.7H27l.3.5h2.3l-.5-.5Z"/><path fill="#D4FF23" d="m5.6 9.9-2.3.8.2-2.1 2.3-.8-.2 2Z"/><path fill="#19FFDE" d="m33.4 19.1-3-.7.3-1.5 3 .9-.3 1.3Z"/><path fill="#FFDB00" d="m8.6 7.3-2.8.5.3-2 2.8-.4-.3 2Z"/><path fill="#0024FF" d="m3.2 27-.3 1.4-1-2 .4-1.4.9 2Z"/><path fill="#0094FF" d="M26.3 22.2H24l.2 1 2.3-.1-.2-.9Z"/><path fill="#00ACFF" d="m23.9 21.1-2.2.2v1.2l2.3-.2L24 21Z"/><path fill="#FFB200" d="m15.7 5.7-3.6-.3.2-1.6 3.5.4v1.5Z"/><path fill="#13FCE4" d="m2 19-1 1.5L.4 18l1.2-1.5L2 19Z"/><path fill="#0000F1" d="M14 28.4v1.2l-1 1 .2-1.3.8-.9Z"/><path fill="#FFBD00" d="m19.6 6.4-3.9-.7.1-1.5 3.8.7v1.5Z"/><path fill="#0020FF" d="m15 26-.2 1.1-.8 1.3.3-1.1.6-1.2Z"/><path fill="#8DFF6A" d="m30.9 14-3.5-1v-1.6l3.5 1V14Z"/><path fill="#006CFF" d="m33 24.4-2-.2.4-.4 2 .3-.5.3Z"/><path fill="#0078FF" d="m33.5 24.1-2-.3.4-.6 2.1.4-.5.5Z"/><path fill="#97FF60" d="m3.3 13-1.8 1.2V12l1.8-1.2V13Z"/><path fill="#0068FF" d="m32.4 24.6-2-.2.5-.2 2 .2-.5.2Z"/><path fill="#008CFF" d="m34 23.6-2.1-.4.4-.8 2.2.5-.5.7Z"/><path fill="#FFA700" d="M12.1 5.4H9l.3-1.6h3.1l-.2 1.6Z"/><path fill="#00C4FF" d="m19.7 20.2-1.6.4v1.5l1.6-.5v-1.4Z"/><path fill="#000084" d="M10.7 32.7V34H9.3v-1.4l1.4.1Z"/><path fill="#00B" d="m13 30.5.2 1.3-1.3.6v-1.3l1.1-.6Z"/><path fill="#0084FF" d="M28.7 23h-2.2l.4.7H29l-.3-.6Z"/><path fill="#0068FF" d="m15.9 23.6-.5 1L15 26l.6-1 .4-1.5Z"/><path fill="#3CFFBA" d="m33.6 17.8-3-.9.2-1.5 3 1-.2 1.4Z"/><path fill="#00D0FF" d="m21.6 20-1.9.2v1.4l2-.3V20Z"/><path fill="#0064FF" d="M2.3 25 2 26.4l-.8-2.2.3-1.4.8 2.2Z"/><path fill="#0068FF" d="M31.8 24.5H30h2.4-.6Z"/><path fill="#00B8FF" d="m18.1 20.6-1.2.6-.2 1.6 1.3-.6.1-1.6Z"/><path fill="#00A4FF" d="m34.5 22.9-2.2-.5.5-1 2.2.6-.5.9Z"/><path fill="#EBFF0C" d="m27.3 9.8-3.8-1V7.3l3.7 1.1.1 1.4Z"/><path fill="#FFC800" d="m23.5 7.3-4-1V5l3.9 1v1.4Z"/><path fill="#00BCFF" d="M26 21.1H24l.1 1.2 2.3-.1-.3-1Z"/><path fill="#0074FF" d="m31.3 24.3-1.8-.1.5.2 1.8.1-.5-.2Z"/><path fill="#00C4FF" d="m35 22-2.2-.6.3-1 2.3.6-.4 1Z"/><path fill="#00DCFE" d="m23.7 19.8-2 .1v1.4l2.2-.2-.2-1.3Z"/><path fill="#00B0FF" d="m17 21.2-.8.7-.3 1.7.8-.8.2-1.6Z"/><path fill="#B7FF40" d="m30.9 12.5-3.5-1.1V9.8l3.4 1.3v1.4Z"/><path fill="#00A4FF" d="m28.3 22.3-2-.1.2.9h2.2l-.4-.8Z"/><path fill="#63FF94" d="m33.8 16.4-3-1V14l3 1.2v1.3Z"/><path fill="#000096" d="M12 32.4v1.3l-1.3.3v-1.3l1.2-.3Z"/><path fill="#53FFA4" d="M1.7 16.6.5 18.1l-.1-2.4 1.1-1.5.2 2.4Z"/><path fill="gold" d="m5.8 7.8-2.3.8.4-2L6 5.7l-.3 2Z"/><path fill="#FF7A00" d="m15.8 4.2-3.5-.4.3-1.3 3.4.4-.2 1.3Z"/><path fill="#FF9C00" d="M8.9 5.4 6 5.8l.4-1.7 2.7-.3-.3 1.6Z"/><path fill="#FF8900" d="m19.6 5-3.8-.8L16 3l3.6.8V5Z"/><path fill="#0084FF" d="m30.8 23.9-1.8-.2.5.5 1.8.1-.5-.4Z"/><path fill="#00009F" d="m6.6 32.7.1 1.3L5.4 33l-.2-1.3 1.4 1.1Z"/><path fill="#00E4F8" d="m35.4 21-2.3-.7.3-1.2 2.3.8-.3 1.1Z"/><path fill="#0000C8" d="m5.2 31.6.2 1.3-1.2-1.5-.2-1.3 1.2 1.5Z"/><path fill="#0018FF" d="m14.8 27.1.1 1.2-.9 1.3v-1.2l.8-1.3Z"/><path fill="#00ACFF" d="m1.5 22.8-.3 1.4L.6 22l.3-1.4.6 2.3Z"/><path fill="#000089" d="M8 33.5v1.3L6.8 34l-.1-1.3 1.3.8Z"/><path fill="#005CFF" d="M15.4 24.6v1l-.6 1.5.1-1 .5-1.5Z"/><path fill="#16FFE1" d="m19.7 18.5-1.5.4v1.7l1.5-.4v-1.7Z"/><path fill="#0000ED" d="m14 29.6.3 1.2-1.1 1-.2-1.3 1-1Z"/><path fill="gold" d="m27.2 8.4-3.7-1.1-.1-1.4L27 7.1l.1 1.3Z"/><path fill="#1CFFDB" d="m21.6 18.4-1.9.1v1.7l2-.3-.1-1.5Z"/><path fill="#D7FF1F" d="M3.3 10.7 1.6 12l.2-2.2 1.7-1.1-.2 2.1Z"/><path fill="#0000FA" d="m4 30.1.2 1.3L3 29.7l-.2-1.3L4 30Z"/><path fill="#02E8F4" d="m25.9 20-2.2-.2.2 1.3H26L26 20Z"/><path fill="#FF6F00" d="M12.3 3.8H9.2l.4-1.4h3l-.3 1.4Z"/><path fill="#FF9800" d="m23.4 6-3.8-1V3.6l3.7 1V6Z"/><path fill="#13FCE4" d="m18.2 18.9-1.1.4-.2 1.9 1.2-.6.1-1.7Z"/><path fill="#009CFF" d="m30.4 23.2-1.7-.1.3.6 1.8.2-.4-.7Z"/><path fill="#00A8FF" d="m16.2 22-.4.8-.4 1.8.5-1 .3-1.7Z"/><path fill="#0CF" d="m28 21.3-2-.2.3 1.1h2l-.3-1Z"/><path fill="#1FFFD7" d="m35.7 20-2.3-.9.2-1.3 2.3 1-.2 1.1Z"/><path fill="navy" d="m9.3 34 .2 1.3-1.4-.5-.2-1.3 1.4.5Z"/><path fill="#8DFF6A" d="m33.9 15-3-1v-1.5l3 1.2v1.4Z"/><path fill="#E1FF16" d="m30.8 11-3.5-1.2V8.4l3.4 1.3.1 1.4Z"/><path fill="#23FFD4" d="M23.7 18.4h-2.1v1.5h2.1v-1.5Z"/><path fill="#0024FF" d="M3 28.4v1.3l-.9-2-.1-1.3 1 2Z"/><path fill="#0084FF" d="m34.3 24.8-1.4-.4.6-.3 1.4.4-.6.3Z"/><path fill="#00B" d="m13.2 31.8.1 1.3-1.3.6v-1.3l1.2-.6Z"/><path fill="#0080FF" d="m33.7 24.9-1.3-.3.5-.2 1.4.4h-.6Z"/><path fill="#0090FF" d="m34.9 24.5-1.4-.4.5-.5 1.4.4-.5.5Z"/><path fill="#0084FF" d="m33.1 24.8-1.3-.3h.6l1.3.4-.6-.1Z"/><path fill="#00A0FF" d="m35.4 24-1.4-.4.5-.7 1.5.5-.6.6Z"/><path fill="#0CF4EB" d="m17 19.3-.6.7-.2 2 .7-.8.2-1.9Z"/><path fill="#13FCE4" d="m1 20.5-.4 1.4-.4-2.4.3-1.4.4 2.4Z"/><path fill="#00B8FF" d="m30 22.4-1.7-.1.4.8 1.7.1-.4-.8Z"/><path fill="#FF6000" d="M19.6 3.7 16 3l.1-1 3.5.9v1Z"/><path fill="#43FFB4" d="m36 18.7-2.4-.9.2-1.4 2.3 1-.2 1.3Z"/><path fill="#97FF60" d="M1.5 14.2.4 15.7v-2.4l1.2-1.4v2.3Z"/><path fill="#000084" d="m10.7 34 .2 1.3H9.5L9.3 34h1.4Z"/><path fill="#FF4E00" d="m16 3-3.4-.5.3-1 3.2.4-.1 1Z"/><path fill="#FFAB00" d="M27 7.1 23.5 6V4.8L26.8 6l.2 1Z"/><path fill="#008CFF" d="m32.6 24.5-1.3-.2.5.2 1.3.3-.5-.3Z"/><path fill="#2CFFCA" d="m25.7 18.6-2-.2v1.4l2.2.1-.2-1.3Z"/><path fill="#00B8FF" d="m36 23.4-1.5-.5.5-.9 1.4.7-.4.7Z"/><path fill="#FF9400" d="m6.1 5.8-2.2.7.5-1.8 2.1-.6-.4 1.7Z"/><path fill="#FF6400" d="M9.2 3.8 6.5 4l.6-1.5 2.5-.2-.4 1.4Z"/><path fill="#0CF4EB" d="m27.8 20.1-2-.2.2 1.2 2 .2-.2-1.2Z"/><path fill="#50FFA7" d="M21.6 16.7h-1.8v1.8l1.8-.1v-1.7Z"/><path fill="#4DFFAA" d="m19.8 16.7-1.5.2v2l1.4-.4v-1.8Z"/><path fill="#B4FF43" d="m33.9 13.7-3-1.2V11l2.9 1.3v1.3Z"/><path fill="#0058FF" d="m15.4 25.6.3 1-.8 1.7-.1-1.2.6-1.5Z"/><path fill="#FF6F00" d="m23.3 4.8-3.7-1v-1l3.6 1 .1 1Z"/><path fill="#0068FF" d="m2 26.4.1 1.3-.8-2.1-.1-1.4.8 2.2Z"/><path fill="#FFE200" d="m30.7 9.7-3.5-1.3-.1-1.3 3.4 1.4.2 1.2Z"/><path fill="#0014FF" d="m15 28.3.3 1.1-1 1.4-.3-1.2 1-1.3Z"/><path fill="#00A0FF" d="m15.8 22.8.1 1-.5 1.8v-1l.4-1.8Z"/><path fill="#009CFF" d="m32 24-1.2-.1.5.4 1.3.2-.5-.4Z"/><path fill="#53FFA4" d="m23.6 16.8-2-.1v1.7h2v-1.6Z"/><path fill="#00D4FF" d="M36.4 22.7 35 22l.4-1 1.4.8-.4.9Z"/><path fill="#FF3F00" d="m12.6 2.5-3-.1.5-1.1 2.8.1-.3 1Z"/><path fill="#FFD300" d="m3.5 8.6-1.7 1 .4-2 1.7-1-.4 2Z"/><path fill="#49FFAD" d="m18.3 17-1.1.3-.1 2 1.1-.4v-2Z"/><path fill="#00DCFE" d="m29.7 21.5-1.7-.2.3 1 1.7.1-.3-.9Z"/><path fill="#66FF90" d="m36.1 17.5-2.3-1V15l2.4 1.1v1.3Z"/><path fill="#09F0EE" d="m16.4 20-.3.8-.3 2 .4-.9.2-1.9Z"/><path fill="#00009B" d="m12 33.7.2 1.3-1.3.3-.2-1.3 1.4-.3Z"/><path fill="#0000E8" d="m14.3 30.8.2 1.2-1.2 1-.1-1.2 1-1Z"/><path fill="#00B0FF" d="m31.6 23.5-1.2-.3.4.7 1.3.2-.5-.6Z"/><path fill="#0CF4EB" d="m36.8 21.8-1.4-.8.3-1 1.5.8-.4 1Z"/><path fill="#33FFC4" d="m27.7 18.9-2-.3.2 1.3 2 .2-.2-1.2Z"/><path fill="#56FFA0" d="m25.7 17.1-2-.3v1.6l2 .2V17Z"/><path fill="#FF3B00" d="m19.6 2.8-3.5-.9.2-.7 3.3.9v.7Z"/><path fill="#0000A8" d="m6.7 34 .3 1.2L5.7 34 5.4 33 6.7 34Z"/><path fill="#D7FF1F" d="m33.8 12.4-3-1.3-.1-1.4 3 1.5v1.2Z"/><path fill="#FF8600" d="m27 6-3.7-1.2-.1-1 3.5 1.4.2.9Z"/><path fill="#0000CD" d="m5.4 32.9.3 1.1-1.2-1.4-.3-1.2L5.4 33Z"/><path fill="#53FFA4" d="m.5 18-.3 1.5-.2-2.4.4-1.4.1 2.4Z"/><path fill="#46FFB1" d="m17.2 17.3-.7.6-.1 2.1.7-.7v-2Z"/><path fill="#FF2900" d="M16.1 2 13 1.3l.4-.7 3 .5-.2.7Z"/><path fill="#00B0FF" d="m1.2 24.2.1 1.4-.6-2.3-.1-1.4.6 2.3Z"/><path fill="#80FF77" d="m21.6 15-1.8-.2v2l1.8-.1v-1.8Z"/><path fill="#000092" d="m8 34.8.3 1.2-1.3-.8-.3-1.2 1.4.8Z"/><path fill="#FFB900" d="M30.5 8.5 27 7.1l-.2-1 3.3 1.4.3 1Z"/><path fill="#80FF77" d="m19.8 14.8-1.5.1v2l1.5-.2v-1.9Z"/><path fill="#16FFE1" d="m29.5 20.4-1.7-.3.2 1.2 1.7.2-.2-1Z"/><path fill="#FF4E00" d="m23.2 3.9-3.6-1.1V2l3.5 1.1.1.7Z"/><path fill="#8AFF6D" d="m36.2 16.2-2.3-1.1v-1.4l2.3 1.3v1.2Z"/><path fill="#D7FF1F" d="M1.6 11.9.4 13.3.7 11l1.1-1.3-.2 2.2Z"/><path fill="#00F" d="m4.2 31.4.3 1.2-1.1-1.7-.3-1.2 1 1.7Z"/><path fill="#00C8FF" d="m31.2 22.7-1.2-.3.4.8 1.2.3-.4-.8Z"/><path fill="#80FF77" d="m23.6 15.2-2-.3v1.8l2 .1v-1.6Z"/><path fill="#29FFCE" d="m37.2 20.8-1.5-.9.2-1.2 1.6 1-.3 1Z"/><path fill="#FF3000" d="M9.6 2.4 7 2.6l.6-1.1 2.4-.2-.5 1Z"/><path fill="#FF5900" d="m6.5 4-2 .7.6-1.5 2-.6-.6 1.5Z"/><path fill="#0098FF" d="m34.3 25.2-.6-.3.6-.1.6.3h-.6Z"/><path fill="#009CFF" d="m35 25.1-.7-.3.6-.3.6.4-.6.2Z"/><path fill="#000084" d="m9.5 35.3.2 1-1.4-.3-.2-1.2 1.4.5Z"/><path fill="#0098FF" d="m33.7 25-.6-.2h.6l.6.4-.6-.1Z"/><path fill="#80FF77" d="m18.3 15-1.2.2v2.1l1.2-.4v-2Z"/><path fill="#00A4FF" d="m35.5 25-.6-.5.5-.5.7.5-.6.4Z"/><path fill="#009CFF" d="m15.9 23.8.3 1-.5 1.9-.3-1.1.5-1.8Z"/><path fill="#00B" d="m13.3 33 .2 1.3-1.3.7-.1-1.3 1.2-.6Z"/><path fill="#0054FF" d="m15.7 26.7.4 1-.8 1.7-.4-1.1.8-1.6Z"/><path fill="#FF1600" d="m13 1.4-3-.1.6-.8 2.7.2-.4.7Z"/><path fill="#5AFF9D" d="m27.6 17.5-2-.4.1 1.5 2 .3v-1.4Z"/><path fill="#00A0FF" d="m33.2 24.8-.6-.3.5.3.6.3-.5-.3Z"/><path fill="#0028FF" d="m3 29.7.4 1.2-1-2-.3-1.2 1 2Z"/><path fill="#06ECF1" d="m16.1 20.8.1.9-.3 2v-.9l.2-2Z"/><path fill="#FBF100" d="m33.6 11.2-3-1.5-.1-1.2 2.9 1.6.2 1Z"/><path fill="#80FF77" d="m25.7 15.6-2-.4v1.6l2 .3v-1.5Z"/><path fill="#00B4FF" d="m36 24.5-.6-.5.6-.6.6.6-.5.5Z"/><path fill="#02E8F4" d="m30.9 21.9-1.2-.4.3 1 1.2.2-.3-.8Z"/><path fill="#FF6400" d="m26.7 5.2-3.5-1.3-.1-.7 3.4 1.4.2.6Z"/><path fill="#FF9100" d="m3.9 6.5-1.7 1 .6-1.8 1.6-1L4 6.5Z"/><path fill="#46FFB1" d="m37.5 19.7-1.6-1 .2-1.2 1.5 1-.1 1.2Z"/><path fill="#39FFBE" d="m29.3 19.3-1.6-.4.1 1.2 1.7.3-.2-1.1Z"/><path fill="#F20" d="m19.6 2-3.3-.8.2-.4 3.2.9v.4Z"/><path fill="#ADFF49" d="m36.2 15-2.3-1.3-.1-1.3 2.3 1.4.1 1.2Z"/><path fill="#43FFB4" d="m16.5 18-.2.6-.2 2.2.3-.8v-2Z"/><path fill="#00B0FF" d="M32.7 24.4 32 24l.5.4.6.3-.5-.4Z"/><path fill="#FF9800" d="M30.2 7.5 27 6.1l-.2-.9 3.2 1.5.3.8Z"/><path fill="#0014FF" d="m15.3 29.4.2 1.2-1 1.4-.2-1.2 1-1.4Z"/><path fill="#B4FF43" d="m21.6 13.1-1.8-.2v2h1.8v-1.8Z"/><path fill="#00C8FF" d="m36.6 24-.6-.6.4-.7.7.6-.5.7Z"/><path fill="#00008D" d="m10.9 35.3.2 1.2-1.4-.1-.2-1.1h1.4Z"/><path fill="#FF3800" d="m23 3.2-3.4-1.1v-.4L23 2.8l.2.4Z"/><path fill="#13FCE4" d="m.6 22 .1 1.3-.3-2.4-.2-1.4.4 2.4Z"/><path fill="#ADFF49" d="m23.7 13.5-2-.4V15l2 .3v-1.7Z"/><path fill="#B7FF40" d="m19.8 13-1.6-.1v2h1.6v-2Z"/><path fill="#F60B00" d="m16.3 1.2-3-.5.4-.4 2.8.5-.2.4Z"/><path fill="#80FF77" d="m17.1 15.2-.6.5v2.2l.7-.6v-2Z"/><path fill="#97FF60" d="M.4 15.7 0 17v-2.4l.4-1.4v2.4Z"/><path fill="#00C0FF" d="m32.2 23.8-.6-.3.5.6.6.3-.5-.6Z"/><path fill="#0068FF" d="m2.1 27.7.3 1.2-.8-2.1-.3-1.2.8 2.1Z"/><path fill="#1FFFD7" d="m30.6 20.9-1.1-.5.2 1.1 1.2.4-.3-1Z"/><path fill="#00E0FB" d="m37 23.3-.6-.6.4-1 .7.8-.4.8Z"/><path fill="#80FF77" d="m27.7 16.2-2-.6v1.5l2 .4v-1.3Z"/><path fill="#66FF90" d="m37.6 18.6-1.5-1.1.1-1.3 1.5 1.2v1.2Z"/><path fill="#FC0" d="m33.4 10-3-1.5-.2-1 2.9 1.6.3 1Z"/><path fill="#AAFF4D" d="m25.8 14-2-.5-.2 1.7 2.1.4.1-1.5Z"/><path fill="#BAFF3C" d="m18.2 12.9-1.1.2v2.1l1.2-.3v-2Z"/><path fill="#5AFF9D" d="m29.2 18-1.6-.5V19l1.7.4V18Z"/><path fill="#FF4E00" d="M26.5 4.6 23 3.2l-.2-.4 3.3 1.4.3.4Z"/><path fill="#FFD000" d="M1.8 9.7.7 11l.5-2 1-1.4-.4 2Z"/><path fill="#D1FF26" d="m36.1 13.8-2.3-1.4-.2-1.2 2.3 1.4.2 1.2Z"/><path fill="#F10800" d="m10 1.3-2.3.2.7-.9 2.2-.1-.5.8Z"/><path fill="#00D8FF" d="m31.8 23-.6-.3.4.8.6.3-.4-.7Z"/><path fill="#0000ED" d="m14.5 32 .1 1.3-1.1 1-.2-1.2 1.2-1Z"/><path fill="#FF7A00" d="m30 6.7-3.3-1.5-.2-.6 3 1.5.4.6Z"/><path fill="#DF0000" d="M13.3.7 10.6.5l.6-.4 2.5.2-.4.4Z"/><path fill="#E4FF13" d="m21.7 11.3-2-.3v2l2 .1v-1.8Z"/><path fill="#FA0F00" d="M19.7 1.7 16.5.8h.2l3 .8v.1Z"/><path fill="#FF2500" d="m7 2.6-2 .6L6 2l1.8-.5-.6 1.1Z"/><path fill="#16FFE1" d="m37.5 22.5-.7-.7.4-1 .7.8-.4 1Z"/><path fill="#00009F" d="m12.2 35 .2 1.2-1.3.3-.2-1.2 1.3-.3Z"/><path fill="#FF2500" d="m23 2.8-3.3-1.1 3 1 .2.1Z"/><path fill="#DBFF1C" d="m23.8 11.9-2-.6-.2 1.8 2.1.4.1-1.6Z"/><path fill="#EBFF0C" d="m19.8 11-1.6-.2v2l1.6.1V11Z"/><path fill="#02E8F4" d="m16.2 21.7.4 1-.4 2-.3-1 .3-2Z"/><path fill="#3CFFBA" d="m30.5 19.8-1.2-.5.2 1.1 1.1.5-.1-1.1Z"/><path fill="#0098FF" d="m16.2 24.8.5 1-.6 2-.4-1.1.5-2Z"/><path fill="#43FFB4" d="m16.3 18.6.1.9-.2 2.2v-3.1Z"/><path fill="#DF0000" d="M16.5.8 13.7.3h.4l2.6.5h-.2Z"/><path fill="#0000B2" d="m7 35.2.2 1L6 35l-.2-1L7 35.2Z"/><path fill="#8AFF6D" d="m37.7 17.4-1.5-1.2V15l1.5 1.3v1.1Z"/><path fill="#0000DA" d="m5.7 34 .2 1-1.1-1.4-.3-1L5.7 34Z"/><path fill="#A7FF50" d="m27.8 14.8-2-.7v1.5l1.9.5v-1.3Z"/><path fill="#80FF77" d="m16.5 15.7-.2.6v2.3l.2-.7v-2.2Z"/><path fill="#0CF4EB" d="m31.4 22.3-.5-.4.3.8.6.4-.4-.8Z"/><path fill="#00A8FF" d="m34.2 25.6.1-.4h.6l-.2.4h-.5Z"/><path fill="#FFAB00" d="m33 9.1-2.8-1.6-.3-.8 2.8 1.6.4.8Z"/><path fill="#00B0FF" d="m1.3 25.6.3 1.2-.5-2.3-.4-1.3.6 2.4Z"/><path fill="#D4FF23" d="m26 12.6-2.2-.7v1.6l2 .6.2-1.5Z"/><path fill="#00ACFF" d="m33.6 25.5.1-.4h.6l-.1.5-.6-.1Z"/><path fill="#F50" d="m4.4 4.7-1.6 1 .8-1.6 1.5-.9-.7 1.5Z"/><path fill="#53FFA4" d="M.2 19.5.4 21l-.2-2.4L0 17l.2 2.4Z"/><path fill="#00009B" d="m8.3 36 .2.9-1.3-.8-.2-1 1.3.9Z"/><path fill="#FF3F00" d="m26.2 4.2-3.3-1.4h-.1l3 1.3h.4Z"/><path fill="#00ACFF" d="m34.7 25.6.2-.5.6-.2-.2.5-.6.2Z"/><path fill="#BEFF39" d="m17 13-.6.4v2.3l.8-.5-.1-2.1Z"/><path fill="#0050FF" d="m16 27.7.4 1.3-.9 1.6-.2-1.2.8-1.7Z"/><path fill="#80FF77" d="m29.3 16.8-1.6-.7v1.4l1.5.6v-1.3Z"/><path fill="#30FFC7" d="m37.9 21.6-.7-.8.3-1 .6.9-.2 1Z"/><path fill="#F1FC06" d="m36 12.6-2.4-1.4-.2-1.1 2.3 1.5.2 1Z"/><path fill="#00B4FF" d="m33 25.2.2-.4.5.3-.1.4-.6-.3Z"/><path fill="#00F" d="m4.5 32.6.2 1-1-1.7-.3-1 1 1.7Z"/><path fill="#FF6400" d="m29.6 6.1-3.1-1.5-.3-.4 3 1.5.4.4Z"/><path fill="#00B8FF" d="m35.3 25.4.2-.5.6-.4-.2.6-.6.3Z"/><path fill="gold" d="m21.8 9.6-2-.5V11l2 .3V9.6Z"/><path fill="#F1FC06" d="m18.2 10.8-1.3.1.2 2.2 1.1-.2v-2Z"/><path fill="#ED0400" d="m19.7 1.6-3-.8.3.3 2.7.8v-.3Z"/><path fill="#FF1E00" d="m22.8 2.7-3.1-1v.2l3 1v-.2Z"/><path fill="#FFE200" d="m24 10.3-2.2-.7v1.7l2 .6.2-1.6Z"/><path fill="#00C0FF" d="m32.5 24.7.2-.3.5.4-.2.4-.5-.5Z"/><path fill="#D7FF1F" d="M.4 13.3 0 14.7l.3-2.3.4-1.4-.3 2.3Z"/><path fill="#000092" d="m9.7 36.4.2 1-1.4-.5-.2-1 1.4.5Z"/><path fill="#FC0" d="M19.8 9.1 18 9v2h1.7V9.2Z"/><path fill="#00C4FF" d="m35.9 25 .2-.5.5-.5-.2.6-.5.5Z"/><path fill="#5DFF9A" d="m30.4 18.7-1.2-.6.1 1.2 1.2.5-.1-1.1Z"/><path fill="#26FFD1" d="m31.2 21.3-.6-.4.3 1 .5.4-.2-1Z"/><path fill="#AAFF4D" d="M37.7 16.3 36.2 15v-1.2l1.4 1.4.1 1Z"/><path fill="#C80000" d="M13.7.3 11.2 0 12 0l2.2.2h-.4Z"/><path fill="#0000C4" d="m13.5 34.3.1 1.2-1.2.7-.2-1.2 1.3-.7Z"/><path fill="#00D0FF" d="m32 24.2.2-.4.5.6-.2.3-.5-.5Z"/><path fill="#CD0000" d="M10.6.5 8.4.6l.8-.4 2-.1-.6.4Z"/><path fill="#CEFF29" d="m28 13.4-2-.8-.2 1.5 2 .7.2-1.4Z"/><path fill="#FF3800" d="m25.9 4-3.1-1.3-.2.3 3 1.3.3-.2Z"/><path fill="#FBF100" d="m26.2 11.1-2.2-.8-.2 1.6 2.2.7.2-1.5Z"/><path fill="#4DFFAA" d="m38.1 20.7-.6-1 .1-1.1.7 1-.2 1Z"/><path fill="#0030FF" d="m3.4 30.9.3 1-1-1.9-.3-1 1 1.9Z"/><path fill="#D10000" d="M16.7.8 14.1.2l.4.3 2.5.6-.3-.3Z"/><path fill="#FF9100" d="M32.7 8.3 30 6.7l-.3-.6 2.7 1.6.4.6Z"/><path fill="#0014FF" d="m15.5 30.6.2 1.3-1 1.4-.2-1.3 1-1.4Z"/><path fill="#FFA700" d="m22 8-2.2-.6v1.7l2 .5.1-1.6Z"/><path fill="#00D8FF" d="m36.4 24.6.2-.6.5-.7-.2.7-.5.6Z"/><path fill="#A4FF53" d="m29.4 15.5-1.6-.7-.1 1.4 1.6.6.1-1.3Z"/><path fill="#F50" d="m29.2 5.7-3-1.5-.3-.1 2.9 1.5.4.1Z"/><path fill="#FFDB00" d="m35.7 11.6-2.3-1.5-.3-1 2.2 1.6.4 1Z"/><path fill="#FF1E00" d="m22.6 3-2.9-1.1v.5l2.8 1 .1-.4Z"/><path fill="#FF8D00" d="m2.2 7.6-1 1.3.6-1.9 1-1.3-.6 1.9Z"/><path fill="#FFB600" d="M24.2 8.8 21.9 8l-.1 1.6 2.2.7.2-1.5Z"/><path fill="#F10800" d="M19.7 1.9 17 1l.2.6 2.5.7V2Z"/><path fill="#E40000" d="M7.7 1.5 6 2l.9-.9L8.4.6l-.7.9Z"/><path fill="#02E8F4" d="m31.6 23.5.2-.4.4.7-.2.4-.4-.7Z"/><path fill="#FFC100" d="M18 8.9h-1.3l.2 2h1.3l-.1-2Z"/><path fill="#FF9800" d="M19.8 7.4 17.9 7l.2 1.9 1.7.2V7.4Z"/><path fill="#000096" d="m11 36.5.2 1-1.3-.2-.2-1 1.4.2Z"/><path fill="#F8F500" d="m17 10.9-.8.3.2 2.2.7-.3-.2-2.2Z"/><path fill="#43FFB4" d="m31 20.4-.5-.6.1 1 .6.5-.2-1Z"/><path fill="#13FCE4" d="m.7 23.3.4 1.2-.4-2.3-.3-1.3.3 2.4Z"/><path fill="#FF3800" d="m25.6 4.3-3-1.3-.1.5 2.8 1.2.3-.4Z"/><path fill="#C1FF36" d="m16.4 13.4-.3.6.2 2.3.2-.6-.1-2.3Z"/><path fill="#80FF77" d="m30.4 17.5-1.1-.7v1.3l1.1.6v-1.2Z"/><path fill="#FF7E00" d="m22 6.6-2.2-.8v1.6l2.1.6.1-1.4Z"/><path fill="#09F0EE" d="m36.9 24 .2-.7.4-.8-.2.8-.4.7Z"/><path fill="#83FF73" d="m16.3 16.3.1.8v2.4l-.1-.9v-2.3Z"/><path fill="#FFC400" d="m26.5 9.8-2.3-1-.2 1.5 2.2.8.3-1.3Z"/><path fill="#FF2900" d="m22.5 3.5-2.8-1v.8l2.6 1 .2-.8Z"/><path fill="#40FFB7" d="m16.4 19.5.4.9-.2 2.3-.4-1 .2-2.2Z"/><path fill="#FF9100" d="m24.4 7.5-2.4-1V8l2.2.8.2-1.3Z"/><path fill="#CAFF2C" d="m37.6 15.2-1.5-1.4-.2-1.2 1.5 1.5.2 1Z"/><path fill="#6AFF8D" d="m38.3 19.7-.7-1.1.1-1.2.7 1.2-.1 1Z"/><path fill="#F1FC06" d="m28.2 12-2-.9-.2 1.5 2 .8.2-1.3Z"/><path fill="#00E4F8" d="m16.6 22.7.6 1-.5 2.1-.5-1 .4-2.1Z"/><path fill="#FF7A00" d="m32.3 7.7-2.7-1.6-.4-.4 2.6 1.7.5.3Z"/><path fill="#FF4E00" d="m28.8 5.6-3-1.5-.2.2 2.8 1.4.4-.1Z"/><path fill="#FF1300" d="m19.7 2.4-2.5-.7.2.9 2.3.7v-.9Z"/><path fill="#D60000" d="M17 1 14.5.6l.5.7 2.2.5L17 1Z"/><path fill="#FF5900" d="m22.2 5.3-2.4-.9v1.4l2.2.8.2-1.3Z"/><path fill="#97FF60" d="m0 17.1.2 1.4V16L0 14.7v2.4Z"/><path fill="#FF3B00" d="m22.3 4.2-2.6-.9v1.1l2.5.9.1-1Z"/><path fill="#0070FF" d="m2.4 29 .4 1-.8-2-.4-1.2.8 2.1Z"/><path fill="#16FFE1" d="m31.3 22.7.1-.4.4.8-.2.4-.3-.8Z"/><path fill="#FF4300" d="m25.3 4.7-2.8-1.2-.2.7L25 5.4l.3-.7Z"/><path fill="#FF6C00" d="m19.8 5.8-2-.5.1 1.7 1.9.4V5.8Z"/><path fill="#FF6F00" d="m24.7 6.3-2.5-1-.2 1.3 2.4.9.3-1.2Z"/><path fill="#C7FF30" d="m29.6 14.3-1.6-1-.2 1.5 1.6.7.2-1.2Z"/><path fill="#FF1E00" d="m5 3.2-1.4 1 1-1.3L5.8 2 5 3.2Z"/><path fill="#B00" d="M14.1.2 12 0l.6.3 2 .2-.4-.3Z"/><path fill="#FFBD00" d="m35.3 10.7-2.2-1.6-.4-.8L35 10l.4.7Z"/><path fill="#F50" d="m25 5.4-2.7-1.2-.1 1 2.5 1.1.3-.9Z"/><path fill="#0098FF" d="M16.7 25.8 17 27l-.6 2-.3-1.3.6-1.9Z"/><path fill="#FF2900" d="m19.7 3.3-2.3-.7.2 1.2 2.2.6V3.3Z"/><path fill="#FF4700" d="m19.8 4.4-2.2-.6.2 1.5 2 .5V4.4Z"/><path fill="#FFA300" d="m26.8 8.6-2.4-1.1-.2 1.3 2.3 1 .3-1.2Z"/><path fill="#FF8900" d="m18 7-1.5-.2.2 2h1.4L17.9 7Z"/><path fill="#1CFFDB" d="m37.3 23.3.2-.8.4-.9-.3 1-.3.7Z"/><path fill="#FF5200" d="m28.4 5.7-2.8-1.4-.3.4L28 6.1l.4-.4Z"/><path fill="#60FF97" d="m31 19.3-.6-.6v1l.6.6v-1Z"/><path fill="#00BCFF" d="m32.7 25.9.9-.4h.6l-1 .5-.5-.1Z"/><path fill="#B20000" d="m11.2 0-2 .2h.9l1.8-.2h-.7Z"/><path fill="#00B8FF" d="m33.2 26 1-.4h.5l-1 .5h-.5Z"/><path fill="#0000F1" d="m14.6 33.3.2 1.2-1.2 1-.1-1.2 1.1-1Z"/><path fill="#00C4FF" d="m32.1 25.6 1-.4.5.3-1 .4-.5-.3Z"/><path fill="gold" d="m28.5 10.9-2-1.1-.3 1.3 2 1 .3-1.2Z"/><path fill="#A0FF56" d="m30.6 16.4-1.2-.9-.1 1.3 1.1.7.2-1.1Z"/><path fill="#FF6F00" d="m31.8 7.4-2.6-1.7-.4-.1 2.6 1.6.4.2Z"/><path fill="#E40000" d="M17.2 1.7 15 1.2l.4 1 2 .4-.2-1Z"/><path fill="#FF8200" d="m27.1 7.5-2.4-1.2-.3 1.2 2.4 1 .3-1Z"/><path fill="#FFD000" d="m.7 11-.4 1.4.5-2 .4-1.5L.7 11Z"/><path fill="#0000A8" d="m12.4 36.2.1 1-1.3.2-.1-1 1.3-.2Z"/><path fill="#FFB900" d="M16.7 8.8 16 9l.3 2.2.7-.3-.2-2Z"/><path fill="#30FFC7" d="m31 21.9.2-.6.2 1-.1.4-.3-.8Z"/><path fill="#00BCFF" d="m33.8 26 1-.4.5-.2-1 .5-.5.2Z"/><path fill="#87FF70" d="m38.4 18.6-.7-1.2v-1.1l.7 1.2v1.1Z"/><path fill="#FF5900" d="m28 6.1-2.7-1.4-.3.7 2.5 1.3.5-.6Z"/><path fill="#E7FF0F" d="M37.4 14.1 36 12.6l-.2-1 1.4 1.6.3 1Z"/><path fill="#00D0FF" d="m31.6 25.2 1-.5.4.5-.9.4-.5-.4Z"/><path fill="#FF6C00" d="M27.5 6.7 25 5.4l-.3 1L27 7.4l.4-.8Z"/><path fill="#FF5D00" d="M17.8 5.3 16.2 5l.3 1.8 1.4.2-.1-1.7Z"/><path fill="#0000C4" d="m7.2 36.1.2.8L6 35.8 6 35l1.3 1.1Z"/><path fill="#E7FF0F" d="m29.9 13.1-1.7-1-.2 1.3 1.6.9.3-1.2Z"/><path fill="#00C4FF" d="m34.3 26 1-.6.6-.3-1 .6-.6.2Z"/><path fill="#FFA700" d="m34.9 10-2.2-1.7-.4-.6 2.1 1.7.5.6Z"/><path fill="#FF1300" d="m17.4 2.6-2-.4.4 1.3 1.8.3-.2-1.2Z"/><path fill="#0000E8" d="m6 35 .1.8L5 34.4l-.2-.8L5.9 35Z"/><path fill="#36FFC1" d="m37.6 22.5.3-.8.2-1-.2 1-.3.8Z"/><path fill="#00E0FB" d="m31.2 24.6.8-.4.5.5-.9.5-.4-.6Z"/><path fill="#FF3400" d="m17.6 3.8-1.8-.3.4 1.5 1.6.3-.2-1.5Z"/><path fill="#FBF100" d="m16.2 11.2-.4.4.3 2.4.3-.6-.2-2.2Z"/><path fill="#0054FF" d="m16.4 29 .1 1.3-.8 1.6-.2-1.3.9-1.6Z"/><path fill="#B00" d="m8.4.6-1.6.5 1-.5L9.2.2l-.8.4Z"/><path fill="#BF0000" d="m14.5.5-2-.2.7.7 1.8.2-.5-.7Z"/><path fill="#FFB600" d="m29 9.8-2.2-1.2-.3 1.2 2 1 .4-1Z"/><path fill="#FF6800" d="m31.3 7.2-2.5-1.6-.4.1 2.4 1.6h.5Z"/><path fill="#0000AD" d="m8.5 36.9.2.7-1.3-.7-.2-.8 1.3.8Z"/><path fill="#00B4FF" d="m1.6 26.8.4 1.1-.6-2.2-.3-1.2.5 2.3Z"/><path fill="#53FFA4" d="m.4 20.9.3 1.3-.2-2.4-.3-1.3.2 2.4Z"/><path fill="#7DFF7A" d="m31 18.3-.6-.8v1.2l.6.6v-1Z"/><path fill="#FF4E00" d="M2.8 5.7 1.8 7l.9-1.6 1-1.3-.9 1.6Z"/><path fill="#00D4FF" d="m34.9 25.7 1-.6.5-.5-1 .6-.5.5Z"/><path fill="#0004FF" d="m4.8 33.6.2.8-1-1.6-.3-.9 1 1.7Z"/><path fill="#49FFAD" d="m30.9 21 .1-.6.2 1-.2.5-.1-1Z"/><path fill="#C1FF36" d="m16.1 14 .1.7.2 2.4-.1-.8L16 14Z"/><path fill="#0CF4EB" d="m30.8 24 .8-.5.4.7-.8.4-.4-.6Z"/><path fill="#C1FF36" d="m30.8 15.2-1.2-1-.2 1.3 1.1.9.3-1.2Z"/><path fill="#FF9800" d="M29.4 8.9 27 7.5l-.3 1 2.1 1.3.5-1Z"/><path fill="#FF7E00" d="m16.5 6.8-1 .1.4 2h.8l-.2-2Z"/><path fill="#FF6C00" d="m30.8 7.3-2.4-1.6-.4.4 2.3 1.5.5-.3Z"/><path fill="#A7FF50" d="m38.4 17.5-.7-1.2v-1.1l.6 1.3v1Z"/><path fill="#FFEA00" d="m37.1 13.2-1.4-1.6-.4-.9 1.5 1.6.3.9Z"/><path fill="#FFE600" d="M30.2 12 28.5 11l-.3 1.2 1.7 1 .3-1Z"/><path fill="#FF9400" d="m34.4 9.4-2.1-1.7-.5-.3L34 9l.5.4Z"/><path fill="#83FF73" d="m16.4 17.1.4.9v2.4l-.4-1v-2.3Z"/><path fill="#FF8200" d="m29.8 8.1-2.3-1.4-.4.8L29.4 9l.4-.8Z"/><path fill="#FF7300" d="M30.3 7.6 28 6.1l-.5.6 2.3 1.4.5-.5Z"/><path fill="#0000A4" d="M9.9 37.3v.7l-1.2-.4-.2-.7 1.4.4Z"/><path fill="#A40000" d="M11.9 0 10 .1l.9.3h1.5L12 0Z"/><path fill="#50FFA7" d="m37.9 21.6.2-1 .2-1-.2 1.1-.2 1Z"/><path fill="#00E4F8" d="m35.4 25.3 1-.7.5-.6-1 .7-.5.5Z"/><path fill="#CD0000" d="M15 1.2 13.2 1l.6 1 1.6.2-.4-1Z"/><path fill="#40FFB7" d="m16.8 20.4.6 1-.2 2.3-.6-1 .2-2.3Z"/><path fill="#1FFFD7" d="m30.4 23.2.9-.5.3.8-.8.5-.4-.8Z"/><path fill="#D7FF1F" d="m0 14.7.2 1.4.3-2.3-.2-1.4-.3 2.3Z"/><path fill="#DA0000" d="M5.9 2 4.5 3l1.1-1 1.2-.8-1 1Z"/><path fill="#0000CD" d="m13.6 35.5.2 1-1.3.6-.1-1 1.2-.6Z"/><path fill="#003CFF" d="m3.7 32 .3.8-1-1.9-.2-.9.9 2Z"/><path fill="#FF4E00" d="M16.2 5H15l.5 2 1-.2-.3-1.8Z"/><path fill="#9DFF5A" d="m31 17.2-.5-.8v1.1l.5.8v-1Z"/><path fill="#63FF94" d="m30.8 20 .2-.7v1l-.1.6v-1Z"/><path fill="#E80000" d="M15.4 2.2 13.8 2l.6 1.4h1.4l-.4-1.2Z"/><path fill="#FFC400" d="m30.7 11-1.8-1.2-.4 1 1.7 1.2.5-1Z"/><path fill="#FFAE00" d="m15.9 9-.5.4.4 2.2.4-.4-.3-2.2Z"/><path fill="#FF8600" d="m34 9-2.1-1.6-.5-.2 2 1.7.5.1Z"/><path fill="#DEFF19" d="m31 14.2-1.1-1-.3 1 1.2 1 .3-1Z"/><path fill="#00E4F8" d="m17.2 23.7.3 1.1L17 27l-.3-1.2.5-2.1Z"/><path fill="#F20" d="m15.8 3.5-1.4-.1L15 5h1.2l-.4-1.5Z"/><path fill="#0018FF" d="m15.7 32 .1 1.1-1 1.4-.2-1.2 1-1.4Z"/><path fill="#FFD000" d="m36.8 12.3-1.5-1.6-.4-.7 1.4 1.6.5.7Z"/><path fill="#0FF8E7" d="m35.9 24.7 1-.7.4-.7-1 .8-.4.6Z"/><path fill="#C1FF36" d="m38.3 16.5-.7-1.3-.2-1 .7 1.3.2 1Z"/><path fill="#33FFC4" d="m30.2 22.4.8-.5.3.8-.9.5-.2-.8Z"/><path fill="#0000A8" d="M11.2 37.4v.7H10l-.1-.8 1.3.1Z"/><path fill="#6AFF8D" d="m38 20.7.3-1v-1l-.1 1-.1 1Z"/><path fill="#9F0000" d="M9.2.2 7.8.6h1l1.3-.5h-.9Z"/><path fill="#00C8FF" d="m31 26.4 1.7-.5.5.1-1.6.6-.6-.2Z"/><path fill="#FFAB00" d="m31.2 10.3-1.8-1.4-.5.9 1.8 1.3.5-.8Z"/><path fill="#00D0FF" d="m30.5 26 1.6-.4.6.3-1.7.5-.5-.3Z"/><path fill="#FF8200" d="m33.4 8.9-2-1.7h-.6l2 1.7h.6Z"/><path fill="#16FFE1" d="m1 24.5.4 1.2-.4-2.3-.3-1.2.4 2.3Z"/><path fill="#FF8D00" d="m1.2 9-.4 1.3.7-2L1.8 7l-.6 2Z"/><path fill="#00C8FF" d="m31.6 26.6 1.6-.6h.6l-1.7.6h-.5Z"/><path fill="#00D8FF" d="m30 25.6 1.6-.4.5.4-1.6.5-.5-.5Z"/><path fill="#A80000" d="M12.5.3 11 .4l.8.7 1.4-.1-.7-.7Z"/><path fill="#FEED00" d="M15.8 11.6v.7l.4 2.4V14l-.4-2.4Z"/><path fill="#FF9800" d="m31.7 9.6-1.9-1.5-.4.8 1.8 1.4.5-.7Z"/><path fill="#FF8200" d="m32.8 9-2-1.7-.5.3 2 1.6.5-.3Z"/><path fill="#7DFF7A" d="m30.8 19 .2-.7v1l-.2.7v-1Z"/><path fill="#BAFF3C" d="m31.3 16.2-.5-1-.2 1.2.5.8.2-1Z"/><path fill="#FBF100" d="M31.4 13.2 30.2 12l-.3 1.1 1.2 1 .3-.9Z"/><path fill="#00C8FF" d="m32.1 26.6 1.7-.5.5-.2-1.6.6H32Z"/><path fill="#26FFD1" d="m36.3 24 1-.7.3-.8-1 .9-.3.7Z"/><path fill="#02E8F4" d="m29.6 25.1 1.6-.5.4.6-1.6.4-.4-.5Z"/><path fill="#0078FF" d="m2.8 30 .2 1-.7-2.1-.3-1 .8 2.1Z"/><path fill="#FF8900" d="m32.2 9.2-1.9-1.6-.5.5 1.9 1.5.5-.4Z"/><path fill="#FFB900" d="M36.3 11.6 35 10l-.5-.6 1.4 1.7.5.5Z"/><path fill="#0098FF" d="m17 27 .2 1.3-.7 2-.1-1.3.6-2Z"/><path fill="#97FF60" d="m.2 18.5.3 1.3v-2.4l-.3-1.3v2.4Z"/><path fill="#FF7300" d="m15.5 7-.6.2.5 2.2.5-.4-.4-2Z"/><path fill="#4DFFAA" d="m30 21.5.9-.6.1 1-.8.5-.2-.9Z"/><path fill="#DEFF19" d="m38 15.6-.6-1.5-.3-1 .7 1.6.3.9Z"/><path fill="#FF1A00" d="m3.6 4.1-.9 1.3 1-1.3.8-1.2L3.6 4Z"/><path fill="#00D0FF" d="m32.7 26.5 1.6-.6.6-.2-1.7.6-.5.2Z"/><path fill="#13FCE4" d="m29.2 24.5 1.6-.5.4.6-1.6.5-.4-.6Z"/><path fill="#87FF70" d="m38.2 19.7.2-1.1v-1l-.2 1.2v1Z"/><path fill="#C4FF33" d="m16.2 14.7.4.8.2 2.5-.4-1-.2-2.3Z"/><path fill="#B60000" d="m13.2 1-1.4.1.9 1h1.1L13.2 1Z"/><path fill="gold" d="M31.9 12.4 30.7 11l-.5 1 1.2 1.1.5-.8Z"/><path fill="#FFA700" d="m35.8 11-1.4-1.6L34 9l1.4 1.7.5.4Z"/><path fill="#0000FA" d="M14.8 34.5v1l-1 1-.2-1 1.2-1Z"/><path fill="#00B" d="M12.5 37.1v.7l-1.2.3v-.7l1.2-.3Z"/><path fill="#3CFFBA" d="m36.6 23.4 1-.9.3-.9-1 1-.3.8Z"/><path fill="#00DCFE" d="m33.2 26.3 1.7-.6.5-.4-1.7.6-.5.4Z"/><path fill="#D4FF23" d="m31.6 15.2-.5-1-.3 1 .5 1 .3-1Z"/><path fill="#FF3F00" d="m15 5-.8.3.7 2 .6-.4L15 5Z"/><path fill="#9AFF5D" d="m31 18 .1-.8-.1 1-.2.8.2-1Z"/><path fill="#B20000" d="M6.8 1.1 5.6 2l1.2-.6 1-.8-1 .5Z"/><path fill="#0000D6" d="M7.4 36.9v.4l-1.2-1v-.5l1.2 1Z"/><path fill="#26FFD1" d="m29 23.7 1.4-.5.4.8-1.6.5-.3-.8Z"/><path fill="#0000FA" d="m6.1 35.8.1.5-1-1.3-.2-.6L6 35.8Z"/><path fill="#63FF94" d="m30 20.6.8-.6v1l-.8.5v-.9Z"/><path fill="#83FF73" d="m16.8 18 .6.9v2.4l-.6-1V18Z"/><path fill="#D60000" d="m13.8 2-1.1.2.8 1.4 1-.2-.7-1.4Z"/><path fill="#960000" d="M10 .1 8.9.5l1 .4L11 .4l-1-.3Z"/><path fill="#F4F802" d="m37.8 14.7-.7-1.5-.3-.9.6 1.6.4.8Z"/><path fill="#FF1300" d="m14.4 3.4-.9.2.7 1.7.8-.3-.6-1.6Z"/><path fill="#0000BF" d="M8.7 37.6v.5l-1.3-.8V37l1.3.7Z"/><path fill="#FFC100" d="m32.4 11.6-1.2-1.3-.5.8 1.2 1.3.5-.8Z"/><path fill="#FFD000" d="m.3 12.4.2 1.4.5-2.1-.2-1.4-.5 2.2Z"/><path fill="#FF9C00" d="M35.3 10.7 34 9l-.5-.1 1.3 1.6.6.2Z"/><path fill="#A0FF56" d="m38.2 18.8.2-1.3-.1-1-.3 1.3.2 1Z"/><path fill="#FFAB00" d="M15.4 9.4v.5l.5 2.4v-.7l-.5-2.2Z"/><path fill="#0014FF" d="m5 34.4.1.6-1-1.6-.1-.6 1 1.6Z"/><path fill="#06ECF1" d="m33.7 26 1.7-.8.5-.5-1.8.7-.4.5Z"/><path fill="#00BCFF" d="m2 28 .3.9-.6-2.2-.3-1 .6 2.2Z"/><path fill="#0054FF" d="m16.5 30.3.2 1.2-.9 1.6-.1-1.2.8-1.6Z"/><path fill="#39FFBE" d="m28.7 23 1.5-.6.2.8-1.5.5-.2-.7Z"/><path fill="#FFAE00" d="m33 11-1.3-1.4-.5.7 1.2 1.3.6-.5Z"/><path fill="#40FFB7" d="m17.4 21.3.3 1.2-.2 2.3-.3-1.1.2-2.4Z"/><path fill="#FF9800" d="M34.7 10.5 33.4 9h-.6l1.3 1.6h.6Z"/><path fill="#56FFA0" d="m.7 22.2.3 1.2-.1-2.3-.4-1.3.2 2.4Z"/><path fill="#53FFA4" d="m36.8 22.5 1.1-.9.2-1-1 1-.3 1Z"/><path fill="#EEFF09" d="m32 14.4-.6-1.2-.3 1 .5 1 .4-.8Z"/><path fill="#FF9F00" d="m33.5 10.7-1.3-1.5-.5.4 1.3 1.5.5-.4Z"/><path fill="#FF9800" d="M34.1 10.5 32.8 9l-.6.3 1.3 1.5.6-.2Z"/><path fill="#B4FF43" d="m31.2 17.1.1-1-.2 1.1-.1.8.2-.9Z"/><path fill="#0000B6" d="M10 38v.5L8.6 38v-.5l1.3.4Z"/><path fill="#00D8FF" d="m28.3 26.6 2.2-.5.5.3-2.2.5-.5-.3Z"/><path fill="#FFDE00" d="m37.4 13.9-.6-1.6-.5-.7.7 1.6.4.7Z"/><path fill="#7DFF7A" d="m30 19.7.8-.7v1l-.8.6v-.9Z"/><path fill="#00D0FF" d="m28.8 27 2.2-.6.6.2-2.3.5-.5-.2Z"/><path fill="#00E0FB" d="m27.9 26.2 2.1-.6.5.5-2.2.5-.4-.4Z"/><path fill="#00D0FF" d="m29.3 27.1 2.3-.5h.5l-2.2.6h-.6Z"/><path fill="#FF4E00" d="m1.8 7-.3 1.4 1-1.7.2-1.3L1.8 7Z"/><path fill="#09F0EE" d="m27.5 25.6 2.1-.5.4.5-2.1.6-.4-.6Z"/><path fill="#19FFDE" d="m34.1 25.4 1.8-.7.4-.6-1.8.7-.4.6Z"/><path fill="#0048FF" d="m4 32.8.1.6-.8-1.8L3 31l1 1.9Z"/><path fill="#50FFA7" d="m28.5 22.1 1.5-.6.2 1-1.5.5-.2-.9Z"/><path fill="#BEFF39" d="m38 17.8.3-1.3-.2-1-.3 1.4.2.9Z"/><path fill="#960000" d="M11 .4 9.9 1l1 .6 1-.4-1-.7Z"/><path fill="#FFE600" d="m32.5 13.6-.6-1.2-.5.8.6 1.2.5-.8Z"/><path fill="#0000DA" d="M13.8 36.5v.7l-1.2.6v-.7l1.2-.6Z"/><path fill="#00D0FF" d="m29.9 27.2 2.2-.6.6-.1-2.3.6h-.5Z"/><path fill="#FFEA00" d="m15.9 12.3.3.8.4 2.4-.4-.8-.3-2.4Z"/><path fill="#16FFE1" d="m27 25 2.2-.5.4.6-2.1.5-.4-.6Z"/><path fill="#FF6C00" d="m14.9 7.2-.2.6.7 2.2v-.6L15 7.2Z"/><path fill="#D7FF1F" d="m.2 16 .3 1.4.3-2.2-.3-1.4-.3 2.3Z"/><path fill="#6DFF8A" d="m37 21.7 1-1 .2-1-1.1 1v1Z"/><path fill="#D10000" d="M4.5 2.9 3.7 4 5 3 5.6 2l-1 .9Z"/><path fill="#FC0" d="m37 13.2-.7-1.6-.5-.5.7 1.6.5.5Z"/><path fill="#00E4F8" d="m17.5 24.8.1 1.4-.4 2.1L17 27l.5-2.2Z"/><path fill="#CEFF29" d="m31.5 16.3.1-1-.3.9-.1 1 .3-1Z"/><path fill="#960000" d="m7.8.6-1 .8L8 1.3l.8-.7h-1Z"/><path fill="#97FF60" d="m30.1 18.8.8-.8v1l-1 .7.2-.9Z"/><path fill="#00B" d="m11.3 38.1-.1.4H9.9V38l1.4.1Z"/><path fill="#00D8FF" d="m30.4 27.1 2.3-.6.5-.2-2.3.6-.5.2Z"/><path fill="#0020FF" d="M15.8 33.1v1l-1 1.4v-1l1-1.4Z"/><path fill="#29FFCE" d="m34.5 24.8 1.8-.7.3-.7-1.8.8-.3.6Zm-7.7-.5 2.1-.6.3.8-2.1.5-.3-.7Z"/><path fill="#FFD000" d="m33 13-.6-1.4-.5.8.6 1.2.5-.6Z"/><path fill="#66FF90" d="m28.4 21.3 1.6-.7v1l-1.5.5v-.8Z"/><path fill="#D4FF23" d="m37.8 16.9.3-1.3-.3-1-.2 1.4.2.9Z"/><path fill="#FFB900" d="m36.5 12.7-.7-1.6-.5-.4.6 1.6.6.4Z"/><path fill="#A80000" d="m11.8 1.1-.8.4 1 1.1.7-.4-.9-1Z"/><path fill="#19FFDE" d="m1.4 25.7.3 1-.3-2.2-.4-1.1.4 2.3Z"/><path fill="#C4FF33" d="m16.6 15.5.6 1 .2 2.4-.6-1-.2-2.4Z"/><path fill="#FF3400" d="m14.2 5.3-.3.5.8 2 .2-.6-.7-2Z"/><path fill="#0080FF" d="m3 31 .3.6-.7-2-.3-.7.7 2Z"/><path fill="#FFC100" d="m33.5 12.5-.5-1.4-.6.5.6 1.4.5-.5Z"/><path fill="#00E4F8" d="m30.9 27 2.3-.7.5-.4-2.4.7-.4.3Z"/><path fill="#87FF70" d="m37 20.8 1.2-1v-1l-1.1 1v1Z"/><path fill="#3CFFBA" d="m26.6 23.5 2-.5.3.8-2.1.5-.2-.8Z"/><path fill="#E4FF13" d="m31.8 15.5.2-1.1-.4.8-.1 1 .3-.7Z"/><path fill="#FFB200" d="m36 12.3-.7-1.6-.6-.2.6 1.6.6.2Z"/><path fill="#C80000" d="m12.7 2.2-.7.4L13 4l.5-.4-.8-1.4Z"/><path fill="#F10800" d="M13.5 3.6 13 4l1 1.8.2-.5-.7-1.7Z"/><path fill="#B1FF46" d="m30.3 18 .9-.9-.2 1-.9.7.2-.8Z"/><path fill="#FFB200" d="m34.1 12.2-.6-1.5-.5.4.5 1.4.6-.3Z"/><path fill="#FF8D00" d="m.8 10.3.2 1.4.7-2-.2-1.3-.7 2Z"/><path fill="#40FFB7" d="m34.8 24.2 1.8-.8.2-.9-1.8.9-.2.8Z"/><path fill="#FFAB00" d="m35.3 12-.6-1.5h-.6l.6 1.6h.6Z"/><path fill="#FFAE00" d="m34.7 12-.6-1.5-.6.2.6 1.5.6-.1Z"/><path fill="#7DFF7A" d="m28.5 20.4 1.5-.7v1l-1.6.6v-.9Z"/><path fill="#00DCFE" d="m25.7 27.2 2.6-.6.5.3-2.6.6-.5-.3Z"/><path fill="#00E4F8" d="m25.3 26.7 2.6-.5.4.4-2.6.6-.4-.5Z"/><path fill="#97FF60" d="m.5 19.8.4 1.3v-2.3l-.4-1.4v2.4Z"/><path fill="#EBFF0C" d="m37.5 16 .3-1.3-.4-.8-.2 1.4.3.7Z"/><path fill="#0000ED" d="M7.4 37.3v.2l-1.2-1v-.2l1.2 1Z"/><path fill="#009CFF" d="m17.2 28.3.1 1.3-.6 1.9-.2-1.2.7-2Z"/><path fill="#83FF73" d="m17.4 18.9.3 1.1v2.5l-.3-1.2V19Z"/><path fill="#00D4FF" d="m26.2 27.5 2.6-.6.5.2-2.6.7-.5-.3Z"/><path fill="#00F" d="M6.2 36.3v.2l-1-1.2V35l1 1.3Z"/><path fill="#FFA300" d="m15.4 10 .2.7.6 2.4-.3-.8-.5-2.4Z"/><path fill="#0CF4EB" d="m24.9 26.2 2.6-.6.4.6-2.6.5-.4-.5Zm6.4.4 2.4-.7.4-.5-2.4.7-.4.5Z"/><path fill="#0000CD" d="m12.6 37.8-.2.5-1.2.2v-.4l1.4-.3Z"/><path fill="#50FFA7" d="m26.4 22.7 2.1-.6.2.9-2.1.5-.2-.8Z"/><path fill="#0000D6" d="m8.7 38-.1.2-1.2-.7v-.2l1.3.8Z"/><path fill="#F8F500" d="m32.3 14.8.2-1.2-.5.8-.2 1 .5-.6Z"/><path fill="#00D4FF" d="m26.7 27.8 2.6-.7h.6l-2.8.7h-.4Z"/><path fill="#890000" d="m8.8.6-.8.7 1.2.3.7-.7L8.8.6Z"/><path fill="#19FFDE" d="m24.5 25.6 2.6-.6.4.6-2.6.6-.4-.6Z"/><path fill="#00F" d="M14.9 35.5v.7l-1.2 1v-.7l1.2-1Z"/><path fill="#A0FF56" d="m37 19.9 1.2-1.1-.2-1-1 1.2v.9Z"/><path fill="#0024FF" d="M5.1 35v.3l-.9-1.5v-.4l1 1.6Z"/><path fill="#FF1600" d="m2.7 5.4-.3 1.3 1.1-1.3.2-1.3-1 1.3Z"/><path fill="#C7FF30" d="m30.6 17.2.9-1-.3 1-1 .8.4-.8Z"/><path fill="#FEED00" d="m37.2 15.3.2-1.4-.4-.7-.3 1.5.5.6Z"/><path fill="#56FFA0" d="m35 23.4 1.8-.9.2-.8-1.8.9-.2.8Z"/><path fill="#A80000" d="m5.6 2-.7 1 1.3-.5.6-1-1.2.5Z"/><path fill="#00D4FF" d="m27.1 27.8 2.8-.6h.5l-2.8.6h-.5Z"/><path fill="#97FF60" d="m28.6 19.6 1.5-.8-.1 1-1.5.6v-.8Z"/><path fill="#29FFCE" d="m24.2 24.8 2.6-.5.3.7-2.6.6-.3-.8Z"/><path fill="#00C4FF" d="m2.3 28.9.3.8-.6-2.1-.3-.9.6 2.2Z"/><path fill="#1CFFDB" d="m31.7 26.1 2.4-.7.4-.6-2.4.8-.4.5Z"/><path fill="#0000CD" d="m10 38.5-.2.1-1.2-.4v-.1l1.3.4Z"/><path fill="#66FF90" d="m26.3 21.9 2.1-.6.1.8-2 .6-.2-.8Z"/><path fill="#FFDE00" d="M32.8 14.3 33 13l-.5.6-.2 1.2.5-.5Z"/><path fill="#FFD300" d="m.5 13.8.3 1.4.5-2.1-.3-1.4-.5 2.1Z"/><path fill="#40FFB7" d="m17.7 22.5.2 1.3-.3 2.4-.1-1.4.2-2.3Z"/><path fill="#00DCFE" d="m27.6 27.8 2.8-.7.5-.2-2.8.7-.5.2Z"/><path fill="#FFDB00" d="m36.7 14.7.3-1.5-.5-.5-.3 1.4.5.6Z"/><path fill="#B7FF40" d="m37 19 1-1.2-.2-1-1 1.3.2.9Z"/><path fill="#FFE600" d="m16.2 13 .5 1 .5 2.4-.6-.9-.4-2.4Z"/><path fill="#0054FF" d="m4.1 33.4.1.4-.8-1.7-.1-.5.8 1.8Z"/><path fill="#56FFA0" d="m1 23.4.4 1.1-.2-2.3-.3-1.1.1 2.3Z"/><path fill="#3CFFBA" d="m24 24 2.6-.5.2.8-2.6.5-.2-.7Z"/><path fill="#005CFF" d="m16.6 31.5.1 1-.8 1.7v-1l.8-1.7Z"/><path fill="#FF6400" d="m14.7 7.8.2.7.7 2.2-.2-.8-.7-2.1Z"/><path fill="#FFD000" d="m33.3 13.9.2-1.4-.5.5-.2 1.3.5-.4Z"/><path fill="#DEFF19" d="m31 16.5.8-1-.3.8-1 1 .5-.8Z"/><path fill="#890000" d="m9.9.9-.7.7 1.3.7.5-.8L9.9 1Z"/><path fill="#6DFF8A" d="m35.2 22.6 1.8-1v-.8l-1.7 1-.1.8Z"/><path fill="#FC0" d="m36.2 14.1.3-1.4-.6-.4-.2 1.5.5.3Z"/><path fill="#ADFF49" d="m28.8 18.8 1.5-.8-.2.8-1.5.8.2-.8Z"/><path fill="#2CFFCA" d="m32.1 25.6 2.4-.8.3-.6-2.4.8-.3.6Z"/><path fill="#7DFF7A" d="m26.4 21 2-.6v.9l-2 .6V21Z"/><path fill="#00DCFE" d="m23 28.1 3-.7-.5-.4-3 .7.5.4Z"/><path fill="#02E8F4" d="m22.5 27.7 3-.7-.4-.5-3 .7.4.5Z"/><path fill="#FFC400" d="m34 13.6.1-1.4-.6.3-.2 1.4.6-.3Z"/><path fill="#0000ED" d="m13.7 37.2-.1.5-1.2.6.2-.5 1.1-.6Z"/><path fill="#02E8F4" d="m28.1 27.6 2.8-.7.4-.3-2.8.7-.4.3Z"/><path fill="#00D4FF" d="m23.5 28.4 3-.7-.6-.3-3 .7.6.3Z"/><path fill="#0000D1" d="m11.2 38.5-.2.2-1.2-.1.1-.1h1.3Z"/><path fill="#FFC400" d="m35.7 13.8.2-1.5-.6-.2-.2 1.5.6.2Z"/><path fill="#53FFA4" d="m23.9 23.3 2.5-.6.2.8-2.6.6-.1-.8Z"/><path fill="#0FF8E7" d="m22 27.2 3-.7-.3-.6-3 .7.4.6Z"/><path fill="#FFC100" d="m34.5 13.5.2-1.4-.6.1-.2 1.4.6-.1Z"/><path fill="#CEFF29" d="m36.8 18.1 1-1.2-.3-.9-1 1.3.3.8Z"/><path fill="#FFBD00" d="m35.1 13.6.2-1.5h-.6l-.2 1.4h.6Z"/><path fill="#00D4FF" d="m24 28.5 3-.7-.6-.1-3 .7.6.1Z"/><path fill="#F1FC06" d="m31.4 15.9.9-1-.5.6-.8 1 .4-.6Z"/><path fill="#FF2D00" d="M14 5.8v.7l.9 2-.2-.7-.8-2Z"/><path fill="#1CFFDB" d="m21.7 26.6 3-.7-.3-.7-3 .7.3.7Z"/><path fill="#FF4E00" d="m1.5 8.4.2 1.4 1-1.7-.3-1.4-.9 1.7Z"/><path fill="#C4FF33" d="m17.2 16.4.3 1.2.2 2.4-.3-1.1-.2-2.5Z"/><path fill="#9B0000" d="m11 1.5-.5.8 1.2 1 .3-.7-1-1Z"/><path fill="#D4FF23" d="m.5 17.4.4 1.4.3-2.2-.4-1.4-.3 2.2Z"/><path fill="#008CFF" d="m3.3 31.6.1.5-.7-1.9-.1-.5.7 2Z"/><path fill="#87FF70" d="m35.3 21.7 1.8-1V20l-1.8 1v.8Z"/><path fill="#00D4FF" d="m24.5 28.6 2.9-.8h-.5l-3 .7h.6Z"/><path fill="#8D0000" d="m6.8 1.4-.6 1.1 1.4-.2.4-1-1.2.1Z"/><path fill="#C4FF33" d="m29 18 1.6-.8-.3.8-1.5.8.2-.7Z"/><path fill="#43FFB4" d="m32.4 25 2.4-.8.2-.8-2.4.8-.2.8Z"/><path fill="#0FF8E7" d="m28.5 27.3 2.8-.7.4-.5-2.8.8-.4.4Z"/><path fill="#0028FF" d="m15.9 34.2-.1.8-1 1.2v-.7l1-1.3Z"/><path fill="#02E8F4" d="m17.6 26.2.2 1.2-.5 2.2-.1-1.3.4-2.1Z"/><path fill="#94FF63" d="m26.5 20.2 2-.6v.8l-2.1.6v-.8Z"/><path fill="#1CFFDB" d="m1.7 26.7.3.9-.3-2.2-.3-.9.3 2.2Z"/><path fill="#00F" d="M7.4 37.5h-.1l-1.1-1 1.2 1Z"/><path fill="#66FF90" d="m23.8 22.4 2.5-.5.1.8-2.5.6v-.9Z"/><path fill="#0010FF" d="m6.2 36.5-1-1.2 1 1.2Z"/><path fill="#30FFC7" d="m21.4 25.9 3-.7-.3-.7-3 .6.3.8Z"/><path fill="#E4FF13" d="m36.5 17.3 1-1.3-.3-.7-1 1.3.3.7Z"/><path fill="#E80000" d="m13 4-.1.7 1 1.8v-.7L13 4Z"/><path fill="#B00" d="m12 2.6-.3.7L13 4.7 13 4l-1-1.4Z"/><path fill="#D10000" d="m3.7 4-.2 1.4 1.2-1L5 3.1 3.7 4Z"/><path fill="#FEED00" d="m31.9 15.4.9-1.1-.5.5-1 1.1.6-.5Z"/><path fill="#0000F1" d="m8.6 38.2-.2-.1-1.1-.7v.1l1.3.7Z"/><path fill="#FF9F00" d="m15.6 10.7.5.9.6 2.4-.5-1-.6-2.3Z"/><path fill="#00D8FF" d="m25 28.4 2.9-.7-.5.1-3 .8.5-.2Z"/><path fill="#0038FF" d="m5.2 35.3-1-1.4v-.1l1 1.5Z"/><path fill="#0000E3" d="m12.4 38.3-.3.1-1.1.3.2-.2 1.2-.2Z"/><path fill="#9DFF5A" d="m35.3 20.9 1.8-1-.1-1L35 20l.2.9Z"/><path fill="#43FFB4" d="m21.1 25.1 3-.6-.2-.8-3 .6.2.8Z"/><path fill="#F4F802" d="m36.1 16.6 1-1.3-.4-.6-1 1.3.4.6Z"/><path fill="#1FFFD7" d="m29 26.9 2.7-.8.4-.5-2.8.8-.4.5Z"/><path fill="#D7FF1F" d="m29.4 17.4 1.6-.9-.4.7-1.6.9.4-.7Z"/><path fill="#00D8FF" d="m20 28.9 3-.8-.5-.4-3 .8.4.4Z"/><path fill="#56FFA0" d="m32.6 24.2 2.4-.8.2-.8-2.4.9-.2.7Z"/><path fill="#00E4F8" d="m19.5 28.5 3-.8-.4-.5-3 .7.4.6Z"/><path fill="#FFDE00" d="m32.4 15 1-1.1-.6.4-1 1.1.6-.3Z"/><path fill="#7DFF7A" d="m23.8 21.6 2.6-.6v.9l-2.6.5v-.8Z"/><path fill="#AAFF4D" d="m26.6 19.5 2.2-.7-.2.8-2.1.6.1-.7Z"/><path fill="#0000E8" d="m9.8 38.6-.3-.2-1.1-.3.2.1 1.2.4Z"/><path fill="#00D0FF" d="m20.4 29.2 3-.8-.4-.3-3 .8.4.3Z"/><path fill="#94FF63" d="m.9 21 .3 1.2V20L1 18.8V21Z"/><path fill="#0CF4EB" d="m19 28 3-.8-.3-.6-3 .7.3.6Z"/><path fill="#00E4F8" d="m25.4 28.2 3-.7-.5.2-3 .7.5-.2Z"/><path fill="#83FF73" d="m17.7 20 .2 1.4v2.4l-.2-1.3V20Z"/><path fill="#FF9100" d="m1 11.7.3 1.4.7-1.9-.3-1.4-.7 1.9Z"/><path fill="#0008FF" d="m14.8 36.2-.2.5-1 1 .1-.5 1.1-1Z"/><path fill="#FFE600" d="m35.7 16 1-1.3-.5-.6-1 1.4.5.5Z"/><path fill="#0CF" d="m21 29.3 3-.8-.5-.1-3 .8.5.1Z"/><path fill="#00A0FF" d="M17.3 29.6v1l-.6 2v-1.1l.6-2Z"/><path fill="#0CF" d="m2.6 29.7.1.5-.5-2-.2-.6.6 2Z"/><path fill="#FFD300" d="m33 14.8 1-1.2-.7.3-.9 1.2.6-.3Z"/><path fill="#0064FF" d="m4.2 33.8-.7-1.5V32l.7 1.7Z"/><path fill="#1CFFDB" d="m18.6 27.3 3.1-.7-.3-.7-3.1.7.3.7Z"/><path fill="#5AFF9D" d="m21 24.3 3-.6-.2-.9-3 .7.1.8Z"/><path fill="maroon" d="m8 1.3-.4 1 1.4.3.2-1L8 1.3Z"/><path fill="#B4FF43" d="m35.1 20 1.9-1-.2-.9-1.8 1.1.1.8Z"/><path fill="#FFDB00" d="m35.2 15.5 1-1.4-.5-.3-1 1.3.5.4Z"/><path fill="#E7FF0F" d="m29.8 16.9 1.6-1-.4.6-1.6 1 .4-.6Z"/><path fill="#FFD000" d="m33.5 14.8 1-1.3-.6.1-1 1.2h.6Z"/><path fill="#00D0FF" d="m21.5 29.4 3-.8H24l-3 .7h.5Z"/><path fill="#30FFC7" d="m29.3 26.4 2.8-.8.3-.6-2.8.7-.3.7Z"/><path fill="#FFD000" d="m34.7 15.1 1-1.3-.6-.2-1 1.3.6.2Z"/><path fill="#FC0" d="m34.1 14.9 1-1.3-.6-.1-1 1.3h.6Z"/><path fill="#6DFF8A" d="m32.8 23.5 2.4-1v-.8l-2.4 1v.8Z"/><path fill="#94FF63" d="m24 20.8 2.5-.6-.2.8-2.5.6.1-.8Z"/><path fill="#C1FF36" d="M26.9 18.8 29 18l-.2.7-2.2.7.3-.7Z"/><path fill="#0CF4EB" d="m25.8 27.8 3-.7-.5.4-2.9.7.4-.4Z"/><path fill="#2CFFCA" d="m18.3 26.6 3-.7-.2-.8-3.1.7.3.8Z"/><path fill="#FF6000" d="m14.9 8.5.3.9.9 2.2-.5-.9-.7-2.2Z"/><path fill="#FFE600" d="M16.7 14 17 15l.5 2.5-.3-1.2-.5-2.4Z"/><path fill="#0000ED" d="m11 38.7-.4-.2h-1l.2.1H11Z"/><path fill="#56FFA0" d="m1.4 24.5.3 1-.2-2.2-.3-1 .2 2.2Z"/><path fill="#6DFF8A" d="m20.8 23.5 3-.7V22l-3 .6v.9Z"/><path fill="#00D4FF" d="m22 29.2 3-.8-.5.2-3 .8.5-.2Z"/><path fill="#FF1A00" d="m2.4 6.7.2 1.4 1-1.3V5.4L2.3 6.7Z"/><path fill="#CAFF2C" d="m35 19.2 1.8-1.1-.3-.8-1.8 1.1.3.8Z"/><path fill="#000CFF" d="m7.3 37.4-.2-.3-1-1v.4l1.2 1Z"/><path fill="#00F" d="m13.6 37.7-.4.1-1 .6.2-.1 1.2-.6Z"/><path fill="#00D0FF" d="m17 29.7 3-.8-.5-.4-3 .8.5.4Z"/><path fill="#00DCFE" d="m16.5 29.3 3-.8-.5-.6-3 .8.5.6Z"/><path fill="#0028FF" d="M6.2 36.5v-.3l-1-1.1v.2l1 1.2Z"/><path fill="#F8F500" d="m30.2 16.4 1.7-1-.5.5-1.6 1 .4-.5Z"/><path fill="#A40000" d="m5 3-.3 1.4 1.4-.6.1-1.3-1.3.6Z"/><path fill="#00C8FF" d="m17.5 30 3-.8-.6-.3-3 .8.6.4Z"/><path fill="#0064FF" d="M16.7 32.5v.9l-.9 1.6v-.8l1-1.7Z"/><path fill="gold" d="m.8 15.2.4 1.4.5-2-.4-1.5-.5 2.1Z"/><path fill="#0098FF" d="m3.4 32 .1.3-.6-1.8-.2-.3.7 1.9Z"/><path fill="#43FFB4" d="m18 25.8 3.1-.7-.2-.8-3 .7.1.8Z"/><path fill="#06ECF1" d="m16 28.7 3-.8-.4-.6-3 .8.4.6Z"/><path fill="#00F" d="m8.4 38-.2-.3-1-.6v.3l1.2.7Z"/><path fill="#43FFB4" d="m29.6 25.7 2.8-.7.2-.8-2.8.8-.2.7Z"/><path fill="#83FF73" d="m32.8 22.6 2.5-.9V21l-2.5.9v.8Z"/><path fill="#840000" d="m9.2 1.6-.2 1 1.4.6.1-1-1.3-.6Z"/><path fill="#19FFDE" d="m26.2 27.3 3-.7-.5.5-2.9.7.4-.5Z"/><path fill="#40FFB7" d="m17.9 23.8.1 1.3-.2 2.3-.2-1.2.3-2.4Z"/><path fill="#00C4FF" d="m18 30.2 3-.9-.6-.1-2.9.9.6.1Z"/><path fill="#D4FF23" d="m27.2 18.2 2.2-.8-.4.7-2.1.7.3-.6Z"/><path fill="#AAFF4D" d="m24 20 2.6-.5-.1.7-2.6.6.2-.7Z"/><path fill="#004CFF" d="M5.2 35.3V35l-.9-1.4v.2l.9 1.4Z"/><path fill="#00E0FB" d="m22.4 29 3-.8-.5.2-3 .8.5-.2Z"/><path fill="#16FFE1" d="m15.6 28 3-.7-.3-.7-3 .7.3.8Z"/><path fill="#DEFF19" d="m34.7 18.4 1.8-1-.4-.8-1.8 1.1.4.7Z"/><path fill="#FF2900" d="m14 6.5.2.9 1 2-.3-1-1-2Z"/><path fill="#FFEA00" d="m30.8 16.1 1.6-1-.5.3-1.7 1 .6-.3Z"/><path fill="#83FF73" d="m20.8 22.6 3-.6v-.8l-3 .6v.8Z"/><path fill="#1FFFD7" d="m2 27.6.2.6-.3-2-.2-.8.3 2.2Z"/><path fill="#00F" d="m9.5 38.4-.3-.4-1-.3.2.4 1.1.3Z"/><path fill="#00C4FF" d="m18.6 30.3 2.9-1H21l-3 1h.6Z"/><path fill="#56FFA0" d="m17.8 25 3.1-.7v-.8l-3.2.6.1.9Z"/><path fill="#00F" d="m12.1 38.4-.4-.1-1 .2.3.2 1.1-.3Z"/><path fill="#29FFCE" d="m15.2 27.3 3-.7-.2-.8-3 .7.2.8Z"/><path fill="#EEFF09" d="m34.3 17.7 1.8-1.1-.4-.6-1.8 1.1.4.6Z"/><path fill="#920000" d="m10.5 2.3-.1 1 1.3 1v-1l-1.2-1Z"/><path fill="#0038FF" d="m15.8 35-.3.5-.9 1.2.2-.5 1-1.2Z"/><path fill="#FFDE00" d="m31.3 16 1.7-1.2-.6.3-1.6 1 .5-.2Z"/><path fill="#9AFF5D" d="m32.8 21.8 2.5-1-.2-.8-2.4 1 .1.8Z"/><path fill="#0074FF" d="M4.3 33.9v-.2l-.7-1.5h-.1l.8 1.7Z"/><path fill="#5AFF9D" d="m29.8 25 2.8-.8.2-.7-2.9.8-.1.7Z"/><path fill="#00C4FF" d="m14.3 30.7 2.7-1-.5-.4-2.8 1 .6.4Z"/><path fill="#00D0FF" d="m13.7 30.2 2.8-.9-.5-.6-2.8.9.5.6Z"/><path fill="#D1FF26" d="m1 18.8.3 1.2.2-2.1-.3-1.3-.3 2.2Z"/><path fill="#E4FF13" d="m27.6 17.7 2.2-.8-.4.5-2.2.8.4-.5Z"/><path fill="#DF0000" d="m12.9 4.7.1 1 1.2 1.7-.3-1-1-1.7Z"/><path fill="#29FFCE" d="m26.5 26.8 3-.7-.4.5-3 .7.4-.5Z"/><path fill="#C4FF33" d="m17.5 17.6.2 1.3.2 2.5-.2-1.4-.2-2.4Z"/><path fill="#00BCFF" d="m14.9 31 2.6-1-.5-.3-2.7 1 .6.3Z"/><path fill="#09F0EE" d="m22.9 28.6 3-.8-.5.4-3 .8.5-.4Z"/><path fill="#BEFF39" d="m24.3 19.4 2.6-.6-.3.7-2.5.6.2-.7Z"/><path fill="#B20000" d="M11.7 3.3v1L13 5.7l-.1-1-1.2-1.4Z"/><path fill="#0CF" d="m19.1 30.1 2.9-.9-.5.2-2.9.9.5-.2Z"/><path fill="#00E0FB" d="m13.2 29.6 2.8-.9-.4-.6-2.8.8.4.7Z"/><path fill="#FBF100" d="m34 17.1 1.7-1.1-.5-.5-1.8 1.1.5.5Z"/><path fill="#FF5200" d="m1.7 9.8.3 1.4 1-1.6L2.5 8l-.9 1.7Z"/><path fill="#FFDB00" d="m31.8 15.9 1.7-1.1H33L31.3 16h.5Z"/><path fill="#FF9F00" d="m16 11.6.4 1.1.6 2.4-.3-1.1-.6-2.4Z"/><path fill="#00D4FF" d="m2.7 30.2.2.3-.5-1.9-.2-.4.5 2Z"/><path fill="#0028FF" d="M7.1 37v-.5l-1-.8v.5l1 .9Z"/><path fill="#00B8FF" d="m15.5 31.2 2.6-1-.6-.1-2.6 1 .6.1Z"/><path fill="#9AFF5D" d="m20.8 21.8 3-.6.2-.8-3 .7-.2.7Z"/><path fill="#02E8F4" d="M17.8 27.4v1.2l-.4 2v-1l.4-2.2Z"/><path fill="#0040FF" d="M6.1 36.2v-.5l-.8-1-.1.4 1 1Z"/><path fill="#6DFF8A" d="m17.7 24 3.1-.5v-.9l-3.2.6v.9Z"/><path fill="#40FFB7" d="m15 26.5 3-.7-.2-.8-3 .6.1.9Z"/><path fill="#FFE600" d="m33.5 16.6 1.7-1.1-.5-.4-1.8 1.2.5.3Z"/><path fill="gold" d="m32.4 16 1.7-1.1-.6-.1-1.7 1.1.6.1Z"/><path fill="#00F" d="m10.6 38.5-.3-.4h-1l.2.3 1.1.1Z"/><path fill="#FFDB00" d="m33 16.3 1.7-1.2-.6-.2-1.7 1.1.5.3Z"/><path fill="#0FF8E7" d="m12.8 28.9 2.8-.8-.4-.8-2.8.7.4.9Z"/><path fill="#0018FF" d="M8.2 37.7 8 37l-1-.5v.6l1 .6Z"/><path fill="#890000" d="m6.2 2.5-.1 1.3 1.4-.2V2.3l-1.3.2Z"/><path fill="#0018FF" d="m14.6 36.7-.4.2-1 1 .4-.2 1-1Z"/><path fill="#B1FF46" d="m32.7 21 2.4-1-.1-.8-2.5 1 .2.8Z"/><path fill="#F1FC06" d="m28 17.3 2.2-.9-.4.5-2.2.8.4-.4Z"/><path fill="#0060FF" d="m5.2 35 .1-.4-.8-1.2-.2.3.9 1.4Z"/><path fill="#6DFF8A" d="m30 24.3 2.8-.8v-.9l-2.8.9-.1.8Z"/><path fill="#00B8FF" d="m16 31.2 2.6-1h-.5l-2.6 1h.5Z"/><path fill="#94FF63" d="m1.2 22.2.3 1v-2L1.3 20v2.2Z"/><path fill="#00D8FF" d="m19.6 29.9 2.8-1-.4.3-2.9 1 .5-.3Z"/><path fill="#00B4FF" d="m12 31.7 2.3-1-.6-.5-2.3 1 .6.5Z"/><path fill="#3CFFBA" d="m26.7 26 3-.6-.3.7-2.9.7.2-.7Z"/><path fill="#16FFE1" d="m23.3 28.1 2.9-.8-.4.5-3 .8.5-.5Z"/><path fill="#00C0FF" d="m11.4 31.2 2.3-1-.5-.6-2.4.9.6.7Z"/><path fill="#00A8FF" d="M3.5 32.3h.1L3 30.5H3l.6 1.7Z"/><path fill="#D1FF26" d="m24.6 18.8 2.6-.6-.3.6-2.6.6.3-.6Z"/><path fill="#D10000" d="m3.5 5.4.2 1.4 1.2-1-.2-1.4-1.2 1Z"/><path fill="#00A8FF" d="m12.6 32 2.3-1-.6-.3-2.3 1 .6.4Z"/><path fill="#23FFD4" d="m12.4 28 2.8-.7-.3-.8-2.8.6.3 1Z"/><path fill="#0010FF" d="m9.2 38-.1-.6-1-.4v.7l1.1.3Z"/><path fill="#00D4FF" d="m10.8 30.5 2.4-.9-.4-.7-2.5.8.5.8Z"/><path fill="#56FFA0" d="m14.7 25.6 3.1-.6-.1-1-3.1.7.1.9Z"/><path fill="#0008FF" d="M13.2 37.8h-.4l-1 .5.3.1 1.1-.6Z"/><path fill="#83FF73" d="m17.6 23.2 3.2-.6v-.8l-3.1.6v.8Z"/><path fill="#B1FF46" d="m21 21 3-.6.2-.7-3 .6-.2.8Z"/><path fill="#C4FF33" d="m32.5 20.2 2.5-1-.3-.8-2.4 1 .2.8Z"/><path fill="#00A8FF" d="m13.2 32.3 2.3-1-.6-.3-2.3 1 .6.3Z"/><path fill="#FEED00" d="m28.5 17 2.3-.9-.6.3-2.2.9.5-.3Z"/><path fill="#00A8FF" d="m17.4 30.7-.2.9-.6 1.8.1-.9.7-1.8Z"/><path fill="#00C0FF" d="m16.6 31.1 2.5-1-.5.2-2.6 1 .6-.2Z"/><path fill="#0040FF" d="m7.1 36.5.2-.8-.9-.8-.2.8 1 .8Z"/><path fill="#08F" d="m4.3 33.7.2-.3-.7-1.4-.2.2.7 1.5Z"/><path fill="#5AFF9D" d="m1.7 25.4.2.8-.2-2-.2-1 .2 2.2Z"/><path fill="#0058FF" d="m6.2 35.7.2-.8-.8-1-.3.7.9 1Z"/><path fill="#FF9400" d="m1.3 13.1.4 1.4.7-1.8-.4-1.5-.7 1.9Z"/><path fill="#06ECF1" d="m10.3 29.7 2.5-.8-.4-.9-2.5.8.4 1Z"/><path fill="#00A0FF" d="m10.1 32.7 1.9-1-.6-.5-2 1 .7.5Z"/><path fill="#02E8F4" d="m20 29.5 2.9-.9-.5.4-2.8.9.5-.4Z"/><path fill="#00B0FF" d="m9.4 32.2 2-1-.6-.7-2 1 .6.7Z"/><path fill="#83FF73" d="m17.9 21.4.1 1.3v2.4l-.1-1.3v-2.4Z"/><path fill="#0034FF" d="m8 37 .2-.8-.9-.5-.2.8 1 .5Z"/><path fill="#83FF73" d="m30 23.5 2.8-.9v-.8l-2.9.8v.9Z"/><path fill="#0008FF" d="m11.7 38.3-.4-.5-1 .3.3.4 1.1-.2Z"/><path fill="#39FFBE" d="m12 27.1 3-.6-.3-1-2.9.7.3 1Z"/><path fill="#FF6000" d="m15.2 9.4.3 1.1.9 2.2-.3-1.1-.9-2.2Z"/><path fill="#0094FF" d="m10.8 33.1 1.8-1-.6-.4-1.9 1 .7.4Z"/><path fill="#E1FF16" d="m25 18.3 2.6-.6-.4.5-2.6.6.4-.5Z"/><path fill="#29FFCE" d="m23.6 27.5 2.9-.7-.3.5-3 .8.4-.6Z"/><path fill="#53FFA4" d="m27 25.3 2.8-.6-.1.7-3 .7.2-.8Z"/><path fill="#0074FF" d="m5.3 34.6.3-.6-.7-1.2-.4.6.8 1.2Z"/><path fill="#00A8FF" d="m13.9 32.3 2.1-1h-.5l-2.3 1h.7Z"/><path fill="#D7FF1F" d="m32.3 19.4 2.4-1-.4-.7-2.4 1 .4.7Z"/><path fill="#00C4FF" d="m8.8 31.4 2-.9-.5-.8-2 .9.5.8Z"/><path fill="#FFE600" d="m29 16.8 2.3-.9-.5.2-2.3.9.5-.2Z"/><path fill="#26FFD1" d="m2.2 28.2.2.4-.4-1.9-.1-.5.3 2Z"/><path fill="#0014FF" d="m10.3 38-.2-.6H9l.1.6h1.1Z"/><path fill="#6DFF8A" d="m14.6 24.7 3-.6v-.9l-3 .5v1Z"/><path fill="maroon" d="M7.6 2.3v1.3l1.4.2V2.6l-1.4-.3Z"/><path fill="#005CFF" d="m7.3 35.7.5-1-.8-.6-.6.8.9.8Z"/><path fill="#008CFF" d="m8.7 33.8 1.4-1-.7-.6-1.4 1 .7.6Z"/><path fill="#0070FF" d="m6.4 35 .6-1-.7-.8-.7.8.8 1Z"/><path fill="#1CFFDB" d="m9.9 28.8 2.5-.8-.3-.9-2.6.7.4 1Z"/><path fill="#009CFF" d="m8 33.1 1.5-1-.7-.7-1.5 1 .7.7Z"/><path fill="#0094FF" d="m11.5 33.3 1.7-1-.6-.2-1.8 1 .7.2Z"/><path fill="#002CFF" d="m9 37.4.1-.9-.9-.3-.1.8 1 .4Z"/><path fill="#FFE600" d="m17 15.1.2 1.4.4 2.4v-1.3L17 15Z"/><path fill="#0CF" d="m17.1 30.8 2.5-1-.5.3-2.5 1 .5-.3Z"/><path fill="#0070FF" d="m16.6 33.4-.3.6-.8 1.5.3-.5.8-1.6Z"/><path fill="#9AFF5D" d="m17.7 22.4 3.1-.6.2-.7-3.2.5-.1.8Z"/><path fill="#C4FF33" d="m21.2 20.3 3-.6.3-.6-3 .6-.3.6Z"/><path fill="#0074FF" d="m7.8 34.8 1-1L8 33l-1 1 .8.7Z"/><path fill="#0080FF" d="m9.5 34.2 1.3-1-.7-.5-1.4 1 .8.5Z"/><path fill="#004CFF" d="m8.2 36.2.4-1-.8-.4-.5.9.9.5Z"/><path fill="#00E0FB" d="M2.9 30.5H3l-.4-1.7-.2-.2.4 2Z"/><path fill="#E7FF0F" d="m32 18.7 2.3-1-.4-.6-2.4 1 .4.6Z"/><path fill="#0084FF" d="m7 34 1-.9-.7-.8-1 1 .7.8Z"/><path fill="#FFE200" d="m29.6 16.8 2.2-.9h-.5L29 17h.6Z"/><path fill="#00E0FB" d="m8.3 30.6 2-.9-.4-.9-2 .8.4 1Z"/><path fill="#00B4FF" d="m7.3 32.3 1.5-.9-.5-.8-1.6.8.6 1Z"/><path fill="#008CFF" d="m5.6 34 .7-.8-.7-1-.7.6.7 1.2Z"/><path fill="#00B4FF" d="m3.6 32.2.2-.2-.5-1.5H3l.6 1.7Z"/><path fill="#0068FF" d="m8.6 35.3.9-1-.8-.5-.9 1 .8.5Z"/><path fill="#9AFF5D" d="m30 22.6 2.8-.8V21l-3 .8.1.8Z"/><path fill="#009CFF" d="m4.5 33.4.4-.6-.6-1.2-.5.4.7 1.4Z"/><path fill="#13FCE4" d="m20.5 29 2.8-.9-.4.5-2.8.9.4-.6Z"/><path fill="#00B0FF" d="m14.5 32.1 2.1-1-.6.1-2.1 1h.6Z"/><path fill="#FFDB00" d="m1.2 16.6.3 1.3.5-2-.3-1.4-.5 2Z"/><path fill="#53FFA4" d="m11.8 26.2 3-.6-.2-1-3 .6.2 1Z"/><path fill="#EEFF09" d="m25.4 18 2.6-.7-.4.4-2.6.6.4-.4Z"/><path fill="#F4F802" d="m31.5 18.1 2.4-1-.5-.5-2.3 1 .4.5Z"/><path fill="#00A0FF" d="m6.3 33.2 1-.9-.6-1-1 .9.6 1Z"/><path fill="#FFE200" d="m30 17 2.4-1-.6-.1-2.2 1h.5Z"/><path fill="#007CFF" d="m10.2 34.5 1.3-1.2-.7-.2-1.3 1.1.7.3Z"/><path fill="#0094FF" d="m12.2 33.4 1.7-1.1h-.7l-1.7 1h.7Z"/><path fill="#04F" d="m15.5 35.5-.4.3-.9 1.1.4-.2 1-1.2Z"/><path fill="#FF1E00" d="M2.6 8.1 3 9.6l1-1.3-.2-1.5-1 1.3Z"/><path fill="#66FF90" d="m27 24.5 3-.6-.2.8-2.9.6.1-.8Z"/><path fill="#0048FF" d="m9.1 36.5.4-1-.9-.2-.4 1 1 .2Z"/><path fill="#FEED00" d="m31 17.6 2.4-1-.5-.3-2.3 1 .5.3Z"/><path fill="#3CFFBA" d="m23.8 26.8 3-.7-.3.7-3 .7.3-.7Z"/><path fill="#FFE200" d="m30.6 17.2 2.3-1-.5-.2-2.3 1 .5.2Z"/><path fill="#36FFC1" d="m9.5 27.8 2.6-.7-.3-1-2.5.7.2 1Z"/><path fill="#0064FF" d="m9.5 35.5.7-1-.7-.3-.9 1 .9.3Z"/><path fill="#00D0FF" d="m6.7 31.4 1.6-.8-.5-1-1.6.7.5 1Z"/><path fill="#FF2900" d="m14.2 7.4.2 1.1 1 2-.2-1.1-1-2Z"/><path fill="#87FF70" d="m14.5 23.7 3.1-.5v-.8l-3 .4v1Z"/><path fill="#0030FF" d="M10 37.4v-.8h-.9v.8h1Z"/><path fill="#13FCE4" d="m7.8 29.6 2-.8-.3-1-2 .7.3 1Z"/><path fill="#43FFB4" d="M18 25.1v1.2l-.2 2.3v-1.2l.2-2.3Z"/><path fill="#00ACFF" d="m5 32.8.6-.6L5 31l-.7.6.6 1.2Z"/><path fill="#002CFF" d="m14.2 37-.5-.1-1 .8.5.1 1-.9Z"/><path fill="#A80000" d="M4.7 4.4 5 5.8l1.3-.6-.1-1.4-1.4.6Z"/><path fill="#00DCFE" d="m17.6 30.4 2.5-1-.5.5-2.5 1 .5-.5Z"/><path fill="maroon" d="M9 2.6v1.2l1.4.6V3.2L9 2.6Z"/><path fill="#0020FF" d="m11.3 37.9-.3-.7-1 .2.3.7 1-.2Z"/><path fill="#D7FF1F" d="m21.4 19.7 3-.6.4-.5-3 .5-.4.6Z"/><path fill="#00C0FF" d="m5.6 32.2 1.1-.8-.5-1.1L5 31l.6 1.2Z"/><path fill="#0020FF" d="m12.8 37.7-.5-.4-1 .5.4.5 1-.6Z"/><path fill="#B1FF46" d="M17.8 21.6 21 21l.2-.7-3.2.5-.2.8Zm12 .2 3-.8-.3-.8-2.8.8.1.8Z"/><path fill="#CEFF29" d="m1.3 20 .2 1.1.3-2-.3-1.2-.2 2.1Z"/><path fill="#007CFF" d="m11 34.5 1.2-1.1h-.7l-1.3 1 .8.1Z"/><path fill="#FBF100" d="m25.9 17.7 2.6-.7-.5.3-2.6.6.5-.2Z"/><path fill="#00BCFF" d="m15 31.8 2.1-1-.5.3-2.1 1 .6-.3Z"/><path fill="#00C4FF" d="m3.8 32 .5-.4-.5-1.5-.5.4.5 1.5Z"/><path fill="#009CFF" d="m12.9 33.2 1.6-1h-.6l-1.7 1.2.7-.2Z"/><path fill="#6DFF8A" d="m11.7 25.2 2.9-.5v-1l-3 .5v1Z"/><path fill="#004CFF" d="m10 36.6.3-1h-.8l-.4 1h1Z"/><path fill="#23FFD4" d="m20.8 28.3 2.8-.8-.3.6-2.8.8.3-.6Z"/><path fill="#0064FF" d="m10.3 35.6.7-1.1h-.8l-.7 1h.8Z"/><path fill="#09F0EE" d="m6.2 30.3 1.6-.7-.4-1.1-1.6.6.4 1.2Z"/><path fill="#DF0000" d="m13 5.7.2 1.1 1.2 1.7-.2-1.1L13 5.7Z"/><path fill="#7DFF7A" d="m27 23.7 3-.7v.9l-3 .6v-.8Z"/><path fill="#02E8F4" d="m3 30.6.3-.1-.4-1.7h-.3l.4 1.8Z"/><path fill="#94FF63" d="m1.5 23.3.2.8v-2l-.1-1-.1 2.2Z"/><path fill="#920000" d="M10.4 3.2v1.2l1.4 1V4.3l-1.4-1Z"/><path fill="#50FFA7" d="m24 26 3-.7-.3.8-2.9.7.2-.8Zm-14.7.8 2.5-.6-.1-1-2.6.5.2 1Z"/><path fill="#30FFC7" d="m7.4 28.5 2.1-.7-.2-1-2.2.5.3 1.2Z"/><path fill="#C4FF33" d="m29.7 21 2.8-.8-.2-.8-2.9.8.3.8Z"/><path fill="#2CFFCA" d="m2.4 28.6.2.2-.3-1.8-.3-.3.4 2Z"/><path fill="#00D4FF" d="M4.3 31.6 5 31l-.4-1.3-.8.4.5 1.5Z"/><path fill="#5AFF9D" d="m1.9 26.2.1.5v-2l-.3-.6.2 2Z"/><path fill="#B20000" d="m11.7 4.3.1 1.1 1.4 1.4-.2-1.1-1.3-1.4Z"/><path fill="#00E4F8" d="m5 31 1.2-.7-.4-1.2-1.2.6L5 31Z"/><path fill="#FFEA00" d="m26.3 17.6 2.7-.8-.5.2-2.6.7.4-.1Z"/><path fill="#9DFF5A" d="m14.6 22.8 3-.4.2-.8-3 .4-.2.8Z"/><path fill="#E7FF0F" d="m21.8 19.1 3-.5.4-.5-3 .6-.4.4Z"/><path fill="#09F0EE" d="m18 29.8 2.5-.9-.4.6-2.5.9.5-.6Z"/><path fill="#06ECF1" d="m17.8 28.6-.1 1-.5 2 .2-1 .4-2Z"/><path fill="#003CFF" d="m11 37.2-.1-.8-.9.2v.8l1-.2Z"/><path fill="#08F" d="m11.7 34.3 1.2-1h-.7L11 34.6l.7-.2Z"/><path fill="#C4FF33" d="m17.6 19 .2 1.3.2 2.4-.1-1.3-.3-2.5Z"/><path fill="#FF9F00" d="m16.4 12.7.1 1.4.7 2.4L17 15l-.6-2.4Z"/><path fill="#C7FF30" d="m18 20.8 3.2-.5.2-.6-3.1.4-.3.7Z"/><path fill="#FF5900" d="m2 11.2.4 1.5.8-1.6L3 9.6 2 11.2Z"/><path fill="#00D0FF" d="m15.6 31.4 2-1-.5.4-2 1 .5-.4Z"/><path fill="#D7FF1F" d="m29.4 20.2 2.9-.8-.4-.7-2.8.8.3.7Z"/><path fill="#00ACFF" d="m13.5 32.9 1.6-1-.6.2-1.6 1.1.6-.3Z"/><path fill="#FFE600" d="m26.8 17.6 2.8-.8H29l-2.7.8h.5Z"/><path fill="#0070FF" d="m11.1 35.4.6-1-.7.1-.7 1 .8-.1Z"/><path fill="#0054FF" d="m10.9 36.4.2-1-.8.2-.3 1 .9-.2Z"/><path fill="#87FF70" d="m11.6 24.2 3-.5v-.9l-3 .4v1Z"/><path fill="#94FF63" d="m27 22.9 2.9-.7v.8l-2.9.7v-.8Z"/><path fill="#26FFD1" d="m5.8 29.1 1.6-.6-.3-1.1-1.6.5.3 1.2Z"/><path fill="#39FFBE" d="m21 27.5 2.8-.7-.2.7-2.8.8.3-.8Z"/><path fill="#0038FF" d="m12.3 37.3-.4-.6-.9.5.3.6 1-.5Z"/><path fill="#0CF4EB" d="m3.3 30.4.5-.3-.4-1.5-.5.2.4 1.7Z"/><path fill="#66FF90" d="m24.1 25.2 3-.7-.2.8-2.9.7.1-.8Z"/><path fill="#00B0FF" d="m17.2 31.6-.3.7-.6 1.7.3-.6.6-1.8Z"/><path fill="#E4FF13" d="m29 19.5 3-.8-.5-.6-2.8.8.4.6Z"/><path fill="#6AFF8D" d="m9.1 25.7 2.6-.5v-1l-2.7.4.1 1.1Z"/><path fill="#FFE600" d="m27.3 17.7 2.8-.7-.5-.2-2.8.8.5.1Z"/><path fill="#49FFAD" d="m7.1 27.4 2.2-.6-.2-1.1-2.1.5.1 1.2Z"/><path fill="#F4F802" d="m22.2 18.7 3-.6.4-.3-3 .6-.4.3Z"/><path fill="#8D0000" d="m6 3.8.2 1.4L7.7 5l-.2-1.4-1.4.2Z"/><path fill="#0040FF" d="m13.7 36.9-.5-.3-.9.7.5.4 1-.8Z"/><path fill="#1FFFD7" d="m4.6 29.7 1.2-.6-.3-1.2-1.3.4.4 1.4Z"/><path fill="#16FFE1" d="m3.8 30.1.8-.4-.4-1.4-.8.3.4 1.5Z"/><path fill="#F1FC06" d="m28.7 19 2.8-.9-.4-.5-2.8.8.4.5Z"/><path fill="#B4FF43" d="m14.7 22 3.1-.4.2-.8-3 .4-.3.8Z"/><path fill="#FFE600" d="m27.8 18 2.8-.8-.5-.2-2.8.7.5.3Z"/><path fill="#007CFF" d="m16.3 34-.4.3-.8 1.5.4-.3.8-1.5Z"/><path fill="#FEED00" d="m28.3 18.4 2.8-.8-.5-.4-2.8.8.5.4Z"/><path fill="#1CFFDB" d="m18.4 29.1 2.4-.8-.3.6-2.4.9.3-.7Z"/><path fill="#0054FF" d="M15.1 35.8h-.5l-.9 1 .5.1 1-1.1Z"/><path fill="#D60000" d="M3.7 6.8 4 8.3l1.2-1-.3-1.5-1.2 1Z"/><path fill="#0098FF" d="m12.4 34 1-1.1-.5.3-1.2 1.1.7-.3Z"/><path fill="#D7FF1F" d="m18.3 20.1 3.1-.4.4-.6-3.2.5-.3.5Z"/><path fill="#FF9C00" d="M1.7 14.5 2 16l.7-1.8-.3-1.4-.7 1.8Z"/><path fill="#30FFC7" d="M2.6 28.8h.3l-.3-1.7h-.3l.3 1.7Z"/><path fill="#AAFF4D" d="m26.8 22 3-.6.1.8-3 .7V22Z"/><path fill="#0050FF" d="m12 36.7-.3-.8-.8.5.1.8 1-.5Z"/><path fill="#00E4F8" d="m16 30.7 2-.9-.4.6-2 1 .5-.7Z"/><path fill="#00C0FF" d="m14 32.4 1.6-1-.5.4-1.6 1 .6-.4Z"/><path fill="#FEED00" d="m22.6 18.4 3-.6.5-.2-3 .6-.5.2Z"/><path fill="#A0FF56" d="m11.7 23.2 2.9-.4.1-.8-2.9.3-.1 1Z"/><path fill="#50FFA7" d="M21.3 26.7 24 26l-.2.8-2.7.7.2-.8Z"/><path fill="#0080FF" d="m11.9 35 .5-1-.7.3-.6 1 .8-.3Z"/><path fill="#46FFB1" d="m5.5 27.9 1.6-.6-.1-1.1-1.8.4.3 1.3Z"/><path fill="#83FF73" d="M18 22.7V26.3 22.7Z"/><path fill="#7DFF7A" d="m24.1 24.3 3-.6v.8l-3 .7v-.9Z"/><path fill="#0068FF" d="m11.7 36 .2-1-.8.4-.2 1 .8-.5Z"/><path fill="#5DFF9A" d="m2 26.7.3.3-.2-1.8-.2-.5.1 2Z"/><path fill="#FF6000" d="m15.5 10.5.1 1.4 1 2.2-.2-1.4-1-2.2Z"/><path fill="#FFE200" d="m1.5 17.9.3 1.2.5-2L2 16l-.5 2Z"/><path fill="#87FF70" d="m9 24.6 2.6-.4v-1l-2.5.4v1Z"/><path fill="#6AFF8D" d="m7 26.2 2.1-.5v-1l-2.2.3v1.2Z"/><path fill="#BEFF39" d="m26.6 21.2 3-.6.2.8-3 .6-.2-.8Z"/><path fill="#36FFC1" d="m2.9 28.8.5-.2-.3-1.5h-.5l.3 1.7Z"/><path fill="#CAFF2C" d="m15 21.2 3-.4.3-.7-3 .4-.4.7Z"/><path fill="#E7FF0F" d="m18.6 19.6 3.2-.5.4-.4-3.1.4-.5.5Z"/><path fill="#90FF66" d="m1.7 24.1.2.6v-1.9l-.1-.7v2Z"/><path fill="#CAFF2C" d="m1.6 21.1.2 1 .2-2-.2-1-.2 2Z"/><path fill="#40FFB7" d="m4.2 28.3 1.3-.4-.3-1.3-1.2.3.2 1.4Z"/><path fill="#FFE600" d="m23 18.2 3-.6h.6l-3 .5H23Z"/><path fill="#0054FF" d="m13.2 36.6-.5-.6-.8.7.4.6.9-.7Z"/><path fill="#33FFC4" d="m18.7 28.3 2.4-.8-.3.8-2.4.8.3-.8Z"/><path fill="#3CFFBA" d="m3.4 28.6.8-.3-.2-1.4-.9.2.3 1.5Z"/><path fill="#00ACFF" d="m13 33.4 1-1-.5.5-1 1 .6-.5Z"/><path fill="maroon" d="M7.5 3.6 7.7 5l1.4.2L9 3.8l-1.5-.2Z"/><path fill="#FFEA00" d="m17.2 16.5.1 1.4.5 2.4-.2-1.4-.4-2.4Z"/><path fill="#D1FF26" d="m26.3 20.5 3-.6.2.7-3 .6-.2-.7Z"/><path fill="#94FF63" d="m24 23.4 3-.5v.8l-2.9.6v-.9Z"/><path fill="#16FFE1" d="m16.5 30 2-.9-.4.7-2 1 .4-.8Z"/><path fill="#00D8FF" d="m14.6 31.7 1.5-1-.5.7-1.5 1 .5-.7Z"/><path fill="#66FF90" d="m21.4 25.8 2.7-.6v.8l-2.8.7v-.9Z"/><path fill="#FFE200" d="m23.6 18.1 3-.5h.5l-3 .6h-.5Z"/><path fill="#B7FF40" d="m11.8 22.3 3-.3.1-.8-2.9.2-.2.9Z"/><path fill="#43FFB4" d="m18 26.3-.1 1-.2 2.3.1-1 .2-2.3Z"/><path fill="#FF2500" d="m3 9.6.2 1.5 1-1.3L4 8.3 3 9.6Z"/><path fill="#66FF90" d="m5.2 26.6 1.8-.4-.1-1.2-1.7.3v1.3Z"/><path fill="#0098FF" d="m12.6 34.4.5-1-.7.5-.5 1 .7-.5Z"/><path fill="#0068FF" d="m14.6 35.8-.6-.3-.8 1 .5.4.9-1.1Z"/><path fill="#E1FF16" d="m26 19.8 3-.6.3.7-3 .6-.4-.7Z"/><path fill="#F8F500" d="m19 19 3.2-.3.4-.3-3 .4-.5.3Z"/><path fill="#006CFF" d="m12.7 36-.2-.8-.8.7.2.8.8-.7Z"/><path fill="#FF2900" d="m14.4 8.5.2 1.4 1 2-.1-1.4-1-2Z"/><path fill="#60FF97" d="m2.3 27 .3.1-.1-1.7-.4-.2.2 1.8Z"/><path fill="#FFE600" d="m24 18.2 3-.6.6.3-3 .5-.5-.2Z"/><path fill="#DEFF19" d="m15.2 20.5 3.1-.4.4-.5-3.1.2-.4.7Z"/><path fill="#A4FF53" d="m9 23.6 2.7-.4.1-.9-2.6.2-.1 1Z"/><path fill="#0080FF" d="M12.5 35.3v-1l-.6.7-.2 1 .8-.7Z"/><path fill="#87FF70" d="m6.9 25 2.1-.4v-1l-2 .2-.1 1.2Z"/><path fill="#EEFF09" d="m25.5 19.2 3-.6.4.6-3 .6-.4-.6Z"/><path fill="#FFEA00" d="m24.6 18.4 3-.6.5.4-3 .6-.5-.4Z"/><path fill="#AD0000" d="m5 5.8.2 1.5 1.3-.6-.3-1.5-1.3.6Z"/><path fill="#FBF100" d="m25 18.8 3-.6.5.4-3 .6-.4-.4Z"/><path fill="#0CF4EB" d="m17.7 29.6-.4.7-.4 2 .3-.7.5-2Z"/><path fill="#AAFF4D" d="m23.9 22.6 3-.6v.9l-2.9.5-.1-.8Z"/><path fill="#4DFFAA" d="m18.9 27.4 2.4-.7-.2.8-2.4.8.2-.9Z"/><path fill="#08F" d="m15.9 34.3-.6.1-.7 1.4h.5l.8-1.5Z"/><path fill="maroon" d="M9 3.8 9 5.2l1.5.6-.2-1.4L9 3.8Z"/><path fill="#66FF90" d="m4 26.9 1.2-.3v-1.3l-1.3.2v1.4Z"/><path fill="#00B8FF" d="m17 32.3-.6.4-.5 1.6.4-.3.6-1.7Z"/><path fill="#00C8FF" d="m13.6 32.6 1-1-.5.8-1 1 .5-.8Z"/><path fill="#7DFF7A" d="m21.4 24.9 2.7-.6v.9l-2.7.6V25Z"/><path fill="#60FF97" d="M2.6 27.1H3v-1.6h-.6V27Z"/><path fill="#FFEA00" d="m19.5 18.8 3.1-.4.5-.2-3.1.4-.5.2Z"/><path fill="#DF0000" d="m13.2 6.8.1 1.4 1.3 1.7-.2-1.4-1.2-1.7Z"/><path fill="#63FF94" d="M3.1 27 4 27l-.1-1.4H3l.1 1.6Z"/><path fill="#90FF66" d="m2 24.7.1.5v-1.8l-.1-.6v2Z"/><path fill="#2CFFCA" d="m16.8 29.1 1.9-.8-.3.8-2 .9.4-.9Z"/><path fill="#D1FF26" d="m12 21.4 3-.2.2-.7-2.9.2-.3.7Z"/><path fill="#FF6000" d="m2.4 12.7.3 1.4.8-1.5-.3-1.5-.8 1.6Z"/><path fill="#0CF4EB" d="m15 30.9 1.5-1-.4.8-1.5 1 .4-.8Z"/><path fill="#920000" d="m10.4 4.4.2 1.4 1.4 1-.2-1.4-1.4-1Z"/><path fill="#EEFF09" d="m15.6 19.8 3-.2.5-.5-3.1.3-.4.4Z"/><path fill="#C1FF36" d="m23.6 21.7 3-.5.2.8-3 .6-.2-.9Z"/><path fill="#007CFF" d="m14 35.5-.5-.5-.8 1 .5.6.8-1Z"/><path fill="#B20000" d="m11.8 5.4.2 1.4 1.3 1.4-.1-1.4-1.4-1.4Z"/><path fill="#C1FF36" d="M17.8 20.3v1.3L18 24v-1.3l-.2-2.4Z"/><path fill="#8AFF6D" d="m5.2 25.3 1.7-.3v-1.2l-1.7.2v1.3Z"/><path fill="#FFE200" d="m20 18.6 3-.4h.6l-3 .3H20Z"/><path fill="#BEFF39" d="m9.2 22.5 2.6-.2.2-.9-2.5.2-.3 1Z"/><path fill="#00B4FF" d="m13.2 33.5.4-.9-.5.8-.5 1 .6-.9Z"/><path fill="#FFA300" d="m16.5 14.1.2 1.4.6 2.4-.1-1.4-.7-2.4Z"/><path fill="#C7FF30" d="m1.8 22 .2.8.2-1.8L2 20l-.2 2Z"/><path fill="#A7FF50" d="m7 23.8 2-.2.2-1H7.1l-.2 1.2Z"/><path fill="#FFA300" d="m2 15.9.3 1.3.6-1.7-.2-1.4L2 16Z"/><path fill="#63FF94" d="m19 26.5 2.4-.7-.1 1-2.4.6v-1Z"/><path fill="#97FF60" d="m21.3 24 2.7-.6.1 1-2.7.5-.1-1Z"/><path fill="#FFEA00" d="m1.8 19 .2 1.1.4-1.8-.1-1.1-.5 1.9Z"/><path fill="#D4FF23" d="m23.3 21 3-.5.3.7-3 .5-.3-.7Z"/><path fill="#0090FF" d="m13.5 35-.3-.6-.7.8.2.8.8-1Z"/><path fill="#00A0FF" d="M13.2 34.4v-.9l-.6.9-.1.9.7-1Z"/><path fill="#FFDE00" d="m20.5 18.5 3-.4.6.1-3 .4h-.6Z"/><path fill="#8DFF6A" d="m2.1 25.2.4.2v-1.6l-.3-.4v1.8Z"/><path fill="#E4FF13" d="m12.3 20.7 3-.2.3-.7-2.9.2-.4.7Z"/><path fill="#FEED00" d="m16 19.4 3-.3.5-.3-3 .2-.5.4Z"/><path fill="#8AFF6D" d="m3.9 25.5 1.3-.2V24H3.9v1.5Z"/><path fill="#02E8F4" d="m14 31.7 1-.8-.4.8-1 1 .5-1Z"/><path fill="#0098FF" d="m15.3 34.4-.7-.1-.6 1.2.6.3.7-1.4Z"/><path fill="#46FFB1" d="m17 28.1 1.9-.7-.2.9-2 .8.3-1Z"/><path fill="#E4FF13" d="m23 20.3 3-.5.3.7-3 .5-.3-.7Z"/><path fill="#920000" d="m6.2 5.2.3 1.5L8 6.5 7.7 5l-1.5.2Z"/><path fill="#DF0000" d="m4 8.3.3 1.5 1.2-1-.3-1.5-1.2 1Z"/><path fill="#FFDE00" d="m21 18.6 3-.4.6.2-3 .4-.6-.2Z"/><path fill="#26FFD1" d="m15.3 29.9 1.5-.8-.3.9-1.5.9.3-1Z"/><path fill="#83FF73" d="M18 24V25l-.1 2.3.1-1V24Z"/><path fill="#F1FC06" d="m22.5 19.7 3-.5.4.6-3 .5-.4-.6Z"/><path fill="#FFE600" d="m21.6 18.8 3-.4.5.4-3 .4-.5-.4Z"/><path fill="#8DFF6A" d="m2.5 25.4.5.1V24l-.5-.2v1.6ZM3 25.5H4V24h-.8v1.5Z"/><path fill="#ADFF49" d="m21.1 23 2.8-.4.1.8-2.7.6-.2-1Z"/><path fill="#FEED00" d="m22 19.2 3-.4.5.4-3 .5-.4-.5Z"/><path fill="#D7FF1F" d="m9.5 21.6 2.5-.2.3-.7H9.8l-.3.9Z"/><path fill="#7DFF7A" d="m19 25.5 2.4-.6v1l-2.4.6v-1Z"/><path fill="#AAFF4D" d="m5.2 24 1.7-.2.2-1.1H5.4L5.2 24Z"/><path fill="#00C4FF" d="m16.4 32.7-.6.2-.5 1.5h.6l.5-1.7Z"/><path fill="#FFE200" d="m16.5 19 3-.2.5-.2-3 .2-.5.2Z"/><path fill="#C4FF33" d="m7 22.7 2.2-.2.3-.9H7.3l-.2 1Z"/><path fill="#00D8FF" d="m13.7 32.5.4-.8-.5 1-.4.8.5-1Z"/><path fill="#46FFB1" d="m17.9 27.4-.3.8-.3 2.1.4-.7.2-2.2Z"/><path fill="#C1FF36" d="m2 22.8.2.6.2-1.7-.2-.7-.2 1.8Z"/><path fill="#FF6400" d="m15.6 12 .2 1.4.9 2.1-.2-1.4-.9-2.2Z"/><path fill="#F8F500" d="m12.7 20 2.9-.2.4-.4h-2.8l-.5.6Z"/><path fill="#00A8FF" d="m14.6 34.3-.5-.4-.6 1.1.5.5.6-1.2Z"/><path fill="#0FF8E7" d="m17.3 30.3-.5.5-.4 1.9.5-.4.4-2Z"/><path fill="#C4FF33" d="m20.9 22.2 2.7-.5.3.9-2.8.4-.2-.8Z"/><path fill="#63FF94" d="m17 27 2-.5-.1 1-2 .6.2-1Z"/><path fill="#FFEA00" d="M17.3 17.9v1.3l.5 2.4v-1.3l-.5-2.4Z"/><path fill="#FF3000" d="m3.2 11.1.3 1.5 1-1.3-.2-1.5-1 1.3Z"/><path fill="#00C8FF" d="M13.7 33.3v-.8l-.5 1v.9l.5-1.1Z"/><path fill="#FFDB00" d="m17 18.8 3-.2h.5l-3 .1H17Z"/><path fill="#00B8FF" d="m14 33.9-.3-.6-.5 1 .3.7.6-1.1Z"/><path fill="#1CFFDB" d="m14.4 30.7 1-.8-.4 1-1 .8.4-1Z"/><path fill="#ADFF49" d="M4 24h1.2l.2-1.2-1.3-.1L4 24Z"/><path fill="#840000" d="m7.7 5 .2 1.5 1.5.2L9 5.2 7.7 5Z"/><path fill="#97FF60" d="m18.9 24.5 2.4-.5v.9l-2.3.6-.1-1Z"/><path fill="#43FFB4" d="m15.6 28.8 1.4-.7-.2 1-1.5.8.3-1Z"/><path fill="#FBF100" d="m2 20.1.2.9.4-1.7-.2-1-.4 1.8Z"/><path fill="#D7FF1F" d="m20.5 21.3 2.8-.3.3.7-2.7.5-.4-.9Z"/><path fill="#EEFF09" d="m9.8 20.8 2.5-.1.4-.7h-2.5l-.4.8Z"/><path fill="#BEFF39" d="m2.2 23.4.3.4.2-1.6-.3-.5-.2 1.7Z"/><path fill="#FFE600" d="m13.2 19.5 2.8-.1.5-.4h-2.8l-.5.5Z"/><path fill="gold" d="m17.5 18.7 3-.2h.5l-2.9.3h-.6Z"/><path fill="#FF6C00" d="m2.7 14.1.2 1.4.8-1.5-.2-1.4-.8 1.5Z"/><path fill="#CAFF2C" d="m5.4 22.8 1.7-.1.2-1H5.6l-.2 1Z"/><path fill="#B4FF43" d="M3 24h1l.1-1.3-.8-.2L3 24Z"/><path fill="#FFAE00" d="m2.3 17.2.1 1.1.7-1.6-.2-1.2-.6 1.7Z"/><path fill="#DEFF19" d="m7.3 21.7 2.2-.1.3-.8H7.7l-.4.9Z"/><path fill="#FF2D00" d="m14.6 10 .1 1.4 1 2v-1.5l-1.1-2Z"/><path fill="#EBFF0C" d="m20.1 20.6 2.9-.3.3.7-2.8.3-.4-.7Z"/><path fill="#0CF" d="m15.8 32.9-.7-.1-.5 1.5.7.1.5-1.5Z"/><path fill="#B00" d="m5.2 7.3.3 1.6 1.3-.6-.3-1.6-1.3.6Z"/><path fill="#B7FF40" d="m2.5 23.8.6.2.1-1.5-.5-.3-.2 1.6Z"/><path fill="gold" d="m18.1 18.8 3-.2.5.2-3 .3-.5-.3Z"/><path fill="#7DFF7A" d="m17 26 2-.5v1l-2 .6V26Z"/><path fill="#B1FF46" d="m18.7 23.5 2.4-.5.2 1-2.4.5-.2-1Z"/><path fill="#16FFE1" d="m14 31.4.4-.7-.3 1-.4.8.4-1.1Z"/><path fill="#F8F500" d="m19.7 20 2.8-.3.5.6-2.8.3-.5-.6Z"/><path fill="#FFDB00" d="m18.7 19 2.9-.2.5.4-3 .2-.4-.3Z"/><path fill="#890000" d="m9.1 5.2.3 1.5 1.4.7-.2-1.6L9 5.2Z"/><path fill="#FFE600" d="m19.2 19.4 2.9-.2.4.5-2.8.3-.5-.6Z"/><path fill="#C1FF36" d="m17.8 21.6-.1 1.2.2 2.3.1-1.1-.2-2.4Z"/><path fill="gold" d="M13.7 19h2.8l.5-.2h-2.7l-.6.3Z"/><path fill="#FFEA00" d="M10.2 20h2.5l.5-.5h-2.5l-.5.5Z"/><path fill="#60FF97" d="M15.7 27.7 17 27l-.1 1-1.4.7v-1.1Z"/><path fill="#3CFFBA" d="m14.7 29.5.9-.7-.3 1.1-.9.8.3-1.2Z"/><path fill="#E40000" d="m13.3 8.2.2 1.5 1.2 1.7-.1-1.5-1.3-1.7Z"/><path fill="#00D8FF" d="m15.1 32.8-.6-.3-.4 1.4.5.4.5-1.5Z"/><path fill="#16FFE1" d="m16.8 30.8-.6.3-.4 1.8.6-.2.4-1.9Z"/><path fill="#0CF4EB" d="M14.1 32v-.6l-.4 1.1v.8l.4-1.3Z"/><path fill="#D1FF26" d="M4.1 22.7h1.3l.2-1-1.2-.2-.3 1.2Z"/><path fill="#9B0000" d="m10.6 5.8.2 1.6 1.4 1-.2-1.6-1.4-1Z"/><path fill="#F4F802" d="m2.2 21 .2.7.4-1.6-.2-.8-.4 1.7Z"/><path fill="#C7FF30" d="m18.4 22.5 2.5-.3.2.8-2.4.5-.3-1Z"/><path fill="#FFA700" d="M16.7 15.5V17l.7 2.3V18l-.7-2.4Z"/><path fill="#B00" d="m12 6.8.2 1.6 1.3 1.3-.2-1.5L12 6.8Z"/><path fill="#02E8F4" d="m14.5 32.5-.4-.5-.4 1.3.4.6.4-1.4Z"/><path fill="#80FF77" d="m18 25.1-.4 1v2.1l.3-.8V25Z"/><path fill="#F8F500" d="M7.7 20.7h2.1l.4-.7h-2l-.5.7Z"/><path fill="#9AFF5D" d="m17 25 1.9-.5v1l-1.8.5-.1-1Z"/><path fill="#49FFAD" d="m17.6 28.2-.6.6-.2 2 .5-.5.3-2Z"/><path fill="#FFD000" d="m14.3 18.9 2.7-.1h.5-3.2Z"/><path fill="#E7FF0F" d="M5.6 21.6h1.7l.4-.9-1.7-.1-.4 1Z"/><path fill="#F10800" d="m4.3 9.8.2 1.5 1.2-.9L5.5 9l-1.2 1Z"/><path fill="#DBFF1C" d="m3.2 22.5 1 .2.2-1.2-.8-.3-.4 1.3Z"/><path fill="#DEFF19" d="m18 21.6 2.5-.3.4.9-2.5.3-.3-.9Z"/><path fill="gold" d="M10.7 19.5h2.5l.5-.4h-2.4l-.6.4Z"/><path fill="#EBFF0C" d="m2.4 21.7.3.5.4-1.5-.3-.6-.4 1.6Z"/><path fill="#9F0000" d="m6.5 6.7.3 1.6L8.2 8l-.3-1.6-1.4.2Z"/><path fill="#36FFC1" d="m14.3 30.1.4-.6-.3 1.2-.3.7.2-1.3Z"/><path fill="#FFB900" d="m2.4 18.3.2 1 .6-1.5-.1-1.1-.7 1.6Z"/><path fill="#FC0" d="M14.8 18.8H18.1l-2.7.1-.6-.1Z"/><path fill="#80FF77" d="M15.7 26.5 17 26v1l-1.4.7v-1.2Z"/><path fill="#E1FF16" d="m2.7 22.2.5.3.4-1.3-.5-.5-.4 1.5Z"/><path fill="#F1FC06" d="m17.6 20.8 2.5-.2.4.7-2.4.3-.5-.8Z"/><path fill="#5DFF9A" d="m14.8 28.2.9-.5-.1 1.1-1 .7.2-1.3Z"/><path fill="#FF3B00" d="m3.5 12.6.2 1.4 1-1.2-.2-1.5-1 1.3Z"/><path fill="#1CFFDB" d="M16.2 31.1h-.7l-.4 1.7h.7l.4-1.7Z"/><path fill="#B7FF40" d="m16.8 23.8 2-.3.1 1-2 .4-.1-1Z"/><path fill="#FC0" d="M15.4 18.9h2.7l.6.2H16l-.6-.2Z"/><path fill="#FF7A00" d="M3 15.5v1.2l.9-1.4-.2-1.3-.8 1.5Z"/><path fill="#FFEA00" d="m17.2 20.1 2.5-.1.4.6-2.5.2-.4-.7Z"/><path fill="#FFDB00" d="M8.1 20h2.1l.5-.5-2-.2-.6.7Z"/><path fill="#FFD000" d="m16 19.2 2.7-.1.5.3-2.6.2-.6-.4Z"/><path fill="#F4F802" d="m4.4 21.5 1.2.1.4-1-1.2-.3-.4 1.2Z"/><path fill="#FFDB00" d="m16.6 19.6 2.6-.2.5.6-2.5.1-.6-.5Z"/><path fill="#FFC800" d="M11.3 19h2.4l.6-.1-2.4-.1-.6.2Z"/><path fill="#FF6C00" d="M15.8 13.4v1.4l1 2.1-.1-1.3-1-2.2Z"/><path fill="#FBF100" d="m17.4 19.2-.1 1.3.4 2.3.1-1.2-.4-2.4Z"/><path fill="#30FFC7" d="M14.4 30.6v-.5l-.3 1.3v.6l.3-1.4Z"/><path fill="#FFE600" d="m6 20.6 1.7.1.4-.7-1.6-.3-.5.9Z"/><path fill="#23FFD4" d="m15.5 31.1-.7-.1-.3 1.5.6.3.4-1.7Z"/><path fill="#29FFCE" d="m14.8 31-.4-.4-.3 1.4.4.5.3-1.5Z"/><path fill="#D1FF26" d="m16.5 22.8 2-.3.2 1-2 .3-.2-1Z"/><path fill="#9DFF5A" d="m15.6 25.3 1.4-.4V26l-1.3.5-.1-1.2Z"/><path fill="#FFC400" d="m2.6 19.3.2.8.5-1.4-.1-1-.6 1.6Z"/><path fill="#4DFFAA" d="m17 28.8-.6.4-.2 2 .6-.4.2-2Z"/><path fill="#920000" d="m8 6.5.2 1.6 1.4.2-.2-1.6-1.5-.2Z"/><path fill="#FFC100" d="M11.9 18.8h2.9H12Z"/><path fill="#FEED00" d="m3.6 21.2.8.3.4-1.2L4 20l-.4 1.3Z"/><path fill="#5AFF9D" d="m14.5 28.7.3-.5-.1 1.3-.4.6.2-1.4Z"/><path fill="#C80000" d="m5.5 8.9.2 1.5L7 10l-.2-1.6-1.3.6Z"/><path fill="#BEFF39" d="m17.7 22.8-.3 1 .2 2.2.3-.9-.2-2.3Z"/><path fill="#80FF77" d="m14.8 27 .9-.5v1.2l-.9.5V27Z"/><path fill="#FFC800" d="m8.7 19.3 2 .2.6-.5-2-.1-.6.4Z"/><path fill="#80FF77" d="m17.6 26-.6.8v2l.6-.6V26Z"/><path fill="#E7FF0F" d="m16 21.8 2-.2.4 1-2 .2-.3-1Z"/><path fill="#FFD300" d="m2.8 20 .3.7.5-1.3-.3-.8-.5 1.5Z"/><path fill="#FF3400" d="m14.7 11.4.1 1.5 1 2v-1.5l-1-2Z"/><path fill="#FFDE00" d="m3 20.7.6.5.4-1.3-.4-.5-.5 1.3Z"/><path fill="#FFB900" d="m12.5 18.7 2.3.1.6.1h-2.2l-.7-.2Z"/><path fill="gold" d="m4.8 20.3 1.2.3.5-.9-1.1-.3-.6 1Z"/><path fill="#FC0" d="m6.5 19.7 1.6.3.6-.7L7 19l-.6.7Z"/><path fill="#FF8600" d="m3 16.7.2 1 .7-1.3v-1.1L3 16.7Z"/><path fill="#BAFF3C" d="m15.3 24.1 1.5-.3.2 1.1-1.4.4-.3-1.2Z"/><path fill="#960000" d="m9.4 6.7.2 1.6L11 9l-.2-1.5-1.4-.7Z"/><path fill="#FBF100" d="m15.6 21 2-.2.5.8-2 .2-.5-.9Z"/><path fill="#56FFA0" d="m14.6 29.1-.1-.4-.2 1.4.1.5.2-1.5Z"/><path fill="#4DFFAA" d="m16.4 29.2-.8.2-.1 1.7h.7l.2-1.9Z"/><path fill="#FF1300" d="m4.5 11.3.2 1.5 1.1-.9-.1-1.5-1.2 1Z"/><path fill="#FFBD00" d="m13.2 18.8 2.2.1.6.3h-2.2l-.6-.4Z"/><path fill="#FFAE00" d="M16.7 17v1.3l.6 2.2v-1.3l-.6-2.3Z"/><path fill="#F10800" d="m13.5 9.7.2 1.6 1.1 1.6v-1.5l-1.3-1.7Z"/><path fill="#FFB900" d="m9.3 18.9 2 .1.6-.2-2-.2-.6.3Z"/><path fill="#FFDB00" d="M15 20.2h2.2l.5.6-2.1.1-.6-.7Z"/><path fill="#FF4A00" d="m3.7 14 .1 1.3 1-1.1v-1.4l-1 1.2Z"/><path fill="#FFC100" d="M13.8 19.1H16l.6.5h-2.2l-.6-.5Z"/><path fill="#FC0" d="M14.4 19.6h2.2l.6.5H15l-.6-.5Z"/><path fill="#A40000" d="m10.8 7.4.2 1.5 1.4 1-.2-1.5-1.4-1Z"/><path fill="#A0FF56" d="m14.7 25.6.9-.3v1.2l-.8.4-.1-1.3Z"/><path fill="#C40000" d="m12.2 8.4.2 1.5 1.3 1.4-.2-1.6-1.3-1.3Z"/><path fill="#53FFA4" d="m15 29.3-.4-.2-.2 1.5.4.4.2-1.7Z"/><path fill="#80FF77" d="m14.5 27.3.3-.4v1.3l-.3.5v-1.4Z"/><path fill="#50FFA7" d="M15.6 29.4H15l-.2 1.6.7.1.1-1.7Z"/><path fill="#D7FF1F" d="m15 23 1.5-.2.3 1-1.5.3L15 23Z"/><path fill="#FFC800" d="m4 20 .8.3.6-1-.8-.4-.6 1Z"/><path fill="#AD0000" d="M6.8 8.3 7 9.9l1.3-.2L8 8.1l-1.3.2Z"/><path fill="#FF9800" d="m3.2 17.8.1.9.7-1.3v-1l-.8 1.4Z"/><path fill="#FFB600" d="m7.1 19 1.6.3.6-.4-1.5-.4-.7.5Z"/><path fill="#80FF77" d="m17 26.8-.6.5v2l.6-.5v-2Z"/><path fill="#FFAE00" d="m10 18.6 1.9.2h.6l-1.8-.3H10Z"/><path fill="#FFB900" d="m5.4 19.4 1.1.3.6-.7-1-.4-.7.8Z"/><path fill="#F8F500" d="m17.3 20.5-.4 1.1.5 2.2.3-1-.4-2.3Z"/><path fill="#FFB600" d="m3.6 19.4.4.5.6-1-.4-.7-.6 1.2Z"/><path fill="#FFA700" d="m3.3 18.6.3.8.6-1.2-.2-.8-.7 1.2Z"/><path fill="#BAFF3C" d="m17.4 23.8-.6.8.2 2.2.6-.8-.2-2.2Z"/><path fill="#F1FC06" d="M14.6 21.9H16l.4.9-1.5.2-.5-1.1Z"/><path fill="#C1FF36" d="m14.4 24.3 1-.2.1 1.2-.8.3-.3-1.3Z"/><path fill="#80FF77" d="m14.6 27.5-.1-.2V29.1v-1.6Z"/><path fill="#FF7300" d="m15.9 14.8-.1 1.4.8 2 .1-1.2-.8-2.2Z"/><path fill="#FFA700" d="m10.7 18.5 1.8.2.7.1-1.8-.2-.7-.1Z"/><path fill="#FF5D00" d="M3.9 15.3v1.1l.9-1v-1.2l-1 1Z"/><path fill="#A4FF53" d="m14.3 25.8.4-.2.1 1.3-.3.4-.2-1.5Z"/><path fill="#DA0000" d="m5.7 10.4.1 1.5 1.2-.5V9.9l-1.3.5Z"/><path fill="#FFE200" d="M14 21h1.6l.5.8h-1.6L14 21Z"/><path fill="#FFA300" d="m7.8 18.5 1.5.4.7-.3-1.5-.4-.7.3Z"/><path fill="#80FF77" d="m16.4 27.3-.8.3v1.8l.8-.2v-2Z"/><path fill="#A40000" d="m8.1 8.1.2 1.6 1.4.2-.1-1.6L8 8.1Z"/><path fill="#FFAB00" d="m11.4 18.6 1.8.2.6.3-1.7-.2-.7-.3Z"/><path fill="#FFA700" d="m4.6 18.9.8.5.6-.8-.7-.5-.7.8Z"/><path fill="#80FF77" d="M15 27.6h-.4V29l.4.2v-1.7Z"/><path fill="#FF2500" d="M4.7 12.8v1.4l1.1-.9V12l-1 .9Z"/><path fill="#FC0" d="M13.4 20.1H15l.6.8H14l-.6-.8Z"/><path fill="#FFAE00" d="m12 19 1.8.1.6.5-1.6-.2-.7-.5Z"/><path fill="#80FF77" d="M15.6 27.6H15v1.7h.6v-1.7Z"/><path fill="#FF9F00" d="m6 18.6 1.1.4.7-.5-1-.4-.8.5Z"/><path fill="#FFBD00" d="m12.8 19.4 1.6.2.6.6-1.6-.1-.6-.7Z"/><path fill="#E1FF16" d="M14 23h1l.3 1.1-.9.2-.3-1.3Z"/><path fill="#FF3F00" d="M14.8 13v1.4l1 1.8v-1.4l-1-1.9Z"/><path fill="#FF6F00" d="M4 16.4v1l.8-1v-1l-.9 1Z"/><path fill="#FFB600" d="m16.6 18.3-.3 1.2.6 2.1.4-1.1-.7-2.2Z"/><path fill="#FF9800" d="m8.5 18.2 1.5.4.7-.1-1.4-.4-.8.1Z"/><path fill="#FF9400" d="m4.2 18.2.4.7.8-.8-.4-.8-.8 1Z"/><path fill="#B7FF40" d="m16.8 24.6-.6.7.2 2 .6-.5-.2-2.2Z"/><path fill="#A40000" d="M9.6 8.3V10l1.4.6V9l-1.4-.6Z"/><path fill="#A7FF50" d="M14.4 26v-.2 1.5l.2.2-.2-1.5Z"/><path fill="#C7FF30" d="M14 24.4h.4l.3 1.2-.4.2-.2-1.4Z"/><path fill="#FF8200" d="m4 17.4.2.8.8-.9-.2-.9-.8 1Z"/><path fill="#F1FC06" d="m17 21.6-.6 1 .4 2 .6-.8-.5-2.2Z"/><path fill="#FBF100" d="M13.6 21.9h1l.4 1-1 .1-.4-1.1Z"/><path fill="#FF1300" d="M13.7 11.3v1.5l1 1.6.1-1.5-1.1-1.6Z"/><path fill="#C40000" d="M7 9.9v1.5l1.3-.2V9.7L7 9.9Z"/><path fill="#B60000" d="M11 9v1.5l1.4 1V9.9L11 9Z"/><path fill="#FF9400" d="m9.3 18.1 1.4.4.7.1-1.3-.3-.8-.2Z"/><path fill="#FF8D00" d="m6.8 18 1 .5.7-.3-1-.5-.7.4Zm-1.5 0 .7.6.8-.5-.7-.7-.7.7Z"/><path fill="#D10000" d="M12.4 10v1.5l1.2 1.3v-1.5l-1.2-1.4Z"/><path fill="#FF3800" d="M4.8 14.2v1.2l1-.8v-1.3l-1 .9Z"/><path fill="#ADFF49" d="M14.8 26h-.4l.2 1.5.4.1-.2-1.7Z"/><path fill="#B4FF43" d="m16.2 25.3-.7.4.1 1.9.8-.3-.2-2Z"/><path fill="#FFD300" d="m13 20.8 1 .1.5 1h-1l-.5-1Z"/><path fill="#F10800" d="M5.8 12v1.3l1.2-.5v-1.4l-1.2.5Z"/><path fill="#FF9400" d="m10 18.3 1.4.3.7.3-1.2-.3-.8-.3Z"/><path fill="#B1FF46" d="m15.5 25.7-.7.2.2 1.7h.6l-.1-2Z"/><path fill="#EBFF0C" d="M13.6 23h.5l.3 1.3-.4.1-.4-1.4Z"/><path fill="#FF7E00" d="m15.8 16.2-.3 1.3.8 2 .3-1.2-.8-2Z"/><path fill="#FFB900" d="m12.3 20 1.1.1.6.8h-1l-.7-1Z"/><path fill="#FF9C00" d="m10.9 18.6 1.2.3.7.5-1.2-.2-.7-.6Z"/><path fill="#CEFF29" d="m14.1 24.4.2 1.4.1.2-.3-1.6Z"/><path fill="#FFA700" d="m11.6 19.2 1.2.2.6.7-1-.2-.8-.7Z"/><path fill="#F70" d="m5 17.3.4.8.7-.7-.2-.7-1 .6Z"/><path fill="#FF8200" d="m7.6 17.7 1 .5h.7l-.9-.6-.8.1Z"/><path fill="#FF4A00" d="M4.8 15.4v1l1-.7v-1.1l-1 .8Z"/><path fill="#B60000" d="M8.3 9.7v1.5l1.3.2V10l-1.3-.2Z"/><path fill="#EBFF0C" d="m16.4 22.5-.6.8.4 2 .6-.7-.4-2Z"/><path fill="#FF6000" d="m4.8 16.4.2 1 .8-.7v-1l-1 .7Z"/><path fill="#F70" d="m6.1 17.4.7.7.8-.4-.6-.6-.9.3Z"/><path fill="#FFC100" d="m16.3 19.5-.5 1 .6 2 .5-.9-.6-2.1Z"/><path fill="#FFE200" d="m13.1 21.7.5.2.5 1.1h-.5l-.5-1.3Z"/><path fill="#D7FF1F" d="m14.5 24.2-.4.2.3 1.6h.4l-.3-1.8Z"/><path fill="#FF4A00" d="m14.8 14.4-.3 1.3 1 1.8.3-1.3-1-1.8Z"/><path fill="#FF7A00" d="m8.4 17.6.9.5.8.2-.8-.5-.9-.2Z"/><path fill="#FF1A00" d="M5.8 13.3v1.3l1-.5.2-1.3-1.2.5Z"/><path fill="#DA0000" d="M7 11.4v1.4l1.2-.1.1-1.5-1.3.2Z"/><path fill="#F4F802" d="M13.7 22.9v.1l.4 1.4-.4-1.5Z"/><path fill="#E4FF13" d="m15.8 23.3-.7.5.4 1.9.7-.4-.4-2Z"/><path fill="#B00" d="M9.7 10v1.4l1.3.6v-1.5l-1.3-.6Z"/><path fill="#FFC100" d="m12.5 20.6.5.2.6 1H13l-.6-1.2Z"/><path fill="#DEFF19" d="m15.1 23.8-.6.4.3 1.7.7-.2-.4-1.9Z"/><path fill="#FF6000" d="m5.8 16.7.3.7 1-.3-.3-.8-1 .4Z"/><path fill="#FF7E00" d="m9.3 17.8.8.5.8.3-.8-.5-.8-.3Z"/><path fill="#FF6C00" d="m7 17 .6.7h.8l-.5-.7H7Z"/><path fill="#FF1E00" d="m13.6 12.8-.2 1.4 1.1 1.5.3-1.3-1.2-1.6Z"/><path fill="#FFA700" d="m11.8 19.6.5.3.7 1-.5-.3-.7-1Z"/><path fill="#C80000" d="M11 10.5V12l1.2 1 .2-1.5-1.4-1Z"/><path fill="#FF8600" d="m10.1 18.1.8.5.7.6-.6-.4-.9-.7Z"/><path fill="#FF3000" d="M5.8 14.6v1.1l1-.4V14l-1 .5Z"/><path fill="#FF8900" d="m15.5 17.5-.4 1.2.7 1.8.5-1-.8-2Z"/><path fill="#FF9400" d="m11 18.8.6.4.7.7-.5-.3-.8-.8Z"/><path fill="#E40000" d="m12.4 11.5-.2 1.4 1.2 1.3.2-1.4-1.2-1.3Z"/><path fill="#FFC800" d="m15.8 20.5-.6.9.6 1.9.6-.8-.6-2Z"/><path fill="#FF4A00" d="M5.8 15.7v1l1-.4v-1l-1 .4Z"/><path fill="#FFD300" d="m13 21.5.1.2.5 1.3V23l-.5-1.4Z"/><path fill="#FEED00" d="m14 22.6-.3.3.4 1.5.4-.2-.5-1.6Z"/><path fill="#CD0000" d="M8.3 11.2v1.5l1.2.2.1-1.4-1.3-.3Z"/><path fill="#FF6400" d="m8 17 .4.6.9.2-.4-.7-1-.1Z"/><path fill="#F10800" d="m7 12.8-.1 1.3L8 14l.2-1.3-1.2.1Z"/><path fill="#FFD300" d="m15.2 21.4-.6.7.5 1.7.7-.5-.6-2Z"/><path fill="#FF5200" d="m6.8 16.3.2.8 1-.1-.2-.9-1 .2Z"/><path fill="#FFE200" d="m14.6 22-.6.6.5 1.6.6-.4-.5-1.7Z"/><path fill="#FFB200" d="M12.4 20.2v.4l.7 1.1v-.2l-.7-1.3Z"/><path fill="#FF5900" d="m14.6 15.7-.4 1.2.9 1.8.4-1.2-1-1.8Z"/><path fill="#FF6400" d="m8.9 17.1.4.7.8.4-.3-.7-1-.4Z"/><path fill="#F20" d="m6.9 14.1-.1 1.2 1-.1L8 14 7 14Z"/><path fill="#FFC400" d="m13.4 21-.3.5.6 1.4.3-.3-.6-1.6Z"/><path fill="#FF3800" d="M6.8 15.3v1l1-.2v-1l-1 .2Z"/><path fill="#FF9400" d="m15 18.6-.5 1 .7 1.8.6-.9-.7-1.9Z"/><path fill="#D10000" d="M9.6 11.4 9.5 13l1.2.5.3-1.4-1.4-.6Z"/><path fill="#FF9400" d="m11.6 19 .2.6.7 1-.1-.4-.8-1.1Z"/><path fill="#FF6C00" d="m9.8 17.5.3.6.9.7-.3-.6-.9-.7Z"/><path fill="#FF7E00" d="m10.7 18.2.3.6.8.8-.2-.5-.9-.9Z"/><path fill="#FF3000" d="m13.4 14.2-.3 1.3 1 1.4.4-1.2-1-1.5Z"/><path fill="#FF4A00" d="m7.8 16.1.1.9 1 .1v-.8l-1.1-.2Z"/><path fill="#E80000" d="M8.2 12.7 8 14l1.2.2.3-1.3-1.3-.2Z"/><path fill="#DF0000" d="m11 12-.3 1.4 1.3.9.2-1.4L11 12Z"/><path fill="#FFB200" d="m14 20.4-.6.6.6 1.6.6-.5-.7-1.7Z"/><path fill="#FA0F00" d="m12.2 13-.2 1.3 1.1 1.2.3-1.3-1.2-1.3Z"/><path fill="#FFA300" d="m14.5 19.6-.6.8.7 1.7.6-.7-.7-1.8Z"/><path fill="#FF9F00" d="m12.6 19.6-.2.6.7 1.3.3-.5-.8-1.4Z"/><path fill="#FF6800" d="m14.2 17-.6 1 .9 1.6.6-1-1-1.7Z"/><path fill="#FF3000" d="m7.9 15.2-.1 1 1 .1.2-1-1.1-.1Z"/><path fill="#FF4A00" d="M8.8 16.3v.8l1 .4v-.7l-1-.5Z"/><path fill="#FF1A00" d="M8 14 8 15.2l1 .1.3-1.1L8 14Z"/><path fill="#FF7E00" d="m11.8 18.4-.2.7.8 1 .2-.5-.8-1.2Z"/><path fill="#ED0400" d="m9.5 12.9-.3 1.3 1.2.5.3-1.3-1.2-.5Z"/><path fill="#F50" d="M9.8 16.8v.7l1 .7v-.7l-1-.7Z"/><path fill="#FF8D00" d="m13.1 19-.5.6.8 1.4.5-.6-.8-1.5Z"/><path fill="#FF6800" d="M10.8 17.5v.7l.8.9.2-.7-1-1Z"/><path fill="#FF7A00" d="m13.6 18-.5 1 .8 1.4.6-.8-.9-1.6Z"/><path fill="#FF4300" d="m13.1 15.5-.4 1.1 1 1.4.5-1-1-1.5Z"/><path fill="#FF3400" d="m9 15.3-.2 1 1 .5.3-1-1.1-.5Z"/><path fill="#FA0F00" d="m10.7 13.4-.3 1.3 1.2.8.4-1.2-1.3-.9Z"/><path fill="#FF1A00" d="M9.2 14.2 9 15.3l1 .5.4-1.1-1.2-.5Z"/><path fill="#F20" d="m12 14.3-.4 1.2 1 1.1.5-1.1-1.1-1.2Z"/><path fill="#FF6800" d="m12.2 17.6-.4.8.8 1.2.5-.7-1-1.3Z"/><path fill="#F50" d="m12.7 16.6-.5 1L13 19l.5-.9-1-1.4Z"/><path fill="#FF3B00" d="m10 15.8-.2 1 1 .7.4-1-1.1-.7Z"/><path fill="#FF4E00" d="m11.2 16.6-.4.9 1 1 .4-.9-1-1Z"/><path fill="#FF2500" d="m10.4 14.7-.3 1.1 1 .8.5-1-1.2-.9Z"/><path fill="#FF3800" d="m11.6 15.5-.4 1 1 1.1.5-1-1.1-1Z"/><path fill="#000" d="M29.5 38.4c-1.4 0-2.7-.2-3.7-.6-1-.4-2-.8-2.7-1.4l1.4-2.5c.6.5 1.3 1 2 1.3.9.3 1.9.5 3 .5a5 5 0 0 0 3.5-1.1c.9-.8 1.3-1.8 1.3-3 0-.5-.1-1.1-.4-1.7s-.6-1-1.1-1.4c-.5-.4-1.2-.7-2-1-.7-.2-1.7-.3-2.7-.3h-1.9v-2.4H28c1 0 1.8-.1 2.6-.4.7-.2 1.3-.5 1.8-1 .4-.3.8-.8 1-1.2a3.6 3.6 0 0 0 .4-1.6 3 3 0 0 0-1.2-2.5c-.8-.6-1.7-1-2.9-1-1 0-2 .2-2.8.6l-2 1-1.1-2.2c.6-.5 1.5-1 2.5-1.3 1-.5 2.3-.7 3.6-.7 1.1 0 2 .2 3 .5.8.3 1.5.7 2 1.2a5.3 5.3 0 0 1 1.4 1.9 5.3 5.3 0 0 1-.5 5.4c-.7.9-1.6 1.6-2.8 2.2 1.4.5 2.5 1.3 3.3 2.3.8 1 1.2 2.2 1.2 3.6 0 .8-.2 1.7-.5 2.5a6.1 6.1 0 0 1-1.4 2.2c-.7.6-1.5 1.1-2.5 1.5-1 .4-2.1.6-3.5.6Z"/></svg>