<svg width="39" height="39" viewBox="0 0 39 39" fill="none" xmlns="http://www.w3.org/2000/svg">
<g clip-path="url(#clip0_4863_1037)">
<path d="M37.8948 24.8682C36.8933 28.3212 34.9475 31.426 32.2766 33.8328C29.6057 36.2396 26.3158 37.8528 22.7775 38.4906V32.9886C24.0823 32.4916 25.2565 31.7035 26.2107 30.6841C26.7408 30.1155 27.1939 29.4796 27.5584 28.7929C28.2523 27.4848 28.6114 26.0251 28.6037 24.5444C28.6037 19.6804 25.0923 17.7357 21.8002 16.2935L20.1332 15.5566C18.3507 14.7572 16.9873 14.0461 16.9873 12.8289C16.9873 11.1464 18.4556 10.2422 19.8404 10.2422C21.3141 10.2422 22.1501 10.786 23.0331 12.3168L23.7177 13.5029L28.1228 10.676L27.5487 9.6102C26.5385 7.68397 24.8326 6.21483 22.7778 5.50151V0.455078C23.2062 0.528189 23.6295 0.622145 24.0582 0.732112C24.0999 0.742686 24.147 0.752958 24.1941 0.762323C24.2419 0.771411 24.289 0.783622 24.3352 0.798879C24.3495 0.80053 24.3635 0.804086 24.3769 0.809452C24.492 0.839663 24.6119 0.866853 24.7322 0.903408C27.1701 1.61259 29.4444 2.79503 31.4253 4.38321C33.4062 5.97139 35.0548 7.93421 36.2771 10.1596C37.4994 12.3849 38.2713 14.8293 38.5489 17.353C38.8265 19.8767 38.6042 22.4304 37.8948 24.8682V24.8682Z" fill="#745DDF"/>
<path d="M23.1957 24.8108C23.1957 27.0264 21.1942 28.3953 19.3444 28.3953C17.1236 28.3953 15.8538 26.5612 15.6082 24.8576L15.3991 23.3788L10.0693 24.8797L10.311 26.0712C11.0738 29.8282 13.6396 32.53 17.1251 33.3451V38.6697C16.1795 38.559 15.2434 38.3791 14.3242 38.1314C14.1937 38.1012 14.068 38.0634 13.9375 38.0269C9.92008 36.857 6.3902 34.4163 3.8773 31.0706C1.3644 27.7249 0.00395328 23.6547 0 19.4704L0 0.893686C0.000239858 0.691445 0.0806858 0.497557 0.223692 0.354551C0.366697 0.211545 0.560586 0.131099 0.762826 0.130859H17.1239V5.4504C15.2093 6.00475 13.578 7.26788 12.562 8.98266C11.9104 10.1231 11.5715 11.4154 11.5795 12.7288V12.8333C11.6312 17.171 14.8194 18.9843 17.8293 20.348L19.335 21.0012L19.4604 21.0586C21.8476 22.151 23.1957 22.8667 23.1957 24.8108Z" fill="#2EB6EA"/>
<path d="M28.6043 24.5444C28.612 26.0251 28.253 27.4846 27.5593 28.7927C27.1946 29.4795 26.7413 30.1155 26.211 30.6842C25.2567 31.7033 24.0825 32.4913 22.7778 32.9881L22.7802 38.5167L21.2349 38.6533C21.2349 38.6533 17.9211 38.7526 17.132 38.6533L17.1238 33.3443C13.6387 32.5289 11.0729 29.8274 10.31 26.0698L10.0684 24.8783L15.3982 23.3786L15.6072 24.8574C15.8541 26.5616 17.1238 28.396 19.3446 28.396C21.1944 28.396 23.1959 27.0269 23.1959 24.8115C23.1959 22.8677 21.8476 22.1529 19.4597 21.0596L19.3344 21.0022L17.8295 20.3491C14.8196 18.9847 11.6321 17.1715 11.5798 12.8344V12.7299C11.5718 11.4164 11.9107 10.1241 12.5623 8.9837C13.5781 7.26875 15.2093 6.0054 17.1238 5.45083V0.125857C20.609 0.0962499 20.8757 0.116793 22.7778 0.450926V5.5031C24.8326 6.21641 26.5385 7.68556 27.5487 9.61179L28.1227 10.6776L23.7186 13.502L23.034 12.316C22.1509 10.7849 21.3147 10.2414 19.8413 10.2414C18.4564 10.2414 16.9882 11.1453 16.9882 12.828C16.9882 14.0455 18.3519 14.7561 20.134 15.5558L21.8005 16.2935C25.0935 17.7358 28.6043 19.6796 28.6043 24.5444Z" fill="white"/>
</g>
<defs>
<clipPath id="clip0_4863_1037">
<rect width="38.67" height="38.67" fill="white"/>
</clipPath>
</defs>
</svg>
