<svg width="24" height="24" viewBox="0 0 24 24" fill="none" xmlns="http://www.w3.org/2000/svg">
  <path d="M7.07758 11.1479L6.94323 11.354C5.42795 13.6785 5.76637 16.7228 7.75686 18.6731C8.92786 19.8204 10.4626 20.3942 11.9974 20.3944C11.9974 20.3944 11.9974 20.3944 7.07758 11.1479Z" fill="#00A3FF"/>
  <path opacity="0.6" d="M11.9967 13.9582L7.0769 11.1479C11.9967 20.3944 11.9967 20.3944 11.9967 20.3944C11.9967 18.3806 11.9967 16.073 11.9967 13.9582Z" fill="#00A3FF"/>
  <path opacity="0.6" d="M16.9222 11.1479L17.0565 11.354C18.5718 13.6785 18.2334 16.7228 16.2429 18.6731C15.0719 19.8204 13.5372 20.3942 12.0024 20.3944C12.0024 20.3944 12.0024 20.3944 16.9222 11.1479Z" fill="#00A3FF"/>
  <path opacity="0.2" d="M12.0018 13.9582L16.9216 11.1479C12.0019 20.3944 12.0018 20.3944 12.0018 20.3944C12.0018 18.3806 12.0018 16.073 12.0018 13.9582Z" fill="#00A3FF"/>
  <path opacity="0.2" d="M12.0034 7.68045V12.5273L16.2413 10.1054L12.0034 7.68045Z" fill="#00A3FF"/>
  <path opacity="0.6" d="M12.0034 7.68045L7.76245 10.1054L12.0034 12.5273V7.68045Z" fill="#00A3FF"/>
  <path d="M12.0034 3.60361L7.76245 10.1063L12.0034 7.67454V3.60361Z" fill="#00A3FF"/>
<path opacity="0.6" d="M12.0034 7.6742L16.2445 10.106L12.0034 3.6001V7.6742Z" fill="#00A3FF"/>
</svg>
