<svg version="1.1" xmlns="http://www.w3.org/2000/svg" width="204" height="204">
    <path d="M0 0 C0.71187469 0.00054382 1.42374939 0.00108765 2.15719604 0.00164795 C12.76521252 0.03896596 22.34132448 0.65451777 32.375 4.375 C33.60089844 4.7875 34.82679688 5.2 36.08984375 5.625 C61.97759303 14.75851319 81.91487085 34.09965381 93.796875 58.59155273 C96.4784482 64.35707655 98.77499901 70.21261994 100.375 76.375 C100.55015137 77.04426514 100.72530273 77.71353027 100.90576172 78.40307617 C102.71851093 86.18851871 102.77285011 93.98681591 102.75 101.9375 C102.74945618 102.64743103 102.74891235 103.35736206 102.74835205 104.08880615 C102.65289435 131.17206441 92.9788412 153.60717682 74.8125 173.625 C74.35335205 174.13272949 73.8942041 174.64045898 73.42114258 175.16357422 C70.61066476 178.21023087 67.74517109 180.95538998 64.375 183.375 C63.715 183.375 63.055 183.375 62.375 183.375 C62.375 184.035 62.375 184.695 62.375 185.375 C50.44367877 194.95544649 35.08748281 200.04184311 20.375 203.375 C19.6221875 203.5500708 18.869375 203.7251416 18.09375 203.90551758 C2.55003461 206.58965593 -16.83769247 205.83181964 -31.625 200.375 C-32.26276367 200.15005859 -32.90052734 199.92511719 -33.55761719 199.69335938 C-41.75227195 196.78415675 -49.40407506 193.27076127 -56.625 188.375 C-57.27339844 187.93800781 -57.92179687 187.50101563 -58.58984375 187.05078125 C-62.94836104 183.94010122 -66.91476571 180.40644559 -70.875 176.8125 C-71.38272949 176.35335205 -71.89045898 175.8942041 -72.41357422 175.42114258 C-75.46023087 172.61066476 -78.20538998 169.74517109 -80.625 166.375 C-80.625 165.715 -80.625 165.055 -80.625 164.375 C-81.285 164.375 -81.945 164.375 -82.625 164.375 C-96.42942144 147.18321393 -102.06746215 124.34104506 -102 102.8125 C-101.9987915 102.10123962 -101.99758301 101.38997925 -101.99633789 100.65716553 C-101.86754459 72.74435854 -91.77638322 48.84227338 -72.171875 28.76953125 C-59.40373471 16.23167096 -42.95986042 6.87582494 -25.625 2.375 C-24.95645996 2.19984863 -24.28791992 2.02469727 -23.59912109 1.84423828 C-15.79364559 0.02550246 -7.97131536 -0.02284805 0 0 Z " fill="#00A3FF" transform="translate(101.625,-0.375)"/>
    <path d="M0 0 C11.14444051 5.3193632 21.82095069 11.36310497 32.49975586 17.55541992 C34.82597906 19.00009404 34.82597906 19.00009404 36.82402039 19.64901733 C38.9983171 20.54283397 40.36971488 21.29344724 42 23 C43.06544327 26.90207741 42.95370699 30.74169308 42.90234375 34.765625 C42.91463516 35.91415955 42.92692657 37.06269409 42.93959045 38.24603271 C42.97138545 41.91466707 42.95502257 45.58130171 42.9375 49.25 C42.95060479 51.7369979 42.96684249 54.22398141 42.98632812 56.7109375 C43.02723986 62.80759085 43.02861741 68.90329803 43 75 C49.34348803 63.43242296 55.67257658 51.86756393 61.6875 40.125 C65.65678571 32.42852348 69.71973247 24.81169901 74.02001953 17.29541016 C77.24506311 11.63826669 80.16824589 5.86339675 83 0 C83.66 0 84.32 0 85 0 C85.96608323 1.85014053 86.9224907 3.70533473 87.875 5.5625 C88.40867187 6.59503906 88.94234375 7.62757812 89.4921875 8.69140625 C95.41752621 21.69338006 93.84463276 35.43942648 89.07421875 48.54296875 C83.65489055 60.93845035 73.34107651 69.87435788 61.1875 75.2421875 C48.50880321 79.93201157 33.19952404 80.18785923 20.82421875 74.546875 C7.29819571 67.13843085 -3.13170833 57.2753789 -7.87890625 42.2109375 C-11.03635651 27.24064885 -9.15120277 13.87186337 -1 1 C-0.67 0.67 -0.34 0.34 0 0 Z " fill="#FBFDFF" transform="translate(60,95)"/>
    <path d="M0 0 C0.66 0 1.32 0 2 0 C3.35351562 1.78149414 3.35351562 1.78149414 4.90625 4.28515625 C5.48028564 5.20103516 6.05432129 6.11691406 6.64575195 7.06054688 C7.25765381 8.05119141 7.86955566 9.04183594 8.5 10.0625 C9.77345627 12.09585637 11.04820065 14.12840656 12.32421875 16.16015625 C13.26467041 17.6608667 13.26467041 17.6608667 14.22412109 19.19189453 C16.52816678 22.83516281 18.90337115 26.42566523 21.3125 30 C24.613433 34.91813217 27.89517685 39.8472781 31.125 44.8125 C31.71148315 45.70291992 31.71148315 45.70291992 32.30981445 46.61132812 C35 50.76872067 35 50.76872067 35 53 C31.49463309 51.66383846 28.23330793 50.12400929 24.9453125 48.3203125 C24.00042969 47.80339844 23.05554688 47.28648438 22.08203125 46.75390625 C21.10621094 46.21636719 20.13039062 45.67882812 19.125 45.125 C18.15691406 44.59519531 17.18882813 44.06539062 16.19140625 43.51953125 C11.09782166 40.72672229 6.0446747 37.88267126 1 35 C1 48.2 1 61.4 1 75 C-4.83716999 72.665132 -10.2089194 69.70347632 -15.69311523 66.66015625 C-17.5565576 65.62829056 -19.4255363 64.60698711 -21.29492188 63.5859375 C-22.48993812 62.92512034 -23.6846114 62.26368253 -24.87890625 61.6015625 C-25.9572876 61.00682129 -27.03566895 60.41208008 -28.14672852 59.79931641 C-30.84748393 58.09617895 -32.85739445 56.35120639 -35 54 C-34.56357178 53.33282959 -34.12714355 52.66565918 -33.67749023 51.97827148 C-29.23900652 45.1926967 -24.80185126 38.40625525 -20.36572266 31.61914062 C-18.83449651 29.27646405 -17.30292362 26.93401486 -15.77099609 24.59179688 C-13.7214098 21.45763197 -11.67304666 18.32267114 -9.625 15.1875 C-9.00165771 14.23480225 -8.37831543 13.28210449 -7.73608398 12.30053711 C-7.15544189 11.41116455 -6.5747998 10.52179199 -5.9765625 9.60546875 C-5.47205566 8.83356201 -4.96754883 8.06165527 -4.44775391 7.26635742 C-3.39225661 5.61405027 -2.39687766 3.92288802 -1.43896484 2.2121582 C-0.96410645 1.482146 -0.48924805 0.75213379 0 0 Z " fill="#98D9FF" transform="translate(101,31)"/>
    <path d="M0 0 C0.66 0 1.32 0 2 0 C2.96608323 1.85014053 3.9224907 3.70533473 4.875 5.5625 C5.40867188 6.59503906 5.94234375 7.62757812 6.4921875 8.69140625 C12.41752621 21.69338006 10.84463276 35.43942648 6.07421875 48.54296875 C1.3050813 59.45128677 -8.11907465 69.18881485 -19 74 C-26.44158821 76.88940787 -33.01554988 78.54131865 -41 78 C-36.90179282 69.60739487 -32.70578151 61.34710767 -27.99536133 53.27929688 C-25.55164691 49.05655836 -23.334197 44.75534881 -21.1875 40.375 C-17.66326514 33.18492365 -13.83867325 26.18494969 -9.95068359 19.18603516 C-6.45301975 12.87296782 -3.13278532 6.50350371 0 0 Z " fill="#96D9FF" transform="translate(143,95)"/>
    <path d="M0 0 C4.16249619 1.26712911 7.71309564 2.82404657 11.44921875 5.046875 C12.46306641 5.645 13.47691406 6.243125 14.52148438 6.859375 C15.56626953 7.48328125 16.61105469 8.1071875 17.6875 8.75 C19.75297736 9.97552522 21.81937927 11.1994936 23.88671875 12.421875 C24.79639404 12.96424805 25.70606934 13.50662109 26.64331055 14.06542969 C31.38065356 16.79571597 36.19983896 19.38173034 41 22 C41 39.82 41 57.64 41 76 C38.25261267 73.25261267 37.0048139 71.39990661 35.28515625 68.01171875 C34.77017578 67.00689453 34.25519531 66.00207031 33.72460938 64.96679688 C33.17611328 63.88462891 32.62761719 62.80246094 32.0625 61.6875 C27.81096905 53.39868099 23.49713479 45.15825893 19 37 C14.48121878 28.78154738 10.08218301 20.50586016 5.75 12.1875 C5.17636719 11.08857422 4.60273437 9.98964844 4.01171875 8.85742188 C3.48707031 7.84615234 2.96242187 6.83488281 2.421875 5.79296875 C1.95362305 4.8908667 1.48537109 3.98876465 1.00292969 3.05932617 C0 1 0 1 0 0 Z " fill="#98D9FF" transform="translate(61,96)"/>
    <path d="M0 0 C0.66 0.33 1.32 0.66 2 1 C-4.37762144 13.38504588 -10.77540698 25.74274668 -17.61083984 37.88232422 C-20.63719271 43.2802485 -23.40298159 48.76387136 -26.12890625 54.3203125 C-29.81261866 61.68773733 -33.95735849 68.82573478 -38 76 C-38.33 76 -38.66 76 -39 76 C-39 58.18 -39 40.36 -39 22 C-33.06 18.7 -27.12 15.4 -21 12 C-16.2437391 9.24621959 -11.489484 6.49171626 -6.76171875 3.68945312 C-5.90191406 3.18994141 -5.04210937 2.69042969 -4.15625 2.17578125 C-3.02413086 1.50929565 -3.02413086 1.50929565 -1.86914062 0.8293457 C-1.25232422 0.55566162 -0.63550781 0.28197754 0 0 Z " fill="#33B6FF" transform="translate(141,96)"/>
    <path d="M0 0 C4.25328401 1.41776134 7.25948731 2.54503887 11.00390625 4.71484375 C11.90947266 5.23626953 12.81503906 5.75769531 13.74804688 6.29492188 C14.67681641 6.83697266 15.60558594 7.37902344 16.5625 7.9375 C17.49513672 8.47568359 18.42777344 9.01386719 19.38867188 9.56835938 C22.83271118 11.55917611 26.27079658 13.55176913 29.65991211 15.63500977 C31.82822469 16.89980222 33.55013556 17.5463214 36 18 C34.69484497 21.9154651 33.29270907 22.23415235 29.71484375 24.1796875 C28.62623047 24.77910156 27.53761719 25.37851563 26.41601562 25.99609375 C25.26810547 26.61613281 24.12019531 27.23617187 22.9375 27.875 C20.69560953 29.09972452 18.45470225 30.32625072 16.21484375 31.5546875 C15.14733887 32.13831055 14.07983398 32.72193359 12.97998047 33.32324219 C10.36906248 34.7923381 7.83736083 36.32848333 5.31640625 37.9453125 C2 40 2 40 0 40 C0 26.8 0 13.6 0 0 Z " fill="#33B6FF" transform="translate(102,66)"/>
    <path d="M0 0 C0.66 0 1.32 0 2 0 C3.35351562 1.78149414 3.35351562 1.78149414 4.90625 4.28515625 C5.48028564 5.20103516 6.05432129 6.11691406 6.64575195 7.06054688 C7.25765381 8.05119141 7.86955566 9.04183594 8.5 10.0625 C9.77345627 12.09585637 11.04820065 14.12840656 12.32421875 16.16015625 C12.95118652 17.16062988 13.5781543 18.16110352 14.22412109 19.19189453 C16.52816678 22.83516281 18.90337115 26.42566523 21.3125 30 C24.613433 34.91813217 27.89517685 39.8472781 31.125 44.8125 C31.51598877 45.40611328 31.90697754 45.99972656 32.30981445 46.61132812 C35 50.76872067 35 50.76872067 35 53 C31.49463309 51.66383846 28.23330793 50.12400929 24.9453125 48.3203125 C24.00042969 47.80339844 23.05554688 47.28648438 22.08203125 46.75390625 C21.10621094 46.21636719 20.13039063 45.67882812 19.125 45.125 C18.15691406 44.59519531 17.18882813 44.06539062 16.19140625 43.51953125 C13.4568038 42.02015058 10.72429445 40.51803659 8 39 C7.08053841 38.60850769 7.08053841 38.60850769 6.14250183 38.20910645 C4.22387695 37.31884766 4.22387695 37.31884766 1 35 C0.26902137 31.97623272 0.03975854 29.97869425 0.09765625 26.953125 C0.08536484 26.18192322 0.07307343 25.41072144 0.06040955 24.6161499 C0.02868687 22.15979751 0.04495052 19.70644597 0.0625 17.25 C0.04939038 15.58200336 0.03315021 13.91402818 0.01367188 12.24609375 C-0.02717556 8.16342246 -0.02500306 4.08277765 0 0 Z " fill="#95D8FF" transform="translate(101,31)"/>
    <path d="M0 0 C0.33 0 0.66 0 1 0 C1.22340401 4.5895203 1.38617929 9.17584819 1.49438477 13.76953125 C1.5395005 15.32966242 1.60081719 16.88941597 1.67895508 18.44824219 C2.30531407 31.27017919 2.30531407 31.27017919 -0.6237793 35.15185547 C-3.00125438 36.76936417 -5.35913148 37.86459399 -8 39 C-9.95678209 40.12573759 -11.90306333 41.26987594 -13.83984375 42.4296875 C-15.87034593 43.58174547 -17.9029264 44.73014764 -19.9375 45.875 C-20.97712891 46.46796875 -22.01675781 47.0609375 -23.08789062 47.671875 C-24.07853516 48.23132813 -25.06917969 48.79078125 -26.08984375 49.3671875 C-26.98566162 49.87362793 -27.88147949 50.38006836 -28.80444336 50.90185547 C-31 52 -31 52 -33 52 C-31.29394683 46.85082135 -28.28389069 42.60978619 -25.3125 38.125 C-24.1444321 36.34641928 -22.97646774 34.56777056 -21.80859375 32.7890625 C-21.19226074 31.85352539 -20.57592773 30.91798828 -19.94091797 29.95410156 C-17.92076145 26.87939793 -15.91378228 23.79643606 -13.91015625 20.7109375 C-13.23750732 19.67565918 -12.5648584 18.64038086 -11.87182617 17.57373047 C-10.56027984 15.55485673 -9.24922903 13.53566097 -7.9387207 11.51611328 C-7.33761475 10.5929834 -6.73650879 9.66985352 -6.1171875 8.71875 C-5.58722168 7.90341797 -5.05725586 7.08808594 -4.51123047 6.24804688 C-3.07054067 4.10493351 -1.61599792 2.01466074 0 0 Z " fill="#FAFDFF" transform="translate(101,32)"/>
</svg>
