<svg width="24" height="24" viewBox="0 0 24 24" fill="none" xmlns="http://www.w3.org/2000/svg">
    <path d="M20 2H4C2.89543 2 2 2.89543 2 4V20C2 21.1046 2.89543 22 4 22H20C21.1046 22 22 21.1046 22 20V4C22 2.89543 21.1046 2 20 2Z" fill="#00A3FF"/>
    <path d="M7.89799 11.2891L7.78603 11.4608C6.52329 13.3979 6.8053 15.9347 8.46405 17.56C9.43988 18.5161 10.7188 18.9943 11.9978 18.9944C11.9978 18.9944 11.9978 18.9944 7.89799 11.2891Z" fill="white"/>
    <path opacity="0.6" d="M11.9973 13.6309L7.89746 11.2891C11.9973 18.9944 11.9973 18.9944 11.9973 18.9944C11.9973 17.3162 11.9973 15.3933 11.9973 13.6309Z" fill="white"/>
    <path opacity="0.6" d="M16.1018 11.2891L16.2137 11.4608C17.4765 13.3979 17.1945 15.9347 15.5357 17.56C14.5599 18.5161 13.2809 18.9943 12.0019 18.9944C12.0019 18.9944 12.0019 18.9944 16.1018 11.2891Z" fill="white"/>
    <path opacity="0.2" d="M12.0015 13.6309L16.1013 11.2891C12.0015 18.9944 12.0015 18.9944 12.0015 18.9944C12.0015 17.3162 12.0015 15.3933 12.0015 13.6309Z" fill="white"/>
    <path opacity="0.2" d="M12.0029 8.39941V12.4385L15.5345 10.4202L12.0029 8.39941Z" fill="white"/>
    <path opacity="0.6" d="M12.0028 8.39941L8.46875 10.4202L12.0028 12.4385V8.39941Z" fill="white"/>
    <path d="M12.0028 5.00195L8.46875 10.4209L12.0028 8.3944V5.00195Z" fill="white"/>
    <path opacity="0.6" d="M12.0029 8.39411L15.5372 10.4206L12.0029 4.99902V8.39411Z" fill="white"/>
</svg>