<svg width="24" height="24" viewBox="0 0 24 24" fill="currentColor">
    <path d="M20 2H4a2 2 0 00-2 2v16a2 2 0 002 2h16a2 2 0 002-2V4a2 2 0 00-2-2z" fill="#00A3FF" />
    <path d="M7.898 11.29l-.112.17a4.824 4.824 0 00.678 6.1 5.036 5.036 0 003.534 1.434l-4.1-7.705z" fill="#fff" />
    <path opacity="0.6" d="M11.997 13.63l-4.1-2.34 4.1 7.704v-5.363zm4.105-2.34l.112.17a4.823 4.823 0 01-.678 6.1 5.036 5.036 0 01-3.534 1.434l4.1-7.705z" fill="#fff" />
    <path opacity="0.2" d="M12.002 13.63l4.1-2.34-4.1 7.704v-5.363zm.001-5.23v4.038l3.531-2.018-3.531-2.02z" fill="#fff" />
    <path opacity="0.6" d="M12.003 8.4l-3.534 2.02 3.534 2.018V8.4z" fill="#fff" />
    <path d="M12.003 5.002L8.469 10.42l3.534-2.027V5.002z" fill="#fff" />
    <path opacity="0.6" d="M12.003 8.394l3.534 2.027-3.534-5.422v3.395z" fill="#fff" />
</svg>