<svg width="440" height="260" viewBox="0 0 440 260" fill="none" xmlns="http://www.w3.org/2000/svg">
<g clip-path="url(#clip0_18813_7272)">
<path d="M440.3 260.05V0H0.100098V260.05H440.3Z" fill="#DBEDFD"/>
<path d="M152.3 110.9C152.467 110.433 152.55 109.933 152.55 109.4C152.55 108.2 152.133 107.183 151.3 106.35C150.467 105.517 149.45 105.1 148.25 105.1C147.283 105.1 146.433 105.383 145.7 105.95C146.067 105.117 146.25 104.233 146.25 103.3C146.25 101.667 145.683 100.283 144.55 99.1499C143.383 97.9832 142 97.3999 140.4 97.3999C138.767 97.3999 137.367 97.9832 136.2 99.1499C135.133 100.217 134.567 101.5 134.5 103C134.467 102.967 134.433 102.933 134.4 102.9C133.7 102.2 132.85 101.85 131.85 101.85C130.817 101.85 129.95 102.2 129.25 102.9C128.85 103.333 128.567 103.817 128.4 104.35C127.367 103.683 126.2 103.35 124.9 103.35C123.167 103.35 121.683 103.95 120.45 105.15C119.45 106.183 118.867 107.367 118.7 108.7H118.65C117.617 108.7 116.75 109.067 116.05 109.8C115.317 110.533 114.95 111.4 114.95 112.4C114.95 112.733 114.983 113.033 115.05 113.3C114.717 113.367 114.417 113.483 114.15 113.65C113.75 113.917 113.55 114.25 113.55 114.65C113.55 114.883 113.617 115.083 113.75 115.25V115.3C113.55 115.3 113.367 115.35 113.2 115.45C113 115.583 112.9 115.733 112.9 115.9C112.9 116.067 113 116.2 113.2 116.3C113.367 116.4 113.55 116.467 113.75 116.5H157.7C157.933 116.467 158.15 116.383 158.35 116.25C158.583 116.05 158.7 115.817 158.7 115.55C158.7 115.283 158.583 115.05 158.35 114.85C158.25 114.783 158.15 114.75 158.05 114.75C158.383 114.283 158.55 113.783 158.55 113.25C158.55 112.45 158.167 111.75 157.4 111.15C156.667 110.583 155.75 110.3 154.65 110.3C153.75 110.3 152.967 110.5 152.3 110.9ZM280.3 178C280.433 178.1 280.6 178.183 280.8 178.25H316.95C317.117 178.217 317.267 178.15 317.4 178.05C317.567 177.95 317.65 177.85 317.65 177.75C317.65 177.617 317.567 177.483 317.4 177.35C317.267 177.283 317.117 177.25 316.95 177.25V177.2C317.083 177.067 317.15 176.9 317.15 176.7C317.15 176.367 316.983 176.1 316.65 175.9C316.417 175.767 316.167 175.667 315.9 175.6C315.967 175.367 316 175.117 316 174.85C316 174.017 315.7 173.3 315.1 172.7C314.5 172.1 313.783 171.8 312.95 171.8H312.9C312.767 170.7 312.283 169.733 311.45 168.9C310.45 167.9 309.233 167.4 307.8 167.4C306.733 167.4 305.783 167.667 304.95 168.2C304.817 167.8 304.583 167.417 304.25 167.05C303.65 166.483 302.933 166.2 302.1 166.2C301.267 166.2 300.55 166.483 299.95 167.05C299.95 167.083 299.933 167.117 299.9 167.15C299.833 165.883 299.367 164.817 298.5 163.95C297.533 162.983 296.383 162.5 295.05 162.5C293.717 162.5 292.567 162.983 291.6 163.95C290.667 164.883 290.2 166.017 290.2 167.35C290.2 168.15 290.367 168.883 290.7 169.55C290.1 169.083 289.4 168.85 288.6 168.85C287.6 168.85 286.767 169.183 286.1 169.85C285.4 170.55 285.05 171.383 285.05 172.35C285.05 172.817 285.117 173.25 285.25 173.65C284.683 173.317 284.033 173.15 283.3 173.15C282.4 173.15 281.65 173.367 281.05 173.8C280.417 174.3 280.1 174.883 280.1 175.55C280.1 175.983 280.233 176.4 280.5 176.8C280.433 176.8 280.367 176.833 280.3 176.9C280.067 177.033 279.95 177.217 279.95 177.45C279.95 177.683 280.067 177.867 280.3 178Z" fill="white"/>
<path d="M157.85 240.8C157.716 240.667 157.633 240.65 157.6 240.75L157.55 240.9C157.55 241.1 157.666 241.367 157.9 241.7L158.45 242.35L158.75 242.6L159 242.95L159.3 243.15L159.35 243.25C159.283 243.417 159.233 243.6 159.2 243.8L159.05 245C158.616 244.467 158.083 243.934 157.45 243.4C157.25 243.2 157.083 243.1 156.95 243.1C156.95 243.234 157.05 243.484 157.25 243.85L158.25 245.15C158.583 245.617 158.766 246.017 158.8 246.35L158.9 246.8C158.933 246.934 159.05 247.034 159.25 247.1C159.383 247.1 159.483 247.017 159.55 246.85C159.55 246.817 159.566 246.8 159.6 246.8C159.733 246.7 159.766 246.584 159.7 246.45L159.65 246.25C159.616 246.184 159.6 246.117 159.6 246.05V243.85L159.65 243.9C159.816 244.134 159.966 244.417 160.1 244.75L160.2 245.05L160.25 245.6C160.283 245.867 160.383 246.117 160.55 246.35C160.75 246.55 160.916 246.634 161.05 246.6L161.2 246.4C161.333 246.167 161.366 245.834 161.3 245.4L161.25 245L160.95 244.1L159.8 242.55L159.5 242.3L159.2 241.85L158.9 241.75L158.8 241.6L157.85 240.8ZM324.8 245.15C324.733 245.084 324.633 245.1 324.5 245.2C324.266 245.3 324.15 245.584 324.15 246.05L324.05 247.3C323.916 250.034 323.816 252.117 323.75 253.55C323.383 252.517 323.133 251.417 323 250.25C323.3 248.884 323.533 247.85 323.7 247.15C324 245.617 324.133 244.334 324.1 243.3C323.966 243.5 323.8 243.834 323.6 244.3C323.233 245.1 322.933 245.884 322.7 246.65C322.666 244.784 322.75 242.7 322.95 240.4C323.016 239.934 323.066 239.65 323.1 239.55C323.266 239.317 323.3 239.167 323.2 239.1C323.1 239.034 322.966 239.05 322.8 239.15C322.5 239.35 322.316 239.75 322.25 240.35C321.616 243.75 321.416 246.917 321.65 249.85C321.483 250.45 321.366 251.017 321.3 251.55C321.133 252.384 321.05 253.167 321.05 253.9C321.05 253.967 321.05 254.034 321.05 254.1C320.95 253.134 320.9 251.334 320.9 248.7L321.1 241.75C321.1 241.484 321.016 241.35 320.85 241.35L320.65 241.5C320.483 241.734 320.366 242.067 320.3 242.5C320.033 243.634 319.816 244.967 319.65 246.5C319.583 246.967 319.533 247.434 319.5 247.9C319.233 246.9 318.983 246 318.75 245.2C318.15 243.3 317.35 241.267 316.35 239.1C316.283 238.867 316.166 238.767 316 238.8C315.966 238.8 315.916 238.884 315.85 239.05C315.783 239.317 315.85 239.834 316.05 240.6C316.983 243.7 317.716 246.517 318.25 249.05C318.116 249.884 318.066 250.75 318.1 251.65C317.966 250.95 317.866 250.334 317.8 249.8C317.5 248.2 317.133 246.75 316.7 245.45C316.7 245.217 316.683 244.95 316.65 244.65L316.4 242.55C316.333 242.384 316.283 242.3 316.25 242.3C316.216 242.267 316.133 242.284 316 242.35C315.833 242.517 315.716 242.767 315.65 243.1L315.4 242.5C315.3 242.334 315.2 242.267 315.1 242.3L315 242.5C314.9 242.834 314.966 243.384 315.2 244.15C315.3 244.45 315.383 244.8 315.45 245.2L314.65 254.8L314.55 254.85L314.65 240.35C314.65 240.184 314.6 240.084 314.5 240.05C314.4 240.017 314.316 240.017 314.25 240.05C314.05 240.15 313.916 240.45 313.85 240.95C313.75 241.55 313.65 242.317 313.55 243.25C313.45 243.25 313.366 243.3 313.3 243.4C313.1 243.667 312.966 244.15 312.9 244.85C312.6 248.084 312.416 251.3 312.35 254.5C312.216 253.634 312.1 252.45 312 250.95C311.9 249.45 311.833 248.367 311.8 247.7C311.9 245.834 312.183 244 312.65 242.2V241.9C312.516 241.8 312.366 241.784 312.2 241.85C312 241.984 311.883 242.2 311.85 242.5C311.083 244.534 310.616 246.5 310.45 248.4C310.316 247.934 310.216 247.517 310.15 247.15C310.15 246.95 310.083 246.834 309.95 246.8C309.85 246.7 309.7 246.75 309.5 246.95C309.433 247.084 309.4 247.384 309.4 247.85L309.7 250.05L309.3 249C309.2 248.867 309.116 248.784 309.05 248.75C308.983 248.717 308.933 248.717 308.9 248.75C308.733 247.417 308.55 246.317 308.35 245.45C307.783 242.65 307.066 240.184 306.2 238.05C306.1 237.75 305.966 237.65 305.8 237.75C305.733 238.25 305.883 239.2 306.25 240.6C306.583 242.067 306.866 243.934 307.1 246.2V246.25L306.85 246.9C306.65 247.6 306.466 248.267 306.3 248.9L306.55 245.7C306.616 245.634 306.616 245.567 306.55 245.5C306.516 245.4 306.45 245.35 306.35 245.35C306.283 245.417 306.183 245.567 306.05 245.8L306.25 242.7C305.916 242.834 305.683 243.267 305.55 244L304.35 250.6C303.85 252.867 303.633 254.684 303.7 256.05C303.7 256.784 303.85 257.35 304.15 257.75H301.55C301.683 257.484 301.783 257.15 301.85 256.75C302.45 254.317 302.816 252.3 302.95 250.7L303.75 247.8C304.45 245.267 304.816 243.25 304.85 241.75C304.85 241.517 304.8 241.367 304.7 241.3C304.566 241.267 304.45 241.35 304.35 241.55C304.183 241.717 304.033 242.034 303.9 242.5L302.7 246.3C302.666 245.767 302.616 245.217 302.55 244.65C302.55 244.484 302.483 244.4 302.35 244.4C302.316 244.4 302.25 244.434 302.15 244.5C302.016 244.867 301.916 245.25 301.85 245.65V247.6C301.85 248.834 301.6 250.417 301.1 252.35C300.433 255.117 300.083 256.667 300.05 257C300.016 257.3 300 257.55 300 257.75H299.45C300.016 255.65 300.433 254.017 300.7 252.85C301.133 250.784 301.366 248.884 301.4 247.15C301.433 245.817 301.366 244.217 301.2 242.35C301.2 242.184 301.166 242.067 301.1 242C301 241.9 300.9 241.934 300.8 242.1L300.65 242.55L300.4 246.65C300.333 247.15 300.266 247.684 300.2 248.25C300.166 248.184 300.15 248.134 300.15 248.1L299.75 244.4V244.25C299.716 244.184 299.65 244.15 299.55 244.15C299.45 244.15 299.366 244.184 299.3 244.25C299.233 244.35 299.2 244.5 299.2 244.7V246.4C299.266 248.667 299.216 250.367 299.05 251.5C298.916 252.267 298.7 253.217 298.4 254.35C298.3 254.817 298.133 255.45 297.9 256.25C297.9 256.15 297.9 256.067 297.9 256L297.8 248.8C297.533 245.134 296.65 241.734 295.15 238.6C295.083 238.434 295 238.35 294.9 238.35L294.75 238.6C294.65 238.967 294.7 239.55 294.9 240.35C295.666 242.95 296.083 245.484 296.15 247.95C296.183 248.617 296.166 250.134 296.1 252.5C296.033 254.367 296.066 255.884 296.2 257.05C296.233 257.317 296.283 257.55 296.35 257.75H296C296.1 256.517 296.05 254.784 295.85 252.55C295.816 252.217 295.783 251.884 295.75 251.55C295.816 249.284 295.75 247.267 295.55 245.5C295.35 243.967 294.916 241.717 294.25 238.75C293.516 235.35 292.8 232.85 292.1 231.25C291.966 230.95 291.766 230.817 291.5 230.85C291.333 230.884 291.266 231.117 291.3 231.55C291.666 233.617 292.216 236.717 292.95 240.85C293.216 242.65 293.433 244.334 293.6 245.9C293.333 244.834 293 243.55 292.6 242.05L292.05 240L291.95 239.75C291.75 239.617 291.616 239.667 291.55 239.9C291.45 240.034 291.433 240.184 291.5 240.35C291.566 241.017 291.75 241.967 292.05 243.2C292.316 244.5 292.466 245.45 292.5 246.05L292.65 248.05C292.75 249.817 292.816 251.75 292.85 253.85C292.683 252.35 292.4 251.084 292 250.05C291.7 249.317 291.216 248.417 290.55 247.35L289.85 246.25L288.8 245.05C288.5 244.717 288.25 244.517 288.05 244.45C287.883 244.35 287.75 244.367 287.65 244.5C287.65 244.53 287.65 244.579 287.65 244.65C287.584 244.539 287.517 244.422 287.45 244.3C287.25 244 287.066 243.817 286.9 243.75C286.833 243.717 286.75 243.717 286.65 243.75C286.55 243.85 286.5 243.984 286.5 244.15C286.5 244.517 286.683 245.1 287.05 245.9C287.916 247.834 288.5 249.417 288.8 250.65C289.2 252.317 289.316 253.917 289.15 255.45C289.05 255.517 288.966 255.617 288.9 255.75C288.833 255.917 288.766 256.15 288.7 256.45C288.366 256.45 288.166 256.467 288.1 256.5L287.75 256.65C287.683 256.717 287.483 256.734 287.15 256.7C286.85 256.634 286.616 256.65 286.45 256.75C286.35 256.784 286.283 256.834 286.25 256.9C286.05 256.867 285.866 256.834 285.7 256.8C285.4 256.767 285.033 256.8 284.6 256.9C283.966 257.034 283.6 257.1 283.5 257.1C283.066 257.167 282.816 257.234 282.75 257.3C282.516 257.4 282.4 257.55 282.4 257.75H270.75C270.683 257.65 270.55 257.567 270.35 257.5C270.116 257.467 269.95 257.417 269.85 257.35L269.25 257C268.483 256.567 267.25 256.517 265.55 256.85C265.716 256.584 265.683 256.317 265.45 256.05C265.25 255.884 265 255.767 264.7 255.7C264.133 255.534 263.533 255.417 262.9 255.35L263.1 254.6C263.166 254.2 263.1 253.934 262.9 253.8C262.6 253.6 262.216 253.617 261.75 253.85L259.75 254.8C259.916 253.834 260.033 253.1 260.1 252.6C260.2 251.8 260.233 251.084 260.2 250.45C260.1 249.384 260.066 248.567 260.1 248C260.1 247.534 260.083 247.25 260.05 247.15C259.916 246.817 259.716 246.667 259.45 246.7C259.416 246 259.216 245.267 258.85 244.5C258.683 244.6 258.566 244.784 258.5 245.05V245.65C258.533 246.317 258.466 247.2 258.3 248.3C258.066 249.7 257.933 250.584 257.9 250.95L257.75 252.4L257.4 253.85V253.7C257.433 253.467 257.416 253.234 257.35 253C257.25 252.767 257.066 252.634 256.8 252.6C256.533 252.567 256.333 252.617 256.2 252.75L255.65 253.85C255.516 254.117 255.433 254.517 255.4 255.05C255.3 255.017 255.183 255 255.05 255C254.883 255.034 254.75 255.117 254.65 255.25L254.3 255.75L254.05 255.85C253.75 255.95 253.416 256.267 253.05 256.8C252.783 257.2 252.666 257.517 252.7 257.75H194.15C194.216 257.717 194.25 257.684 194.25 257.65C194.416 257.45 194.45 257.234 194.35 257C194.283 256.8 194.166 256.634 194 256.5C194.066 256.334 194.1 256.15 194.1 255.95C194.1 255.584 194.016 255.3 193.85 255.1C193.716 255 193.533 254.967 193.3 255C193.2 255 193.1 255.034 193 255.1C193.033 254.534 193 254.167 192.9 254C192.8 253.9 192.65 253.817 192.45 253.75C192.283 253.717 192.15 253.75 192.05 253.85L192.1 251.4C192.266 249.634 191.966 247.084 191.2 243.75C190.666 241.65 190.166 240.067 189.7 239C189.466 239.034 189.383 239.3 189.45 239.8L190.5 246.65C190.8 248.55 190.916 250 190.85 251L190.6 252.8C190.566 253.3 190.583 254.067 190.65 255.1C190.75 256.1 190.75 256.884 190.65 257.45C190.65 257.55 190.65 257.65 190.65 257.75H189.6C189.6 257.717 189.616 257.684 189.65 257.65C189.683 257.517 189.7 257.4 189.7 257.3C189.7 257.2 189.7 257.134 189.7 257.1L190.3 250.5C190.266 248.334 189.916 245.634 189.25 242.4C189.116 242 188.933 241.8 188.7 241.8C188.566 241.834 188.5 241.934 188.5 242.1C188.433 242.267 188.433 242.434 188.5 242.6C188.7 244.434 188.883 246.517 189.05 248.85L189.1 249.7C189.1 250.3 188.966 251.484 188.7 253.25C188.533 254.684 188.483 255.85 188.55 256.75C188.55 256.817 188.55 256.884 188.55 256.95L188.45 256.9C187.95 256.867 187.6 256.867 187.4 256.9L187.25 257.15C187.283 257.25 187.35 257.3 187.45 257.3L188.05 257.45L187.9 257.75H186.4C186.433 257.684 186.45 257.6 186.45 257.5C186.45 257.334 186.4 257.167 186.3 257C186.133 256.734 185.85 256.6 185.45 256.6C185.416 256.6 185.383 256.6 185.35 256.6C185.15 256.4 184.85 256.334 184.45 256.4C183.216 256.467 182.316 256.567 181.75 256.7C181.083 256.867 180.583 256.967 180.25 257C179.916 257.067 179.716 257.167 179.65 257.3L179.45 257.45L179.25 257.5L179.15 257.7H179.45V257.75H166.25C166.25 257.717 166.25 257.684 166.25 257.65C166.25 257.417 166.1 257.234 165.8 257.1C165.633 257.034 165.4 257 165.1 257L163.65 257.05C163.583 257.05 163.45 257 163.25 256.9C162.983 256.667 162.666 256.667 162.3 256.9C162.166 256.934 162.066 257.017 162 257.15C161.933 257.117 161.883 257.1 161.85 257.1V257.05H161.3V257H161.05L160.95 256.9L160.8 256.8H160.65L160.55 256.7L160.45 256.65H160.4L160.3 256.5C160.166 256.334 160 256.267 159.8 256.3L159.65 256.35L159.55 256.3C159.416 256.267 159.266 256.3 159.1 256.4L158.95 256.5L158.9 256.65H158.85L158.8 256.9H158.75V257.5L158.8 257.75H157.9C157.933 257.65 157.966 257.55 158 257.45L158.15 256.25C158.283 252.75 158.116 249.334 157.65 246C157.65 245.8 157.583 245.667 157.45 245.6C157.183 245.734 157.05 246.034 157.05 246.5C156.983 246.534 156.916 246.584 156.85 246.65C156.75 246.85 156.7 247.15 156.7 247.55L156.45 251.55C156.416 252.017 156.383 252.634 156.35 253.4C156.35 253.367 156.333 253.317 156.3 253.25C155.9 251.984 155.616 250.984 155.45 250.25V250.2C155.616 249.1 155.85 247.8 156.15 246.3L156.8 243.35C156.566 243.384 156.416 243.567 156.35 243.9C155.916 245.034 155.55 246.067 155.25 247L155 247.8C154.766 245.067 154.95 242.084 155.55 238.85C155.15 239.05 154.85 239.534 154.65 240.3C154.383 241.4 154.183 242.734 154.05 244.3L153.9 245.95C153.866 247.35 154.033 248.85 154.4 250.45C153.933 252.85 153.866 255.284 154.2 257.75H153.65V257.7C153.35 254.767 153.15 252.134 153.05 249.8C152.983 248.6 152.966 247.484 153 246.45C153.266 243.984 153.5 242.367 153.7 241.6C153.733 241.5 153.733 241.434 153.7 241.4C153.7 241.267 153.683 241.184 153.65 241.15C153.583 241.017 153.483 241.017 153.35 241.15C153.316 241.184 153.266 241.284 153.2 241.45L152.8 242.65C152.366 244.184 152.033 245.634 151.8 247C151.533 246.367 151.25 245.684 150.95 244.95C149.85 242.384 149.133 240.5 148.8 239.3C148.8 239.234 148.766 239.184 148.7 239.15V239.1C148.7 239 148.666 238.917 148.6 238.85C148.533 238.85 148.466 238.917 148.4 239.05C148.333 239.217 148.333 239.417 148.4 239.65C148.5 240.65 148.716 241.817 149.05 243.15C149.283 243.95 149.616 245.1 150.05 246.6C150.683 248.734 151.133 251.1 151.4 253.7L149.55 247.5C149.25 246.667 148.95 245.8 148.65 244.9C148.183 243.634 147.85 242.6 147.65 241.8C147.483 241.834 147.383 241.95 147.35 242.15V242.7C147.583 243.567 147.883 244.717 148.25 246.15C147.65 244.217 147.233 242.667 147 241.5C147 241.334 146.95 241.25 146.85 241.25C146.716 241.15 146.6 241.25 146.5 241.55L146.6 242.55C146.766 243.55 147.066 244.784 147.5 246.25C147.733 247.05 148.1 248.267 148.6 249.9C149.166 251.934 149.633 254.534 150 257.7V257.75H148.55C148.55 257.55 148.533 257.267 148.5 256.9L148.45 256C148.55 252.767 148.066 249.534 147 246.3C146.433 244.5 146.133 243.467 146.1 243.2C146.066 243.034 146.016 242.934 145.95 242.9C145.85 242.8 145.75 242.784 145.65 242.85L145.55 243.1C145.516 243.634 145.583 244.267 145.75 245C145.85 245.367 145.983 245.967 146.15 246.8C146.55 248.3 146.833 250.134 147 252.3C146.833 250.9 146.533 249.517 146.1 248.15L145.7 247.2C145.433 246.467 145.283 246.05 145.25 245.95L145.2 245.4C145.033 245.467 144.95 245.584 144.95 245.75V246.25L145.75 250C145.983 251.2 146.116 252.4 146.15 253.6C145.95 252.267 145.8 251.467 145.7 251.2L145.4 250.1C144.766 248.2 144.4 247 144.3 246.5C144.3 246.4 144.283 246.334 144.25 246.3C144.25 246.267 144.233 246.25 144.2 246.25C144.7 242.85 145.116 240.267 145.45 238.5C145.45 238.334 145.4 238.25 145.3 238.25C145.066 238.417 144.866 238.8 144.7 239.4C144.033 241.467 143.366 244.567 142.7 248.7C142.633 248.7 142.583 248.684 142.55 248.65L141.9 250.25C141.8 250.55 141.716 250.817 141.65 251.05V250.5C141.65 250.334 141.616 250.234 141.55 250.2C141.516 250.134 141.483 250.1 141.45 250.1C141.583 248.9 141.75 247.734 141.95 246.6V246.4C141.883 246.267 141.783 246.267 141.65 246.4C141.616 246.434 141.55 246.517 141.45 246.65C141.216 247.484 141.016 248.284 140.85 249.05C140.816 248.984 140.8 248.884 140.8 248.75C140.666 246.784 140.166 244.484 139.3 241.85C139.1 242.184 139.05 242.667 139.15 243.3C139.65 246 139.866 248.584 139.8 251.05C139.8 251.317 139.716 252.417 139.55 254.35C139.516 254.85 139.5 255.317 139.5 255.75L139.25 255.5C139.216 255.467 139.183 255.434 139.15 255.4C139.116 255.2 139.1 255.017 139.1 254.85L138.85 250.2C138.616 247.434 138.366 245 138.1 242.9C138.1 242.767 138.05 242.717 137.95 242.75C137.85 242.817 137.783 242.934 137.75 243.1L137.65 239.9C137.583 239.7 137.516 239.584 137.45 239.55C137.316 239.684 137.216 239.967 137.15 240.4C137.083 241.3 137.083 242.667 137.15 244.5C137.15 245.434 137.1 246.317 137 247.15C136.933 247.984 136.883 248.7 136.85 249.3C136.783 248.667 136.716 248.017 136.65 247.35C136.55 246.217 136.333 244.534 136 242.3C135.633 242.534 135.483 243 135.55 243.7L135.65 247.4C135.616 247.334 135.583 247.284 135.55 247.25V247.2C135.516 247.167 135.483 247.134 135.45 247.1C135.416 246.767 135.35 246.334 135.25 245.8C135.183 245.3 135.016 244.95 134.75 244.75C134.75 244.784 134.7 244.8 134.6 244.8C134.566 244.967 134.55 245.334 134.55 245.9L134.6 247.3C134.6 247.367 134.6 247.434 134.6 247.5C134.466 248.067 134.283 248.6 134.05 249.1C134.083 248.434 134.133 247.784 134.2 247.15C134.266 246.25 134.266 245.584 134.2 245.15C133.866 243.884 133.7 242.934 133.7 242.3C133.433 242.534 133.333 242.867 133.4 243.3C133.566 244.634 133.65 245.384 133.65 245.55C133.65 245.784 133.65 246.034 133.65 246.3C133.55 245.8 133.416 245.417 133.25 245.15C133.15 244.884 133.016 244.8 132.85 244.9V245.1C132.816 245.267 132.816 245.5 132.85 245.8C132.883 246.134 132.9 246.517 132.9 246.95C132.866 246.717 132.85 246.467 132.85 246.2L132.6 245.25C132.466 244.817 132.366 244.567 132.3 244.5C132.1 244.8 132 245.3 132 246C132 248.8 131.683 251.15 131.05 253.05C130.983 253.25 130.9 253.467 130.8 253.7C130.766 252.7 130.65 251.767 130.45 250.9L130.1 249.3C130.066 248.834 130.016 248.384 129.95 247.95C129.75 246.55 129.366 245 128.8 243.3C128.5 242.334 127.933 240.834 127.1 238.8C126.966 239.367 127.066 240.184 127.4 241.25C127.666 242.284 127.9 243.25 128.1 244.15C127.8 243.05 127.366 241.767 126.8 240.3C125.733 237.3 125.066 235.367 124.8 234.5C124.6 234.6 124.533 234.85 124.6 235.25C124.666 235.584 125.283 237.834 126.45 242C127.183 244.767 127.566 247.084 127.6 248.95C127.6 249.317 127.6 249.75 127.6 250.25C127.5 248.817 127.233 247.35 126.8 245.85C126.166 243.217 124.983 240.184 123.25 236.75C123.183 237.184 123.266 237.834 123.5 238.7C124.9 243.1 125.716 246.45 125.95 248.75C126.15 250.45 126.15 252.134 125.95 253.8C125.95 253.834 125.95 253.884 125.95 253.95C125.75 251.617 125.1 249.584 124 247.85C123.266 246.75 122.216 245.667 120.85 244.6C120.383 244.3 120.016 244.184 119.75 244.25C119.783 244.35 119.866 244.484 120 244.65C119.3 243.85 118.416 242.917 117.35 241.85C116.883 241.417 116.516 241.15 116.25 241.05C116.45 241.484 116.75 241.934 117.15 242.4C119.05 244.634 120.35 246.5 121.05 248C121.816 249.734 122.3 251.65 122.5 253.75C122.1 251.584 121.466 249.834 120.6 248.5L119.55 247C118.116 245.234 116.766 244.034 115.5 243.4C115.4 243.334 115.316 243.317 115.25 243.35C115.15 243.384 115.15 243.484 115.25 243.65L116.25 244.65C116.883 245.25 117.6 246.117 118.4 247.25C119.1 248.317 119.566 249.117 119.8 249.65C120.533 251.05 121.066 253.084 121.4 255.75C121.533 256.517 121.7 257.184 121.9 257.75H119.45V259.9H332.85V257.75H330.6C330.6 257.584 330.6 257.417 330.6 257.25L330.25 254.1C330.183 253.167 330.1 252.317 330 251.55C330.033 251.417 330.066 251.267 330.1 251.1C330.5 248.9 330.75 247.217 330.85 246.05C330.916 245.75 330.85 245.55 330.65 245.45C330.516 245.384 330.366 245.417 330.2 245.55L329.6 248.1C329.4 247.067 329.216 246.15 329.05 245.35C329.05 245.184 328.95 245.067 328.75 245C328.55 244.967 328.433 245.1 328.4 245.4C328.333 245.967 328.35 246.75 328.45 247.75C328.55 248.584 328.633 250.017 328.7 252.05C328.5 252.884 328.35 253.6 328.25 254.2C327.983 252.867 327.75 251.834 327.55 251.1C327.45 250.3 327.283 249.6 327.05 249L327 243.2C326.633 243.567 326.416 244.217 326.35 245.15L326.25 247.15L326.15 247C325.983 246.934 325.883 246.9 325.85 246.9C325.783 246.934 325.75 247.017 325.75 247.15C325.75 247.484 325.816 247.917 325.95 248.45C325.983 248.584 326.016 248.75 326.05 248.95L325.75 252.3C325.583 254.5 325.716 256.234 326.15 257.5C326.183 257.6 326.216 257.684 326.25 257.75H325.3C325.333 257.65 325.35 257.5 325.35 257.3C325.616 252.567 325.466 248.667 324.9 245.6L324.85 245.55V245.35C324.85 245.25 324.833 245.184 324.8 245.15ZM327 257.75L327.05 257.7C327.05 257.733 327.066 257.749 327.1 257.75H327ZM120.2 244.9C120.3 245 120.4 245.117 120.5 245.25C122.766 247.284 124.133 249.884 124.6 253.05C124.666 253.517 124.75 254.184 124.85 255.05C124.85 255.317 124.883 255.567 124.95 255.8C124.916 256.167 124.933 256.717 125 257.45C125 257.55 125 257.65 125 257.75H123.65C123.85 256.95 123.916 256.017 123.85 254.95C123.683 251.784 122.983 249.134 121.75 247C121.383 246.4 120.866 245.7 120.2 244.9ZM143.75 252.15L143.95 248.4L144.55 251.9C144.85 253.534 145.016 255.117 145.05 256.65C145.05 256.984 145.1 257.234 145.2 257.4C145.266 257.567 145.383 257.667 145.55 257.7V257.75H143.7C143.733 257.65 143.75 257.467 143.75 257.2C143.75 255.534 143.75 253.85 143.75 252.15ZM135.1 252.55C135.2 252.217 135.283 251.817 135.35 251.35C135.316 251.784 135.3 252.317 135.3 252.95V256.65C135.3 256.817 135.333 256.984 135.4 257.15C135.4 257.384 135.416 257.584 135.45 257.75H133.1L133.4 256.7C133.6 256.467 133.833 256.134 134.1 255.7L134.5 254.9L135.1 252.55ZM132.2 256.3L132.25 256.25L132.35 255.85C132.416 255.717 132.483 255.584 132.55 255.45C132.55 255.484 132.55 255.534 132.55 255.6L132.6 256.1C132.633 256.367 132.533 256.884 132.3 257.65C132.3 257.684 132.3 257.717 132.3 257.75H131.9L132 257.45L132.1 256.8L132.15 256.75L132.2 256.3ZM287.9 245.1C288.007 245.285 288.157 245.518 288.35 245.8C288.683 246.234 289.083 246.934 289.55 247.9C290.35 249.434 290.85 250.667 291.05 251.6L291.25 252.8L291.3 254.7C291.366 256.2 291.416 257.05 291.45 257.25C291.483 257.384 291.533 257.5 291.6 257.6C291.566 257.634 291.533 257.667 291.5 257.7V257.75H290.85L290.9 257.05L290.85 256.45C290.85 256.117 290.816 255.85 290.75 255.65C290.783 255.284 290.8 254.95 290.8 254.65C290.8 252.584 290.366 250.534 289.5 248.5C289.112 247.532 288.579 246.399 287.9 245.1ZM261.65 255.25V255.3H261.4L261.55 255.25L261.6 255.2L261.65 255.25ZM317.4 257.6C317.433 257.667 317.466 257.717 317.5 257.75H316.9C316.9 257.684 316.9 257.617 316.9 257.55C316.933 257.317 316.966 257 317 256.6C317.1 257 317.233 257.334 317.4 257.6ZM321.45 257.75C321.45 257.684 321.466 257.634 321.5 257.6C321.5 257.634 321.5 257.684 321.5 257.75H321.45ZM322.9 257.75C322.866 257.45 322.816 257.1 322.75 256.7C322.683 255.967 322.633 255.25 322.6 254.55C322.733 254.95 322.883 255.384 323.05 255.85C323.383 256.617 323.7 257.25 324 257.75H322.9ZM307.25 249L307.4 248.15L308.05 252.6V254.6L307.65 256.9L307.55 257.2C307.483 257.334 307.45 257.517 307.45 257.75H306.35C306.316 257.684 306.3 257.617 306.3 257.55C306.266 255.45 306.583 252.6 307.25 249ZM311.55 257.75C311.582 257.718 311.599 257.685 311.6 257.65C311.6 257.685 311.6 257.718 311.6 257.75H311.55Z" fill="#00892C"/>
<path d="M181.218 214.188C181.248 213.763 181.764 213.186 182.766 212.457C181.794 212.973 181.081 213.277 180.626 213.368C180.14 213.459 179.533 212.791 178.804 211.364C179.29 212.518 179.472 213.307 179.35 213.732C179.259 214.158 178.728 214.659 177.756 215.235C179.001 214.537 179.821 214.325 180.216 214.598C180.61 214.841 181.111 215.326 181.719 216.055C181.354 215.266 181.187 214.643 181.218 214.188Z" fill="white"/>
<path d="M202.486 221.111C200.361 219.289 199.404 217.71 199.617 216.374C199.829 215.038 201.484 212.457 204.581 208.632C201.515 211.091 199.45 212.67 198.387 213.368C197.325 214.067 195.139 212.943 191.829 209.998C193.924 212.457 194.88 214.294 194.698 215.509C194.516 216.723 193.226 218.591 190.827 221.111C194.167 218.105 196.459 216.997 197.704 217.786C198.949 218.575 200.543 219.684 202.486 221.111Z" fill="#46B954"/>
<path d="M185.556 251.938V251.574C186.286 252.276 186.999 253.156 187.697 254.215L187.56 256.082C179.746 258.575 170.091 258.757 158.595 256.629V251.437C162.575 252.967 167.372 253.65 172.986 253.486C178.598 253.358 182.788 252.841 185.556 251.938Z" fill="#81D671"/>
<path d="M158.595 251.437V246.291L185.556 247.566V251.574V251.938C182.788 252.841 178.598 253.357 172.986 253.486C167.372 253.65 162.575 252.967 158.595 251.437Z" fill="#009900"/>
<path d="M158.595 246.199C158.595 245.592 160.068 245.061 163.013 244.605C165.927 244.18 169.465 243.968 173.624 243.968C177.784 243.968 181.336 244.18 184.281 244.605C187.196 245.061 188.653 245.592 188.653 246.199C188.653 246.807 187.196 247.323 184.281 247.748C181.336 248.203 177.784 248.431 173.624 248.431C169.465 248.431 165.927 248.203 163.013 247.748C160.068 247.323 158.595 246.807 158.595 246.199Z" fill="#46B954"/>
<path d="M161.145 245.425V241.19H185.693L185.42 246.473C175.501 247.507 167.41 247.158 161.145 245.425Z" fill="#009900"/>
<path d="M163.013 239.824C163.013 239.247 164.273 238.731 166.793 238.275C169.343 237.88 172.41 237.683 175.992 237.683C179.575 237.683 182.627 237.88 185.147 238.275C187.697 238.731 188.972 239.247 188.972 239.824C188.972 240.4 187.697 240.886 185.147 241.281C182.627 241.706 179.575 241.919 175.992 241.919C172.41 241.919 169.343 241.706 166.793 241.281C164.273 240.886 163.013 240.4 163.013 239.824Z" fill="#46B954"/>
<path d="M155.361 240.097V234.45L184.646 235.816V240.234C175.141 242.461 165.379 242.415 155.361 240.097Z" fill="#009900"/>
<path d="M155.361 234.449C155.361 233.903 156.94 233.417 160.098 232.992C163.164 232.567 166.944 232.354 171.438 232.354C175.932 232.354 179.757 232.567 182.915 232.992C185.981 233.417 187.515 233.903 187.515 234.449C187.515 235.026 185.981 235.512 182.915 235.907C179.757 236.332 175.932 236.544 171.438 236.544C166.944 236.544 163.164 236.332 160.098 235.907C156.94 235.512 155.361 235.026 155.361 234.449Z" fill="#336600"/>
<path d="M158.64 234.996V229.713C158.787 230.01 159.41 230.283 160.508 230.533C168.983 231.88 177.287 231.88 185.42 230.533H185.511L185.42 235.679C176.678 237.214 167.752 236.986 158.64 234.996Z" fill="#81D671"/>
<path d="M158.64 229.713C158.605 229.638 158.59 229.562 158.595 229.485C158.633 228.877 159.893 228.376 162.375 227.982C164.832 227.588 168.111 227.39 172.212 227.39C176.311 227.39 179.803 227.587 182.687 227.982C185.602 228.407 187.059 228.923 187.059 229.531C187.059 229.905 186.513 230.239 185.42 230.533C177.287 231.88 168.983 231.88 160.508 230.533C159.41 230.283 158.787 230.01 158.64 229.713Z" fill="#46B954"/>
<path d="M156.272 227.8V222.836C164.257 222.381 174.019 223.003 185.556 224.703L185.42 229.03C173.6 230.502 163.884 230.093 156.272 227.8Z" fill="#009900"/>
<path d="M159.362 223.929V218.19L186.232 219.466V224.612C176.073 225.782 167.116 225.554 159.362 223.929Z" fill="#80D670"/>
<path d="M160.28 212.27C160.28 211.633 161.813 211.101 164.88 210.676C167.916 210.221 171.575 209.993 175.856 209.993C179.56 209.993 182.793 210.16 185.556 210.494V214.046C182.793 214.38 179.56 214.547 175.856 214.547C171.575 214.547 167.916 214.335 164.88 213.91C161.813 213.454 160.28 212.908 160.28 212.27ZM159.278 217.918C159.278 217.28 160.811 216.749 163.878 216.324C166.914 215.868 170.573 215.64 174.854 215.64C179.165 215.64 182.839 215.868 185.875 216.324C186.299 216.383 186.694 216.444 187.059 216.506V219.329C186.694 219.418 186.299 219.493 185.875 219.557C182.839 219.982 179.165 220.195 174.854 220.195C170.573 220.195 166.914 219.982 163.878 219.557C160.811 219.102 159.278 218.555 159.278 217.918ZM156.227 222.654C156.227 222.108 157.274 221.652 159.369 221.288V223.929C157.274 223.626 156.227 223.201 156.227 222.654Z" fill="#46B954"/>
<path d="M160.273 217.917V212.27C164.401 214.377 173.267 214.924 186.87 213.91V218.874C176.082 220.239 167.217 219.92 160.273 217.917Z" fill="#009900"/>
<path d="M270.345 215.19C270.106 215.049 269.894 214.913 269.708 214.78V214.871C269.893 214.951 270.106 215.057 270.345 215.19Z" fill="white"/>
<path d="M262.648 251.67C261.92 252.338 261.206 253.203 260.508 254.266L260.644 256.133C268.447 258.623 278.103 258.805 289.61 256.68V251.488C285.632 253.006 280.835 253.704 275.218 253.583C269.601 253.431 265.411 252.9 262.648 251.989V251.67Z" fill="#81D671"/>
<path d="M289.61 251.488V246.341L262.648 247.617V251.67V251.989C265.411 252.899 269.601 253.431 275.218 253.583C280.835 253.704 285.632 253.006 289.61 251.488Z" fill="#009900"/>
<path d="M289.61 246.25C289.61 245.643 288.137 245.112 285.192 244.656C282.277 244.231 278.74 244.019 274.58 244.019C270.421 244.019 266.869 244.231 263.923 244.656C261.009 245.112 259.551 245.643 259.551 246.25C259.551 246.857 261.009 247.374 263.923 247.799C266.869 248.254 270.421 248.482 274.58 248.482C278.74 248.482 282.277 248.254 285.192 247.799C288.137 247.374 289.61 246.857 289.61 246.25Z" fill="#46B954"/>
<path d="M287.059 245.476V241.24H262.512L262.785 246.523C272.713 247.556 280.805 247.206 287.059 245.476Z" fill="#009900"/>
<path d="M285.192 239.874C285.192 239.297 283.932 238.781 281.412 238.325C278.861 237.931 275.795 237.733 272.212 237.733C268.629 237.733 265.578 237.931 263.058 238.325C260.508 238.781 259.232 239.297 259.232 239.874C259.232 240.451 260.508 240.937 263.058 241.331C265.578 241.756 268.629 241.969 272.212 241.969C275.795 241.969 278.861 241.756 281.412 241.331C283.932 240.937 285.192 240.451 285.192 239.874Z" fill="#46B954"/>
<path d="M292.843 240.147V234.5L263.559 235.866V240.284C273.062 242.5 282.824 242.455 292.843 240.147Z" fill="#009900"/>
<path d="M292.839 234.449C292.839 233.903 291.26 233.417 288.102 232.992C285.036 232.567 281.256 232.354 276.762 232.354C272.269 232.354 268.443 232.567 265.285 232.992C262.219 233.417 260.686 233.903 260.686 234.449C260.686 235.026 262.219 235.512 265.285 235.907C268.443 236.332 272.269 236.544 276.762 236.544C281.256 236.544 285.036 236.332 288.102 235.907C291.26 235.512 292.839 235.026 292.839 234.449Z" fill="#336600"/>
<path d="M289.564 229.764C289.412 230.067 288.789 230.341 287.696 230.583C279.225 231.919 270.937 231.919 262.83 230.583H262.693L262.784 235.73C271.529 237.278 280.455 237.051 289.564 235.047V229.764Z" fill="#81D671"/>
<path d="M289.564 229.764C289.594 229.703 289.609 229.627 289.609 229.536C289.579 228.929 288.334 228.428 285.875 228.033C283.385 227.638 280.091 227.441 275.992 227.441C271.893 227.441 268.402 227.638 265.517 228.033C262.602 228.458 261.145 228.974 261.145 229.581C261.145 229.946 261.707 230.28 262.83 230.583C270.937 231.919 279.226 231.919 287.697 230.583C288.79 230.34 289.412 230.067 289.564 229.764Z" fill="#46B954"/>
<path d="M291.932 227.851V222.887C283.947 222.431 274.185 223.054 262.648 224.754L262.785 229.08C274.595 230.538 284.311 230.128 291.932 227.851Z" fill="#009900"/>
<path d="M288.835 223.98V218.241L261.965 219.516V224.663C272.136 225.847 281.093 225.619 288.835 223.98Z" fill="#81D671"/>
<path d="M288.926 217.968C288.926 217.33 287.393 216.799 284.326 216.374C281.29 215.918 277.632 215.691 273.351 215.691C269.039 215.691 265.365 215.918 262.329 216.374C261.904 216.435 261.509 216.495 261.145 216.556V219.425C261.509 219.486 261.904 219.547 262.329 219.607C265.365 220.033 269.039 220.245 273.351 220.245C277.632 220.245 281.29 220.033 284.326 219.607C287.393 219.152 288.926 218.606 288.926 217.968ZM291.978 222.704C291.978 222.158 290.93 221.702 288.835 221.338V223.98C290.93 223.676 291.978 223.251 291.978 222.704ZM272.349 210.043C268.644 210.043 265.411 210.21 262.648 210.544V214.142C265.411 214.446 268.644 214.598 272.349 214.598C276.63 214.598 280.288 214.385 283.324 213.96C286.391 213.505 287.924 212.958 287.924 212.321C287.924 211.683 286.391 211.152 283.324 210.727C280.288 210.271 276.63 210.043 272.349 210.043Z" fill="#46B954"/>
<path d="M287.925 217.968V212.321C283.795 214.416 274.93 214.962 261.328 213.96V218.925C272.106 220.291 280.972 219.972 287.925 217.968Z" fill="#009900"/>
<path d="M173.95 248.95C173.95 249.239 173.6 249.756 172.9 250.5C173.708 249.67 174.241 249.303 174.5 249.4C174.833 249.533 175.333 249.85 176 250.35C175.3 249.75 174.983 249.3 175.05 249C175.15 248.767 175.516 248.233 176.15 247.4C175.383 248 174.85 248.333 174.55 248.4C174.25 248.4 173.7 248.067 172.9 247.4C173.6 248.167 173.95 248.683 173.95 248.95ZM176.35 221.15C177.116 217.95 177.9 216.283 178.7 216.15C179.5 216.017 181.1 216.083 183.5 216.35C180.933 215.95 179.55 215.35 179.35 214.55C179.116 213.783 179.25 212.017 179.75 209.25C178.75 211.783 177.933 213.267 177.3 213.7C176.666 214.133 174.933 214.083 172.1 213.55C174.833 214.383 176.366 215.167 176.7 215.9C177.033 216.6 176.916 218.35 176.35 221.15ZM282.9 251.85C282.466 252.017 281.466 251.733 279.9 251C281.4 251.9 282.2 252.6 282.3 253.1C282.333 253.567 281.966 254.583 281.2 256.15C282.133 254.383 282.85 253.5 283.35 253.5C283.85 253.567 284.8 253.883 286.2 254.45C284.733 253.783 284.016 253.183 284.05 252.65C284.05 252.183 284.383 251.2 285.05 249.7C284.05 251 283.333 251.717 282.9 251.85ZM269.5 230.85C269.266 230.75 268.9 230.417 268.4 229.85C268.766 230.517 268.916 230.933 268.85 231.1C268.816 231.267 268.433 231.583 267.7 232.05C268.466 231.65 268.966 231.5 269.2 231.6C269.433 231.667 269.8 232 270.3 232.6C269.766 231.9 269.566 231.45 269.7 231.25C269.856 231.094 270.106 230.927 270.45 230.75C270.037 230.943 269.721 230.976 269.5 230.85ZM276.25 212.55C274.983 213.45 274.116 213.783 273.65 213.55C273.25 213.283 272.55 212.467 271.55 211.1C272.216 212.633 272.5 213.617 272.4 214.05C272.3 214.517 271.533 215.25 270.1 216.25C271.633 215.417 272.65 215.083 273.15 215.25C273.55 215.417 274.25 216.233 275.25 217.7C274.183 216 273.783 214.933 274.05 214.5C274.316 214.1 275.05 213.45 276.25 212.55ZM160.75 229.65C160.383 229.983 159.316 229.967 157.55 229.6C159.25 230.167 160.2 230.7 160.4 231.2C160.6 231.7 160.533 232.9 160.2 234.8C160.666 232.633 161.15 231.483 161.65 231.35C162.15 231.25 163.15 231.317 164.65 231.55C163.016 231.25 162.133 230.833 162 230.3C161.933 229.767 162.016 228.55 162.25 226.65C161.65 228.383 161.15 229.383 160.75 229.65Z" fill="#FFFF00"/>
<path d="M195.75 258.15C195.808 258.208 195.875 258.275 195.95 258.35L196 258.4H196.05C197.75 259.333 199.667 259.833 201.8 259.9H208.55V258.95C208.117 259.383 207.717 259.617 207.35 259.65C206.983 259.65 206.55 259.367 206.05 258.8V245.2H195.75V258.15ZM193.25 232.85H190.1V246.7C190.033 247.2 190 247.7 190 248.2C190 248.733 190.033 249.25 190.1 249.75C190.4 252.15 191.45 254.283 193.25 256.15V232.85ZM193.25 219.25H190.1V231.3H193.25V219.25ZM193.25 140.5H190.1V217.75H193.25V140.5ZM190.2 133V132.75C190.133 132.95 190.1 133.4 190.1 134.1V138.1H193.25V133H190.2ZM206.05 203.05V198.1H195.75V203.05H206.05ZM206.05 230.7V225H195.75V230.7H206.05ZM206.05 217.2V211.4H195.75V217.2H206.05ZM206.05 223.4V219.25H195.75V223.4H206.05ZM206.05 237V232.85H195.75V237H206.05ZM206.05 243.55V238.65H195.75V243.55H206.05ZM206.05 209.75V204.7H195.75V209.75H206.05ZM195.75 144.5V149.8H206.05V144.5H195.75ZM195.75 151.4V156.55H206.05V151.4H195.75ZM195.75 171.65V176.4H206.05V171.65H195.75ZM195.75 164.6V170.05H206.05V164.6H195.75ZM195.75 158.2V163H206.05V158.2H195.75ZM195.75 184.9V189.4H206.05V184.9H195.75ZM195.75 191V196.45H206.05V191H195.75ZM195.75 178V183.25H206.05V178H195.75ZM206.05 142.85V140.5H195.75V142.85H206.05ZM206.05 136.5V133H195.75V136.5H206.05Z" fill="#885031"/>
<path d="M195.95 258.35C195.875 258.275 195.808 258.209 195.75 258.15V258.2C195.808 258.229 195.875 258.279 195.95 258.35ZM246.1 259.9C248.667 259.833 250.95 259.067 252.95 257.6V232.85H208.55V258.95V259.9H246.1ZM252.9 231.3V219.25H208.55V231.3H252.9ZM252.9 140.5H208.55V217.75H252.9V140.5ZM227.5 167.2L229.9 166.2L221.05 189.95C216.05 178.583 218.2 171 227.5 167.2ZM230.6 170.2L231.5 172C235.033 179.333 232.267 185.05 223.2 189.15L230.6 170.2ZM257.75 133C257.718 132.937 257.702 132.87 257.7 132.8V133H257.75ZM208.55 133V138.1H252.9V133H208.55Z" fill="#B36940"/>
<path d="M257.9 232.85H252.95V257.6L253 257.55C253.467 257.217 253.884 256.85 254.25 256.45C255.35 255.417 256.2 254.267 256.8 253H256.85V252.95C256.917 252.783 257 252.633 257.1 252.5C257.6 251.267 257.867 249.95 257.9 248.55V232.85ZM257.85 219.25H252.9V231.3H257.85V219.25ZM257.8 140.5H252.9V217.75H257.8V140.5ZM257.8 133H257.75H257.7H252.9V138.1H257.8V133Z" fill="#C58257"/>
<path d="M231.5 172L230.6 170.2L223.2 189.15C232.267 185.05 235.033 179.334 231.5 172ZM229.9 166.2L227.5 167.2C218.2 171 216.05 178.584 221.05 189.95L229.9 166.2Z" fill="#CE9D83"/>
<path d="M262.9 122.75C261.7 120.95 260.517 120.95 259.35 122.75V128.2V129.5V130.5V132.75V138.1V140.5V217.75V219.25V231.3V232.85V256.9C260.484 258.667 261.667 258.667 262.9 256.9V122.75ZM189 122.75C187.834 120.95 186.65 120.95 185.45 122.75V256.9C186.584 258.667 187.767 258.667 189 256.9V232.85V231.3V219.25V217.75V140.5V138.1V132.75V130.5V129.5V128.2V122.75Z" fill="#462718"/>
<path d="M193.25 133V132.75H190.2V133H193.25ZM193.25 130.5V129.5H190.35C190.35 129.833 190.334 130.167 190.3 130.5H193.25ZM208.55 129.5V130.5H257.6C257.567 130.167 257.55 129.833 257.55 129.5H208.55ZM208.55 124V128.2H257.4C256.234 119.4 253 112.65 247.7 107.95C243.7 104.417 239.184 101.967 234.15 100.6C220.317 101.6 211.784 109.4 208.55 124ZM256.45 126.85H252.45C250.617 116.383 244.9 108.667 235.3 103.7C239.667 104.767 244.25 107.4 249.05 111.6C253.317 115.733 255.784 120.817 256.45 126.85ZM208.55 132.75V133H252.9H257.7V132.8V132.75H208.55ZM206.05 130.5V129.5H195.75V130.5H206.05ZM206.05 133V132.75H195.75V133H206.05Z" fill="#E2DBD6"/>
<path d="M252.45 126.85H256.45C255.784 120.817 253.317 115.734 249.05 111.6C244.25 107.4 239.667 104.767 235.3 103.7C244.9 108.667 250.617 116.384 252.45 126.85Z" fill="#B5B5B4"/>
<path d="M208.55 123.2C207.65 122.433 206.817 122.433 206.05 123.2V128.2H195.75V123.2C194.883 122.433 194.05 122.433 193.25 123.2V128.2H190.5H189V129.5H190.35H193.25V130.5H190.3H189V132.75H190.2H193.25V133V138.1H190.1H189V140.5H190.1H193.25V217.75H190.1H189V219.25H190.1H193.25V231.3H190.1H189V232.85H190.1H193.25V256.15V258.65C194.117 259.45 194.95 259.45 195.75 258.65V258.2V258.15V245.2H206.05V258.8C206.55 259.367 206.983 259.65 207.35 259.65C207.717 259.617 208.117 259.383 208.55 258.95V232.85H252.95H257.9H259.35V231.3H257.85H252.9H208.55V219.25H252.9H257.85H259.35V217.75H257.8H252.9H208.55V140.5H252.9H257.8H259.35V138.1H257.8H252.9H208.55V133V132.75H257.7H259.35V130.5H257.6H208.55V129.5H257.55H259.35V128.2H257.4H208.55V124V123.2ZM206.05 132.75V133V136.5H195.75V133V132.75H206.05ZM206.05 129.5V130.5H195.75V129.5H206.05ZM206.05 140.5V142.85H195.75V140.5H206.05ZM195.75 183.25V178H206.05V183.25H195.75ZM195.75 196.45V191H206.05V196.45H195.75ZM195.75 189.4V184.9H206.05V189.4H195.75ZM195.75 163V158.2H206.05V163H195.75ZM195.75 170.05V164.6H206.05V170.05H195.75ZM195.75 176.4V171.65H206.05V176.4H195.75ZM195.75 156.55V151.4H206.05V156.55H195.75ZM195.75 149.8V144.5H206.05V149.8H195.75ZM206.05 204.7V209.75H195.75V204.7H206.05ZM206.05 238.65V243.55H195.75V238.65H206.05ZM206.05 232.85V237H195.75V232.85H206.05ZM206.05 219.25V223.4H195.75V219.25H206.05ZM206.05 211.4V217.2H195.75V211.4H206.05ZM206.05 225V230.7H195.75V225H206.05ZM206.05 198.1V203.05H195.75V198.1H206.05Z" fill="#373738"/>
<path d="M234.05 100.6C231.283 99.8001 228.317 99.3668 225.15 99.3001C223.883 99.2668 222.6 99.2834 221.3 99.3501C220.467 99.3501 219.65 99.4168 218.85 99.5501C216.45 99.8501 214.133 100.383 211.9 101.15C210.433 101.583 209.017 102.15 207.65 102.85C204.65 104.183 201.883 106 199.35 108.3C197.183 110.3 195.417 112.733 194.05 115.6C192.55 118.533 191.517 121.733 190.95 125.2L190.7 126.7C190.633 127.2 190.567 127.7 190.5 128.2H193.25V123.2C194.05 122.433 194.883 122.433 195.75 123.2V128.2H206.05V123.2C206.817 122.433 207.65 122.433 208.55 123.2V124C211.783 109.4 220.317 101.6 234.15 100.6C234.117 100.6 234.083 100.6 234.05 100.6Z" fill="#B6A7A4"/>
<path d="M210.7 105.15C207.9 107.817 206.417 111 206.25 114.7H211.75C213.117 107.367 218.9 102.317 229.1 99.5499C221.867 98.4833 215.733 100.35 210.7 105.15Z" fill="#663300"/>
<rect width="7" height="14" transform="translate(214 38)" fill="white"/>
<rect width="7" height="14" transform="translate(233 17)" fill="white"/>
<path d="M220.8 80.3C220.8 80.2667 220.817 80.25 220.85 80.25C221.95 79.6167 223.133 79.1833 224.4 78.95C225.067 78.8167 225.767 78.75 226.5 78.75C227.633 78.75 228.7 78.9 229.7 79.2C230.533 79.4667 231.333 79.8167 232.1 80.25C232.133 80.25 232.167 80.2667 232.2 80.3C233.4 81.0333 234.517 82.0167 235.55 83.25C235.45 83.0833 235.333 82.9167 235.2 82.75C234.367 81.8167 233.5 81 232.6 80.3C232.567 80.2667 232.533 80.25 232.5 80.25C231.967 79.85 231.417 79.5 230.85 79.2C228.883 78.1333 226.733 77.5667 224.4 77.5C224.3 77.5 224.183 77.5 224.05 77.5C220.95 77.5 218.167 78.4167 215.7 80.25C215.667 80.25 215.65 80.2667 215.65 80.3C214.65 81 213.75 81.8167 212.95 82.75C209.883 86.25 208.35 90.4667 208.35 95.4C208.35 100.367 209.883 104.6 212.95 108.1C213.283 108.467 213.583 108.783 213.85 109.05C214.617 107.95 215.433 106.95 216.3 106.05C215.8 105.783 215.267 105.15 214.7 104.15C213.733 102.417 213.25 99.4833 213.25 95.35C213.25 90.7833 214.533 86.85 217.1 83.55C218.2 82.1833 219.433 81.1 220.8 80.3ZM217.65 34.4C219.117 34.4 220.417 34.8 221.55 35.6C222.017 35.9 222.483 36.2667 222.95 36.7C223.183 36.9333 223.367 37.15 223.5 37.35C225.1 39.3167 225.933 41.65 226 44.35C226 41.3833 225.05 38.8333 223.15 36.7C223.117 36.7 223.1 36.6833 223.1 36.65C222.6 36.1167 222.083 35.65 221.55 35.25C219.983 34.1167 218.2 33.55 216.2 33.55C213.533 33.55 211.233 34.5833 209.3 36.65C207.433 38.75 206.5 41.3167 206.5 44.35C206.5 46.65 207.067 48.7167 208.2 50.55C208.2 50.5833 208.233 50.6 208.3 50.6C208.567 51.0667 208.9 51.5167 209.3 51.95C210.067 52.8167 210.933 53.5 211.9 54C213.167 54.7333 214.6 55.1 216.2 55.1C216.5 55.1 216.767 55.1 217 55.1C215.867 54.9667 214.85 54.6 213.95 54C213.117 53.5333 212.383 52.8667 211.75 52C210.117 50 209.3 47.5667 209.3 44.7C209.3 41.8333 210.117 39.3833 211.75 37.35C213.383 35.3833 215.35 34.4 217.65 34.4ZM247.1 61.45C246.7 59.25 245.733 57.3 244.2 55.6C242.233 53.3667 239.8 52.25 236.9 52.25C234.067 52.25 231.617 53.3667 229.55 55.6C228.683 56.6 228 57.7 227.5 58.9C227.3 59.3 227.15 59.7333 227.05 60.2C226.717 61.2667 226.55 62.4333 226.55 63.7C226.55 64.9667 226.717 66.15 227.05 67.25C227.15 67.7167 227.3 68.1667 227.5 68.6C227.667 69 227.883 69.4167 228.15 69.85C228.517 70.55 228.983 71.2 229.55 71.8C230.383 72.7667 231.317 73.5 232.35 74C233.717 74.7667 235.233 75.15 236.9 75.15C237.2 75.15 237.483 75.15 237.75 75.15C236.55 74.9833 235.467 74.6 234.5 74C233.633 73.5333 232.85 72.85 232.15 71.95C231.617 71.2833 231.167 70.5833 230.8 69.85C229.967 68.15 229.55 66.25 229.55 64.15C229.55 61.1167 230.417 58.5333 232.15 56.4C233.883 54.2333 235.967 53.15 238.4 53.15C240.9 53.15 243 54.2333 244.7 56.4C245.933 57.9667 246.733 59.7333 247.1 61.7C247.2 62.1333 247.267 62.55 247.3 62.95C247.267 62.4167 247.2 61.9167 247.1 61.45ZM228.2 15.15C226.267 17.25 225.3 19.8 225.3 22.8C225.3 25 225.85 26.9833 226.95 28.75C226.983 28.8167 227.033 28.8833 227.1 28.95V29C227.4 29.5 227.767 29.9667 228.2 30.4C228.4 30.6667 228.633 30.9167 228.9 31.15C229.433 31.6833 230.05 32.1167 230.75 32.45C232.05 33.1833 233.483 33.55 235.05 33.55C235.35 33.55 235.6 33.55 235.8 33.55C234.7 33.4167 233.7 33.05 232.8 32.45C232.2 32.15 231.65 31.7167 231.15 31.15C230.95 30.95 230.783 30.7167 230.65 30.45C230.15 29.9167 229.767 29.35 229.5 28.75C228.633 27.1167 228.2 25.2667 228.2 23.2C228.2 20.3333 229.017 17.8833 230.65 15.85C232.283 13.85 234.233 12.85 236.5 12.85C238.833 12.85 240.783 13.85 242.35 15.85C243.917 17.8167 244.75 20.1333 244.85 22.8C244.85 19.8 243.883 17.25 241.95 15.15C240.783 13.8167 239.433 12.9 237.9 12.4C237 12.1333 236.05 12 235.05 12C234.05 12 233.117 12.1333 232.25 12.4C230.75 12.9 229.4 13.8167 228.2 15.15Z" fill="#009900"/>
<path d="M221.55 35.6001C220.416 34.8001 219.116 34.4001 217.65 34.4001C215.35 34.4001 213.383 35.3834 211.75 37.3501C210.116 39.3834 209.3 41.8334 209.3 44.7001C209.3 47.5668 210.116 50.0001 211.75 52.0001C212.383 52.8668 213.116 53.5334 213.95 54.0001C214.85 54.6001 215.866 54.9668 217 55.1001C217.2 55.1001 217.416 55.1001 217.65 55.1001C219.05 55.1001 220.3 54.7334 221.4 54.0001C222.2 53.5334 222.9 52.8668 223.5 52.0001C225.166 50.0001 226 47.5668 226 44.7001V44.5501C226 44.4834 226 44.4168 226 44.3501C225.933 41.6501 225.1 39.3168 223.5 37.3501C223.366 37.1501 223.183 36.9334 222.95 36.7001C222.483 36.2668 222.016 35.9001 221.55 35.6001ZM218.5 39.8001L219.55 39.3501L215.55 49.9501C213.35 44.8501 214.333 41.4668 218.5 39.8001ZM243.55 28.7501C244.416 27.1168 244.85 25.2668 244.85 23.2001V22.9501C244.85 22.8834 244.85 22.8334 244.85 22.8001C244.75 20.1334 243.916 17.8168 242.35 15.8501C240.783 13.8501 238.833 12.8501 236.5 12.8501C234.233 12.8501 232.283 13.8501 230.65 15.8501C229.016 17.8834 228.2 20.3334 228.2 23.2001C228.2 25.2668 228.633 27.1168 229.5 28.7501C229.766 29.3501 230.15 29.9168 230.65 30.4501C230.783 30.7168 230.95 30.9501 231.15 31.1501C231.65 31.7168 232.2 32.1501 232.8 32.4501C233.7 33.0501 234.7 33.4168 235.8 33.5501C236 33.5501 236.233 33.5501 236.5 33.5501C237.866 33.5501 239.116 33.1834 240.25 32.4501C240.816 32.1501 241.35 31.7168 241.85 31.1501C242.016 30.9501 242.183 30.7168 242.35 30.4501C242.816 29.9168 243.216 29.3501 243.55 28.7501ZM237.35 18.2001L238.4 17.7501L234.4 28.3501C232.2 23.2501 233.183 19.8668 237.35 18.2001Z" fill="#46B955"/>
<path d="M239.853 24.9147C239.843 24.9183 239.836 24.918 239.829 24.9178C239.073 25.0499 238.313 25.1779 237.556 25.3061C237.257 25.3591 236.955 25.4119 236.655 25.4609C236.645 25.4645 236.638 25.4643 236.628 25.4599L239.146 18.5871L239.15 18.5832C239.386 20.6991 239.62 22.8029 239.853 24.9147Z" fill="black"/>
<path d="M239.634 25.4988C238.257 26.5118 236.88 27.5288 235.5 28.5417L235.96 27.2871L236.419 26.0325C236.426 26.0367 236.433 26.033 236.443 26.0333C237.251 25.8991 238.056 25.7607 238.86 25.6263C239.108 25.5834 239.356 25.5405 239.603 25.4977C239.614 25.494 239.62 25.4943 239.634 25.4908C239.631 25.4947 239.634 25.4988 239.634 25.4988Z" fill="black"/>
<path d="M220.853 46.4147C220.843 46.4183 220.836 46.418 220.829 46.4178C220.073 46.5499 219.313 46.6779 218.556 46.8061C218.257 46.8591 217.955 46.9119 217.655 46.9609C217.645 46.9645 217.638 46.9643 217.628 46.9599L220.146 40.0871L220.15 40.0832C220.386 42.1991 220.62 44.3029 220.853 46.4147Z" fill="black"/>
<path d="M220.634 46.9988C219.257 48.0118 217.88 49.0288 216.5 50.0417L216.96 48.7871L217.419 47.5325C217.426 47.5367 217.433 47.533 217.443 47.5333C218.251 47.3991 219.056 47.2607 219.86 47.1263C220.108 47.0834 220.356 47.0405 220.603 46.9977C220.614 46.994 220.62 46.9943 220.634 46.9908C220.631 46.9947 220.634 46.9988 220.634 46.9988Z" fill="black"/>
<rect width="7" height="14" transform="translate(235 57)" fill="white"/>
<path d="M220.85 80.2499C220.817 80.2499 220.8 80.2666 220.8 80.2999C219.433 81.0999 218.2 82.1832 217.1 83.5499C214.533 86.8499 213.25 90.7832 213.25 95.3499C213.25 99.4832 213.733 102.417 214.7 104.15C215.267 105.15 215.8 105.783 216.3 106.05H216.35C216.483 105.883 216.633 105.717 216.8 105.55L216.85 105.5C217.383 105.067 217.967 104.6 218.6 104.1C219.3 103.6 220.6 102.9 222.5 102C222.567 101.967 222.633 101.933 222.7 101.9C222.867 101.8 223.033 101.717 223.2 101.65V101.6H223.3C223.4 101.533 223.5 101.483 223.6 101.45C220.867 94.7499 222.333 90.2166 228 87.8499L229.5 87.2499L224.3 101.2C224.367 101.167 224.5 101.117 224.7 101.05C224.967 100.917 225.233 100.8 225.5 100.7C225.6 100.667 225.667 100.633 225.7 100.6L225.75 100.55L228.164 99.7499H228.3C228.667 99.6499 228.9 99.5832 229 99.5499C230.167 99.8166 231.95 100.267 234.35 100.9C236.483 101.433 237.933 101.883 238.7 102.25C238.767 102.283 238.833 102.317 238.9 102.35C239.467 101.183 239.767 99.1832 239.8 96.3499V95.3999C239.8 95.3332 239.8 95.2499 239.8 95.1499C239.733 90.6832 238.417 86.8166 235.85 83.5499L235.55 83.2499C234.517 82.0166 233.4 81.0332 232.2 80.2999C232.167 80.2666 232.133 80.2499 232.1 80.2499C231.333 79.8166 230.533 79.4666 229.7 79.1999C228.7 78.8999 227.633 78.7499 226.5 78.7499C225.767 78.7499 225.067 78.8166 224.4 78.9499C223.133 79.1832 221.95 79.6166 220.85 80.2499ZM247.1 61.6999C246.733 59.7332 245.933 57.9666 244.7 56.3999C243 54.2332 240.9 53.1499 238.4 53.1499C235.967 53.1499 233.883 54.2332 232.15 56.3999C230.417 58.5332 229.55 61.1166 229.55 64.1499C229.55 66.2499 229.967 68.1499 230.8 69.8499C231.167 70.5832 231.617 71.2832 232.15 71.9499C232.85 72.8499 233.633 73.5332 234.5 73.9999C235.467 74.5999 236.55 74.9832 237.75 75.1499C237.983 75.1499 238.2 75.1499 238.4 75.1499C239.867 75.1499 241.217 74.7666 242.45 73.9999C243.283 73.5332 244.033 72.8499 244.7 71.9499C245.233 71.2832 245.683 70.5832 246.05 69.8499C246.55 68.8166 246.9 67.7166 247.1 66.5499C247.233 65.7832 247.3 64.9832 247.3 64.1499V63.9499C247.3 63.9166 247.3 63.8332 247.3 63.6999V62.9499C247.267 62.5499 247.2 62.1332 247.1 61.6999ZM239.75 59.3999L240.8 58.9499L236.8 69.5499C234.6 64.4499 235.583 61.0666 239.75 59.3999Z" fill="#46B954"/>
<mask id="mask0_18813_7272" style="mask-type:luminance" maskUnits="userSpaceOnUse" x="213" y="53" width="35" height="54">
<path d="M220.85 80.2499C220.817 80.2499 220.8 80.2666 220.8 80.2999C219.433 81.0999 218.2 82.1832 217.1 83.5499C214.533 86.8499 213.25 90.7832 213.25 95.3499C213.25 99.4832 213.733 102.417 214.7 104.15C215.267 105.15 215.8 105.783 216.3 106.05H216.35C216.483 105.883 216.633 105.717 216.8 105.55L216.85 105.5C217.383 105.067 217.967 104.6 218.6 104.1C219.3 103.6 220.6 102.9 222.5 102C222.567 101.967 222.633 101.933 222.7 101.9C222.867 101.8 223.033 101.717 223.2 101.65V101.6H223.3C223.4 101.533 223.5 101.483 223.6 101.45C220.867 94.7499 222.333 90.2166 228 87.8499L229.5 87.2499L224.3 101.2C224.367 101.167 224.5 101.117 224.7 101.05C224.967 100.917 225.233 100.8 225.5 100.7C225.6 100.667 225.667 100.633 225.7 100.6L225.75 100.55L228.164 99.7499H228.3C228.667 99.6499 228.9 99.5832 229 99.5499C230.167 99.8166 231.95 100.267 234.35 100.9C236.483 101.433 237.933 101.883 238.7 102.25C238.767 102.283 238.833 102.317 238.9 102.35C239.467 101.183 239.767 99.1832 239.8 96.3499V95.3999C239.8 95.3332 239.8 95.2499 239.8 95.1499C239.733 90.6832 238.417 86.8166 235.85 83.5499L235.55 83.2499C234.517 82.0166 233.4 81.0332 232.2 80.2999C232.167 80.2666 232.133 80.2499 232.1 80.2499C231.333 79.8166 230.533 79.4666 229.7 79.1999C228.7 78.8999 227.633 78.7499 226.5 78.7499C225.767 78.7499 225.067 78.8166 224.4 78.9499C223.133 79.1832 221.95 79.6166 220.85 80.2499ZM247.1 61.6999C246.733 59.7332 245.933 57.9666 244.7 56.3999C243 54.2332 240.9 53.1499 238.4 53.1499C235.967 53.1499 233.883 54.2332 232.15 56.3999C230.417 58.5332 229.55 61.1166 229.55 64.1499C229.55 66.2499 229.967 68.1499 230.8 69.8499C231.167 70.5832 231.617 71.2832 232.15 71.9499C232.85 72.8499 233.633 73.5332 234.5 73.9999C235.467 74.5999 236.55 74.9832 237.75 75.1499C237.983 75.1499 238.2 75.1499 238.4 75.1499C239.867 75.1499 241.217 74.7666 242.45 73.9999C243.283 73.5332 244.033 72.8499 244.7 71.9499C245.233 71.2832 245.683 70.5832 246.05 69.8499C246.55 68.8166 246.9 67.7166 247.1 66.5499C247.233 65.7832 247.3 64.9832 247.3 64.1499V63.9499C247.3 63.9166 247.3 63.8332 247.3 63.6999V62.9499C247.267 62.5499 247.2 62.1332 247.1 61.6999ZM239.75 59.3999L240.8 58.9499L236.8 69.5499C234.6 64.4499 235.583 61.0666 239.75 59.3999Z" fill="white"/>
</mask>
<g mask="url(#mask0_18813_7272)">
<path d="M230.99 97.6254L225.639 101.564L226.234 99.9402L226.829 98.3162C226.838 98.3217 226.847 98.3168 226.86 98.3173C227.906 98.1435 228.948 97.9644 229.989 97.7905C230.309 97.735 230.63 97.6794 230.951 97.6239C230.964 97.6192 230.973 97.6196 230.991 97.6151C230.986 97.6201 230.99 97.6254 230.99 97.6254Z" fill="black"/>
<path d="M231.274 96.8692C231.261 96.8739 231.252 96.8736 231.243 96.8733C230.264 97.0443 229.28 97.21 228.301 97.3759C227.913 97.4445 227.522 97.5129 227.135 97.5763C227.121 97.581 227.112 97.5807 227.099 97.575L230.359 88.6787L230.363 88.6737C230.67 91.4125 230.972 94.1357 231.274 96.8692Z" fill="black"/>
</g>
<path d="M229.5 87.25L228 87.85C222.333 90.2167 220.866 94.75 223.6 101.45L224.3 101.2L229.5 87.25Z" fill="#FCFCFF"/>
<path d="M242.353 65.9147C242.343 65.9183 242.336 65.918 242.329 65.9178C241.573 66.0499 240.813 66.1779 240.056 66.3061C239.757 66.3591 239.455 66.4119 239.155 66.4609C239.145 66.4645 239.138 66.4643 239.128 66.4599L241.646 59.5871L241.65 59.5832C241.886 61.6991 242.12 63.8029 242.353 65.9147Z" fill="black"/>
<path d="M242.134 66.4988C240.757 67.5118 239.38 68.5288 238 69.5417L238.46 68.2871L238.919 67.0325C238.926 67.0367 238.933 67.033 238.943 67.0333C239.751 66.8991 240.556 66.7607 241.36 66.6263C241.608 66.5834 241.856 66.5405 242.103 66.4977C242.114 66.494 242.12 66.4943 242.134 66.4908C242.131 66.4947 242.134 66.4988 242.134 66.4988Z" fill="black"/>
</g>
<defs>
<clipPath id="clip0_18813_7272">
<rect width="440" height="260" fill="white"/>
</clipPath>
</defs>
</svg>
