<svg width="440" height="260" viewBox="0 0 440 260" fill="none" xmlns="http://www.w3.org/2000/svg">
<path d="M66.6501 23.85C66.6501 22.2166 66.0834 20.8333 64.95 19.7C63.7834 18.5333 62.4 17.95 60.8 17.95C59.1667 17.95 57.7667 18.5333 56.6 19.7C55.5334 20.7666 54.9667 22.0499 54.9001 23.5499C54.8667 23.5166 54.8334 23.4833 54.8 23.45C54.1 22.75 53.25 22.4 52.25 22.4C51.2167 22.4 50.3501 22.75 49.6501 23.45C49.2501 23.8833 48.9667 24.3666 48.8 24.9C47.7667 24.2333 46.6 23.9 45.3 23.9C43.5667 23.9 42.0834 24.5 40.85 25.7C39.85 26.7333 39.2667 27.9166 39.1 29.25H39.05C38.0167 29.25 37.1501 29.6166 36.4501 30.35C35.7167 31.0833 35.35 31.95 35.35 32.95C35.35 33.2833 35.3834 33.5833 35.4501 33.8499C35.1167 33.9166 34.8167 34.0333 34.55 34.2C34.15 34.4666 33.9501 34.8 33.9501 35.2C33.9501 35.4333 34.0167 35.6333 34.1501 35.7999V35.8499C33.9501 35.8499 33.7667 35.9 33.6 36C33.4 36.1333 33.3 36.2833 33.3 36.45C33.3 36.6166 33.4 36.7499 33.6 36.8499C33.7667 36.9499 33.9501 37.0166 34.1501 37.0499H78.1C78.3334 37.0166 78.55 36.9333 78.75 36.7999C78.9834 36.5999 79.1 36.3666 79.1 36.0999C79.1 35.8333 78.9834 35.6 78.75 35.4C78.6501 35.3333 78.55 35.2999 78.45 35.2999C78.7834 34.8333 78.95 34.3333 78.95 33.7999C78.95 32.9999 78.5667 32.3 77.8001 31.7C77.0667 31.1333 76.1501 30.85 75.0501 30.85C74.1501 30.85 73.3667 31.05 72.7 31.45C72.8667 30.9833 72.95 30.4833 72.95 29.95C72.95 28.75 72.5334 27.7333 71.7 26.9C70.8667 26.0666 69.8501 25.65 68.6501 25.65C67.6834 25.65 66.8334 25.9333 66.1 26.5C66.4667 25.6666 66.6501 24.7833 66.6501 23.85ZM409.4 79.05H409.35C409.217 77.95 408.733 76.9833 407.9 76.15C406.9 75.15 405.683 74.65 404.25 74.65C403.183 74.65 402.233 74.9166 401.4 75.4499C401.267 75.0499 401.033 74.6666 400.7 74.3C400.1 73.7333 399.383 73.4499 398.55 73.4499C397.717 73.4499 397 73.7333 396.4 74.3C396.4 74.3333 396.383 74.3666 396.35 74.4C396.283 73.1333 395.817 72.0666 394.95 71.1999C393.983 70.2333 392.833 69.75 391.5 69.75C390.167 69.75 389.017 70.2333 388.05 71.1999C387.117 72.1333 386.65 73.2666 386.65 74.5999C386.65 75.3999 386.817 76.1333 387.15 76.8C386.55 76.3333 385.85 76.0999 385.05 76.0999C384.05 76.0999 383.217 76.4333 382.55 77.0999C381.85 77.7999 381.5 78.6333 381.5 79.5999C381.5 80.0666 381.567 80.5 381.7 80.9C381.133 80.5666 380.483 80.4 379.75 80.4C378.85 80.4 378.1 80.6166 377.5 81.05C376.867 81.55 376.55 82.1333 376.55 82.8C376.55 83.2333 376.683 83.65 376.95 84.05C376.883 84.05 376.817 84.0833 376.75 84.1499C376.517 84.2833 376.4 84.4666 376.4 84.7C376.4 84.9333 376.517 85.1166 376.75 85.25C376.883 85.35 377.05 85.4333 377.25 85.5H413.4C413.567 85.4666 413.717 85.4 413.85 85.3C414.017 85.2 414.1 85.1 414.1 85C414.1 84.8666 414.017 84.7333 413.85 84.5999C413.717 84.5333 413.567 84.5 413.4 84.5V84.45C413.533 84.3166 413.6 84.1499 413.6 83.95C413.6 83.6166 413.433 83.3499 413.1 83.1499C412.867 83.0166 412.617 82.9166 412.35 82.8499C412.417 82.6166 412.45 82.3666 412.45 82.0999C412.45 81.2666 412.15 80.5499 411.55 79.9499C410.95 79.3499 410.233 79.05 409.4 79.05Z" fill="white"/>
<path d="M283.9 239.85C283.9 239.55 283.817 239.4 283.65 239.4L283.4 239.55C283.267 239.817 283.133 240.183 283 240.65C282.733 241.883 282.517 243.317 282.35 244.95C282.283 245.483 282.233 246.017 282.2 246.55C281.933 245.417 281.65 244.417 281.35 243.55C280.683 241.517 279.817 239.317 278.75 236.95C278.683 236.683 278.55 236.567 278.35 236.6C278.317 236.6 278.283 236.7 278.25 236.9C278.15 237.2 278.2 237.767 278.4 238.6C279.433 241.933 280.233 245 280.8 247.8C280.667 248.7 280.633 249.633 280.7 250.6C280.533 249.833 280.4 249.15 280.3 248.55C279.967 246.817 279.583 245.25 279.15 243.85C279.117 243.583 279.083 243.3 279.05 243L278.75 240.65C278.717 240.517 278.683 240.45 278.65 240.45C278.617 240.383 278.517 240.4 278.35 240.5C278.183 240.633 278.067 240.9 278 241.3L277.7 240.65C277.6 240.45 277.483 240.383 277.35 240.45L277.25 240.65C277.183 241.017 277.267 241.6 277.5 242.4C277.6 242.767 277.7 243.15 277.8 243.55L276.9 254L276.8 254.05L276.9 238.3C276.9 238.133 276.85 238.033 276.75 238C276.65 237.967 276.55 237.967 276.45 238C276.25 238.067 276.117 238.4 276.05 239C275.917 239.633 275.8 240.467 275.7 241.5C275.6 241.5 275.517 241.55 275.45 241.65C275.217 241.917 275.067 242.433 275 243.2C274.667 246.7 274.467 250.2 274.4 253.7C274.267 252.767 274.15 251.483 274.05 249.85C273.95 248.183 273.85 247 273.75 246.3C273.917 244.233 274.233 242.233 274.7 240.3V240C274.567 239.867 274.417 239.85 274.25 239.95C274.05 240.083 273.917 240.317 273.85 240.65C273.017 242.883 272.5 245.017 272.3 247.05C272.167 246.55 272.067 246.1 272 245.7C272 245.467 271.933 245.333 271.8 245.3C271.667 245.233 271.517 245.3 271.35 245.5C271.217 245.633 271.15 245.95 271.15 246.45L271.55 248.85L271.05 247.7C270.95 247.533 270.867 247.433 270.8 247.4C270.733 247.367 270.683 247.367 270.65 247.4C270.483 245.967 270.283 244.783 270.05 243.85C269.417 240.783 268.65 238.1 267.75 235.8C267.617 235.467 267.45 235.367 267.25 235.5C267.183 236.033 267.367 237.067 267.8 238.6C268.133 240.167 268.433 242.183 268.7 244.65V244.75L268.4 245.45C268.2 246.217 268.017 246.933 267.85 247.6L268.1 244.15C268.167 244.083 268.167 244 268.1 243.9C268.033 243.8 267.967 243.75 267.9 243.75C267.833 243.817 267.717 243.967 267.55 244.2L267.8 240.85C267.4 240.983 267.117 241.45 266.95 242.25L265.7 249.45C265.167 251.917 264.933 253.883 265 255.35C265 256.15 265.15 256.767 265.45 257.2H262.65C262.783 256.9 262.883 256.533 262.95 256.1C263.617 253.467 264.033 251.283 264.2 249.55L265.05 246.4C265.817 243.633 266.217 241.433 266.25 239.8C266.25 239.567 266.2 239.417 266.1 239.35C265.933 239.283 265.8 239.367 265.7 239.6C265.5 239.8 265.35 240.15 265.25 240.65L263.9 244.75C263.867 244.183 263.817 243.6 263.75 243C263.75 242.8 263.683 242.7 263.55 242.7C263.517 242.7 263.45 242.733 263.35 242.8C263.183 243.2 263.05 243.633 262.95 244.1V246.2C262.95 247.533 262.7 249.25 262.2 251.35C261.467 254.383 261.083 256.067 261.05 256.4C261.017 256.767 261 257.033 261 257.2H260.35C260.983 254.933 261.45 253.167 261.75 251.9C262.217 249.633 262.467 247.567 262.5 245.7C262.533 244.233 262.467 242.5 262.3 240.5C262.3 240.3 262.267 240.167 262.2 240.1C262.067 240 261.933 240.033 261.8 240.2L261.7 240.65L261.4 245.2C261.333 245.7 261.267 246.267 261.2 246.9C261.167 246.833 261.15 246.783 261.15 246.75L260.75 242.7L260.7 242.6C260.667 242.5 260.583 242.45 260.45 242.45C260.35 242.45 260.283 242.5 260.25 242.6C260.15 242.667 260.1 242.817 260.1 243.05V244.85C260.2 247.317 260.15 249.183 259.95 250.45C259.817 251.283 259.583 252.3 259.25 253.5C259.117 254 258.933 254.683 258.7 255.55C258.7 255.45 258.7 255.367 258.7 255.3L258.6 247.45C258.333 243.517 257.367 239.833 255.7 236.4C255.667 236.233 255.567 236.15 255.4 236.15L255.25 236.4C255.15 236.8 255.2 237.433 255.4 238.3C256.267 241.167 256.733 243.933 256.8 246.6C256.833 247.3 256.8 248.917 256.7 251.45C256.667 253.517 256.717 255.183 256.85 256.45C256.883 256.717 256.95 256.967 257.05 257.2H256.65C256.75 255.867 256.683 253.983 256.45 251.55C256.417 251.183 256.383 250.833 256.35 250.5C256.417 248.033 256.35 245.833 256.15 243.9C255.917 242.233 255.433 239.783 254.7 236.55C253.933 232.85 253.167 230.133 252.4 228.4C252.233 228.067 252.017 227.917 251.75 227.95C251.55 228.017 251.467 228.283 251.5 228.75C251.9 230.983 252.5 234.35 253.3 238.85C253.6 240.783 253.833 242.617 254 244.35C253.733 243.217 253.383 241.817 252.95 240.15L252.35 237.95L252.2 237.65C252 237.517 251.867 237.567 251.8 237.8C251.7 237.967 251.683 238.133 251.75 238.3C251.817 239.033 252.017 240.067 252.35 241.4C252.617 242.8 252.783 243.833 252.85 244.5L253.05 246.7C253.117 248.6 253.167 250.683 253.2 252.95C253.033 251.35 252.717 249.983 252.25 248.85C251.95 248.05 251.433 247.067 250.7 245.9L249.95 244.75L248.8 243.4C248.467 243.033 248.2 242.817 248 242.75C247.833 242.683 247.683 242.7 247.55 242.8C247.517 242.833 247.517 242.917 247.55 243.05C247.617 243.15 247.867 243.533 248.3 244.2C248.667 244.667 249.1 245.45 249.6 246.55C250.5 248.217 251.05 249.55 251.25 250.55L251.45 251.85L251.5 253.9C251.6 255.533 251.667 256.45 251.7 256.65C251.733 256.783 251.783 256.917 251.85 257.05C251.817 257.083 251.783 257.117 251.75 257.15V257.2H251.05V255.85C251.05 255.45 251.017 255.15 250.95 254.95C250.983 254.55 251 254.183 251 253.85C251 251.617 250.517 249.383 249.55 247.15C249.083 245.983 248.417 244.617 247.55 243.05C247.483 242.917 247.417 242.783 247.35 242.65C247.117 242.283 246.917 242.067 246.75 242C246.683 241.967 246.583 241.967 246.45 242C246.383 242.1 246.35 242.233 246.35 242.4C246.35 242.833 246.533 243.483 246.9 244.35C247.833 246.417 248.467 248.133 248.8 249.5C249.267 251.3 249.4 253.033 249.2 254.7C249.067 254.8 248.983 254.9 248.95 255C248.85 255.2 248.75 255.483 248.65 255.85C248.317 255.85 248.117 255.867 248.05 255.9L247.7 256.05C247.567 256.083 247.333 256.083 247 256.05C246.667 256.017 246.433 256.033 246.3 256.1C246.133 256.167 246.033 256.233 246 256.3C245.8 256.267 245.6 256.233 245.4 256.2C245.1 256.133 244.717 256.167 244.25 256.3C243.55 256.433 243.15 256.5 243.05 256.5C242.583 256.567 242.3 256.633 242.2 256.7C241.933 256.867 241.8 257.033 241.8 257.2H241.55V259.55H296.7V257.2H294.2C294.2 257.067 294.2 256.883 294.2 256.65L293.85 253.25C293.783 252.25 293.717 251.333 293.65 250.5C293.65 250.333 293.667 250.15 293.7 249.95C294.133 247.583 294.4 245.767 294.5 244.5C294.567 244.2 294.5 243.983 294.3 243.85C294.167 243.783 294 243.833 293.8 244L293.15 246.75C292.917 245.583 292.733 244.583 292.6 243.75C292.6 243.55 292.483 243.417 292.25 243.35C292.017 243.317 291.883 243.467 291.85 243.8C291.75 244.433 291.767 245.267 291.9 246.3C292 247.267 292.083 248.833 292.15 251C291.95 251.933 291.783 252.733 291.65 253.4C291.383 251.933 291.15 250.783 290.95 249.95C290.817 249.117 290.633 248.367 290.4 247.7L290.35 241.4C289.95 241.8 289.717 242.5 289.65 243.5L289.5 245.7L289.4 245.55C289.2 245.483 289.083 245.45 289.05 245.45C289.017 245.483 289 245.567 289 245.7C289 246.067 289.05 246.533 289.15 247.1C289.183 247.233 289.233 247.417 289.3 247.65L289 251.3C288.933 252.267 288.917 253.15 288.95 253.95C288.983 255.117 289.133 256.133 289.4 257C289.433 257.067 289.467 257.133 289.5 257.2H288.5C288.533 257.1 288.55 256.933 288.55 256.7C288.617 255.733 288.667 254.817 288.7 253.95C288.767 250.05 288.533 246.75 288 244.05V243.75C288 243.617 287.983 243.533 287.95 243.5C287.883 243.433 287.767 243.45 287.6 243.55C287.367 243.683 287.25 244 287.25 244.5L287.15 245.85C286.983 248.817 286.867 251.083 286.8 252.65C286.4 251.517 286.117 250.333 285.95 249.1C286.283 247.6 286.533 246.467 286.7 245.7C287.067 244.033 287.233 242.65 287.2 241.55C287.033 241.75 286.833 242.117 286.6 242.65C286.233 243.483 285.9 244.333 285.6 245.2C285.567 243.133 285.683 240.85 285.95 238.35C286.017 237.85 286.067 237.55 286.1 237.45C286.267 237.183 286.3 237.017 286.2 236.95C286.1 236.883 285.967 236.9 285.8 237C285.433 237.233 285.217 237.667 285.15 238.3C284.45 242 284.233 245.433 284.5 248.6C284.3 249.267 284.167 249.9 284.1 250.5C283.933 251.4 283.85 252.25 283.85 253.05C283.85 253.117 283.85 253.183 283.85 253.25C283.75 252.217 283.7 250.25 283.7 247.35L283.9 239.85ZM273.6 257.1C273.6 257.134 273.6 257.168 273.6 257.2H273.55C273.582 257.168 273.599 257.134 273.6 257.1ZM279.85 257.05C279.917 257.117 279.967 257.167 280 257.2H279.35C279.35 257.133 279.35 257.083 279.35 257.05C279.383 256.75 279.417 256.4 279.45 256C279.583 256.4 279.717 256.75 279.85 257.05ZM267.9 257.2C267.867 257.133 267.85 257.083 267.85 257.05C267.817 254.717 268.167 251.617 268.9 247.75L269 246.8L269.7 251.6V253.8L269.3 256.3L269.2 256.6C269.1 256.733 269.05 256.933 269.05 257.2H267.9ZM285.5 253.75C285.533 253.817 285.567 253.883 285.6 253.95C285.767 254.317 285.917 254.717 286.05 255.15C286.383 255.983 286.717 256.667 287.05 257.2H285.9C285.867 256.867 285.817 256.483 285.75 256.05C285.617 255.35 285.533 254.65 285.5 253.95C285.5 253.883 285.5 253.817 285.5 253.75ZM284.3 257.2C284.3 257.133 284.317 257.083 284.35 257.05C284.35 257.083 284.367 257.133 284.4 257.2H284.3ZM290.35 257.2L290.4 257.15C290.4 257.182 290.417 257.199 290.45 257.2H290.35ZM149.35 242.6V242.65H149.9C149.667 242.517 149.483 242.5 149.35 242.6ZM144.4 241.9L145.15 242.65H146.25C145.683 242.217 145.167 241.883 144.7 241.65C144.567 241.583 144.467 241.567 144.4 241.6C144.267 241.633 144.267 241.733 144.4 241.9ZM153.7 232.85H153.25C153.383 233.45 154.033 235.867 155.2 240.1C156 243.1 156.417 245.617 156.45 247.65C156.45 247.95 156.45 248.3 156.45 248.7C156.317 247.267 156.033 245.783 155.6 244.25C154.9 241.417 153.617 238.133 151.75 234.4C151.65 234.867 151.733 235.567 152 236.5C153.567 241.3 154.467 244.933 154.7 247.4C154.733 247.833 154.767 248.267 154.8 248.7C154.9 250.133 154.867 251.533 154.7 252.9C154.7 252.967 154.7 253.033 154.7 253.1C154.533 251.5 154.2 250.033 153.7 248.7C153.367 247.9 152.983 247.15 152.55 246.45C152.217 245.95 151.833 245.467 151.4 245C150.733 244.3 149.983 243.617 149.15 242.95C148.917 242.783 148.733 242.683 148.6 242.65H149.25C148.517 241.817 147.667 240.917 146.7 239.95C146.167 239.45 145.767 239.167 145.5 239.1C145.7 239.533 146.033 240.017 146.5 240.55C147.1 241.283 147.65 241.983 148.15 242.65H148C148.033 242.717 148.1 242.833 148.2 243C148.1 242.867 148 242.75 147.9 242.65H146.8C148 244.15 148.85 245.483 149.35 246.65C149.65 247.317 149.917 248 150.15 248.7C150.517 250 150.767 251.383 150.9 252.85C150.6 251.25 150.2 249.867 149.7 248.7C149.467 248.1 149.167 247.583 148.8 247.15L147.7 245.55C146.733 244.317 145.783 243.35 144.85 242.65H143.75L144.15 243C144.85 243.667 145.633 244.6 146.5 245.8C147.233 246.933 147.733 247.8 148 248.4C148.033 248.467 148.083 248.567 148.15 248.7C148.883 250.2 149.417 252.3 149.75 255C149.85 255.867 150.017 256.6 150.25 257.2H147.6V259.55H198.15L190.25 257.2H189.4C189.4 257.1 189.433 257.017 189.5 256.95L189.65 255.55C189.817 251.75 189.65 248.05 189.15 244.45C189.15 244.25 189.067 244.117 188.9 244.05C188.6 244.15 188.45 244.45 188.45 244.95C188.383 244.983 188.317 245.067 188.25 245.2C188.15 245.4 188.1 245.7 188.1 246.1L187.85 250.5C187.817 251 187.783 251.65 187.75 252.45L187.65 252.35C187.217 250.95 186.917 249.867 186.75 249.1V249.05C186.917 247.85 187.167 246.417 187.5 244.75L188.2 241.6C187.967 241.633 187.817 241.817 187.75 242.15C187.25 243.417 186.833 244.55 186.5 245.55L186.3 246.35C185.967 243.417 186.15 240.183 186.85 236.65C186.417 236.883 186.083 237.417 185.85 238.25C185.55 239.483 185.35 240.95 185.25 242.65L185.05 244.4C185.017 245.933 185.2 247.567 185.6 249.3C185.1 251.9 185.017 254.533 185.35 257.2H184.75V257.15C184.417 253.983 184.217 251.117 184.15 248.55C184.05 247.283 184.017 246.067 184.05 244.9C184.383 242.233 184.65 240.467 184.85 239.6C184.883 239.533 184.883 239.483 184.85 239.45C184.85 239.283 184.817 239.183 184.75 239.15C184.717 239.05 184.6 239.05 184.4 239.15C184.367 239.183 184.317 239.3 184.25 239.5L183.85 240.8C183.383 242.467 183.017 244.05 182.75 245.55C182.483 244.85 182.167 244.1 181.8 243.3C180.633 240.5 179.883 238.467 179.55 237.2C179.55 237.1 179.5 237.033 179.4 237V236.95C179.4 236.817 179.35 236.717 179.25 236.65C179.183 236.65 179.117 236.733 179.05 236.9C178.983 237.033 178.983 237.25 179.05 237.55C179.15 238.617 179.383 239.883 179.75 241.35C180.017 242.25 180.4 243.517 180.9 245.15C181.567 247.417 182.05 249.967 182.35 252.8L180.3 246.05C180 245.183 179.683 244.233 179.35 243.2C178.85 241.867 178.483 240.767 178.25 239.9C178.117 239.933 178 240.05 177.9 240.25L177.95 240.85C178.183 241.783 178.5 243.033 178.9 244.6C178.233 242.533 177.783 240.85 177.55 239.55C177.55 239.35 177.5 239.25 177.4 239.25C177.233 239.15 177.117 239.267 177.05 239.6L177.1 240.65C177.3 241.75 177.633 243.117 178.1 244.75C178.367 245.583 178.767 246.9 179.3 248.7C179.9 250.9 180.4 253.717 180.8 257.15V257.2H179.2C179.2 256.967 179.183 256.667 179.15 256.3L179.1 255.3C179.2 251.767 178.683 248.25 177.55 244.75C176.917 242.817 176.583 241.7 176.55 241.4C176.517 241.233 176.467 241.117 176.4 241.05C176.3 240.95 176.183 240.933 176.05 241L176 241.3C175.967 241.867 176.017 242.55 176.15 243.35C176.283 243.783 176.45 244.433 176.65 245.3C177.05 246.967 177.35 248.967 177.55 251.3C177.35 249.8 177.017 248.3 176.55 246.8L176.1 245.75C175.833 244.95 175.683 244.5 175.65 244.4L175.6 243.8C175.433 243.867 175.35 244 175.35 244.2V244.75L176.15 248.8C176.417 250.1 176.567 251.4 176.6 252.7C176.4 251.267 176.233 250.4 176.1 250.1L175.8 248.85C175.133 246.817 174.733 245.517 174.6 244.95C174.6 244.85 174.583 244.783 174.55 244.75H174.5C175.067 241.017 175.533 238.2 175.9 236.3C175.9 236.1 175.833 236 175.7 236C175.467 236.2 175.233 236.633 175 237.3C174.3 239.533 173.6 242.883 172.9 247.35C172.833 247.35 172.767 247.333 172.7 247.3L172 249.1C171.9 249.4 171.817 249.667 171.75 249.9V249.35C171.75 249.183 171.717 249.05 171.65 248.95C171.617 248.883 171.583 248.85 171.55 248.85C171.683 247.583 171.85 246.333 172.05 245.1V244.85C171.983 244.717 171.883 244.717 171.75 244.85C171.717 244.883 171.65 245 171.55 245.2C171.25 246.1 171.033 246.967 170.9 247.8C170.833 247.7 170.8 247.567 170.8 247.4C170.667 245.267 170.133 242.783 169.2 239.95C168.967 240.317 168.917 240.85 169.05 241.55C169.583 244.45 169.8 247.233 169.7 249.9C169.7 250.233 169.617 251.433 169.45 253.5C169.417 254.067 169.4 254.567 169.4 255L169.15 254.8C169.117 254.733 169.083 254.683 169.05 254.65C168.983 254.45 168.95 254.25 168.95 254.05L168.7 248.95C168.433 245.983 168.15 243.35 167.85 241.05C167.85 240.917 167.817 240.867 167.75 240.9C167.617 240.967 167.533 241.1 167.5 241.3L167.35 237.8C167.317 237.6 167.25 237.483 167.15 237.45C167.017 237.583 166.9 237.883 166.8 238.35C166.767 239.35 166.767 240.833 166.8 242.8C166.8 243.833 166.767 244.8 166.7 245.7C166.633 246.6 166.583 247.383 166.55 248.05C166.45 247.35 166.367 246.633 166.3 245.9C166.233 244.7 166 242.883 165.6 240.45C165.2 240.683 165.05 241.183 165.15 241.95L165.25 245.95C165.217 245.883 165.183 245.833 165.15 245.8V245.75C165.083 245.717 165.033 245.683 165 245.65C164.967 245.283 164.883 244.8 164.75 244.2C164.683 243.667 164.517 243.3 164.25 243.1C164.25 243.133 164.2 243.15 164.1 243.15C164.067 243.317 164.05 243.717 164.05 244.35L164.1 245.85C164.1 245.917 164.1 245.983 164.1 246.05C163.933 246.683 163.717 247.267 163.45 247.8C163.517 247.1 163.6 246.4 163.7 245.7C163.733 244.7 163.733 243.967 163.7 243.5C163.3 242.167 163.1 241.15 163.1 240.45C162.833 240.683 162.717 241.05 162.75 241.55C162.95 242.983 163.05 243.8 163.05 244C163.05 244.233 163.05 244.483 163.05 244.75C162.917 244.25 162.783 243.833 162.65 243.5C162.517 243.233 162.367 243.133 162.2 243.2L162.15 243.45C162.117 243.65 162.117 243.9 162.15 244.2C162.217 244.567 162.25 245 162.25 245.5C162.217 245.233 162.183 244.95 162.15 244.65L161.9 243.6C161.733 243.167 161.633 242.9 161.6 242.8C161.367 243.133 161.25 243.683 161.25 244.45C161.25 247.45 160.9 250 160.2 252.1C160.133 252.333 160.05 252.567 159.95 252.8C159.917 251.733 159.8 250.733 159.6 249.8L159.15 248.05C159.117 247.55 159.083 247.067 159.05 246.6C158.817 245.033 158.383 243.35 157.75 241.55C157.583 240.95 157.333 240.183 157 239.25C156.7 238.483 156.35 237.6 155.95 236.6C155.783 237.233 155.883 238.117 156.25 239.25C156.483 240.317 156.733 241.317 157 242.25C157.029 242.309 157.046 242.342 157.05 242.35C157.046 242.346 157.029 242.329 157 242.3C156.633 241.133 156.167 239.783 155.6 238.25C154.7 235.783 154.067 233.983 153.7 232.85ZM148.4 243.2C148.533 243.333 148.65 243.467 148.75 243.6C149.817 244.533 150.7 245.6 151.4 246.8C151.733 247.4 152.033 248.033 152.3 248.7C152.733 249.767 153.033 250.9 153.2 252.1C153.3 252.6 153.383 253.333 153.45 254.3C153.45 254.567 153.483 254.817 153.55 255.05C153.517 255.483 153.55 256.117 153.65 256.95C153.65 257.017 153.65 257.1 153.65 257.2H152.2C152.367 256.367 152.433 255.35 152.4 254.15C152.3 252.117 151.983 250.3 151.45 248.7C151.417 248.6 151.4 248.5 151.4 248.4C151.067 247.333 150.633 246.383 150.1 245.55C149.7 244.883 149.133 244.1 148.4 243.2ZM161.45 255.65L161.55 255.6L161.65 255.15C161.683 255.017 161.733 254.867 161.8 254.7C161.8 254.767 161.8 254.833 161.8 254.9L161.9 255.4C161.933 255.733 161.833 256.3 161.6 257.1C161.6 257.133 161.6 257.167 161.6 257.2H161.15L161.25 256.85L161.35 256.2L161.4 256.1L161.45 255.65ZM175.45 256.05C175.45 256.383 175.5 256.633 175.6 256.8C175.667 257 175.8 257.117 176 257.15V257.2H173.95C173.983 257.1 174 256.9 174 256.6C174 254.8 174 252.967 174 251.1L174.25 247.05L174.9 250.9C175.233 252.633 175.417 254.35 175.45 256.05ZM164.6 251.55C164.7 251.183 164.8 250.75 164.9 250.25C164.867 250.717 164.85 251.3 164.85 252V256.05C164.85 256.217 164.883 256.383 164.95 256.55C164.95 256.85 164.967 257.067 165 257.2H162.45L162.75 256.05C162.983 255.817 163.25 255.467 163.55 255L163.95 254.1L164.6 251.55ZM153.2 231.1C153.2 231.133 153.217 231.167 153.25 231.2H153.7C153.567 230.833 153.483 230.533 153.45 230.3C153.217 230.4 153.133 230.667 153.2 231.1Z" fill="#00892C"/>
<path d="M231.86 80.2197V74.2H209.402V80.2197H231.86Z" fill="#313335"/>
<path d="M232.786 75.3576V74.2H208.476V75.3576H232.786Z" fill="#525557"/>
<path d="M259.643 116.107C259.18 112.093 257.56 108.698 254.781 105.919C251.849 103.295 248.53 101.983 244.826 101.983H196.668C193.272 101.983 190.262 103.064 187.638 105.225C185.014 107.231 183.239 109.855 182.313 113.097C181.85 114.795 181.619 116.492 181.619 118.19V243.447C181.619 247.614 183.008 251.319 185.786 254.56L186.944 255.718C188.796 257.261 190.957 258.419 193.427 259.191H194.121L196.436 259.422H245.752L248.762 258.959L249.225 258.728H249.688L253.161 256.644L255.708 254.329L257.097 252.476C258.177 250.779 259.026 248.386 259.643 245.299V116.107Z" fill="#B36940"/>
<path d="M259.643 116.106H253.161V256.644C256.711 254.02 258.872 250.238 259.643 245.299V116.106Z" fill="#C58257"/>
<path d="M217.042 158.708C211.486 164.727 211.177 172.213 216.116 181.166L226.998 152.225C223.294 153.46 219.975 155.621 217.042 158.708Z" fill="#CE9D83"/>
<path d="M227.693 173.988C232.477 169.203 232.014 164.11 226.303 158.708L218.895 179.545C222.445 178.31 225.377 176.458 227.693 173.988Z" fill="#CE9D83"/>
<path d="M181.387 113.791H259.875V113.328C259.875 103.45 256.016 94.9604 248.298 87.8602C240.735 80.7601 231.551 77.21 220.747 77.21C209.942 77.21 200.681 80.7601 192.963 87.8602C185.246 94.8061 181.387 103.295 181.387 113.328V113.791Z" fill="#E2DBD6"/>
<path d="M192.963 87.8602C185.246 94.8061 181.387 103.295 181.387 113.328V113.791H202.456V111.013C202.765 106.846 203.691 102.524 205.234 98.0475C208.321 88.7863 213.029 82.9982 219.358 80.6829C224.451 78.8307 230.239 78.7535 236.722 80.4513C231.474 78.2904 226.149 77.21 220.747 77.21C209.942 77.21 200.681 80.7601 192.963 87.8602Z" fill="#B6A7A4"/>
<path d="M257.726 108.733C255.874 99.1635 250.857 91.6774 242.676 86.2751C238.663 83.4968 234.805 81.7217 231.1 80.95C238.972 83.7283 245.069 89.2078 249.391 97.3884C251.552 101.402 252.941 105.183 253.558 108.733H257.726Z" fill="#A2A4A6"/>
<path d="M202.688 113.097H181.619V243.447C181.619 247.923 183.085 251.705 186.018 254.792C188.95 257.879 192.5 259.422 196.668 259.422H202.688V113.097Z" fill="#885031"/>
<path d="M261.959 116.107V110.087H179.303V116.107H261.959Z" fill="#373738"/>
<path d="M261.959 116.107V114.949H179.303V116.107H261.959Z" fill="#999B9E"/>
<path d="M261.959 111.476V110.781H179.303V111.476H261.959Z" fill="#A2A4A6"/>
<path d="M177.219 123.052C177.219 124.133 177.76 124.673 178.84 124.673H262.885C264.274 124.673 264.968 124.133 264.968 123.052C264.968 121.663 264.428 120.969 263.348 120.969H178.84C177.451 120.969 176.911 121.663 177.219 123.052Z" fill="#373738"/>
<path d="M177.914 212.654C177.914 213.271 178.223 213.58 178.84 213.58H262.885C263.656 213.58 264.042 213.271 264.042 212.654C264.042 212.036 263.734 211.728 263.116 211.728H178.84C178.223 211.728 177.914 212.036 177.914 212.654Z" fill="#373738"/>
<path d="M177.914 228.629C177.914 229.246 178.223 229.555 178.84 229.555H262.885C263.656 229.555 264.042 229.246 264.042 228.629C264.042 228.012 263.734 227.703 263.116 227.703H178.84C178.223 227.703 177.914 228.012 177.914 228.629Z" fill="#373738"/>
<path d="M261.033 256.412C261.033 257.647 261.65 258.264 262.885 258.264C264.12 258.264 264.737 257.647 264.737 256.412V104.299C264.737 103.064 264.12 102.446 262.885 102.446C261.65 102.446 261.033 103.064 261.033 104.299V256.412Z" fill="#462718"/>
<path d="M176.525 256.412C176.525 257.647 177.142 258.264 178.377 258.264C179.612 258.264 180.229 257.647 180.229 256.412V104.299C180.229 103.064 179.612 102.446 178.377 102.446C177.142 102.446 176.525 103.064 176.525 104.299V256.412Z" fill="#462718"/>
<path d="M200.141 104.299V111.476H187.407V104.299C187.407 103.681 187.021 103.373 186.249 103.373C185.477 103.373 185.092 103.681 185.092 104.299V239.974L187.407 236.964V235.806H188.333L189.491 234.186H187.407V227.703H194.584L195.973 226.314H187.407V220.526H200.141V221.452L202.456 218.673V104.299C202.456 103.681 202.07 103.373 201.298 103.373C200.527 103.373 200.141 103.681 200.141 104.299ZM187.407 126.988V120.506H200.141V126.988H187.407ZM187.407 128.609H200.141V134.397H187.407V128.609ZM200.141 113.097V118.885H187.407V113.097H200.141ZM200.141 135.786V142.269H187.407V135.786H200.141ZM187.407 157.55V151.299H200.141V157.55H187.407ZM200.141 143.89V149.678H187.407V143.89H200.141ZM187.407 159.171H200.141V164.959H187.407V159.171ZM200.141 166.58V172.831H187.407V166.58H200.141ZM187.407 188.112V181.86H200.141V188.112H187.407ZM200.141 174.452V180.24H187.407V174.452H200.141ZM200.141 189.732V195.521H187.407V189.732H200.141ZM187.407 210.801V205.013H200.141V210.801H187.407ZM187.407 212.422H200.141V218.905H187.407V212.422ZM200.141 197.141V203.624H187.407V197.141H200.141Z" fill="#999B9E"/>
<path d="M186.018 112.402C186.018 112.865 186.249 113.097 186.712 113.097H201.067C201.684 113.097 201.993 112.865 201.993 112.402C201.993 111.939 201.684 111.708 201.067 111.708H186.712C186.249 111.708 186.018 111.939 186.018 112.402Z" fill="#373738"/>
<path d="M186.018 119.811C186.018 120.274 186.249 120.505 186.712 120.505H201.067C201.684 120.505 201.993 120.274 201.993 119.811C201.993 119.193 201.684 118.885 201.067 118.885H186.712C186.249 118.885 186.018 119.193 186.018 119.811Z" fill="#373738"/>
<path d="M186.018 127.683C186.018 128.146 186.249 128.455 186.712 128.609H201.067C201.53 128.455 201.761 128.146 201.761 127.683C201.761 127.22 201.53 126.988 201.067 126.988H186.712C186.249 126.988 186.018 127.22 186.018 127.683Z" fill="#373738"/>
<path d="M186.018 135.092C186.018 135.555 186.249 135.786 186.712 135.786H201.067C201.684 135.786 201.993 135.555 201.993 135.092C201.993 134.629 201.684 134.397 201.067 134.397H186.712C186.249 134.397 186.018 134.629 186.018 135.092Z" fill="#373738"/>
<path d="M186.018 142.964C186.018 143.581 186.249 143.89 186.712 143.89H201.067C201.53 143.89 201.761 143.581 201.761 142.964C201.761 142.501 201.53 142.269 201.067 142.269H186.712C186.249 142.269 186.018 142.501 186.018 142.964Z" fill="#373738"/>
<path d="M186.018 150.373C186.018 150.836 186.249 151.067 186.712 151.067H201.067C201.684 151.067 201.993 150.836 201.993 150.373C201.993 149.91 201.684 149.678 201.067 149.678H186.712C186.249 149.678 186.018 149.91 186.018 150.373Z" fill="#373738"/>
<path d="M186.018 158.476C186.018 158.939 186.249 159.171 186.712 159.171H201.067C201.53 159.171 201.761 158.862 201.761 158.245C201.761 157.782 201.53 157.55 201.067 157.55H186.712C186.249 157.55 186.018 157.859 186.018 158.476Z" fill="#373738"/>
<path d="M186.018 165.654C186.018 166.271 186.249 166.58 186.712 166.58H201.067C201.53 166.58 201.761 166.271 201.761 165.654C201.761 165.191 201.53 164.959 201.067 164.959H186.712C186.249 164.959 186.018 165.191 186.018 165.654Z" fill="#373738"/>
<path d="M186.018 173.757C186.018 174.22 186.249 174.452 186.712 174.452H201.067C201.684 174.452 201.993 174.22 201.993 173.757C201.993 173.14 201.684 172.831 201.067 172.831H186.712C186.249 172.831 186.018 173.14 186.018 173.757Z" fill="#373738"/>
<path d="M186.018 180.934C186.018 181.552 186.249 181.86 186.712 181.86H201.067C201.53 181.86 201.761 181.552 201.761 180.934C201.761 180.471 201.53 180.24 201.067 180.24H186.712C186.249 180.24 186.018 180.471 186.018 180.934Z" fill="#373738"/>
<path d="M186.018 189.038C186.018 189.501 186.249 189.732 186.712 189.732H201.067C201.53 189.732 201.761 189.501 201.761 189.038C201.761 188.42 201.53 188.112 201.067 188.112H186.712C186.249 188.112 186.018 188.42 186.018 189.038Z" fill="#373738"/>
<path d="M186.018 196.215C186.018 196.832 186.249 197.141 186.712 197.141H201.067C201.684 197.141 201.993 196.91 201.993 196.447C201.993 195.829 201.684 195.521 201.067 195.521H186.712C186.249 195.521 186.018 195.752 186.018 196.215Z" fill="#373738"/>
<path d="M186.018 204.319C186.018 204.782 186.249 205.013 186.712 205.013H201.067C201.684 205.013 201.993 204.782 201.993 204.319C201.993 203.856 201.684 203.624 201.067 203.624H186.712C186.249 203.624 186.018 203.856 186.018 204.319Z" fill="#373738"/>
<path d="M186.018 211.727C186.018 212.19 186.249 212.422 186.712 212.422H201.067C201.53 212.422 201.761 212.19 201.761 211.727C201.761 211.11 201.53 210.801 201.067 210.801H186.712C186.249 210.801 186.018 211.11 186.018 211.727Z" fill="#373738"/>
<path d="M186.018 219.599C186.018 220.062 186.249 220.371 186.712 220.525H201.067C201.684 220.525 201.993 220.217 201.993 219.599C201.993 219.136 201.684 218.905 201.067 218.905H186.712C186.249 218.905 186.018 219.136 186.018 219.599Z" fill="#373738"/>
<path d="M186.018 227.008C186.018 227.471 186.249 227.703 186.712 227.703H201.067C201.684 227.703 201.993 227.471 201.993 227.008C201.993 226.545 201.684 226.314 201.067 226.314H186.712C186.249 226.314 186.018 226.545 186.018 227.008Z" fill="#373738"/>
<path d="M186.018 234.88C186.018 235.498 186.249 235.806 186.712 235.806H201.067C201.684 235.806 201.993 235.498 201.993 234.88C201.993 234.417 201.684 234.186 201.067 234.186H186.712C186.249 234.186 186.018 234.417 186.018 234.88Z" fill="#373738"/>
<path d="M186.018 242.289C186.018 242.752 186.249 242.984 186.712 242.984H201.067C201.684 242.984 201.993 242.752 201.993 242.289C201.993 241.826 201.684 241.594 201.067 241.594H186.712C186.249 241.594 186.018 241.826 186.018 242.289Z" fill="#373738"/>
<path d="M200.141 256.875C200.141 257.647 200.527 258.033 201.299 258.033C202.07 258.033 202.456 257.647 202.456 256.875V104.299C202.456 103.681 202.07 103.373 201.299 103.373C200.527 103.373 200.141 103.681 200.141 104.299V256.875Z" fill="#373738"/>
<path d="M185.323 256.875C185.323 257.647 185.632 258.033 186.249 258.033C187.021 258.033 187.407 257.647 187.407 256.875V104.299C187.407 103.681 187.021 103.373 186.249 103.373C185.632 103.373 185.323 103.681 185.323 104.299V256.875Z" fill="#373738"/>
<path d="M108.35 207.8L107.95 208.15C106.917 209.25 106 210.4 105.2 211.6L105.6 213.45H110.1C110.067 213.383 110.033 213.3 110 213.2C109.3 211.5 108.75 209.7 108.35 207.8ZM107.45 191.25C107.55 190.917 107.683 190.583 107.85 190.25C108.05 189.75 108.333 189.217 108.7 188.65L108.9 188.4L109.15 187.35C109.117 187.383 109.083 187.417 109.05 187.45C108.75 187.617 108.433 187.867 108.1 188.2C107.633 188.8 107.167 189.617 106.7 190.65C106.167 191.883 105.883 192.917 105.85 193.75C105.85 193.917 105.867 194.15 105.9 194.45C105.933 195.083 106.1 195.967 106.4 197.1C106.5 197.433 106.567 197.767 106.6 198.1C106.8 199 106.917 199.683 106.95 200.15C106.95 200.217 106.95 200.3 106.95 200.4C106.95 200.933 106.65 201.85 106.05 203.15C105.95 203.35 105.833 203.567 105.7 203.8C104.9 205.433 104.5 206.583 104.5 207.25C104.5 207.483 104.5 207.717 104.5 207.95L104.75 209.75C104.85 210.217 104.967 210.667 105.1 211.1C105.767 210.067 106.533 209.033 107.4 208L108.25 206.95C108.45 205.65 108.767 204.383 109.2 203.15C109.233 203.05 109.25 202.967 109.25 202.9C109.45 202.2 109.6 201.5 109.7 200.8V200.35C109.667 199.883 109.517 199.267 109.25 198.5C109.217 198.333 109.183 198.2 109.15 198.1C108.85 197.3 108.633 196.683 108.5 196.25C108.233 195.683 108.033 195.183 107.9 194.75C107.6 194.017 107.433 193.35 107.4 192.75C107.367 192.683 107.35 192.583 107.35 192.45C107.383 192.35 107.4 192.267 107.4 192.2C107.4 192.133 107.383 192.067 107.35 192C107.383 191.967 107.383 191.9 107.35 191.8C107.383 191.633 107.417 191.45 107.45 191.25ZM76.7 141.9L77.1 143.75H81.6C81.5667 143.683 81.5333 143.6 81.5 143.5C80.8 141.8 80.25 140 79.85 138.1L79.45 138.45C78.4167 139.55 77.5 140.7 76.7 141.9ZM77.35 124.05C77.35 124.217 77.3667 124.45 77.4 124.75C77.4333 125.383 77.6 126.267 77.9 127.4C78 127.733 78.0667 128.067 78.1 128.4C78.3 129.3 78.4167 129.983 78.45 130.45C78.45 130.517 78.45 130.6 78.45 130.7C78.45 131.233 78.15 132.15 77.55 133.45C77.45 133.65 77.3333 133.867 77.2 134.1C76.4 135.733 76 136.883 76 137.55C76 137.783 76 138.017 76 138.25L76.25 140.05C76.35 140.517 76.4667 140.967 76.6 141.4C77.2667 140.367 78.0333 139.333 78.9 138.3L79.75 137.25C79.95 135.95 80.2667 134.683 80.7 133.45C80.7333 133.35 80.75 133.267 80.75 133.2C80.95 132.5 81.1 131.8 81.2 131.1V130.65C81.1667 130.183 81.0167 129.567 80.75 128.8C80.7167 128.633 80.6833 128.5 80.65 128.4C80.35 127.6 80.1333 126.983 80 126.55C79.7333 125.983 79.5333 125.483 79.4 125.05C79.1 124.317 78.9333 123.65 78.9 123.05C78.8667 122.983 78.85 122.883 78.85 122.75C78.8833 122.65 78.9 122.567 78.9 122.5C78.9 122.433 78.8833 122.367 78.85 122.3C78.8833 122.267 78.8833 122.2 78.85 122.1C78.8833 121.933 78.9167 121.75 78.95 121.55C79.05 121.217 79.1833 120.883 79.35 120.55C79.55 120.05 79.8333 119.517 80.2 118.95L80.4 118.7L80.65 117.65C80.6167 117.683 80.5833 117.717 80.55 117.75C80.25 117.917 79.9333 118.167 79.6 118.5C79.1333 119.1 78.6667 119.917 78.2 120.95C77.6667 122.183 77.3833 123.217 77.35 124.05ZM108.35 72.45L107.95 72.8C106.917 73.9 106 75.05 105.2 76.25L105.6 78.1H110.1C110.067 78.0333 110.033 77.95 110 77.85C109.3 76.15 108.75 74.35 108.35 72.45ZM108.1 52.85C107.633 53.45 107.167 54.2667 106.7 55.3C106.167 56.5333 105.883 57.5667 105.85 58.4C105.85 58.5667 105.867 58.8 105.9 59.1C105.933 59.7333 106.1 60.6167 106.4 61.75C106.5 62.0833 106.567 62.4167 106.6 62.75C106.8 63.65 106.917 64.3333 106.95 64.8C106.95 64.8667 106.95 64.95 106.95 65.05C106.95 65.5833 106.65 66.5 106.05 67.8C105.95 68 105.833 68.2167 105.7 68.45C104.9 70.0833 104.5 71.2333 104.5 71.9C104.5 72.1333 104.5 72.3667 104.5 72.6L104.75 74.4C104.85 74.8667 104.967 75.3167 105.1 75.75C105.767 74.7167 106.533 73.6833 107.4 72.65L108.25 71.6C108.45 70.3 108.767 69.0333 109.2 67.8C109.233 67.7 109.25 67.6167 109.25 67.55C109.45 66.85 109.6 66.15 109.7 65.45V65C109.667 64.5333 109.517 63.9167 109.25 63.15C109.217 62.9833 109.183 62.85 109.15 62.75C108.85 61.95 108.633 61.3333 108.5 60.9C108.233 60.3333 108.033 59.8333 107.9 59.4C107.6 58.6667 107.433 58 107.4 57.4C107.367 57.3333 107.35 57.2333 107.35 57.1C107.383 57 107.4 56.9167 107.4 56.85C107.4 56.7833 107.383 56.7167 107.35 56.65C107.383 56.6167 107.383 56.55 107.35 56.45C107.383 56.2833 107.417 56.1 107.45 55.9C107.55 55.5667 107.683 55.2333 107.85 54.9C108.05 54.4 108.333 53.8667 108.7 53.3L108.9 53.05L109.15 52C109.117 52.0333 109.083 52.0667 109.05 52.1C108.75 52.2667 108.433 52.5167 108.1 52.85ZM320.05 72.45L319.65 72.8C318.617 73.9 317.7 75.05 316.9 76.25L317.3 78.1H321.8C321.767 78.0333 321.733 77.95 321.7 77.85C321 76.15 320.45 74.35 320.05 72.45ZM319.8 52.85C319.333 53.45 318.867 54.2667 318.4 55.3C317.867 56.5333 317.583 57.5667 317.55 58.4C317.55 58.5667 317.567 58.8 317.6 59.1C317.633 59.7333 317.8 60.6167 318.1 61.75C318.2 62.0833 318.267 62.4167 318.3 62.75C318.5 63.65 318.617 64.3333 318.65 64.8C318.65 64.8667 318.65 64.95 318.65 65.05C318.65 65.5833 318.35 66.5 317.75 67.8C317.65 68 317.533 68.2167 317.4 68.45C316.6 70.0833 316.2 71.2333 316.2 71.9C316.2 72.1333 316.2 72.3667 316.2 72.6L316.45 74.4C316.55 74.8667 316.667 75.3167 316.8 75.75C317.467 74.7167 318.233 73.6833 319.1 72.65L319.95 71.6C320.15 70.3 320.467 69.0333 320.9 67.8C320.933 67.7 320.95 67.6167 320.95 67.55C321.15 66.85 321.3 66.15 321.4 65.45V65C321.367 64.5333 321.217 63.9167 320.95 63.15C320.917 62.9833 320.883 62.85 320.85 62.75C320.55 61.95 320.333 61.3333 320.2 60.9C319.933 60.3333 319.733 59.8333 319.6 59.4C319.3 58.6667 319.133 58 319.1 57.4C319.067 57.3333 319.05 57.2333 319.05 57.1C319.083 57 319.1 56.9167 319.1 56.85C319.1 56.7833 319.083 56.7167 319.05 56.65C319.083 56.6167 319.083 56.55 319.05 56.45C319.083 56.2833 319.117 56.1 319.15 55.9C319.25 55.5667 319.383 55.2333 319.55 54.9C319.75 54.4 320.033 53.8667 320.4 53.3L320.6 53.05L320.85 52C320.817 52.0333 320.783 52.0667 320.75 52.1C320.45 52.2667 320.133 52.5167 319.8 52.85ZM322.1 198.45V198C322.067 197.533 321.917 196.917 321.65 196.15C321.617 195.983 321.583 195.85 321.55 195.75C321.25 194.95 321.033 194.333 320.9 193.9C320.633 193.333 320.433 192.833 320.3 192.4C320 191.667 319.833 191 319.8 190.4C319.767 190.333 319.75 190.233 319.75 190.1C319.783 190 319.8 189.917 319.8 189.85C319.8 189.783 319.783 189.717 319.75 189.65C319.783 189.617 319.783 189.55 319.75 189.45C319.783 189.283 319.817 189.1 319.85 188.9C319.95 188.567 320.083 188.233 320.25 187.9C320.45 187.4 320.733 186.867 321.1 186.3L321.3 186.05L321.55 185C321.517 185.033 321.483 185.067 321.45 185.1C321.15 185.267 320.833 185.517 320.5 185.85C320.033 186.45 319.567 187.267 319.1 188.3C318.567 189.533 318.283 190.567 318.25 191.4C318.25 191.567 318.267 191.8 318.3 192.1C318.333 192.733 318.5 193.617 318.8 194.75C318.9 195.083 318.967 195.417 319 195.75C319.2 196.65 319.317 197.333 319.35 197.8C319.35 197.867 319.35 197.95 319.35 198.05C319.35 198.583 319.05 199.5 318.45 200.8C318.35 201 318.233 201.217 318.1 201.45C317.3 203.083 316.9 204.233 316.9 204.9C316.9 205.133 316.9 205.367 316.9 205.6L317.15 207.4C317.25 207.867 317.367 208.317 317.5 208.75C318.167 207.717 318.933 206.683 319.8 205.65L320.65 204.6C320.85 203.3 321.167 202.033 321.6 200.8C321.633 200.7 321.65 200.617 321.65 200.55C321.85 199.85 322 199.15 322.1 198.45ZM322.5 211.1C322.467 211.033 322.433 210.95 322.4 210.85C321.7 209.15 321.15 207.35 320.75 205.45L320.35 205.8C319.317 206.9 318.4 208.05 317.6 209.25L318 211.1H322.5ZM348.75 138.1L348.35 138.45C347.317 139.55 346.4 140.7 345.6 141.9L346 143.75H350.5C350.467 143.683 350.433 143.6 350.4 143.5C349.7 141.8 349.15 140 348.75 138.1ZM349.45 117.75C349.15 117.917 348.833 118.167 348.5 118.5C348.033 119.1 347.567 119.917 347.1 120.95C346.567 122.183 346.283 123.217 346.25 124.05C346.25 124.217 346.267 124.45 346.3 124.75C346.333 125.383 346.5 126.267 346.8 127.4C346.9 127.733 346.967 128.067 347 128.4C347.2 129.3 347.317 129.983 347.35 130.45C347.35 130.517 347.35 130.6 347.35 130.7C347.35 131.233 347.05 132.15 346.45 133.45C346.35 133.65 346.233 133.867 346.1 134.1C345.3 135.733 344.9 136.883 344.9 137.55C344.9 137.783 344.9 138.017 344.9 138.25L345.15 140.05C345.25 140.517 345.367 140.967 345.5 141.4C346.167 140.367 346.933 139.333 347.8 138.3L348.65 137.25C348.85 135.95 349.167 134.683 349.6 133.45C349.633 133.35 349.65 133.267 349.65 133.2C349.85 132.5 350 131.8 350.1 131.1V130.65C350.067 130.183 349.917 129.567 349.65 128.8C349.617 128.633 349.583 128.5 349.55 128.4C349.25 127.6 349.033 126.983 348.9 126.55C348.633 125.983 348.433 125.483 348.3 125.05C348 124.317 347.833 123.65 347.8 123.05C347.767 122.983 347.75 122.883 347.75 122.75C347.783 122.65 347.8 122.567 347.8 122.5C347.8 122.433 347.783 122.367 347.75 122.3C347.783 122.267 347.783 122.2 347.75 122.1C347.783 121.933 347.817 121.75 347.85 121.55C347.95 121.217 348.083 120.883 348.25 120.55C348.45 120.05 348.733 119.517 349.1 118.95L349.3 118.7L349.55 117.65C349.517 117.683 349.483 117.717 349.45 117.75Z" fill="black"/>
<mask id="mask0_14349_136707" style="mask-type:alpha" maskUnits="userSpaceOnUse" x="274" y="80" width="31" height="28">
<path d="M304.843 94.8314L296.704 80.7323L274.5 93.55L282.639 107.649L304.843 94.8314Z" fill="white"/>
</mask>
<g mask="url(#mask0_14349_136707)">
<path d="M287.993 85.8043L289.784 88.9081C287.343 90.2084 284.234 91.6404 280.457 93.2039C278.57 93.985 276.926 94.6369 275.526 95.1595L279.862 102.672C282.437 101.185 285.294 99.6386 288.433 98.0323C291.54 96.4378 293.278 95.627 293.648 95.5999L296.113 99.8708L300.7 87.6796L287.993 85.8043Z" fill="#FFFF00"/>
</g>
<mask id="mask1_14349_136707" style="mask-type:alpha" maskUnits="userSpaceOnUse" x="273" y="78" width="31" height="28">
<path d="M303.579 92.6727L295.644 78.9278L273 92L280.935 105.745L303.579 92.6727Z" fill="white"/>
</mask>
<g mask="url(#mask1_14349_136707)">
<path d="M287.647 83.5496L289.436 86.6498C286.098 88.2332 282.691 90.1747 279.214 92.4742C277.474 93.6227 276.07 94.6135 274.999 95.4466L279.336 102.959C280.753 101.986 282.417 100.891 284.328 99.6723C288.149 97.235 291.298 95.3994 293.775 94.1654L295.565 97.2656L299.512 85.8437L287.647 83.5496Z" fill="#80D670"/>
</g>
<mask id="mask2_14349_136707" style="mask-type:alpha" maskUnits="userSpaceOnUse" x="282" y="130" width="27" height="18">
<path d="M308.587 146.889L308.376 130.617L282.75 130.95L282.961 147.222L308.587 146.889Z" fill="white"/>
</mask>
<g mask="url(#mask2_14349_136707)">
<path d="M298.301 130.785L298.348 134.368C295.583 134.309 292.172 134.039 288.114 133.558C286.087 133.317 284.335 133.083 282.858 132.855L282.971 141.524C285.943 141.486 289.19 141.533 292.712 141.665C296.2 141.792 298.112 141.934 298.448 142.091L298.512 147.02L308.468 138.628L298.301 130.785Z" fill="#FFFF00"/>
</g>
<mask id="mask3_14349_136707" style="mask-type:alpha" maskUnits="userSpaceOnUse" x="282" y="128" width="27" height="17">
<path d="M308.541 144.374L308.335 128.511L282.2 128.85L282.406 144.714L308.541 144.374Z" fill="white"/>
</mask>
<g mask="url(#mask3_14349_136707)">
<path d="M299.102 128.635L299.148 132.213C295.464 131.963 291.543 131.992 287.387 132.299C285.309 132.451 283.6 132.629 282.26 132.833L282.373 141.503C284.083 141.347 286.07 141.204 288.331 141.075C292.855 140.816 296.498 140.753 299.261 140.887L299.307 144.465L308.329 136.431L299.102 128.635Z" fill="#80D670"/>
</g>
<mask id="mask4_14349_136707" style="mask-type:alpha" maskUnits="userSpaceOnUse" x="272" y="169" width="31" height="28">
<path d="M294.603 196.703L302.74 182.613L280.55 169.8L272.414 183.89L294.603 196.703Z" fill="white"/>
</mask>
<g mask="url(#mask4_14349_136707)">
<path d="M293.997 177.608L292.206 180.71C289.86 179.246 287.067 177.271 283.826 174.783C282.207 173.54 280.822 172.443 279.669 171.492L275.334 178.999C277.908 180.485 280.674 182.185 283.633 184.099C286.565 185.991 288.136 187.091 288.344 187.397L285.879 191.666L298.723 189.544L293.997 177.608Z" fill="#FFFF00"/>
</g>
<mask id="mask5_14349_136707" style="mask-type:alpha" maskUnits="userSpaceOnUse" x="273" y="167" width="31" height="28">
<path d="M295.798 194.504L303.73 180.767L281.1 167.7L273.168 181.436L295.798 194.504Z" fill="white"/>
</mask>
<g mask="url(#mask5_14349_136707)">
<path d="M295.733 176.155L293.944 179.253C290.906 177.155 287.523 175.175 283.795 173.315C281.931 172.384 280.372 171.663 279.116 171.153L274.781 178.66C276.331 179.401 278.11 180.293 280.12 181.338C284.139 183.428 287.302 185.236 289.607 186.764L287.818 189.862L299.677 187.57L295.733 176.155Z" fill="#80D670"/>
</g>
<mask id="mask6_14349_136707" style="mask-type:alpha" maskUnits="userSpaceOnUse" x="136" y="80" width="31" height="28">
<path d="M136.515 94.6829L144.651 80.5869L166.85 93.3999L158.714 107.496L136.515 94.6829Z" fill="white"/>
</mask>
<g mask="url(#mask6_14349_136707)">
<path d="M153.36 85.6569L151.569 88.7601C154.01 90.0599 157.119 91.4913 160.895 93.0543C162.781 93.835 164.425 94.4866 165.825 95.009L161.49 102.519C158.915 101.033 156.059 99.4876 152.921 97.8819C149.815 96.2881 148.077 95.4776 147.707 95.4505L145.243 99.7205L140.656 87.5327L153.36 85.6569Z" fill="#FFFF00"/>
</g>
<mask id="mask7_14349_136707" style="mask-type:alpha" maskUnits="userSpaceOnUse" x="137" y="78" width="32" height="28">
<path d="M137.779 92.5247L145.71 78.7827L168.35 91.8501L160.418 105.592L137.779 92.5247Z" fill="white"/>
</mask>
<g mask="url(#mask7_14349_136707)">
<path d="M153.707 83.4028L151.917 86.5024C155.255 88.0851 158.662 90.0259 162.138 92.3246C163.877 93.4727 165.282 94.4632 166.352 95.296L162.017 102.806C160.6 101.834 158.936 100.739 157.026 99.5212C153.205 97.0848 150.057 95.2498 147.58 94.0164L145.791 97.1159L141.845 85.6971L153.707 83.4028Z" fill="#80D670"/>
</g>
<mask id="mask8_14349_136707" style="mask-type:alpha" maskUnits="userSpaceOnUse" x="132" y="130" width="27" height="18">
<path d="M132.867 146.686L133.079 130.417L158.7 130.75L158.489 147.019L132.867 146.686Z" fill="white"/>
</mask>
<g mask="url(#mask8_14349_136707)">
<path d="M143.151 130.585L143.105 134.167C145.869 134.108 149.28 133.839 153.336 133.358C155.364 133.117 157.115 132.883 158.592 132.654L158.479 141.323C155.508 141.284 152.261 141.331 148.74 141.463C145.252 141.59 143.34 141.732 143.005 141.889L142.941 146.817L132.987 138.427L143.151 130.585Z" fill="#FFFF00"/>
</g>
<mask id="mask9_14349_136707" style="mask-type:alpha" maskUnits="userSpaceOnUse" x="132" y="128" width="28" height="17">
<path d="M132.914 144.221L133.12 128.36L159.25 128.7L159.044 144.561L132.914 144.221Z" fill="white"/>
</mask>
<g mask="url(#mask9_14349_136707)">
<path d="M142.351 128.485L142.305 132.062C145.989 131.812 149.908 131.841 154.063 132.148C156.141 132.3 157.85 132.478 159.19 132.682L159.077 141.35C157.367 141.194 155.381 141.052 153.12 140.922C148.597 140.663 144.954 140.601 142.192 140.735L142.146 144.312L133.126 136.28L142.351 128.485Z" fill="#80D670"/>
</g>
<mask id="mask10_14349_136707" style="mask-type:alpha" maskUnits="userSpaceOnUse" x="138" y="169" width="32" height="28">
<path d="M146.851 196.65L138.715 182.563L160.9 169.75L169.036 183.837L146.851 196.65Z" fill="white"/>
</mask>
<g mask="url(#mask10_14349_136707)">
<path d="M147.456 177.558L149.247 180.659C151.592 179.196 154.385 177.22 157.625 174.733C159.243 173.49 160.629 172.393 161.781 171.442L166.116 178.947C163.543 180.433 160.777 182.133 157.819 184.047C154.887 185.939 153.317 187.039 153.109 187.345L155.573 191.613L142.731 189.492L147.456 177.558Z" fill="#FFFF00"/>
</g>
<mask id="mask11_14349_136707" style="mask-type:alpha" maskUnits="userSpaceOnUse" x="137" y="167" width="32" height="28">
<path d="M145.657 194.451L137.725 180.717L160.35 167.65L168.282 181.383L145.657 194.451Z" fill="white"/>
</mask>
<g mask="url(#mask11_14349_136707)">
<path d="M145.72 176.105L147.509 179.202C150.547 177.104 153.929 175.125 157.656 173.264C159.519 172.333 161.079 171.612 162.334 171.102L166.669 178.608C165.12 179.348 163.341 180.241 161.331 181.286C157.313 183.376 154.151 185.184 151.846 186.711L153.635 189.809L141.778 187.519L145.72 176.105Z" fill="#80D670"/>
</g>
</svg>
