<svg width="600" height="600" viewBox="0 0 600 600" fill="none" xmlns="http://www.w3.org/2000/svg">
<path d="M158.266 209.763C236.544 132.938 363.456 132.938 441.735 209.763L451.155 219.009C455.069 222.851 455.069 229.078 451.155 232.92L418.929 264.549C416.971 266.469 413.799 266.469 411.841 264.549L398.877 251.825C344.269 198.23 255.731 198.23 201.122 251.825L187.239 265.451C185.282 267.372 182.11 267.372 180.152 265.451L147.926 233.822C144.011 229.98 144.011 223.753 147.926 219.911L158.266 209.763ZM508.382 275.175L537.065 303.324C540.979 307.166 540.979 313.393 537.065 317.235L407.736 444.167C403.823 448.007 397.476 448.007 393.563 444.167L301.773 354.08C300.794 353.119 299.207 353.119 298.229 354.08L206.441 444.167C202.527 448.007 196.181 448.007 192.267 444.167L62.9354 317.234C59.0215 313.392 59.0215 307.165 62.9354 303.323L91.6174 275.173C95.5312 271.332 101.877 271.332 105.791 275.173L197.582 365.261C198.56 366.222 200.146 366.222 201.125 365.261L292.911 275.173C296.825 271.332 303.171 271.332 307.085 275.173L398.876 365.261C399.855 366.222 401.441 366.222 402.42 365.261L494.209 275.175C498.124 271.334 504.469 271.334 508.382 275.175Z" fill="#3396FF"/>
</svg>
