<svg width="31" height="31" viewBox="0 0 31 31" fill="none" xmlns="http://www.w3.org/2000/svg">
<path fill-rule="evenodd" clip-rule="evenodd" d="M15.9629 0.5C16.4602 0.5 16.9371 0.697544 17.2887 1.04917C17.6403 1.40081 17.8379 1.87772 17.8379 2.375V4.25C17.8379 4.74728 17.6403 5.22419 17.2887 5.57582C16.9371 5.92746 16.4602 6.125 15.9629 6.125C15.4656 6.125 14.9887 5.92746 14.6371 5.57582C14.2854 5.22419 14.0879 4.74728 14.0879 4.25V2.375C14.0879 1.87772 14.2854 1.40081 14.6371 1.04917C14.9887 0.697544 15.4656 0.5 15.9629 0.5V0.5ZM23.4629 15.5C23.4629 17.4891 22.6727 19.3968 21.2662 20.8033C19.8597 22.2098 17.952 23 15.9629 23C13.9738 23 12.0661 22.2098 10.6596 20.8033C9.25307 19.3968 8.46289 17.4891 8.46289 15.5C8.46289 13.5109 9.25307 11.6032 10.6596 10.1967C12.0661 8.79018 13.9738 8 15.9629 8C17.952 8 19.8597 8.79018 21.2662 10.1967C22.6727 11.6032 23.4629 13.5109 23.4629 15.5V15.5ZM22.5929 24.7812L23.9185 26.1069C24.2721 26.4484 24.7458 26.6374 25.2374 26.6331C25.729 26.6289 26.1993 26.4317 26.5469 26.084C26.8946 25.7364 27.0918 25.2661 27.096 24.7745C27.1003 24.2829 26.9113 23.8093 26.5698 23.4556L25.2441 22.13C24.8905 21.7885 24.4169 21.5995 23.9253 21.6037C23.4336 21.608 22.9634 21.8052 22.6157 22.1528C22.2681 22.5005 22.0709 22.9708 22.0666 23.4624C22.0624 23.954 22.2513 24.4276 22.5929 24.7812V24.7812ZM26.5679 4.89312C26.9194 5.24474 27.1169 5.72157 27.1169 6.21875C27.1169 6.71593 26.9194 7.19276 26.5679 7.54437L25.2441 8.87C25.0712 9.04908 24.8643 9.19192 24.6355 9.29019C24.4068 9.38846 24.1607 9.44018 23.9118 9.44234C23.6628 9.44451 23.4159 9.39707 23.1855 9.30279C22.955 9.20851 22.7457 9.06929 22.5697 8.89324C22.3936 8.71719 22.2544 8.50784 22.1601 8.27741C22.0658 8.04698 22.0184 7.80008 22.0205 7.55112C22.0227 7.30216 22.0744 7.05612 22.1727 6.82737C22.271 6.59861 22.4138 6.39171 22.5929 6.21875L23.9185 4.89312C24.2701 4.54162 24.747 4.34415 25.2441 4.34415C25.7413 4.34415 26.2182 4.54162 26.5698 4.89312H26.5679ZM29.0879 17.375C29.5852 17.375 30.0621 17.1775 30.4137 16.8258C30.7653 16.4742 30.9629 15.9973 30.9629 15.5C30.9629 15.0027 30.7653 14.5258 30.4137 14.1742C30.0621 13.8225 29.5852 13.625 29.0879 13.625H27.2129C26.7156 13.625 26.2387 13.8225 25.8871 14.1742C25.5354 14.5258 25.3379 15.0027 25.3379 15.5C25.3379 15.9973 25.5354 16.4742 25.8871 16.8258C26.2387 17.1775 26.7156 17.375 27.2129 17.375H29.0879ZM15.9629 24.875C16.4602 24.875 16.9371 25.0725 17.2887 25.4242C17.6403 25.7758 17.8379 26.2527 17.8379 26.75V28.625C17.8379 29.1223 17.6403 29.5992 17.2887 29.9508C16.9371 30.3025 16.4602 30.5 15.9629 30.5C15.4656 30.5 14.9887 30.3025 14.6371 29.9508C14.2854 29.5992 14.0879 29.1223 14.0879 28.625V26.75C14.0879 26.2527 14.2854 25.7758 14.6371 25.4242C14.9887 25.0725 15.4656 24.875 15.9629 24.875V24.875ZM6.68164 8.87C6.85572 9.04421 7.06242 9.18242 7.28991 9.27675C7.51741 9.37107 7.76126 9.41967 8.00754 9.41975C8.25382 9.41984 8.4977 9.37142 8.72527 9.27725C8.95283 9.18309 9.15962 9.04502 9.33383 8.87094C9.50803 8.69685 9.64625 8.49016 9.74057 8.26266C9.8349 8.03517 9.8835 7.79132 9.88358 7.54504C9.88367 7.29876 9.83525 7.05488 9.74108 6.82731C9.64692 6.59975 9.50885 6.39296 9.33477 6.21875L8.00727 4.89312C7.65364 4.55158 7.18001 4.36259 6.68839 4.36686C6.19677 4.37113 5.7265 4.56832 5.37886 4.91596C5.03122 5.2636 4.83402 5.73388 4.82975 6.2255C4.82548 6.71712 5.01447 7.19075 5.35602 7.54437L6.68164 8.87V8.87ZM9.33289 24.7812L8.00727 26.1069C7.65364 26.4484 7.18001 26.6374 6.68839 26.6331C6.19677 26.6289 5.7265 26.4317 5.37886 26.084C5.03122 25.7364 4.83402 25.2661 4.82975 24.7745C4.82548 24.2829 5.01447 23.8093 5.35602 23.4556L6.68164 22.13C7.03527 21.7885 7.5089 21.5995 8.00052 21.6037C8.49214 21.608 8.96241 21.8052 9.31005 22.1528C9.65769 22.5005 9.85488 22.9708 9.85915 23.4624C9.86343 23.954 9.67444 24.4276 9.33289 24.7812V24.7812ZM4.71289 17.375C5.21017 17.375 5.68708 17.1775 6.03872 16.8258C6.39035 16.4742 6.58789 15.9973 6.58789 15.5C6.58789 15.0027 6.39035 14.5258 6.03872 14.1742C5.68708 13.8225 5.21017 13.625 4.71289 13.625H2.83789C2.34061 13.625 1.8637 13.8225 1.51207 14.1742C1.16043 14.5258 0.962891 15.0027 0.962891 15.5C0.962891 15.9973 1.16043 16.4742 1.51207 16.8258C1.8637 17.1775 2.34061 17.375 2.83789 17.375H4.71289Z" fill="#F4DE51"/>
</svg>
