<svg width="31" height="30" viewBox="0 0 31 30" fill="none" xmlns="http://www.w3.org/2000/svg">
<path d="M14.1982 11.9404C14.1982 15.6041 11.2354 18.574 7.58054 18.574C3.92571 18.574 0.962891 15.6041 0.962891 11.9404C0.962891 8.27682 3.92571 5.30687 7.58054 5.30687C11.2354 5.30687 14.1982 8.27682 14.1982 11.9404Z" fill="#C1DEF2"/>
<path d="M30.9629 12.8249C30.9629 16.0001 28.3951 18.574 25.2276 18.574C22.0601 18.574 19.4923 16.0001 19.4923 12.8249C19.4923 9.64978 22.0601 7.07582 25.2276 7.07582C28.3951 7.07582 30.9629 9.64978 30.9629 12.8249Z" fill="#C1DEF2"/>
<path d="M25.6688 7.07582C25.6688 10.9837 21.9159 14.1516 17.2864 14.1516C12.657 14.1516 8.90407 10.9837 8.90407 7.07582C8.90407 3.16795 12.657 0 17.2864 0C21.9159 0 25.6688 3.16795 25.6688 7.07582Z" fill="#C1DEF2"/>
<path d="M7.13936 10.6137H25.6688V18.574H7.13936V10.6137Z" fill="#C1DEF2"/>
<path d="M7.69092 21.1973C7.81705 20.7255 8.30088 20.4455 8.77158 20.5719C9.24229 20.6983 9.52163 21.1833 9.3955 21.6552L8.18995 26.1652C8.06383 26.637 7.58 26.917 7.1093 26.7906C6.63859 26.6642 6.35925 26.1792 6.48538 25.7073L7.69092 21.1973Z" fill="#C1DEF2"/>
<path d="M12.985 21.1973C13.1112 20.7255 13.595 20.4455 14.0657 20.5719C14.5364 20.6983 14.8157 21.1833 14.6896 21.6552L12.6343 29.3442C12.5082 29.8161 12.0243 30.0961 11.5536 29.9696C11.0829 29.8432 10.8036 29.3582 10.9297 28.8864L12.985 21.1973Z" fill="#C1DEF2"/>
<path d="M18.2792 21.1973C18.4053 20.7255 18.8891 20.4455 19.3598 20.5719C19.8305 20.6983 20.1099 21.1833 19.9837 21.6552L18.7782 26.1652C18.6521 26.637 18.1682 26.917 17.6975 26.7906C17.2268 26.6642 16.9475 26.1792 17.0736 25.7073L18.2792 21.1973Z" fill="#C1DEF2"/>
<path d="M23.5733 21.1973C23.6994 20.7255 24.1832 20.4455 24.6539 20.5719C25.1246 20.6983 25.404 21.1833 25.2779 21.6552L23.2225 29.3442C23.0964 29.8161 22.6126 30.0961 22.1419 29.9696C21.6712 29.8432 21.3918 29.3582 21.518 28.8864L23.5733 21.1973Z" fill="#C1DEF2"/>
</svg>
