<svg width="184" height="163" viewBox="0 0 184 163" fill="none" xmlns="http://www.w3.org/2000/svg">
<path d="M118.915 87.7449C119.885 87.2062 133.675 79.3417 129.689 55.4249L130.12 54.563L180 84.1538L118.915 87.7449Z" fill="#F7CF2D" stroke="#F7CF2D" stroke-width="2" stroke-miterlimit="10"/>
<path d="M100.062 108.034C100.96 108.608 114.714 116.616 133.352 101.139H134.249L133.675 159.135L100.062 108.034Z" fill="#F7CF2D" stroke="#F7CF2D" stroke-width="2" stroke-miterlimit="10"/>
<path d="M73.2005 101.786C73.2005 102.863 73.2005 118.772 95.7885 127.175L96.3272 127.965L45.7285 156.478L73.2005 101.786Z" fill="#F7CF2D" stroke="#F7CF2D" stroke-width="2" stroke-miterlimit="10"/>
<path d="M65.0847 75.3188C64.1151 75.8216 50.3252 83.722 54.3114 107.639L53.8804 108.501L4 78.9459L65.0847 75.3188Z" fill="#F7CF2D" stroke="#F7CF2D" stroke-width="2" stroke-miterlimit="10"/>
<path d="M83.9737 55.1373C83.04 54.5627 69.2861 46.5546 50.6483 61.9963H49.7146L50.2892 4L83.9737 55.1373Z" fill="#F7CF2D" stroke="#F7CF2D" stroke-width="2" stroke-miterlimit="10"/>
<path d="M110.871 61.3858C110.871 60.3085 110.871 44.3999 88.2833 35.9967L87.7446 35.2067L138.271 6.6933L110.871 61.3858Z" fill="#F7CF2D" stroke="#F7CF2D" stroke-width="2" stroke-miterlimit="10"/>
</svg>
