<?xml version="1.0" encoding="iso-8859-1"?>
<!-- Generator: Adobe Illustrator 19.0.0, SVG Export Plug-In . SVG Version: 6.00 Build 0)  -->
<svg version="1.1" id="Layer_1" xmlns="http://www.w3.org/2000/svg" xmlns:xlink="http://www.w3.org/1999/xlink" x="0px" y="0px"
	 viewBox="0 0 387.163 387.163" style="enable-background:new 0 0 387.163 387.163;" xml:space="preserve" fill="#F7CF2D" stroke="#F7CF2D">
<g>
	<g>
		<g>
			<path d="M379.662,221.953h-94.195c-3.83-47.34-43.576-84.692-91.886-84.692s-88.056,37.352-91.886,84.692H7.5
				c-4.142,0-7.5,3.358-7.5,7.5c0,4.142,3.358,7.5,7.5,7.5h101.389h169.385h101.389c4.142,0,7.5-3.358,7.5-7.5
				C387.162,225.311,383.805,221.953,379.662,221.953z M116.75,221.953c3.784-39.058,36.797-69.692,76.831-69.692
				c40.033,0,73.047,30.635,76.831,69.692H116.75z"/>
			<path d="M340.664,259.581H46.498c-4.142,0-7.5,3.358-7.5,7.5c0,4.142,3.358,7.5,7.5,7.5h294.166c4.143,0,7.5-3.358,7.5-7.5
				C348.164,262.939,344.807,259.581,340.664,259.581z" />
			<path d="M300.166,297.21H86.996c-4.142,0-7.5,3.358-7.5,7.5c0,4.142,3.358,7.5,7.5,7.5h213.17c4.143,0,7.5-3.358,7.5-7.5
				C307.666,300.568,304.309,297.21,300.166,297.21z"/>
			<path d="M193.578,118.953c4.142,0,7.499-3.358,7.499-7.5v-29c0-4.142-3.357-7.5-7.499-7.5c-4.142,0-7.5,3.358-7.5,7.5v29
				C186.078,115.595,189.436,118.953,193.578,118.953z" />
			<path d="M137.108,125.571c1.27,2.736,3.978,4.345,6.808,4.345c1.057,0,2.13-0.225,3.152-0.699c3.757-1.743,5.39-6.203,3.646-9.96
				l-12.206-26.306c-1.744-3.757-6.203-5.391-9.96-3.646c-3.757,1.743-5.39,6.203-3.646,9.96L137.108,125.571z" />
			<path d="M76.486,140.265l22.145,18.725c1.409,1.191,3.128,1.773,4.839,1.773c2.131,0,4.248-0.903,5.731-2.658
				c2.674-3.163,2.278-7.895-0.885-10.569l-22.145-18.725c-3.162-2.675-7.895-2.279-10.569,0.885
				C72.927,132.858,73.323,137.591,76.486,140.265z" />
			<path d="M49.825,197.836l27.969,7.664c0.663,0.182,1.33,0.268,1.986,0.268c3.295,0,6.316-2.188,7.229-5.52
				c1.095-3.995-1.256-8.121-5.251-9.215l-27.969-7.664c-3.993-1.092-8.121,1.256-9.215,5.251
				C43.479,192.615,45.83,196.741,49.825,197.836z" />
			<path d="M240.087,129.217c1.022,0.474,2.096,0.699,3.152,0.699c2.83,0,5.539-1.609,6.809-4.345l12.206-26.306
				c1.743-3.757,0.11-8.217-3.647-9.96c-3.762-1.745-8.218-0.111-9.961,3.646l-12.206,26.306
				C234.697,123.015,236.33,127.474,240.087,129.217z" />
			<path d="M283.687,160.763c1.71,0,3.431-0.582,4.839-1.773l22.145-18.725c3.163-2.674,3.559-7.407,0.885-10.57
				c-2.675-3.162-7.406-3.559-10.57-0.884l-22.145,18.725c-3.163,2.674-3.559,7.407-0.885,10.57
				C279.44,159.86,281.556,160.763,283.687,160.763z" />
			<path d="M300.146,200.248c0.913,3.331,3.934,5.52,7.229,5.52c0.655,0,1.322-0.087,1.986-0.268l27.97-7.664
				c3.994-1.095,6.346-5.221,5.251-9.215c-1.094-3.994-5.21-6.346-9.216-5.251l-27.97,7.664
				C301.402,192.128,299.051,196.254,300.146,200.248z" />
		</g>
	</g>
</g>
</svg>
