<svg xmlns="http://www.w3.org/2000/svg" width="24" height="24" fill="none">
  <circle cx="12" cy="12" r="12" fill="#F9F8F6"/>
  <g clip-path="url(#a)">
    <mask id="b" width="16" height="14" x="4" y="6" maskUnits="userSpaceOnUse" style="mask-type:luminance">
      <path fill="#fff" d="M12.5424 19.7143v-7.5301H20c0 4.1588-3.3389 7.5301-7.4576 7.5301Zm-1.0848 0v-7.5301H4c0 4.1588 3.33889 7.5301 7.4576 7.5301ZM17.6514 6h-5.1353v5.1853c2.8362 0 5.1353-2.32167 5.1353-5.1853Zm-6.1926 5.1853V6H6.32344c0 2.86383 2.29929 5.1853 5.13536 5.1853Z"/>
    </mask>
    <g mask="url(#b)">
      <path fill="#46B955" d="M1.71944 23.4987H24.1826V.817316H1.71944V23.4987Z"/>
      <path fill="#29A334" d="M22.4147 10.7557c-3.3462-.3957-6.1646-2.90689-7.9587-4.65777-2.1055-2.055-4.89584-3.01668-6.36973-2.41976-1.01604.41135-1.28149 1.72035-.53364 2.75518.74784 1.03484 1.33862 4.60575.53914 6.47025-.91238 2.1278-3.55368 2.2753-3.55368 6.162v5.6079H25.0642V10.7557h-2.6495Z"/>
      <path fill="#000" d="M22.4147 10.7557c-3.3462-.3957-6.1646-2.90689-7.9587-4.65777-2.1055-2.055-4.89584-3.01668-6.36973-2.41976-1.01604.41135-1.28149 1.72035-.53364 2.75518.74784 1.03484 1.33862 4.60575.53914 6.47025-.91238 2.1278-3.55368 2.2753-3.55368 6.162v5.6079H25.0642V10.7557h-2.6495Z" opacity=".06" style="mix-blend-mode:multiply"/>
      <path fill="#1B8E21" d="M8.52458 21.4822s-2.86278-1.9146-2.34975-3.0934c.56231-1.2917 2.38921-.9668 3.66814-2.0534 1.29623-1.1012.99483-2.9324.33163-4.541-.90179-2.18717-1.85205-4.30065-.30277-6.10764.91117-1.06278 2.79637-.76561 3.85307.92798 1.0186 1.63234 2.3965 3.84826 4.0846 3.93966 1.2177.0659 3.1653.4871 4.9742 3.079h2.2274V24.442H8.52458v-2.9598Z"/>
      <path fill="#000" d="M8.52458 21.4822s-2.86278-1.9146-2.34975-3.0934c.56231-1.2917 2.38921-.9668 3.66814-2.0534 1.29623-1.1012.99483-2.9324.33163-4.541-.90179-2.18717-1.85205-4.30065-.30277-6.10764.91117-1.06278 2.79637-.76561 3.85307.92798 1.0186 1.63234 2.3965 3.84826 4.0846 3.93966 1.2177.0659 3.1653.4871 4.9742 3.079h2.2274V24.442H8.52458v-2.9598Z" opacity=".06" style="mix-blend-mode:multiply"/>
      <path fill="#0C720E" d="M9.79479 22.5666c-1.20746-3.2771.95461-3.6209 2.01971-3.9875 1.0653-.3665 2.1544-.9789 2.1703-2.4514.0169-1.5525-.9677-2.0304-1.7181-3.0839-.7504-1.0535-2.68945-2.5877-1.3273-3.80589 1.0954-.97972 2.9898 1.51859 4.7498 1.51859 1.7599 0 5.6293 1.2001 6.1946 2.1485l1.5675.2817v9.3799H9.79479Z"/>
      <path fill="#000" d="M9.79479 22.5666c-1.20746-3.2771.95461-3.6209 2.01971-3.9875 1.0653-.3665 2.1544-.9789 2.1703-2.4514.0169-1.5525-.9677-2.0304-1.7181-3.0839-.7504-1.0535-2.68945-2.5877-1.3273-3.80589 1.0954-.97972 2.9898 1.51859 4.7498 1.51859 1.7599 0 5.6293 1.2001 6.1946 2.1485l1.5675.2817v9.3799H9.79479Z" opacity=".06" style="mix-blend-mode:multiply"/>
    </g>
  </g>
  <defs>
    <clipPath id="a">
      <path fill="#fff" d="M4 6h16v13.7143H4z"/>
    </clipPath>
  </defs>
</svg>