<svg width="16" height="16" viewBox="0 0 16 16" fill="none" xmlns="http://www.w3.org/2000/svg">
<g clip-path="url(#clip0_110_46366)">
<path d="M7.99992 4.8C8.87223 4.8 9.70882 5.13714 10.3256 5.73726C10.9425 6.33737 11.289 7.15131 11.289 8C11.289 8.84869 10.9425 9.66263 10.3256 10.2627C9.70882 10.8629 8.87223 11.2 7.99992 11.2C7.12761 11.2 6.29103 10.8629 5.67421 10.2627C5.05739 9.66263 4.71087 8.84869 4.71087 8C4.71087 7.15131 5.05739 6.33737 5.67421 5.73726C6.29103 5.13714 7.12761 4.8 7.99992 4.8ZM7.99992 6.4C7.56377 6.4 7.14547 6.56857 6.83706 6.86863C6.52866 7.16869 6.35539 7.57565 6.35539 8C6.35539 8.42435 6.52866 8.83131 6.83706 9.13137C7.14547 9.43143 7.56377 9.6 7.99992 9.6C8.43608 9.6 8.85437 9.43143 9.16278 9.13137C9.47119 8.83131 9.64445 8.42435 9.64445 8C9.64445 7.57565 9.47119 7.16869 9.16278 6.86863C8.85437 6.56857 8.43608 6.4 7.99992 6.4ZM6.35539 16C6.14983 16 5.97715 15.856 5.94426 15.664L5.64002 13.544C5.122 13.344 4.67798 13.072 4.2504 12.752L2.20296 13.56C2.02206 13.624 1.80005 13.56 1.70138 13.384L0.0568518 10.616C0.00652562 10.5336 -0.0112162 10.4361 0.00694417 10.3419C0.0251045 10.2477 0.0779236 10.1631 0.155524 10.104L1.8905 8.776L1.83294 8L1.8905 7.2L0.155524 5.896C0.0779236 5.83691 0.0251045 5.75234 0.00694417 5.6581C-0.0112162 5.56387 0.00652562 5.46643 0.0568518 5.384L1.70138 2.616C1.80005 2.44 2.02206 2.368 2.20296 2.44L4.2504 3.24C4.67798 2.928 5.122 2.656 5.64002 2.456L5.94426 0.336C5.97715 0.144 6.14983 0 6.35539 0H9.64445C9.85001 0 10.0227 0.144 10.0556 0.336L10.3598 2.456C10.8778 2.656 11.3219 2.928 11.7494 3.24L13.7969 2.44C13.9778 2.368 14.1998 2.44 14.2985 2.616L15.943 5.384C16.0499 5.56 16.0005 5.776 15.8443 5.896L14.1093 7.2L14.1669 8L14.1093 8.8L15.8443 10.104C16.0005 10.224 16.0499 10.44 15.943 10.616L14.2985 13.384C14.1998 13.56 13.9778 13.632 13.7969 13.56L11.7494 12.76C11.3219 13.072 10.8778 13.344 10.3598 13.544L10.0556 15.664C10.0227 15.856 9.85001 16 9.64445 16H6.35539ZM7.38322 1.6L7.07899 3.688C6.09227 3.888 5.22067 4.4 4.58753 5.112L2.60587 4.28L1.98917 5.32L3.72415 6.56C3.39524 7.49333 3.39524 8.50667 3.72415 9.44L1.98095 10.688L2.59765 11.728L4.59575 10.896C5.22889 11.6 6.09227 12.112 7.07076 12.304L7.375 14.4H8.62484L8.92908 12.312C9.90757 12.112 10.7709 11.6 11.4041 10.896L13.4022 11.728L14.0189 10.688L12.2757 9.448C12.6046 8.512 12.6046 7.496 12.2757 6.56L14.0107 5.32L13.394 4.28L11.4123 5.112C10.7662 4.38426 9.88976 3.88614 8.92086 3.696L8.61662 1.6H7.38322Z" fill="#9CA3AF"/>
</g>
<defs>
<clipPath id="clip0_110_46366">
<rect width="16" height="16" fill="white"/>
</clipPath>
</defs>
</svg>
