<svg width="16" height="16" viewBox="0 0 16 16" fill="none" xmlns="http://www.w3.org/2000/svg">
<path fill-rule="evenodd" clip-rule="evenodd" d="M10.6676 14.0025H5.33204C3.4906 14.0025 1.99731 12.5092 1.99731 10.6678V5.33222C1.99731 3.49079 3.4906 1.9975 5.33204 1.9975H10.6676C12.509 1.9975 14.0023 3.49079 14.0023 5.33222V10.6678C14.0023 12.5092 12.509 14.0025 10.6676 14.0025Z" stroke="#9CA3AF" stroke-width="1.5" stroke-linecap="round" stroke-linejoin="round"/>
<path d="M7.99907 5.33223C7.90703 5.33223 7.83233 5.40693 7.833 5.49897C7.833 5.59101 7.9077 5.66571 7.99973 5.66571C8.09177 5.66571 8.16647 5.59101 8.16647 5.49897C8.16647 5.40693 8.09177 5.33223 7.99907 5.33223" stroke="#9CA3AF" stroke-width="1.5" stroke-linecap="round" stroke-linejoin="round"/>
<path d="M8.16646 10.7905V7.6225H7.49951" stroke="#9CA3AF" stroke-width="1.5" stroke-linecap="round" stroke-linejoin="round"/>
</svg>
