<svg width="24" height="24" viewBox="0 0 24 24" fill="none" xmlns="http://www.w3.org/2000/svg">
<path fill-rule="evenodd" clip-rule="evenodd" d="M11 19.9985V11.6689C11 11.127 10.7077 10.6272 10.2354 10.3615L4.49026 7.12989C4.18062 6.95572 3.80182 6.9589 3.49515 7.13826C3.18848 7.31761 3 7.6462 3 8.00147V16.3311C3 16.873 3.29229 17.3728 3.76461 17.6385L9.50974 20.8701C9.81938 21.0443 10.1982 21.0411 10.5048 20.8618C10.8115 20.6824 11 20.3538 11 19.9985V19.9985Z" stroke="#46B955" stroke-width="1.5" stroke-linecap="round" stroke-linejoin="round"/>
<path d="M8 9.10412V6.00286C8.00003 5.64761 8.18852 5.31905 8.49517 5.13971C8.80182 4.96037 9.1806 4.95719 9.49023 5.13134L15.2354 8.36299C15.7077 8.62867 16 9.12844 16 9.67034V18C16 18.3552 15.8115 18.6838 15.5049 18.8632C15.1982 19.0425 14.8194 19.0457 14.5098 18.8716L11 16.8973" stroke="#46B955" stroke-width="1.5" stroke-linecap="round" stroke-linejoin="round"/>
<path d="M13 7.10558V4.00145C13 3.6462 13.1885 3.31761 13.4951 3.13826C13.8018 2.95891 14.1806 2.95571 14.4902 3.12987L20.2354 6.3615C20.7077 6.62719 21 7.12696 21 7.66887V15.9985C21 16.3538 20.8115 16.6824 20.5049 16.8617C20.1982 17.0411 19.8194 17.0443 19.5098 16.8701L16 14.8959" stroke="#46B955" stroke-width="1.5" stroke-linecap="round" stroke-linejoin="round"/>
</svg>