<svg width="484" height="338" viewBox="0 0 484 338" fill="none" xmlns="http://www.w3.org/2000/svg">
<path d="M442.28 159.81L477.19 202.87H445.84V334.43H38.38V202.87H7L41.91 159.81L114.43 70.34L120.15 63.28L242.1 4L364.04 63.28L369.76 70.34L442.28 159.8V159.81ZM355.56 322.57V184.76H253.92V322.57H355.56ZM184.67 112.01H299.52C299.62 104.405 298.209 96.856 295.368 89.8009C292.527 82.7458 288.314 76.3252 282.971 70.9119C277.629 65.4985 271.264 61.2003 264.247 58.2666C257.23 55.3329 249.701 53.8222 242.095 53.8222C234.489 53.8222 226.96 55.3329 219.943 58.2666C212.926 61.2003 206.561 65.4985 201.219 70.9119C195.876 76.3252 191.663 82.7458 188.822 89.8009C185.981 96.856 184.57 104.405 184.67 112.01ZM230.27 322.57V184.76H128.63V322.57H230.27Z" fill="#C1361C"/>
<path d="M355.56 184.76H253.92V322.57H355.56V184.76Z" fill="white"/>
<path d="M299.52 112.01H184.67C184.57 104.405 185.981 96.856 188.822 89.8009C191.663 82.7458 195.876 76.3253 201.219 70.9119C206.561 65.4986 212.926 61.2004 219.943 58.2667C226.96 55.333 234.489 53.8223 242.095 53.8223C249.701 53.8223 257.23 55.333 264.247 58.2667C271.264 61.2004 277.629 65.4986 282.971 70.9119C288.314 76.3253 292.527 82.7458 295.368 89.8009C298.209 96.856 299.62 104.405 299.52 112.01Z" fill="white"/>
<path d="M230.27 184.76H128.63V322.57H230.27V184.76Z" fill="white"/>
<!-- <path d="M477.19 202.87H445.81V334.44H38.38V202.87H7L41.91 159.81L114.43 70.34H114.44L120.16 63.28L242.1 4L364.04 63.28L369.76 70.34L442.28 159.8V159.81L477.19 202.87Z" stroke="white" stroke-width="6" stroke-miterlimit="10"/> -->
<path d="M184.67 112.01C184.57 104.405 185.981 96.856 188.822 89.8009C191.663 82.7458 195.876 76.3253 201.219 70.9119C206.561 65.4986 212.926 61.2004 219.943 58.2667C226.96 55.333 234.489 53.8223 242.095 53.8223C249.701 53.8223 257.23 55.333 264.247 58.2667C271.264 61.2004 277.629 65.4986 282.971 70.9119C288.314 76.3253 292.527 82.7458 295.368 89.8009C298.209 96.856 299.62 104.405 299.52 112.01H184.67Z" stroke="#BABABA" stroke-width="3" stroke-miterlimit="10"/>
<path d="M230.27 184.76H128.63V322.57H230.27V184.76Z" stroke="#BABABA" stroke-width="4" stroke-miterlimit="10"/>
<path d="M355.56 184.76H253.92V322.57H355.56V184.76Z" stroke="#BABABA" stroke-width="4" stroke-miterlimit="10"/>
<path d="M128.63 184.75L230.27 322.57" stroke="#BABABA" stroke-width="3" stroke-miterlimit="10"/>
<path d="M230.27 184.75L128.63 322.57" stroke="#BABABA" stroke-width="3" stroke-miterlimit="10"/>
<path d="M355.56 184.75L253.92 322.57" stroke="#BABABA" stroke-width="3" stroke-miterlimit="10"/>
<path d="M253.92 184.75L355.56 322.57" stroke="#BABABA" stroke-width="3" stroke-miterlimit="10"/>
</svg>
