<svg width="192" height="370" viewBox="0 0 192 370" fill="none" xmlns="http://www.w3.org/2000/svg">
<path d="M171.985 57.4089H20.015V55.3039C21.6763 26.5995 55.6936 2.48779 95.8815 2.48779C136.069 2.48779 170.008 26.2168 171.669 55.3039L171.985 57.4089ZM25.0781 53.5817H166.922C163.916 27.5563 132.668 6.69777 95.7233 6.69777C58.7789 6.69777 28.0842 27.5563 25.0781 53.5817Z" fill="white"/>
<path d="M189.864 57.409H167.16V55.4953C166.131 31.9577 141.053 12.1517 109.647 7.65463L105.375 7.17623C103.001 7.17623 100.628 7.17622 98.2548 6.69782H93.6665C91.3723 6.69782 88.999 6.69782 86.6257 7.17623L82.3537 7.65463C50.7097 12.1517 26.2647 31.9577 24.9198 55.4953V57.409H2.21527V55.591C2.21527 42.674 10.1263 12.1517 82.1164 3.63601C85.8969 3.07268 89.6996 2.75329 93.5082 2.6792H98.4922C102.301 2.75329 106.103 3.07268 109.884 3.63601C181.953 12.1517 189.864 42.674 189.864 55.591V57.409ZM171.669 53.5817H184.959C183.694 32.7232 163.521 21.05 142.398 14.448C158.853 23.8248 170.008 38.2727 171.669 53.5817ZM7.04098 53.5817H20.3315C21.9928 38.2727 33.1473 23.8248 49.444 14.448C28.4798 21.05 8.30674 32.7232 7.04098 53.5817Z" fill="#F46E66"/>
<path d="M122.779 57.4087H69.2213V55.5907C69.2213 16.6484 85.4388 6.12345 92.4005 3.34869C94.7352 2.39354 97.2648 2.39354 99.5995 3.34869C106.561 6.12345 122.779 16.6484 122.779 55.5907V57.4087ZM74.047 53.5814H117.953C117.953 42.1953 115.342 13.9693 97.5426 6.98458C96.5385 6.60263 95.4615 6.60263 94.4573 6.98458C76.6576 13.9693 74.2843 42.1953 74.047 53.5814Z" fill="#F46E66"/>
<path opacity="0.5" d="M24.9196 57.6958H20.173V363.207H24.9196V57.6958Z" fill="#F46E66"/>
<path d="M189.785 54.0601H2.21527V59.801H189.785V54.0601Z" fill="#F46E66"/>
<path d="M189.785 360.336H2.21527V366.077H189.785V360.336Z" fill="#F46E66"/>
<path d="M6.96187 57.6958H2.21527V363.207H6.96187V57.6958Z" fill="#F46E66"/>
<path opacity="0.5" d="M171.827 57.6958H167.08V363.207H171.827V57.6958Z" fill="#F46E66"/>
<path opacity="0.5" d="M122.699 53.5815H117.953V359.092H122.699V53.5815Z" fill="#F46E66"/>
<path opacity="0.5" d="M73.9679 53.5815H69.2213V359.092H73.9679V53.5815Z" fill="#F46E66"/>
<path d="M189.785 57.6958H185.038V363.207H189.785V57.6958Z" fill="#F46E66"/>
</svg>
