<svg width="184" height="163" viewBox="0 0 184 163" fill="none" xmlns="http://www.w3.org/2000/svg">
<path d="M118.915 87.7448C119.885 87.2061 133.675 79.3416 129.689 55.4249L130.12 54.563L180 84.1537L118.915 87.7448Z" fill="#FFF1B6" stroke="#F7CF2D" stroke-width="2" stroke-miterlimit="10"/>
<path d="M100.062 108.034C100.96 108.608 114.714 116.616 133.352 101.139H134.249L133.675 159.135L100.062 108.034Z" fill="#FFF1B6" stroke="#F7CF2D" stroke-width="2" stroke-miterlimit="10"/>
<path d="M73.2006 101.786C73.2006 102.863 73.2006 118.772 95.7886 127.175L96.3273 127.965L45.7286 156.478L73.2006 101.786Z" fill="#FFF1B6" stroke="#F7CF2D" stroke-width="2" stroke-miterlimit="10"/>
<path d="M65.0847 75.3188C64.1151 75.8216 50.3252 83.722 54.3114 107.639L53.8804 108.501L4 78.9459L65.0847 75.3188Z" fill="#FFF1B6" stroke="#F7CF2D" stroke-width="2" stroke-miterlimit="10"/>
<path d="M83.9738 55.1373C83.0401 54.5627 69.2862 46.5546 50.6484 61.9963H49.7147L50.2892 4L83.9738 55.1373Z" fill="#FFF1B6" stroke="#F7CF2D" stroke-width="2" stroke-miterlimit="10"/>
<path d="M110.871 61.3859C110.871 60.3085 110.871 44.4 88.2832 35.9968L87.7446 35.2067L138.271 6.69336L110.871 61.3859Z" fill="#FFF1B6" stroke="#F7CF2D" stroke-width="2" stroke-miterlimit="10"/>
</svg>
