<svg width="77" height="77" viewBox="0 0 77 77" xmlns="http://www.w3.org/2000/svg">
<path fill-rule="evenodd" clip-rule="evenodd" d="M38.2 0.000433848C59.4 0.000433848 76.5 17.1004 76.5 38.4004C76.5 59.4004 59.2 76.7004 37.9 76.6004C17.3 76.4004 0 59.4004 0 38.3004C0 17.1004 17 -0.0995662 38.2 0.000433848ZM9.1 58.3004C9.1 58.7004 9.3 58.9004 9.5 59.2004C11 61.3004 12.7 63.3004 14.7 65.0004C15.6 65.8004 16.5 66.6004 17.5 67.3004C20.3 69.1004 23.2 70.8004 26.4 71.9004C29 72.8004 31.7 73.5004 34.4 73.8004C36.5 74.0004 38.7 74.1004 40.8 73.8004C42 73.6004 43.3 73.6004 44.5 73.1004C44.7 73.2004 44.8 73.0004 44.9 73.0004C47.4 72.6004 49.8 71.8004 52.2 70.8004C60 67.4004 65.9 61.9004 69.7 54.3004C73.1 47.6004 74.2 40.5004 73.1 33.1004C72.1 26.0004 69.1 19.8004 64.3 14.6004C57.9 7.30043 49.7 3.50044 40 2.90044C35.7 2.60044 31.4 3.20043 27.3 4.60043C20.6 6.80043 15.1 10.6004 10.6 16.1004C5.5 22.4004 3 29.6004 2.7 37.6004C2.6 39.6004 2.8 41.5004 3.1 43.5004C3.7 48.0004 5.2 52.3004 7.5 56.2004C8.1 56.8004 8.5 57.6004 9.1 58.3004Z" fill="current"/>
<path fill-rule="evenodd" clip-rule="evenodd" d="M44.5001 73.0005C43.3001 73.6005 42.0001 73.6005 40.8001 73.7005C38.7001 74.0005 36.5001 73.9005 34.4001 73.7005C31.7001 73.4005 29.0001 72.7005 26.4001 71.8005C23.2001 70.7005 20.3001 69.0005 17.5001 67.2005C16.5001 66.5005 15.6001 65.7005 14.7001 64.9005C12.7001 63.2005 11.0001 61.2005 9.5001 59.1005C9.3001 58.8005 9.1001 58.5005 9.1001 58.2005C11.5001 52.8005 12.4001 47.1005 12.9001 41.3005C13.1001 38.6005 13.2001 35.9005 13.7001 33.2005C14.2001 30.1005 15.4001 27.3005 17.6001 24.9005C19.6001 22.8005 22.1001 21.4005 24.8001 20.4005C27.0001 19.5005 29.3001 18.7005 31.8001 18.6005C34.1001 18.5005 36.3001 18.8005 38.5001 19.3005C41.8001 20.1005 45.1001 21.1005 48.2001 22.6005C50.7001 23.6005 53.3001 24.6005 55.9001 25.4005C58.6001 26.2005 61.3001 27.1005 63.6001 28.8005C66.5001 31.0005 67.3001 33.8005 66.0001 37.2005C65.2001 39.3005 63.7001 40.9005 62.2001 42.5005C59.5001 45.3005 56.6001 47.9005 54.0001 50.8005C51.0001 54.3005 48.3001 57.9005 46.4001 62.1005C44.8001 65.6005 43.9001 69.2005 44.5001 73.0005ZM63.8001 40.1005C63.7001 40.1005 63.6001 40.1005 63.5001 40.2005C63.4001 40.2005 63.3001 40.3005 63.3001 40.4005C63.3001 40.4005 63.3001 40.4005 63.3001 40.5005C63.4001 40.5005 63.5001 40.4005 63.5001 40.3005L63.8001 40.1005C64.0001 40.1005 63.9001 40.1005 63.8001 40.1005C63.8001 40.1005 63.9001 40.0005 63.8001 40.1005ZM33.2001 22.7005C29.4001 22.7005 26.3001 25.8005 26.3001 29.5005C26.3001 33.3005 29.4001 36.3005 33.1001 36.4005C36.9001 36.4005 39.9001 33.3005 40.0001 29.5005C40.0001 25.7005 37.0001 22.7005 33.2001 22.7005ZM38.8001 43.7005C39.4001 44.6005 40.5001 45.4005 41.8001 45.8005C44.4001 46.7005 47.0001 46.7005 49.6001 46.2005C54.2001 45.3005 58.5001 43.7005 62.4001 41.1005C62.6001 40.9005 63.0001 40.9005 63.1001 40.5005C62.9001 40.4005 62.8001 40.5005 62.7001 40.6005C61.4001 41.4005 60.0001 42.0005 58.6001 42.6005C55.0001 44.1005 51.2001 45.1005 47.2001 45.3005C44.3001 45.5005 41.4001 45.3005 38.8001 43.7005ZM57.7001 37.8005C58.5001 37.8005 59.2001 37.1005 59.2001 36.2005C59.2001 35.4005 58.5001 34.7005 57.6001 34.8005C56.8001 34.8005 56.2001 35.5005 56.2001 36.3005C56.2001 37.2005 56.8001 37.8005 57.7001 37.8005Z" fill="current"/>
<path fill-rule="evenodd" clip-rule="evenodd" d="M38.7999 43.7004C41.3999 45.3004 44.2999 45.5004 47.1999 45.4004C51.1999 45.2004 54.9999 44.3004 58.5999 42.7004C59.9999 42.1004 61.3999 41.5004 62.6999 40.7004C62.7999 40.6004 62.8999 40.5004 63.0999 40.6004C62.9999 40.9004 62.6999 41.0004 62.3999 41.2004C58.4999 43.8004 54.1999 45.4004 49.5999 46.3004C46.9999 46.8004 44.2999 46.8004 41.7999 45.9004C40.4999 45.4004 39.2999 44.6004 38.7999 43.7004ZM38.3999 19.3004C40.4999 18.7004 42.6999 18.5004 44.7999 19.3004C46.3999 19.9004 47.5999 21.0004 48.0999 22.7004C45.0999 21.1004 41.7999 20.1004 38.3999 19.3004Z" fill="current"/>
<path fill-rule="evenodd" clip-rule="evenodd" d="M63.4998 40.3003C63.4998 40.4003 63.3998 40.5003 63.2998 40.5003C63.2998 40.3003 63.3998 40.2003 63.4998 40.3003ZM63.7998 40.1003L63.4998 40.3003L63.3998 40.2003C63.5998 40.1003 63.6998 40.1003 63.7998 40.1003Z" fill="current"/>
<path fill-rule="evenodd" clip-rule="evenodd" d="M37.9999 29.6004C37.9999 32.2004 35.8999 34.4004 33.2999 34.4004H33.1999C30.5999 34.4004 28.3999 32.3004 28.3999 29.6004V29.5004C28.3999 26.8004 30.5999 24.7004 33.1999 24.7004C35.7999 24.7004 37.9999 26.9004 37.9999 29.6004Z" fill="current"/>
</svg>
