<svg width="102" height="104" viewBox="0 0 102 104" xmlns="http://www.w3.org/2000/svg">
<path d="M88.4 61.7C86.6 62.8 84.5 63 82.9 62.1C80.9 60.9 79.7 58.2 79.7 54.5V43.2C79.7 37.8 77.6 33.9 74 32.9C67.9 31.1 63.3 38.6 61.6 41.4L50.8 58.7V37.4C50.7 32.5 49.1 29.6 46.1 28.7C44.1 28.1 41.1 28.4 38.2 32.8L14.1 71.4C10.9 65.3 9.2 58.5 9.2 51.6C9.2 28.3 27.9 9.39999 50.8 9.39999C73.7 9.39999 92.4 28.3 92.4 51.6V51.7V51.8C92.6 56.3 91.2 59.9 88.4 61.7ZM101.6 51.6V51.5V51.4C101.5 23.1 78.7 0 50.8 0C22.8 0 0 23.1 0 51.6C0 80 22.8 103.2 50.8 103.2C63.7 103.2 75.9 98.3 85.3 89.4C87.2 87.6 87.3 84.7 85.5 82.8C83.8 80.9 80.9 80.8 79 82.5C79 82.5 79 82.5 78.9 82.6C71.3 89.8 61.1 93.9 50.6 93.9C38.3 93.9 27.3 88.5 19.7 79.9L41.4 45.1V61.2C41.4 68.9 44.4 71.4 46.9 72.1C49.4 72.8 53.2 72.3 57.3 65.8L69.2 46.5C69.6 45.9 69.9 45.3 70.3 44.9V54.7C70.3 61.9 73.2 67.7 78.2 70.5C82.7 73.1 88.4 72.8 93.1 69.9C98.9 66.1 102 59.5 101.6 51.6Z" fill="current"/>
</svg>
