<svg width="33" height="32" viewBox="0 0 33 32" xmlns="http://www.w3.org/2000/svg">
<path d="M5.37438 9.34397C7.95465 9.34397 10.0464 7.25225 10.0464 4.67199C10.0464 2.09172 7.95465 0 5.37438 0C2.79411 0 0.702393 2.09172 0.702393 4.67199C0.702393 7.25225 2.79411 9.34397 5.37438 9.34397Z" fill="inherit"/>
<path d="M16.5872 9.34397C19.1675 9.34397 21.2592 7.25225 21.2592 4.67199C21.2592 2.09172 19.1675 0 16.5872 0C14.007 0 11.9152 2.09172 11.9152 4.67199C11.9152 7.25225 14.007 9.34397 16.5872 9.34397Z" fill="inherit"/>
<path d="M27.8001 9.34397C30.3803 9.34397 32.4721 7.25225 32.4721 4.67199C32.4721 2.09172 30.3803 0 27.8001 0C25.2198 0 23.1281 2.09172 23.1281 4.67199C23.1281 7.25225 25.2198 9.34397 27.8001 9.34397Z" fill="inherit"/>
<path d="M5.37438 20.5568C7.95465 20.5568 10.0464 18.4651 10.0464 15.8848C10.0464 13.3046 7.95465 11.2129 5.37438 11.2129C2.79411 11.2129 0.702393 13.3046 0.702393 15.8848C0.702393 18.4651 2.79411 20.5568 5.37438 20.5568Z" fill="inherit"/>
<path d="M27.8001 20.5568C30.3803 20.5568 32.4721 18.4651 32.4721 15.8848C32.4721 13.3046 30.3803 11.2129 27.8001 11.2129C25.2198 11.2129 23.1281 13.3046 23.1281 15.8848C23.1281 18.4651 25.2198 20.5568 27.8001 20.5568Z" fill="inherit"/>
<path d="M5.37438 31.7697C7.95465 31.7697 10.0464 29.678 10.0464 27.0977C10.0464 24.5174 7.95465 22.4257 5.37438 22.4257C2.79411 22.4257 0.702393 24.5174 0.702393 27.0977C0.702393 29.678 2.79411 31.7697 5.37438 31.7697Z" fill="inherit"/>
<path d="M16.5872 31.7697C19.1675 31.7697 21.2592 29.678 21.2592 27.0977C21.2592 24.5174 19.1675 22.4257 16.5872 22.4257C14.007 22.4257 11.9152 24.5174 11.9152 27.0977C11.9152 29.678 14.007 31.7697 16.5872 31.7697Z" fill="inherit"/>
<path d="M16.5868 10.9822L11.6843 15.8847L16.5868 20.7871L21.4893 15.8847L16.5868 10.9822Z" fill="inherit"/>
<path d="M27.7996 22.195L22.8971 27.0975L27.7996 32L32.7021 27.0975L27.7996 22.195Z" fill="inherit"/>
</svg>
