<svg width="256" height="146" viewBox="0 0 256 146" xmlns="http://www.w3.org/2000/svg">
<path d="M72.2009 0C112.076 0 144.399 32.5485 144.399 72.6964C144.399 112.844 112.074 145.39 72.2009 145.39C32.3278 145.39 0 112.844 0 72.6964C0 32.5485 32.3253 0 72.2009 0ZM187.501 4.25837C207.438 4.25837 223.601 34.896 223.601 72.6964H223.604C223.604 110.487 207.441 141.134 187.503 141.134C167.565 141.134 151.403 110.487 151.403 72.6964C151.403 34.9059 167.563 4.25837 187.501 4.25837ZM243.303 11.3867C250.314 11.3867 256 38.8355 256 72.6964C256 106.547 250.316 134.006 243.303 134.006C236.29 134.006 230.609 106.555 230.609 72.6964C230.609 38.838 236.293 11.3867 243.303 11.3867Z" fill="current"/>
</svg>
