<svg width="90" height="90" viewBox="0 0 90 90" xmlns="http://www.w3.org/2000/svg">
<g clip-path="url(#clip0_51:607)">
<path fill-rule="evenodd" clip-rule="evenodd" d="M0 45C0 20.0001 20 0 45 0C70 0 90 20 89.9999 45C89.9999 70 70 90 45 90.0001C20 90.0001 0 70 0 45ZM74.3798 52.8137V49.9149C74.3798 49.6467 74.1209 49.4525 73.8666 49.5265L60.177 53.4841C60.1031 53.5026 60.0383 53.5442 59.9875 53.5997C58.5209 55.2196 57.2746 56.3067 56.9448 56.5943L56.9222 56.6141C56.0715 57.3353 55.0174 57.7283 53.9078 57.7283H48.9516V52.675H52.8907C52.9924 52.675 53.0895 52.638 53.1634 52.5733L53.672 52.1063C53.8893 51.9075 54.1482 51.6671 54.458 51.3573C54.6429 51.1724 54.8463 50.9736 55.0451 50.7517C55.2486 50.5529 55.4474 50.331 55.6323 50.1137C55.9421 49.7808 56.238 49.434 56.5477 49.0688C56.7696 48.8284 56.9731 48.5556 57.1719 48.2828C57.3938 48.0239 57.6111 47.7327 57.8145 47.4553C57.9625 47.238 58.1289 47.016 58.2907 46.7802C58.4387 46.5583 58.5866 46.3225 58.7114 46.1006C59.0998 45.4996 59.4281 44.8569 59.7055 44.2143C59.8488 43.9045 59.9597 43.5763 60.0707 43.2619C60.1817 42.9336 60.2741 42.6239 60.3435 42.2956C60.5099 41.5235 60.5469 40.756 60.4729 39.9886C60.4544 39.7482 60.4359 39.5124 60.3805 39.2904V39.2535C60.362 39.0963 60.325 38.9206 60.2741 38.7588C60.1077 38.0098 59.8488 37.2608 59.5205 36.5257C59.4096 36.2529 59.2801 35.9755 59.1553 35.7212C58.8594 35.1711 58.5496 34.6209 58.1983 34.0892C58.0734 33.8904 57.9255 33.687 57.796 33.4882C57.5232 33.0674 57.2089 32.6652 56.9176 32.2769C56.6957 31.9856 56.4414 31.6943 56.201 31.3984C55.9606 31.1071 55.7248 30.8297 55.4844 30.557C54.6244 29.5861 53.7229 28.7076 52.9184 27.9587C52.7705 27.8107 52.6086 27.6628 52.4422 27.5194C51.818 26.9508 51.2494 26.4561 50.7732 26.0723C50.5328 25.8874 50.334 25.7071 50.149 25.5591C49.9132 25.3835 49.7283 25.2401 49.5989 25.143C49.5619 25.1153 49.5203 25.0968 49.4786 25.0829L48.9516 24.935V20.5706C48.9516 19.8586 48.6649 19.2206 48.2072 18.7536C47.7495 18.2866 47.1115 18 46.4088 18C45.0033 18 43.8659 19.1512 43.8659 20.5706V23.511L43.6024 23.437L42.8858 23.2336L42.2339 23.0533C42.2293 23.0533 42.2246 23.0487 42.2154 23.0487H42.2015L37.2545 21.7079C37.0373 21.6478 36.8523 21.8836 36.9633 22.0824L37.7539 23.5434C37.8278 23.7283 37.9342 23.9132 38.0267 24.112C38.1561 24.371 38.2856 24.6437 38.4104 24.9165C38.5213 25.1569 38.6323 25.3927 38.7618 25.6516C39.016 26.2203 39.2934 26.8213 39.5662 27.4825L39.568 27.4869C39.7523 27.9246 39.9366 28.3624 40.0979 28.8186C40.5417 29.9698 40.9625 31.1996 41.3277 32.4618C41.4572 32.864 41.5496 33.2478 41.6606 33.65L41.7114 33.8719C41.8594 34.4591 41.9888 35.0416 42.0813 35.6288C42.1553 36.031 42.2246 36.4147 42.2616 36.8031C42.3171 37.2423 42.3726 37.6815 42.3911 38.1207C42.4281 38.523 42.4466 38.9437 42.4466 39.3459C42.4466 40.3723 42.3541 41.3617 42.1368 42.2956C42.0628 42.5684 41.9888 42.8597 41.8964 43.1371C41.8039 43.4653 41.6745 43.7936 41.5496 44.1449L41.5337 44.1878C41.465 44.373 41.395 44.5615 41.3092 44.746C40.8515 45.8463 40.2828 46.9421 39.6957 47.9684C38.8357 49.4895 37.9712 50.8257 37.3655 51.6856C37.2823 51.8104 37.2037 51.9214 37.1344 52.0277C36.9448 52.2959 37.139 52.675 37.4672 52.675H43.8659V57.7283H37.3933C35.6549 57.7283 34.046 56.7435 33.2692 55.167C32.867 54.3764 32.7098 53.5072 32.8023 52.6565C32.8254 52.4022 32.6358 52.1618 32.3769 52.1618H19.3022C19.0802 52.1618 18.8999 52.3421 18.8999 52.564V52.8322C18.8999 61.1727 25.6361 67.9321 33.9489 67.9321H57.403C63.025 67.9321 65.54 61.3807 68.8318 56.799C70.1217 55.0052 73.224 53.5812 74.1302 53.1928C74.2781 53.1281 74.3798 52.9801 74.3798 52.8137ZM34.1 27.89C34.3378 27.3609 34.5686 27.4604 34.8 27.94C37 32.5 38.5 38.5 37.66 41.17C36.82 43.84 36 45 35.35 46.21C34.9592 46.9374 34.888 47.0164 34.888 47.0164C34.8316 47.0896 34.7187 47.13 34.58 47.13C34.4412 47.13 22.7462 47.1796 22.54 47.13C22.3337 47.0803 22 46.8118 22.2 46.51C22.4 46.2082 22.4 46.21 22.4 46.21C22.4 46.21 33.8622 28.4191 34.1 27.89Z" fill="current"/>
</g>
<defs>
<clipPath id="clip0_51:607">
<rect width="90" height="90" fill="white"/>
</clipPath>
</defs>
</svg>
